<svg width="25" height="74" viewBox="0 0 25 74" fill="none" xmlns="http://www.w3.org/2000/svg">
<mask id="path-1-outside-1_1_22" maskUnits="userSpaceOnUse" x="-1" y="-1" width="27" height="76" fill="black">
<rect fill="white" x="-1" y="-1" width="27" height="76"/>
<path d="M9.08545 74V17.7207C8.08936 18.9105 6.71973 19.8789 4.97656 20.626C3.2334 21.3454 1.58708 21.7051 0.0375977 21.7051V10.0425C1.50407 9.82113 3.08122 9.35075 4.76904 8.63135C6.45687 7.88428 8.02018 6.87435 9.45898 5.60156C10.9255 4.30111 12.0461 2.73779 12.8208 0.911621H24.5664V74H9.08545Z"/>
</mask>
<path d="M9.08545 74H8.08545V75H9.08545V74ZM9.08545 17.7207H10.0854V14.9685L8.31869 17.0788L9.08545 17.7207ZM4.97656 20.626L5.35808 21.5504L5.37048 21.5451L4.97656 20.626ZM0.0375977 21.7051H-0.962402V22.7051H0.0375977V21.7051ZM0.0375977 10.0425L-0.111655 9.05368L-0.962402 9.18209V10.0425H0.0375977ZM4.76904 8.63135L5.16118 9.55136L5.17379 9.54578L4.76904 8.63135ZM9.45898 5.60156L10.1216 6.35056L10.1225 6.34975L9.45898 5.60156ZM12.8208 0.911621V-0.0883789H12.1588L11.9002 0.52107L12.8208 0.911621ZM24.5664 0.911621H25.5664V-0.0883789H24.5664V0.911621ZM24.5664 74V75H25.5664V74H24.5664ZM10.0854 74V17.7207H8.08545V74H10.0854ZM8.31869 17.0788C7.44335 18.1243 6.21308 19.0081 4.58264 19.7068L5.37048 21.5451C7.22638 20.7497 8.73536 19.6967 9.85221 18.3626L8.31869 17.0788ZM4.59507 19.7016C2.94733 20.3816 1.43111 20.7051 0.0375977 20.7051V22.7051C1.74305 22.7051 3.51947 22.3091 5.35805 21.5504L4.59507 19.7016ZM1.0376 21.7051V10.0425H-0.962402V21.7051H1.0376ZM0.18685 11.0313C1.75383 10.7948 3.41316 10.2963 5.16114 9.55127L4.37694 7.71143C2.74928 8.40519 1.25431 8.8475 -0.111655 9.05368L0.18685 11.0313ZM5.17379 9.54578C6.95932 8.75546 8.60898 7.68861 10.1216 6.35056L8.79641 4.85257C7.43139 6.06009 5.95441 7.0131 4.3643 7.71692L5.17379 9.54578ZM10.1225 6.34975C11.7015 4.94945 12.9093 3.26347 13.7414 1.30217L11.9002 0.52107C11.1828 2.21212 10.1494 3.65277 8.7955 4.85337L10.1225 6.34975ZM12.8208 1.91162H24.5664V-0.0883789H12.8208V1.91162ZM23.5664 0.911621V74H25.5664V0.911621H23.5664ZM24.5664 73H9.08545V75H24.5664V73Z" fill="#6E81A0" mask="url(#path-1-outside-1_1_22)"/>
</svg>
