<svg width="39" height="74" viewBox="0 0 39 74" fill="none" xmlns="http://www.w3.org/2000/svg">
<mask id="path-1-outside-1_1_27" maskUnits="userSpaceOnUse" x="-1" y="-1" width="41" height="76" fill="black">
<rect fill="white" x="-1" y="-1" width="41" height="76"/>
<path d="M0.573242 74V70.5137C0.573242 66.889 1.12663 63.6379 2.2334 60.7603C3.36784 57.855 4.82048 55.1711 6.59131 52.7085C8.36214 50.2183 10.2298 47.7834 12.1943 45.4038C14.1035 43.0796 15.9159 40.7 17.6313 38.2651C19.3745 35.8026 20.7856 33.1463 21.8647 30.2964C22.9715 27.4188 23.5249 24.1953 23.5249 20.626C23.5249 18.9105 23.262 17.444 22.7363 16.2266C22.2383 14.9814 21.1868 14.3589 19.582 14.3589C17.1471 14.3589 15.9297 16.5309 15.9297 20.875V29.7983H0.573242C0.545573 29.1619 0.504069 28.4425 0.44873 27.6401C0.421061 26.8377 0.407227 26.063 0.407227 25.3159C0.407227 20.0588 0.960612 15.604 2.06738 11.9517C3.17415 8.27165 5.12484 5.47705 7.91943 3.56787C10.7417 1.63102 14.6984 0.662598 19.7896 0.662598C25.8491 0.662598 30.5529 2.36426 33.9009 5.76758C37.2765 9.1709 38.9644 14.0269 38.9644 20.3354C38.9644 24.6242 38.411 28.3872 37.3042 31.6245C36.1974 34.8341 34.731 37.7671 32.9048 40.4233C31.0786 43.0519 29.0726 45.6805 26.8867 48.3091C25.3372 50.1629 23.8293 52.0583 22.3628 53.9951C20.924 55.932 19.6512 58.0072 18.5444 60.2207H38.4663V74H0.573242Z"/>
</mask>
<path d="M0.573242 74H-0.426758V75H0.573242V74ZM2.2334 60.7603L1.30188 60.3965L1.30005 60.4013L2.2334 60.7603ZM6.59131 52.7085L7.4032 53.2923L7.40626 53.288L6.59131 52.7085ZM12.1943 45.4038L12.9655 46.0405L12.9671 46.0386L12.1943 45.4038ZM17.6313 38.2651L16.8151 37.6874L16.8139 37.6892L17.6313 38.2651ZM21.8647 30.2964L20.9314 29.9374L20.9295 29.9423L21.8647 30.2964ZM22.7363 16.2266L21.8079 16.598L21.8129 16.6105L21.8183 16.623L22.7363 16.2266ZM15.9297 29.7983V30.7983H16.9297V29.7983H15.9297ZM0.573242 29.7983L-0.425814 29.8418L-0.384224 30.7983H0.573242V29.7983ZM0.44873 27.6401L-0.550676 27.6746L-0.550083 27.6918L-0.5489 27.7089L0.44873 27.6401ZM2.06738 11.9517L3.02441 12.2417L3.02501 12.2397L2.06738 11.9517ZM7.91943 3.56787L8.48353 4.39358L8.48528 4.39238L7.91943 3.56787ZM33.9009 5.76758L33.188 6.46887L33.1909 6.47179L33.9009 5.76758ZM37.3042 31.6245L38.2496 31.9505L38.2504 31.948L37.3042 31.6245ZM32.9048 40.4233L33.7261 40.9939L33.7288 40.9899L32.9048 40.4233ZM26.8867 48.3091L27.654 48.9504L27.6556 48.9485L26.8867 48.3091ZM22.3628 53.9951L21.5655 53.3915L21.56 53.3988L22.3628 53.9951ZM18.5444 60.2207L17.65 59.7735L16.9264 61.2207H18.5444V60.2207ZM38.4663 60.2207H39.4663V59.2207H38.4663V60.2207ZM38.4663 74V75H39.4663V74H38.4663ZM1.57324 74V70.5137H-0.426758V74H1.57324ZM1.57324 70.5137C1.57324 66.9906 2.11104 63.8641 3.16674 61.1192L1.30005 60.4013C0.14222 63.4116 -0.426758 66.7874 -0.426758 70.5137H1.57324ZM3.1649 61.124C4.26972 58.2946 5.68267 55.6849 7.40319 53.2923L5.77943 52.1247C3.95828 54.6572 2.46596 57.4154 1.30189 60.3965L3.1649 61.124ZM7.40626 53.288C9.16305 50.8175 11.0161 48.4017 12.9655 46.0405L11.4232 44.7672C9.44353 47.165 7.56123 49.619 5.77635 52.129L7.40626 53.288ZM12.9671 46.0386C14.8917 43.6955 16.719 41.2963 18.4488 38.8411L16.8139 37.6892C15.1127 40.1037 13.3153 42.4637 11.4216 44.7691L12.9671 46.0386ZM18.4476 38.8429C20.2402 36.3104 21.6911 33.5789 22.8 30.6505L20.9295 29.9423C19.8802 32.7137 18.5088 35.2947 16.8151 37.6874L18.4476 38.8429ZM22.7981 30.6554C23.9553 27.6467 24.5249 24.299 24.5249 20.626H22.5249C22.5249 24.0917 21.9877 27.1909 20.9314 29.9374L22.7981 30.6554ZM24.5249 20.626C24.5249 18.8125 24.2475 17.2037 23.6544 15.8301L21.8183 16.623C22.2766 17.6843 22.5249 19.0085 22.5249 20.626H24.5249ZM23.6648 15.8552C23.3423 15.049 22.8179 14.4001 22.0837 13.9653C21.3626 13.5384 20.509 13.3589 19.582 13.3589V15.3589C20.2599 15.3589 20.7344 15.4907 21.0647 15.6863C21.382 15.8741 21.6323 16.159 21.8079 16.598L23.6648 15.8552ZM19.582 13.3589C18.8201 13.3589 18.1056 13.5304 17.473 13.9066C16.8415 14.2822 16.3457 14.8294 15.9705 15.499C15.2368 16.8078 14.9297 18.6423 14.9297 20.875H16.9297C16.9297 18.7636 17.2313 17.3401 17.7151 16.4769C17.9485 16.0604 18.2137 15.7931 18.4953 15.6256C18.7757 15.4589 19.1265 15.3589 19.582 15.3589V13.3589ZM14.9297 20.875V29.7983H16.9297V20.875H14.9297ZM15.9297 28.7983H0.573242V30.7983H15.9297V28.7983ZM1.5723 29.7549C1.54418 29.1082 1.50214 28.3801 1.44636 27.5713L-0.5489 27.7089C-0.494001 28.505 -0.453035 29.2157 -0.425814 29.8418L1.5723 29.7549ZM1.44814 27.6057C1.42083 26.8139 1.40723 26.0507 1.40723 25.3159H-0.592773C-0.592773 26.0753 -0.578712 26.8615 -0.550676 27.6746L1.44814 27.6057ZM1.40723 25.3159C1.40723 20.1228 1.9546 15.772 3.02441 12.2417L1.11036 11.6617C-0.033373 15.436 -0.592773 19.9947 -0.592773 25.3159H1.40723ZM3.02501 12.2397C4.07535 8.74731 5.90305 6.15648 8.48353 4.39358L7.35534 2.74216C4.34662 4.79762 2.27296 7.79599 1.10976 11.6637L3.02501 12.2397ZM8.48528 4.39238C11.078 2.61306 14.8075 1.6626 19.7896 1.6626V-0.337402C14.5894 -0.337402 10.4054 0.648981 7.35359 2.74336L8.48528 4.39238ZM19.7896 1.6626C25.6571 1.6626 30.0754 3.30478 33.188 6.46886L34.6138 5.06629C31.0304 1.42373 26.0411 -0.337402 19.7896 -0.337402V1.6626ZM33.1909 6.47179C36.3277 9.63428 37.9644 14.2042 37.9644 20.3354H39.9644C39.9644 13.8495 38.2254 8.70751 34.6109 5.06336L33.1909 6.47179ZM37.9644 20.3354C37.9644 24.5408 37.4214 28.1904 36.358 31.301L38.2504 31.948C39.4005 28.584 39.9644 24.7076 39.9644 20.3354H37.9644ZM36.3588 31.2985C35.2799 34.4274 33.8532 37.2788 32.0807 39.8568L33.7288 40.9899C35.6088 38.2554 37.115 35.2409 38.2496 31.9505L36.3588 31.2985ZM32.0835 39.8528C30.2749 42.4561 28.2865 45.0618 26.1178 47.6697L27.6556 48.9485C29.8587 46.2992 31.8823 43.6477 33.726 40.9939L32.0835 39.8528ZM26.1194 47.6678C24.5596 49.534 23.0416 51.4419 21.5655 53.3915L23.1601 54.5988C24.6169 52.6746 26.1149 50.7918 27.654 48.9504L26.1194 47.6678ZM21.56 53.3988C20.0855 55.3838 18.7822 57.509 17.65 59.7735L19.4389 60.6679C20.5202 58.5053 21.7625 56.4802 23.1655 54.5914L21.56 53.3988ZM18.5444 61.2207H38.4663V59.2207H18.5444V61.2207ZM37.4663 60.2207V74H39.4663V60.2207H37.4663ZM38.4663 73H0.573242V75H38.4663V73Z" fill="#6E81A0" mask="url(#path-1-outside-1_1_27)"/>
</svg>
