<svg width="39" height="75" viewBox="0 0 39 75" fill="none" xmlns="http://www.w3.org/2000/svg">
<mask id="path-1-outside-1_1_32" maskUnits="userSpaceOnUse" x="-1" y="-1" width="41" height="77" fill="black">
<rect fill="white" x="-1" y="-1" width="41" height="77"/>
<path d="M19.0879 74.8301C12.641 74.8301 7.95101 73.1284 5.01807 69.7251C2.08512 66.3218 0.618652 61.1891 0.618652 54.3271V46.6904H15.6016V54.3687C15.6016 56.3055 15.8368 57.9518 16.3071 59.3076C16.8052 60.6357 17.8981 61.2998 19.5859 61.2998C21.3014 61.2998 22.3944 60.5804 22.8647 59.1416C23.3351 57.6751 23.5703 55.2956 23.5703 52.0029V50.1768C23.5703 47.6589 23.1414 45.4591 22.2837 43.5776C21.4536 41.6961 19.8073 40.7554 17.3447 40.7554C17.0404 40.7554 16.7637 40.7692 16.5146 40.7969C16.2933 40.7969 16.0996 40.8107 15.9336 40.8384V27.7231C18.4515 27.7231 20.3745 27.1698 21.7026 26.063C23.0308 24.9285 23.6948 23.047 23.6948 20.4185C23.6948 16.2957 22.505 14.2344 20.1255 14.2344C18.576 14.2344 17.5246 14.8431 16.9712 16.0605C16.4455 17.2503 16.1826 18.7721 16.1826 20.626V22.8257H1.0752C1.04753 22.4937 1.01986 22.0924 0.992188 21.6221C0.992188 21.1517 0.992188 20.6951 0.992188 20.2524C0.992188 13.5565 2.5555 8.64518 5.68213 5.51855C8.80876 2.39193 13.5955 0.828613 20.0425 0.828613C32.4937 0.828613 38.7192 7.30322 38.7192 20.2524C38.7192 23.8494 38.235 26.8239 37.2666 29.1758C36.2982 31.5 34.4997 33.1325 31.8711 34.0732C33.9463 35.0693 35.4819 36.3421 36.478 37.8916C37.4741 39.4411 38.1243 41.3641 38.4287 43.6606C38.7331 45.9572 38.8853 48.738 38.8853 52.0029C38.8853 59.3076 37.3496 64.9383 34.2783 68.895C31.2347 72.8517 26.1712 74.8301 19.0879 74.8301Z"/>
</mask>
<path d="M0.618652 46.6904V45.6904H-0.381348V46.6904H0.618652ZM15.6016 46.6904H16.6016V45.6904H15.6016V46.6904ZM16.3071 59.3076L15.3624 59.6354L15.3664 59.6471L15.3708 59.6587L16.3071 59.3076ZM22.8647 59.1416L23.8153 59.4523L23.817 59.447L22.8647 59.1416ZM22.2837 43.5776L21.3687 43.9813L21.3738 43.9924L22.2837 43.5776ZM16.5146 40.7969V41.7969H16.57L16.6251 41.7908L16.5146 40.7969ZM15.9336 40.8384H14.9336V42.0188L16.098 41.8248L15.9336 40.8384ZM15.9336 27.7231V26.7231H14.9336V27.7231H15.9336ZM21.7026 26.063L22.3429 26.8313L22.3521 26.8234L21.7026 26.063ZM16.9712 16.0605L16.0608 15.6467L16.0565 15.6564L16.9712 16.0605ZM16.1826 22.8257V23.8257H17.1826V22.8257H16.1826ZM1.0752 22.8257L0.0786495 22.9087L0.155062 23.8257H1.0752V22.8257ZM0.992188 21.6221H-0.0078125V21.6515L-0.00608689 21.6808L0.992188 21.6221ZM37.2666 29.1758L38.1897 29.5604L38.1913 29.5565L37.2666 29.1758ZM31.8711 34.0732L31.5341 33.1317L29.2797 33.9386L31.4384 34.9748L31.8711 34.0732ZM38.4287 43.6606L37.4374 43.792L38.4287 43.6606ZM34.2783 68.895L33.4884 68.2818L33.4857 68.2853L34.2783 68.895ZM19.0879 73.8301C12.8016 73.8301 8.4474 72.1726 5.77558 69.0723L4.26055 70.3779C7.45462 74.0842 12.4803 75.8301 19.0879 75.8301V73.8301ZM5.77558 69.0723C3.06335 65.9251 1.61865 61.0709 1.61865 54.3271H-0.381348C-0.381348 61.3074 1.1069 66.7185 4.26055 70.3779L5.77558 69.0723ZM1.61865 54.3271V46.6904H-0.381348V54.3271H1.61865ZM0.618652 47.6904H15.6016V45.6904H0.618652V47.6904ZM14.6016 46.6904V54.3687H16.6016V46.6904H14.6016ZM14.6016 54.3687C14.6016 56.3807 14.8451 58.1445 15.3624 59.6354L17.2519 58.9798C16.8284 57.7591 16.6016 56.2304 16.6016 54.3687H14.6016ZM15.3708 59.6587C15.6894 60.5084 16.2221 61.1952 16.9811 61.6564C17.7266 62.1093 18.616 62.2998 19.5859 62.2998V60.2998C18.8681 60.2998 18.3671 60.1583 18.0196 59.9471C17.6857 59.7442 17.4229 59.435 17.2435 58.9565L15.3708 59.6587ZM19.5859 62.2998C20.5793 62.2998 21.4887 62.0915 22.2421 61.5955C23.0065 61.0924 23.5213 60.3515 23.8152 59.4523L21.9143 58.8309C21.7378 59.3705 21.4709 59.7087 21.1425 59.925C20.8029 60.1485 20.3081 60.2998 19.5859 60.2998V62.2998ZM23.817 59.447C24.3381 57.8222 24.5703 55.3089 24.5703 52.0029H22.5703C22.5703 55.2822 22.3321 57.528 21.9125 58.8362L23.817 59.447ZM24.5703 52.0029V50.1768H22.5703V52.0029H24.5703ZM24.5703 50.1768C24.5703 47.5462 24.1222 45.1997 23.1936 43.1628L21.3738 43.9924C22.1607 45.7186 22.5703 47.7715 22.5703 50.1768H24.5703ZM23.1986 43.174C22.705 42.0551 21.9473 41.1783 20.9225 40.5927C19.9096 40.0139 18.6994 39.7554 17.3447 39.7554V41.7554C18.4527 41.7554 19.2968 41.9672 19.9303 42.3292C20.5518 42.6843 21.0323 43.2187 21.3688 43.9813L23.1986 43.174ZM17.3447 39.7554C17.011 39.7554 16.6967 39.7705 16.4042 39.803L16.6251 41.7908C16.8307 41.7679 17.0697 41.7554 17.3447 41.7554V39.7554ZM16.5146 39.7969C16.2543 39.7969 16.0034 39.813 15.7692 39.852L16.098 41.8248C16.1958 41.8085 16.3323 41.7969 16.5146 41.7969V39.7969ZM16.9336 40.8384V27.7231H14.9336V40.8384H16.9336ZM15.9336 28.7231C18.5814 28.7231 20.7686 28.143 22.3428 26.8312L21.0625 25.2948C19.9804 26.1965 18.3216 26.7231 15.9336 26.7231V28.7231ZM22.3521 26.8234C23.9956 25.4196 24.6948 23.1901 24.6948 20.4185H22.6948C22.6948 22.904 22.066 24.4375 21.0532 25.3026L22.3521 26.8234ZM24.6948 20.4185C24.6948 18.2937 24.394 16.5373 23.6686 15.2805C22.8951 13.9404 21.6727 13.2344 20.1255 13.2344V15.2344C20.9579 15.2344 21.5201 15.559 21.9364 16.2803C22.4008 17.0848 22.6948 18.4205 22.6948 20.4185H24.6948ZM20.1255 13.2344C19.2224 13.2344 18.3882 13.4119 17.6738 13.8255C16.9498 14.2446 16.4145 14.8686 16.0608 15.6467L17.8816 16.4743C18.0812 16.0351 18.3484 15.7459 18.6758 15.5563C19.0128 15.3612 19.4791 15.2344 20.1255 15.2344V13.2344ZM16.0565 15.6564C15.4559 17.0155 15.1826 18.6878 15.1826 20.626H17.1826C17.1826 18.8565 17.435 17.4851 17.8859 16.4647L16.0565 15.6564ZM15.1826 20.626V22.8257H17.1826V20.626H15.1826ZM16.1826 21.8257H1.0752V23.8257H16.1826V21.8257ZM2.07174 22.7426C2.04496 22.4212 2.01783 22.0286 1.99046 21.5633L-0.00608689 21.6808C0.0218818 22.1563 0.0500934 22.5661 0.0786495 22.9087L2.07174 22.7426ZM1.99219 21.6221C1.99219 21.6212 1.99219 21.6202 1.99219 21.6193C1.99219 21.6184 1.99219 21.6175 1.99219 21.6166C1.99219 21.6156 1.99219 21.6147 1.99219 21.6138C1.99219 21.6129 1.99219 21.612 1.99219 21.611C1.99219 21.6101 1.99219 21.6092 1.99219 21.6083C1.99219 21.6074 1.99219 21.6065 1.99219 21.6055C1.99219 21.6046 1.99219 21.6037 1.99219 21.6028C1.99219 21.6019 1.99219 21.6009 1.99219 21.6C1.99219 21.5991 1.99219 21.5982 1.99219 21.5973C1.99219 21.5964 1.99219 21.5954 1.99219 21.5945C1.99219 21.5936 1.99219 21.5927 1.99219 21.5918C1.99219 21.5909 1.99219 21.5899 1.99219 21.589C1.99219 21.5881 1.99219 21.5872 1.99219 21.5863C1.99219 21.5854 1.99219 21.5844 1.99219 21.5835C1.99219 21.5826 1.99219 21.5817 1.99219 21.5808C1.99219 21.5798 1.99219 21.5789 1.99219 21.578C1.99219 21.5771 1.99219 21.5762 1.99219 21.5753C1.99219 21.5743 1.99219 21.5734 1.99219 21.5725C1.99219 21.5716 1.99219 21.5707 1.99219 21.5698C1.99219 21.5688 1.99219 21.5679 1.99219 21.567C1.99219 21.5661 1.99219 21.5652 1.99219 21.5643C1.99219 21.5633 1.99219 21.5624 1.99219 21.5615C1.99219 21.5606 1.99219 21.5597 1.99219 21.5588C1.99219 21.5578 1.99219 21.5569 1.99219 21.556C1.99219 21.5551 1.99219 21.5542 1.99219 21.5533C1.99219 21.5523 1.99219 21.5514 1.99219 21.5505C1.99219 21.5496 1.99219 21.5487 1.99219 21.5478C1.99219 21.5469 1.99219 21.5459 1.99219 21.545C1.99219 21.5441 1.99219 21.5432 1.99219 21.5423C1.99219 21.5414 1.99219 21.5404 1.99219 21.5395C1.99219 21.5386 1.99219 21.5377 1.99219 21.5368C1.99219 21.5359 1.99219 21.535 1.99219 21.534C1.99219 21.5331 1.99219 21.5322 1.99219 21.5313C1.99219 21.5304 1.99219 21.5295 1.99219 21.5285C1.99219 21.5276 1.99219 21.5267 1.99219 21.5258C1.99219 21.5249 1.99219 21.524 1.99219 21.5231C1.99219 21.5221 1.99219 21.5212 1.99219 21.5203C1.99219 21.5194 1.99219 21.5185 1.99219 21.5176C1.99219 21.5167 1.99219 21.5157 1.99219 21.5148C1.99219 21.5139 1.99219 21.513 1.99219 21.5121C1.99219 21.5112 1.99219 21.5103 1.99219 21.5093C1.99219 21.5084 1.99219 21.5075 1.99219 21.5066C1.99219 21.5057 1.99219 21.5048 1.99219 21.5038C1.99219 21.5029 1.99219 21.502 1.99219 21.5011C1.99219 21.5002 1.99219 21.4993 1.99219 21.4984C1.99219 21.4975 1.99219 21.4965 1.99219 21.4956C1.99219 21.4947 1.99219 21.4938 1.99219 21.4929C1.99219 21.492 1.99219 21.4911 1.99219 21.4901C1.99219 21.4892 1.99219 21.4883 1.99219 21.4874C1.99219 21.4865 1.99219 21.4856 1.99219 21.4847C1.99219 21.4837 1.99219 21.4828 1.99219 21.4819C1.99219 21.481 1.99219 21.4801 1.99219 21.4792C1.99219 21.4783 1.99219 21.4774 1.99219 21.4764C1.99219 21.4755 1.99219 21.4746 1.99219 21.4737C1.99219 21.4728 1.99219 21.4719 1.99219 21.471C1.99219 21.4701 1.99219 21.4691 1.99219 21.4682C1.99219 21.4673 1.99219 21.4664 1.99219 21.4655C1.99219 21.4646 1.99219 21.4637 1.99219 21.4627C1.99219 21.4618 1.99219 21.4609 1.99219 21.46C1.99219 21.4591 1.99219 21.4582 1.99219 21.4573C1.99219 21.4564 1.99219 21.4554 1.99219 21.4545C1.99219 21.4536 1.99219 21.4527 1.99219 21.4518C1.99219 21.4509 1.99219 21.45 1.99219 21.4491C1.99219 21.4482 1.99219 21.4472 1.99219 21.4463C1.99219 21.4454 1.99219 21.4445 1.99219 21.4436C1.99219 21.4427 1.99219 21.4418 1.99219 21.4409C1.99219 21.4399 1.99219 21.439 1.99219 21.4381C1.99219 21.4372 1.99219 21.4363 1.99219 21.4354C1.99219 21.4345 1.99219 21.4336 1.99219 21.4327C1.99219 21.4317 1.99219 21.4308 1.99219 21.4299C1.99219 21.429 1.99219 21.4281 1.99219 21.4272C1.99219 21.4263 1.99219 21.4254 1.99219 21.4244C1.99219 21.4235 1.99219 21.4226 1.99219 21.4217C1.99219 21.4208 1.99219 21.4199 1.99219 21.419C1.99219 21.4181 1.99219 21.4172 1.99219 21.4163C1.99219 21.4153 1.99219 21.4144 1.99219 21.4135C1.99219 21.4126 1.99219 21.4117 1.99219 21.4108C1.99219 21.4099 1.99219 21.409 1.99219 21.4081C1.99219 21.4071 1.99219 21.4062 1.99219 21.4053C1.99219 21.4044 1.99219 21.4035 1.99219 21.4026C1.99219 21.4017 1.99219 21.4008 1.99219 21.3999C1.99219 21.399 1.99219 21.398 1.99219 21.3971C1.99219 21.3962 1.99219 21.3953 1.99219 21.3944C1.99219 21.3935 1.99219 21.3926 1.99219 21.3917C1.99219 21.3908 1.99219 21.3899 1.99219 21.3889C1.99219 21.388 1.99219 21.3871 1.99219 21.3862C1.99219 21.3853 1.99219 21.3844 1.99219 21.3835C1.99219 21.3826 1.99219 21.3817 1.99219 21.3808C1.99219 21.3798 1.99219 21.3789 1.99219 21.378C1.99219 21.3771 1.99219 21.3762 1.99219 21.3753C1.99219 21.3744 1.99219 21.3735 1.99219 21.3726C1.99219 21.3717 1.99219 21.3708 1.99219 21.3698C1.99219 21.3689 1.99219 21.368 1.99219 21.3671C1.99219 21.3662 1.99219 21.3653 1.99219 21.3644C1.99219 21.3635 1.99219 21.3626 1.99219 21.3617C1.99219 21.3608 1.99219 21.3599 1.99219 21.3589C1.99219 21.358 1.99219 21.3571 1.99219 21.3562C1.99219 21.3553 1.99219 21.3544 1.99219 21.3535C1.99219 21.3526 1.99219 21.3517 1.99219 21.3508C1.99219 21.3499 1.99219 21.3489 1.99219 21.348C1.99219 21.3471 1.99219 21.3462 1.99219 21.3453C1.99219 21.3444 1.99219 21.3435 1.99219 21.3426C1.99219 21.3417 1.99219 21.3408 1.99219 21.3399C1.99219 21.339 1.99219 21.3381 1.99219 21.3371C1.99219 21.3362 1.99219 21.3353 1.99219 21.3344C1.99219 21.3335 1.99219 21.3326 1.99219 21.3317C1.99219 21.3308 1.99219 21.3299 1.99219 21.329C1.99219 21.3281 1.99219 21.3272 1.99219 21.3263C1.99219 21.3253 1.99219 21.3244 1.99219 21.3235C1.99219 21.3226 1.99219 21.3217 1.99219 21.3208C1.99219 21.3199 1.99219 21.319 1.99219 21.3181C1.99219 21.3172 1.99219 21.3163 1.99219 21.3154C1.99219 21.3145 1.99219 21.3136 1.99219 21.3126C1.99219 21.3117 1.99219 21.3108 1.99219 21.3099C1.99219 21.309 1.99219 21.3081 1.99219 21.3072C1.99219 21.3063 1.99219 21.3054 1.99219 21.3045C1.99219 21.3036 1.99219 21.3027 1.99219 21.3018C1.99219 21.3009 1.99219 21.3 1.99219 21.2991C1.99219 21.2981 1.99219 21.2972 1.99219 21.2963C1.99219 21.2954 1.99219 21.2945 1.99219 21.2936C1.99219 21.2927 1.99219 21.2918 1.99219 21.2909C1.99219 21.29 1.99219 21.2891 1.99219 21.2882C1.99219 21.2873 1.99219 21.2864 1.99219 21.2855C1.99219 21.2846 1.99219 21.2837 1.99219 21.2827C1.99219 21.2818 1.99219 21.2809 1.99219 21.28C1.99219 21.2791 1.99219 21.2782 1.99219 21.2773C1.99219 21.2764 1.99219 21.2755 1.99219 21.2746C1.99219 21.2737 1.99219 21.2728 1.99219 21.2719C1.99219 21.271 1.99219 21.2701 1.99219 21.2692C1.99219 21.2683 1.99219 21.2674 1.99219 21.2664C1.99219 21.2655 1.99219 21.2646 1.99219 21.2637C1.99219 21.2628 1.99219 21.2619 1.99219 21.261C1.99219 21.2601 1.99219 21.2592 1.99219 21.2583C1.99219 21.2574 1.99219 21.2565 1.99219 21.2556C1.99219 21.2547 1.99219 21.2538 1.99219 21.2529C1.99219 21.252 1.99219 21.2511 1.99219 21.2502C1.99219 21.2493 1.99219 21.2484 1.99219 21.2475C1.99219 21.2465 1.99219 21.2456 1.99219 21.2447C1.99219 21.2438 1.99219 21.2429 1.99219 21.242C1.99219 21.2411 1.99219 21.2402 1.99219 21.2393C1.99219 21.2384 1.99219 21.2375 1.99219 21.2366C1.99219 21.2357 1.99219 21.2348 1.99219 21.2339C1.99219 21.233 1.99219 21.2321 1.99219 21.2312C1.99219 21.2303 1.99219 21.2294 1.99219 21.2285C1.99219 21.2276 1.99219 21.2267 1.99219 21.2258C1.99219 21.2249 1.99219 21.224 1.99219 21.2231C1.99219 21.2221 1.99219 21.2212 1.99219 21.2203C1.99219 21.2194 1.99219 21.2185 1.99219 21.2176C1.99219 21.2167 1.99219 21.2158 1.99219 21.2149C1.99219 21.214 1.99219 21.2131 1.99219 21.2122C1.99219 21.2113 1.99219 21.2104 1.99219 21.2095C1.99219 21.2086 1.99219 21.2077 1.99219 21.2068C1.99219 21.2059 1.99219 21.205 1.99219 21.2041C1.99219 21.2032 1.99219 21.2023 1.99219 21.2014C1.99219 21.2005 1.99219 21.1996 1.99219 21.1987C1.99219 21.1978 1.99219 21.1969 1.99219 21.196C1.99219 21.1951 1.99219 21.1942 1.99219 21.1933C1.99219 21.1924 1.99219 21.1915 1.99219 21.1906C1.99219 21.1897 1.99219 21.1888 1.99219 21.1879C1.99219 21.1869 1.99219 21.186 1.99219 21.1851C1.99219 21.1842 1.99219 21.1833 1.99219 21.1824C1.99219 21.1815 1.99219 21.1806 1.99219 21.1797C1.99219 21.1788 1.99219 21.1779 1.99219 21.177C1.99219 21.1761 1.99219 21.1752 1.99219 21.1743C1.99219 21.1734 1.99219 21.1725 1.99219 21.1716C1.99219 21.1707 1.99219 21.1698 1.99219 21.1689C1.99219 21.168 1.99219 21.1671 1.99219 21.1662C1.99219 21.1653 1.99219 21.1644 1.99219 21.1635C1.99219 21.1626 1.99219 21.1617 1.99219 21.1608C1.99219 21.1599 1.99219 21.159 1.99219 21.1581C1.99219 21.1572 1.99219 21.1563 1.99219 21.1554C1.99219 21.1545 1.99219 21.1536 1.99219 21.1527C1.99219 21.1518 1.99219 21.1509 1.99219 21.15C1.99219 21.1491 1.99219 21.1482 1.99219 21.1473C1.99219 21.1464 1.99219 21.1455 1.99219 21.1446C1.99219 21.1437 1.99219 21.1428 1.99219 21.1419C1.99219 21.141 1.99219 21.1401 1.99219 21.1392C1.99219 21.1383 1.99219 21.1374 1.99219 21.1365C1.99219 21.1356 1.99219 21.1347 1.99219 21.1338C1.99219 21.1329 1.99219 21.132 1.99219 21.1311C1.99219 21.1302 1.99219 21.1293 1.99219 21.1284C1.99219 21.1275 1.99219 21.1266 1.99219 21.1257C1.99219 21.1248 1.99219 21.1239 1.99219 21.123C1.99219 21.1221 1.99219 21.1212 1.99219 21.1203C1.99219 21.1194 1.99219 21.1185 1.99219 21.1176C1.99219 21.1167 1.99219 21.1158 1.99219 21.1149C1.99219 21.114 1.99219 21.1131 1.99219 21.1122C1.99219 21.1113 1.99219 21.1104 1.99219 21.1095C1.99219 21.1086 1.99219 21.1077 1.99219 21.1068C1.99219 21.1059 1.99219 21.105 1.99219 21.1041C1.99219 21.1032 1.99219 21.1023 1.99219 21.1014C1.99219 21.1005 1.99219 21.0996 1.99219 21.0987C1.99219 21.0978 1.99219 21.0969 1.99219 21.096C1.99219 21.0951 1.99219 21.0942 1.99219 21.0933C1.99219 21.0924 1.99219 21.0915 1.99219 21.0906C1.99219 21.0897 1.99219 21.0889 1.99219 21.088C1.99219 21.0871 1.99219 21.0862 1.99219 21.0853C1.99219 21.0844 1.99219 21.0835 1.99219 21.0826C1.99219 21.0817 1.99219 21.0808 1.99219 21.0799C1.99219 21.079 1.99219 21.0781 1.99219 21.0772C1.99219 21.0763 1.99219 21.0754 1.99219 21.0745C1.99219 21.0736 1.99219 21.0727 1.99219 21.0718C1.99219 21.0709 1.99219 21.07 1.99219 21.0691C1.99219 21.0682 1.99219 21.0673 1.99219 21.0664C1.99219 21.0655 1.99219 21.0646 1.99219 21.0637C1.99219 21.0628 1.99219 21.0619 1.99219 21.061C1.99219 21.0601 1.99219 21.0592 1.99219 21.0583C1.99219 21.0574 1.99219 21.0565 1.99219 21.0556C1.99219 21.0548 1.99219 21.0539 1.99219 21.053C1.99219 21.0521 1.99219 21.0512 1.99219 21.0503C1.99219 21.0494 1.99219 21.0485 1.99219 21.0476C1.99219 21.0467 1.99219 21.0458 1.99219 21.0449C1.99219 21.044 1.99219 21.0431 1.99219 21.0422C1.99219 21.0413 1.99219 21.0404 1.99219 21.0395C1.99219 21.0386 1.99219 21.0377 1.99219 21.0368C1.99219 21.0359 1.99219 21.035 1.99219 21.0341C1.99219 21.0332 1.99219 21.0323 1.99219 21.0314C1.99219 21.0306 1.99219 21.0297 1.99219 21.0288C1.99219 21.0279 1.99219 21.027 1.99219 21.0261C1.99219 21.0252 1.99219 21.0243 1.99219 21.0234C1.99219 21.0225 1.99219 21.0216 1.99219 21.0207C1.99219 21.0198 1.99219 21.0189 1.99219 21.018C1.99219 21.0171 1.99219 21.0162 1.99219 21.0153C1.99219 21.0144 1.99219 21.0135 1.99219 21.0126C1.99219 21.0117 1.99219 21.0109 1.99219 21.01C1.99219 21.0091 1.99219 21.0082 1.99219 21.0073C1.99219 21.0064 1.99219 21.0055 1.99219 21.0046C1.99219 21.0037 1.99219 21.0028 1.99219 21.0019C1.99219 21.001 1.99219 21.0001 1.99219 20.9992C1.99219 20.9983 1.99219 20.9974 1.99219 20.9965C1.99219 20.9956 1.99219 20.9948 1.99219 20.9939C1.99219 20.993 1.99219 20.9921 1.99219 20.9912C1.99219 20.9903 1.99219 20.9894 1.99219 20.9885C1.99219 20.9876 1.99219 20.9867 1.99219 20.9858C1.99219 20.9849 1.99219 20.984 1.99219 20.9831C1.99219 20.9822 1.99219 20.9813 1.99219 20.9804C1.99219 20.9795 1.99219 20.9787 1.99219 20.9778C1.99219 20.9769 1.99219 20.976 1.99219 20.9751C1.99219 20.9742 1.99219 20.9733 1.99219 20.9724C1.99219 20.9715 1.99219 20.9706 1.99219 20.9697C1.99219 20.9688 1.99219 20.9679 1.99219 20.967C1.99219 20.9661 1.99219 20.9653 1.99219 20.9644C1.99219 20.9635 1.99219 20.9626 1.99219 20.9617C1.99219 20.9608 1.99219 20.9599 1.99219 20.959C1.99219 20.9581 1.99219 20.9572 1.99219 20.9563C1.99219 20.9554 1.99219 20.9545 1.99219 20.9536C1.99219 20.9528 1.99219 20.9519 1.99219 20.951C1.99219 20.9501 1.99219 20.9492 1.99219 20.9483C1.99219 20.9474 1.99219 20.9465 1.99219 20.9456C1.99219 20.9447 1.99219 20.9438 1.99219 20.9429C1.99219 20.942 1.99219 20.9412 1.99219 20.9403C1.99219 20.9394 1.99219 20.9385 1.99219 20.9376C1.99219 20.9367 1.99219 20.9358 1.99219 20.9349C1.99219 20.934 1.99219 20.9331 1.99219 20.9322C1.99219 20.9313 1.99219 20.9304 1.99219 20.9296C1.99219 20.9287 1.99219 20.9278 1.99219 20.9269C1.99219 20.926 1.99219 20.9251 1.99219 20.9242C1.99219 20.9233 1.99219 20.9224 1.99219 20.9215C1.99219 20.9206 1.99219 20.9197 1.99219 20.9189C1.99219 20.918 1.99219 20.9171 1.99219 20.9162C1.99219 20.9153 1.99219 20.9144 1.99219 20.9135C1.99219 20.9126 1.99219 20.9117 1.99219 20.9108C1.99219 20.9099 1.99219 20.9091 1.99219 20.9082C1.99219 20.9073 1.99219 20.9064 1.99219 20.9055C1.99219 20.9046 1.99219 20.9037 1.99219 20.9028C1.99219 20.9019 1.99219 20.901 1.99219 20.9001C1.99219 20.8993 1.99219 20.8984 1.99219 20.8975C1.99219 20.8966 1.99219 20.8957 1.99219 20.8948C1.99219 20.8939 1.99219 20.893 1.99219 20.8921C1.99219 20.8912 1.99219 20.8904 1.99219 20.8895C1.99219 20.8886 1.99219 20.8877 1.99219 20.8868C1.99219 20.8859 1.99219 20.885 1.99219 20.8841C1.99219 20.8832 1.99219 20.8823 1.99219 20.8815C1.99219 20.8806 1.99219 20.8797 1.99219 20.8788C1.99219 20.8779 1.99219 20.877 1.99219 20.8761C1.99219 20.8752 1.99219 20.8743 1.99219 20.8734C1.99219 20.8726 1.99219 20.8717 1.99219 20.8708C1.99219 20.8699 1.99219 20.869 1.99219 20.8681C1.99219 20.8672 1.99219 20.8663 1.99219 20.8654C1.99219 20.8645 1.99219 20.8637 1.99219 20.8628C1.99219 20.8619 1.99219 20.861 1.99219 20.8601C1.99219 20.8592 1.99219 20.8583 1.99219 20.8574C1.99219 20.8565 1.99219 20.8557 1.99219 20.8548C1.99219 20.8539 1.99219 20.853 1.99219 20.8521C1.99219 20.8512 1.99219 20.8503 1.99219 20.8494C1.99219 20.8485 1.99219 20.8477 1.99219 20.8468C1.99219 20.8459 1.99219 20.845 1.99219 20.8441C1.99219 20.8432 1.99219 20.8423 1.99219 20.8414C1.99219 20.8406 1.99219 20.8397 1.99219 20.8388C1.99219 20.8379 1.99219 20.837 1.99219 20.8361C1.99219 20.8352 1.99219 20.8343 1.99219 20.8334C1.99219 20.8326 1.99219 20.8317 1.99219 20.8308C1.99219 20.8299 1.99219 20.829 1.99219 20.8281C1.99219 20.8272 1.99219 20.8263 1.99219 20.8255C1.99219 20.8246 1.99219 20.8237 1.99219 20.8228C1.99219 20.8219 1.99219 20.821 1.99219 20.8201C1.99219 20.8192 1.99219 20.8184 1.99219 20.8175C1.99219 20.8166 1.99219 20.8157 1.99219 20.8148C1.99219 20.8139 1.99219 20.813 1.99219 20.8121C1.99219 20.8113 1.99219 20.8104 1.99219 20.8095C1.99219 20.8086 1.99219 20.8077 1.99219 20.8068C1.99219 20.8059 1.99219 20.805 1.99219 20.8042C1.99219 20.8033 1.99219 20.8024 1.99219 20.8015C1.99219 20.8006 1.99219 20.7997 1.99219 20.7988C1.99219 20.798 1.99219 20.7971 1.99219 20.7962C1.99219 20.7953 1.99219 20.7944 1.99219 20.7935C1.99219 20.7926 1.99219 20.7918 1.99219 20.7909C1.99219 20.79 1.99219 20.7891 1.99219 20.7882C1.99219 20.7873 1.99219 20.7864 1.99219 20.7855C1.99219 20.7847 1.99219 20.7838 1.99219 20.7829C1.99219 20.782 1.99219 20.7811 1.99219 20.7802C1.99219 20.7793 1.99219 20.7785 1.99219 20.7776C1.99219 20.7767 1.99219 20.7758 1.99219 20.7749C1.99219 20.774 1.99219 20.7731 1.99219 20.7723C1.99219 20.7714 1.99219 20.7705 1.99219 20.7696C1.99219 20.7687 1.99219 20.7678 1.99219 20.7669C1.99219 20.7661 1.99219 20.7652 1.99219 20.7643C1.99219 20.7634 1.99219 20.7625 1.99219 20.7616C1.99219 20.7607 1.99219 20.7599 1.99219 20.759C1.99219 20.7581 1.99219 20.7572 1.99219 20.7563C1.99219 20.7554 1.99219 20.7546 1.99219 20.7537C1.99219 20.7528 1.99219 20.7519 1.99219 20.751C1.99219 20.7501 1.99219 20.7492 1.99219 20.7484C1.99219 20.7475 1.99219 20.7466 1.99219 20.7457C1.99219 20.7448 1.99219 20.7439 1.99219 20.7431C1.99219 20.7422 1.99219 20.7413 1.99219 20.7404C1.99219 20.7395 1.99219 20.7386 1.99219 20.7377C1.99219 20.7369 1.99219 20.736 1.99219 20.7351C1.99219 20.7342 1.99219 20.7333 1.99219 20.7324C1.99219 20.7316 1.99219 20.7307 1.99219 20.7298C1.99219 20.7289 1.99219 20.728 1.99219 20.7271C1.99219 20.7263 1.99219 20.7254 1.99219 20.7245C1.99219 20.7236 1.99219 20.7227 1.99219 20.7218C1.99219 20.721 1.99219 20.7201 1.99219 20.7192C1.99219 20.7183 1.99219 20.7174 1.99219 20.7165C1.99219 20.7157 1.99219 20.7148 1.99219 20.7139C1.99219 20.713 1.99219 20.7121 1.99219 20.7112C1.99219 20.7104 1.99219 20.7095 1.99219 20.7086C1.99219 20.7077 1.99219 20.7068 1.99219 20.7059C1.99219 20.7051 1.99219 20.7042 1.99219 20.7033C1.99219 20.7024 1.99219 20.7015 1.99219 20.7006C1.99219 20.6998 1.99219 20.6989 1.99219 20.698C1.99219 20.6971 1.99219 20.6962 1.99219 20.6953C1.99219 20.6945 1.99219 20.6936 1.99219 20.6927C1.99219 20.6918 1.99219 20.6909 1.99219 20.6901C1.99219 20.6892 1.99219 20.6883 1.99219 20.6874C1.99219 20.6865 1.99219 20.6856 1.99219 20.6848C1.99219 20.6839 1.99219 20.683 1.99219 20.6821C1.99219 20.6812 1.99219 20.6804 1.99219 20.6795C1.99219 20.6786 1.99219 20.6777 1.99219 20.6768C1.99219 20.6759 1.99219 20.6751 1.99219 20.6742C1.99219 20.6733 1.99219 20.6724 1.99219 20.6715C1.99219 20.6707 1.99219 20.6698 1.99219 20.6689C1.99219 20.668 1.99219 20.6671 1.99219 20.6662C1.99219 20.6654 1.99219 20.6645 1.99219 20.6636C1.99219 20.6627 1.99219 20.6618 1.99219 20.661C1.99219 20.6601 1.99219 20.6592 1.99219 20.6583C1.99219 20.6574 1.99219 20.6566 1.99219 20.6557C1.99219 20.6548 1.99219 20.6539 1.99219 20.653C1.99219 20.6521 1.99219 20.6513 1.99219 20.6504C1.99219 20.6495 1.99219 20.6486 1.99219 20.6477C1.99219 20.6469 1.99219 20.646 1.99219 20.6451C1.99219 20.6442 1.99219 20.6433 1.99219 20.6425C1.99219 20.6416 1.99219 20.6407 1.99219 20.6398C1.99219 20.6389 1.99219 20.6381 1.99219 20.6372C1.99219 20.6363 1.99219 20.6354 1.99219 20.6345C1.99219 20.6337 1.99219 20.6328 1.99219 20.6319C1.99219 20.631 1.99219 20.6301 1.99219 20.6293C1.99219 20.6284 1.99219 20.6275 1.99219 20.6266C1.99219 20.6257 1.99219 20.6249 1.99219 20.624C1.99219 20.6231 1.99219 20.6222 1.99219 20.6213C1.99219 20.6205 1.99219 20.6196 1.99219 20.6187C1.99219 20.6178 1.99219 20.6169 1.99219 20.6161C1.99219 20.6152 1.99219 20.6143 1.99219 20.6134C1.99219 20.6125 1.99219 20.6117 1.99219 20.6108C1.99219 20.6099 1.99219 20.609 1.99219 20.6082C1.99219 20.6073 1.99219 20.6064 1.99219 20.6055C1.99219 20.6046 1.99219 20.6038 1.99219 20.6029C1.99219 20.602 1.99219 20.6011 1.99219 20.6002C1.99219 20.5994 1.99219 20.5985 1.99219 20.5976C1.99219 20.5967 1.99219 20.5959 1.99219 20.595C1.99219 20.5941 1.99219 20.5932 1.99219 20.5923C1.99219 20.5915 1.99219 20.5906 1.99219 20.5897C1.99219 20.5888 1.99219 20.5879 1.99219 20.5871C1.99219 20.5862 1.99219 20.5853 1.99219 20.5844C1.99219 20.5836 1.99219 20.5827 1.99219 20.5818C1.99219 20.5809 1.99219 20.58 1.99219 20.5792C1.99219 20.5783 1.99219 20.5774 1.99219 20.5765C1.99219 20.5757 1.99219 20.5748 1.99219 20.5739C1.99219 20.573 1.99219 20.5721 1.99219 20.5713C1.99219 20.5704 1.99219 20.5695 1.99219 20.5686C1.99219 20.5678 1.99219 20.5669 1.99219 20.566C1.99219 20.5651 1.99219 20.5642 1.99219 20.5634C1.99219 20.5625 1.99219 20.5616 1.99219 20.5607C1.99219 20.5599 1.99219 20.559 1.99219 20.5581C1.99219 20.5572 1.99219 20.5564 1.99219 20.5555C1.99219 20.5546 1.99219 20.5537 1.99219 20.5528C1.99219 20.552 1.99219 20.5511 1.99219 20.5502C1.99219 20.5493 1.99219 20.5485 1.99219 20.5476C1.99219 20.5467 1.99219 20.5458 1.99219 20.545C1.99219 20.5441 1.99219 20.5432 1.99219 20.5423C1.99219 20.5415 1.99219 20.5406 1.99219 20.5397C1.99219 20.5388 1.99219 20.5379 1.99219 20.5371C1.99219 20.5362 1.99219 20.5353 1.99219 20.5344C1.99219 20.5336 1.99219 20.5327 1.99219 20.5318C1.99219 20.5309 1.99219 20.5301 1.99219 20.5292C1.99219 20.5283 1.99219 20.5274 1.99219 20.5266C1.99219 20.5257 1.99219 20.5248 1.99219 20.5239C1.99219 20.5231 1.99219 20.5222 1.99219 20.5213C1.99219 20.5204 1.99219 20.5196 1.99219 20.5187C1.99219 20.5178 1.99219 20.5169 1.99219 20.516C1.99219 20.5152 1.99219 20.5143 1.99219 20.5134C1.99219 20.5126 1.99219 20.5117 1.99219 20.5108C1.99219 20.5099 1.99219 20.509 1.99219 20.5082C1.99219 20.5073 1.99219 20.5064 1.99219 20.5056C1.99219 20.5047 1.99219 20.5038 1.99219 20.5029C1.99219 20.502 1.99219 20.5012 1.99219 20.5003C1.99219 20.4994 1.99219 20.4986 1.99219 20.4977C1.99219 20.4968 1.99219 20.4959 1.99219 20.4951C1.99219 20.4942 1.99219 20.4933 1.99219 20.4924C1.99219 20.4916 1.99219 20.4907 1.99219 20.4898C1.99219 20.4889 1.99219 20.4881 1.99219 20.4872C1.99219 20.4863 1.99219 20.4854 1.99219 20.4846C1.99219 20.4837 1.99219 20.4828 1.99219 20.4819C1.99219 20.4811 1.99219 20.4802 1.99219 20.4793C1.99219 20.4784 1.99219 20.4776 1.99219 20.4767C1.99219 20.4758 1.99219 20.4749 1.99219 20.4741C1.99219 20.4732 1.99219 20.4723 1.99219 20.4715C1.99219 20.4706 1.99219 20.4697 1.99219 20.4688C1.99219 20.468 1.99219 20.4671 1.99219 20.4662C1.99219 20.4653 1.99219 20.4645 1.99219 20.4636C1.99219 20.4627 1.99219 20.4618 1.99219 20.461C1.99219 20.4601 1.99219 20.4592 1.99219 20.4584C1.99219 20.4575 1.99219 20.4566 1.99219 20.4557C1.99219 20.4549 1.99219 20.454 1.99219 20.4531C1.99219 20.4522 1.99219 20.4514 1.99219 20.4505C1.99219 20.4496 1.99219 20.4488 1.99219 20.4479C1.99219 20.447 1.99219 20.4461 1.99219 20.4453C1.99219 20.4444 1.99219 20.4435 1.99219 20.4426C1.99219 20.4418 1.99219 20.4409 1.99219 20.44C1.99219 20.4392 1.99219 20.4383 1.99219 20.4374C1.99219 20.4365 1.99219 20.4357 1.99219 20.4348C1.99219 20.4339 1.99219 20.4331 1.99219 20.4322C1.99219 20.4313 1.99219 20.4304 1.99219 20.4296C1.99219 20.4287 1.99219 20.4278 1.99219 20.4269C1.99219 20.4261 1.99219 20.4252 1.99219 20.4243C1.99219 20.4235 1.99219 20.4226 1.99219 20.4217C1.99219 20.4208 1.99219 20.42 1.99219 20.4191C1.99219 20.4182 1.99219 20.4174 1.99219 20.4165C1.99219 20.4156 1.99219 20.4147 1.99219 20.4139C1.99219 20.413 1.99219 20.4121 1.99219 20.4113C1.99219 20.4104 1.99219 20.4095 1.99219 20.4086C1.99219 20.4078 1.99219 20.4069 1.99219 20.406C1.99219 20.4052 1.99219 20.4043 1.99219 20.4034C1.99219 20.4026 1.99219 20.4017 1.99219 20.4008C1.99219 20.3999 1.99219 20.3991 1.99219 20.3982C1.99219 20.3973 1.99219 20.3965 1.99219 20.3956C1.99219 20.3947 1.99219 20.3938 1.99219 20.393C1.99219 20.3921 1.99219 20.3912 1.99219 20.3904C1.99219 20.3895 1.99219 20.3886 1.99219 20.3878C1.99219 20.3869 1.99219 20.386 1.99219 20.3851C1.99219 20.3843 1.99219 20.3834 1.99219 20.3825C1.99219 20.3817 1.99219 20.3808 1.99219 20.3799C1.99219 20.3791 1.99219 20.3782 1.99219 20.3773C1.99219 20.3764 1.99219 20.3756 1.99219 20.3747C1.99219 20.3738 1.99219 20.373 1.99219 20.3721C1.99219 20.3712 1.99219 20.3704 1.99219 20.3695C1.99219 20.3686 1.99219 20.3678 1.99219 20.3669C1.99219 20.366 1.99219 20.3651 1.99219 20.3643C1.99219 20.3634 1.99219 20.3625 1.99219 20.3617C1.99219 20.3608 1.99219 20.3599 1.99219 20.3591C1.99219 20.3582 1.99219 20.3573 1.99219 20.3565C1.99219 20.3556 1.99219 20.3547 1.99219 20.3538C1.99219 20.353 1.99219 20.3521 1.99219 20.3512C1.99219 20.3504 1.99219 20.3495 1.99219 20.3486C1.99219 20.3478 1.99219 20.3469 1.99219 20.346C1.99219 20.3452 1.99219 20.3443 1.99219 20.3434C1.99219 20.3426 1.99219 20.3417 1.99219 20.3408C1.99219 20.34 1.99219 20.3391 1.99219 20.3382C1.99219 20.3373 1.99219 20.3365 1.99219 20.3356C1.99219 20.3347 1.99219 20.3339 1.99219 20.333C1.99219 20.3321 1.99219 20.3313 1.99219 20.3304C1.99219 20.3295 1.99219 20.3287 1.99219 20.3278C1.99219 20.3269 1.99219 20.3261 1.99219 20.3252C1.99219 20.3243 1.99219 20.3235 1.99219 20.3226C1.99219 20.3217 1.99219 20.3209 1.99219 20.32C1.99219 20.3191 1.99219 20.3183 1.99219 20.3174C1.99219 20.3165 1.99219 20.3157 1.99219 20.3148C1.99219 20.3139 1.99219 20.3131 1.99219 20.3122C1.99219 20.3113 1.99219 20.3105 1.99219 20.3096C1.99219 20.3087 1.99219 20.3079 1.99219 20.307C1.99219 20.3061 1.99219 20.3053 1.99219 20.3044C1.99219 20.3035 1.99219 20.3027 1.99219 20.3018C1.99219 20.3009 1.99219 20.3001 1.99219 20.2992C1.99219 20.2983 1.99219 20.2975 1.99219 20.2966C1.99219 20.2957 1.99219 20.2949 1.99219 20.294C1.99219 20.2931 1.99219 20.2923 1.99219 20.2914C1.99219 20.2905 1.99219 20.2897 1.99219 20.2888C1.99219 20.2879 1.99219 20.2871 1.99219 20.2862C1.99219 20.2853 1.99219 20.2845 1.99219 20.2836C1.99219 20.2827 1.99219 20.2819 1.99219 20.281C1.99219 20.2801 1.99219 20.2793 1.99219 20.2784C1.99219 20.2775 1.99219 20.2767 1.99219 20.2758C1.99219 20.2749 1.99219 20.2741 1.99219 20.2732C1.99219 20.2723 1.99219 20.2715 1.99219 20.2706C1.99219 20.2697 1.99219 20.2689 1.99219 20.268C1.99219 20.2671 1.99219 20.2663 1.99219 20.2654C1.99219 20.2645 1.99219 20.2637 1.99219 20.2628C1.99219 20.262 1.99219 20.2611 1.99219 20.2602C1.99219 20.2594 1.99219 20.2585 1.99219 20.2576C1.99219 20.2568 1.99219 20.2559 1.99219 20.255C1.99219 20.2542 1.99219 20.2533 1.99219 20.2524H-0.0078125C-0.0078125 20.2533 -0.0078125 20.2542 -0.0078125 20.255C-0.0078125 20.2559 -0.0078125 20.2568 -0.0078125 20.2576C-0.0078125 20.2585 -0.0078125 20.2594 -0.0078125 20.2602C-0.0078125 20.2611 -0.0078125 20.262 -0.0078125 20.2628C-0.0078125 20.2637 -0.0078125 20.2645 -0.0078125 20.2654C-0.0078125 20.2663 -0.0078125 20.2671 -0.0078125 20.268C-0.0078125 20.2689 -0.0078125 20.2697 -0.0078125 20.2706C-0.0078125 20.2715 -0.0078125 20.2723 -0.0078125 20.2732C-0.0078125 20.2741 -0.0078125 20.2749 -0.0078125 20.2758C-0.0078125 20.2767 -0.0078125 20.2775 -0.0078125 20.2784C-0.0078125 20.2793 -0.0078125 20.2801 -0.0078125 20.281C-0.0078125 20.2819 -0.0078125 20.2827 -0.0078125 20.2836C-0.0078125 20.2845 -0.0078125 20.2853 -0.0078125 20.2862C-0.0078125 20.2871 -0.0078125 20.2879 -0.0078125 20.2888C-0.0078125 20.2897 -0.0078125 20.2905 -0.0078125 20.2914C-0.0078125 20.2923 -0.0078125 20.2931 -0.0078125 20.294C-0.0078125 20.2949 -0.0078125 20.2957 -0.0078125 20.2966C-0.0078125 20.2975 -0.0078125 20.2983 -0.0078125 20.2992C-0.0078125 20.3001 -0.0078125 20.3009 -0.0078125 20.3018C-0.0078125 20.3027 -0.0078125 20.3035 -0.0078125 20.3044C-0.0078125 20.3053 -0.0078125 20.3061 -0.0078125 20.307C-0.0078125 20.3079 -0.0078125 20.3087 -0.0078125 20.3096C-0.0078125 20.3105 -0.0078125 20.3113 -0.0078125 20.3122C-0.0078125 20.3131 -0.0078125 20.3139 -0.0078125 20.3148C-0.0078125 20.3157 -0.0078125 20.3165 -0.0078125 20.3174C-0.0078125 20.3183 -0.0078125 20.3191 -0.0078125 20.32C-0.0078125 20.3209 -0.0078125 20.3217 -0.0078125 20.3226C-0.0078125 20.3235 -0.0078125 20.3243 -0.0078125 20.3252C-0.0078125 20.3261 -0.0078125 20.3269 -0.0078125 20.3278C-0.0078125 20.3287 -0.0078125 20.3295 -0.0078125 20.3304C-0.0078125 20.3313 -0.0078125 20.3321 -0.0078125 20.333C-0.0078125 20.3339 -0.0078125 20.3347 -0.0078125 20.3356C-0.0078125 20.3365 -0.0078125 20.3373 -0.0078125 20.3382C-0.0078125 20.3391 -0.0078125 20.34 -0.0078125 20.3408C-0.0078125 20.3417 -0.0078125 20.3426 -0.0078125 20.3434C-0.0078125 20.3443 -0.0078125 20.3452 -0.0078125 20.346C-0.0078125 20.3469 -0.0078125 20.3478 -0.0078125 20.3486C-0.0078125 20.3495 -0.0078125 20.3504 -0.0078125 20.3512C-0.0078125 20.3521 -0.0078125 20.353 -0.0078125 20.3538C-0.0078125 20.3547 -0.0078125 20.3556 -0.0078125 20.3565C-0.0078125 20.3573 -0.0078125 20.3582 -0.0078125 20.3591C-0.0078125 20.3599 -0.0078125 20.3608 -0.0078125 20.3617C-0.0078125 20.3625 -0.0078125 20.3634 -0.0078125 20.3643C-0.0078125 20.3651 -0.0078125 20.366 -0.0078125 20.3669C-0.0078125 20.3678 -0.0078125 20.3686 -0.0078125 20.3695C-0.0078125 20.3704 -0.0078125 20.3712 -0.0078125 20.3721C-0.0078125 20.373 -0.0078125 20.3738 -0.0078125 20.3747C-0.0078125 20.3756 -0.0078125 20.3764 -0.0078125 20.3773C-0.0078125 20.3782 -0.0078125 20.3791 -0.0078125 20.3799C-0.0078125 20.3808 -0.0078125 20.3817 -0.0078125 20.3825C-0.0078125 20.3834 -0.0078125 20.3843 -0.0078125 20.3851C-0.0078125 20.386 -0.0078125 20.3869 -0.0078125 20.3878C-0.0078125 20.3886 -0.0078125 20.3895 -0.0078125 20.3904C-0.0078125 20.3912 -0.0078125 20.3921 -0.0078125 20.393C-0.0078125 20.3938 -0.0078125 20.3947 -0.0078125 20.3956C-0.0078125 20.3965 -0.0078125 20.3973 -0.0078125 20.3982C-0.0078125 20.3991 -0.0078125 20.3999 -0.0078125 20.4008C-0.0078125 20.4017 -0.0078125 20.4026 -0.0078125 20.4034C-0.0078125 20.4043 -0.0078125 20.4052 -0.0078125 20.406C-0.0078125 20.4069 -0.0078125 20.4078 -0.0078125 20.4086C-0.0078125 20.4095 -0.0078125 20.4104 -0.0078125 20.4113C-0.0078125 20.4121 -0.0078125 20.413 -0.0078125 20.4139C-0.0078125 20.4147 -0.0078125 20.4156 -0.0078125 20.4165C-0.0078125 20.4174 -0.0078125 20.4182 -0.0078125 20.4191C-0.0078125 20.42 -0.0078125 20.4208 -0.0078125 20.4217C-0.0078125 20.4226 -0.0078125 20.4235 -0.0078125 20.4243C-0.0078125 20.4252 -0.0078125 20.4261 -0.0078125 20.4269C-0.0078125 20.4278 -0.0078125 20.4287 -0.0078125 20.4296C-0.0078125 20.4304 -0.0078125 20.4313 -0.0078125 20.4322C-0.0078125 20.4331 -0.0078125 20.4339 -0.0078125 20.4348C-0.0078125 20.4357 -0.0078125 20.4365 -0.0078125 20.4374C-0.0078125 20.4383 -0.0078125 20.4392 -0.0078125 20.44C-0.0078125 20.4409 -0.0078125 20.4418 -0.0078125 20.4426C-0.0078125 20.4435 -0.0078125 20.4444 -0.0078125 20.4453C-0.0078125 20.4461 -0.0078125 20.447 -0.0078125 20.4479C-0.0078125 20.4488 -0.0078125 20.4496 -0.0078125 20.4505C-0.0078125 20.4514 -0.0078125 20.4522 -0.0078125 20.4531C-0.0078125 20.454 -0.0078125 20.4549 -0.0078125 20.4557C-0.0078125 20.4566 -0.0078125 20.4575 -0.0078125 20.4584C-0.0078125 20.4592 -0.0078125 20.4601 -0.0078125 20.461C-0.0078125 20.4618 -0.0078125 20.4627 -0.0078125 20.4636C-0.0078125 20.4645 -0.0078125 20.4653 -0.0078125 20.4662C-0.0078125 20.4671 -0.0078125 20.468 -0.0078125 20.4688C-0.0078125 20.4697 -0.0078125 20.4706 -0.0078125 20.4715C-0.0078125 20.4723 -0.0078125 20.4732 -0.0078125 20.4741C-0.0078125 20.4749 -0.0078125 20.4758 -0.0078125 20.4767C-0.0078125 20.4776 -0.0078125 20.4784 -0.0078125 20.4793C-0.0078125 20.4802 -0.0078125 20.4811 -0.0078125 20.4819C-0.0078125 20.4828 -0.0078125 20.4837 -0.0078125 20.4846C-0.0078125 20.4854 -0.0078125 20.4863 -0.0078125 20.4872C-0.0078125 20.4881 -0.0078125 20.4889 -0.0078125 20.4898C-0.0078125 20.4907 -0.0078125 20.4916 -0.0078125 20.4924C-0.0078125 20.4933 -0.0078125 20.4942 -0.0078125 20.4951C-0.0078125 20.4959 -0.0078125 20.4968 -0.0078125 20.4977C-0.0078125 20.4986 -0.0078125 20.4994 -0.0078125 20.5003C-0.0078125 20.5012 -0.0078125 20.502 -0.0078125 20.5029C-0.0078125 20.5038 -0.0078125 20.5047 -0.0078125 20.5056C-0.0078125 20.5064 -0.0078125 20.5073 -0.0078125 20.5082C-0.0078125 20.509 -0.0078125 20.5099 -0.0078125 20.5108C-0.0078125 20.5117 -0.0078125 20.5126 -0.0078125 20.5134C-0.0078125 20.5143 -0.0078125 20.5152 -0.0078125 20.516C-0.0078125 20.5169 -0.0078125 20.5178 -0.0078125 20.5187C-0.0078125 20.5196 -0.0078125 20.5204 -0.0078125 20.5213C-0.0078125 20.5222 -0.0078125 20.5231 -0.0078125 20.5239C-0.0078125 20.5248 -0.0078125 20.5257 -0.0078125 20.5266C-0.0078125 20.5274 -0.0078125 20.5283 -0.0078125 20.5292C-0.0078125 20.5301 -0.0078125 20.5309 -0.0078125 20.5318C-0.0078125 20.5327 -0.0078125 20.5336 -0.0078125 20.5344C-0.0078125 20.5353 -0.0078125 20.5362 -0.0078125 20.5371C-0.0078125 20.5379 -0.0078125 20.5388 -0.0078125 20.5397C-0.0078125 20.5406 -0.0078125 20.5415 -0.0078125 20.5423C-0.0078125 20.5432 -0.0078125 20.5441 -0.0078125 20.545C-0.0078125 20.5458 -0.0078125 20.5467 -0.0078125 20.5476C-0.0078125 20.5485 -0.0078125 20.5493 -0.0078125 20.5502C-0.0078125 20.5511 -0.0078125 20.552 -0.0078125 20.5528C-0.0078125 20.5537 -0.0078125 20.5546 -0.0078125 20.5555C-0.0078125 20.5564 -0.0078125 20.5572 -0.0078125 20.5581C-0.0078125 20.559 -0.0078125 20.5599 -0.0078125 20.5607C-0.0078125 20.5616 -0.0078125 20.5625 -0.0078125 20.5634C-0.0078125 20.5642 -0.0078125 20.5651 -0.0078125 20.566C-0.0078125 20.5669 -0.0078125 20.5678 -0.0078125 20.5686C-0.0078125 20.5695 -0.0078125 20.5704 -0.0078125 20.5713C-0.0078125 20.5721 -0.0078125 20.573 -0.0078125 20.5739C-0.0078125 20.5748 -0.0078125 20.5757 -0.0078125 20.5765C-0.0078125 20.5774 -0.0078125 20.5783 -0.0078125 20.5792C-0.0078125 20.58 -0.0078125 20.5809 -0.0078125 20.5818C-0.0078125 20.5827 -0.0078125 20.5836 -0.0078125 20.5844C-0.0078125 20.5853 -0.0078125 20.5862 -0.0078125 20.5871C-0.0078125 20.5879 -0.0078125 20.5888 -0.0078125 20.5897C-0.0078125 20.5906 -0.0078125 20.5915 -0.0078125 20.5923C-0.0078125 20.5932 -0.0078125 20.5941 -0.0078125 20.595C-0.0078125 20.5959 -0.0078125 20.5967 -0.0078125 20.5976C-0.0078125 20.5985 -0.0078125 20.5994 -0.0078125 20.6002C-0.0078125 20.6011 -0.0078125 20.602 -0.0078125 20.6029C-0.0078125 20.6038 -0.0078125 20.6046 -0.0078125 20.6055C-0.0078125 20.6064 -0.0078125 20.6073 -0.0078125 20.6082C-0.0078125 20.609 -0.0078125 20.6099 -0.0078125 20.6108C-0.0078125 20.6117 -0.0078125 20.6125 -0.0078125 20.6134C-0.0078125 20.6143 -0.0078125 20.6152 -0.0078125 20.6161C-0.0078125 20.6169 -0.0078125 20.6178 -0.0078125 20.6187C-0.0078125 20.6196 -0.0078125 20.6205 -0.0078125 20.6213C-0.0078125 20.6222 -0.0078125 20.6231 -0.0078125 20.624C-0.0078125 20.6249 -0.0078125 20.6257 -0.0078125 20.6266C-0.0078125 20.6275 -0.0078125 20.6284 -0.0078125 20.6293C-0.0078125 20.6301 -0.0078125 20.631 -0.0078125 20.6319C-0.0078125 20.6328 -0.0078125 20.6337 -0.0078125 20.6345C-0.0078125 20.6354 -0.0078125 20.6363 -0.0078125 20.6372C-0.0078125 20.6381 -0.0078125 20.6389 -0.0078125 20.6398C-0.0078125 20.6407 -0.0078125 20.6416 -0.0078125 20.6425C-0.0078125 20.6433 -0.0078125 20.6442 -0.0078125 20.6451C-0.0078125 20.646 -0.0078125 20.6469 -0.0078125 20.6477C-0.0078125 20.6486 -0.0078125 20.6495 -0.0078125 20.6504C-0.0078125 20.6513 -0.0078125 20.6521 -0.0078125 20.653C-0.0078125 20.6539 -0.0078125 20.6548 -0.0078125 20.6557C-0.0078125 20.6566 -0.0078125 20.6574 -0.0078125 20.6583C-0.0078125 20.6592 -0.0078125 20.6601 -0.0078125 20.661C-0.0078125 20.6618 -0.0078125 20.6627 -0.0078125 20.6636C-0.0078125 20.6645 -0.0078125 20.6654 -0.0078125 20.6662C-0.0078125 20.6671 -0.0078125 20.668 -0.0078125 20.6689C-0.0078125 20.6698 -0.0078125 20.6707 -0.0078125 20.6715C-0.0078125 20.6724 -0.0078125 20.6733 -0.0078125 20.6742C-0.0078125 20.6751 -0.0078125 20.6759 -0.0078125 20.6768C-0.0078125 20.6777 -0.0078125 20.6786 -0.0078125 20.6795C-0.0078125 20.6804 -0.0078125 20.6812 -0.0078125 20.6821C-0.0078125 20.683 -0.0078125 20.6839 -0.0078125 20.6848C-0.0078125 20.6856 -0.0078125 20.6865 -0.0078125 20.6874C-0.0078125 20.6883 -0.0078125 20.6892 -0.0078125 20.6901C-0.0078125 20.6909 -0.0078125 20.6918 -0.0078125 20.6927C-0.0078125 20.6936 -0.0078125 20.6945 -0.0078125 20.6953C-0.0078125 20.6962 -0.0078125 20.6971 -0.0078125 20.698C-0.0078125 20.6989 -0.0078125 20.6998 -0.0078125 20.7006C-0.0078125 20.7015 -0.0078125 20.7024 -0.0078125 20.7033C-0.0078125 20.7042 -0.0078125 20.7051 -0.0078125 20.7059C-0.0078125 20.7068 -0.0078125 20.7077 -0.0078125 20.7086C-0.0078125 20.7095 -0.0078125 20.7104 -0.0078125 20.7112C-0.0078125 20.7121 -0.0078125 20.713 -0.0078125 20.7139C-0.0078125 20.7148 -0.0078125 20.7157 -0.0078125 20.7165C-0.0078125 20.7174 -0.0078125 20.7183 -0.0078125 20.7192C-0.0078125 20.7201 -0.0078125 20.721 -0.0078125 20.7218C-0.0078125 20.7227 -0.0078125 20.7236 -0.0078125 20.7245C-0.0078125 20.7254 -0.0078125 20.7263 -0.0078125 20.7271C-0.0078125 20.728 -0.0078125 20.7289 -0.0078125 20.7298C-0.0078125 20.7307 -0.0078125 20.7316 -0.0078125 20.7324C-0.0078125 20.7333 -0.0078125 20.7342 -0.0078125 20.7351C-0.0078125 20.736 -0.0078125 20.7369 -0.0078125 20.7377C-0.0078125 20.7386 -0.0078125 20.7395 -0.0078125 20.7404C-0.0078125 20.7413 -0.0078125 20.7422 -0.0078125 20.7431C-0.0078125 20.7439 -0.0078125 20.7448 -0.0078125 20.7457C-0.0078125 20.7466 -0.0078125 20.7475 -0.0078125 20.7484C-0.0078125 20.7492 -0.0078125 20.7501 -0.0078125 20.751C-0.0078125 20.7519 -0.0078125 20.7528 -0.0078125 20.7537C-0.0078125 20.7546 -0.0078125 20.7554 -0.0078125 20.7563C-0.0078125 20.7572 -0.0078125 20.7581 -0.0078125 20.759C-0.0078125 20.7599 -0.0078125 20.7607 -0.0078125 20.7616C-0.0078125 20.7625 -0.0078125 20.7634 -0.0078125 20.7643C-0.0078125 20.7652 -0.0078125 20.7661 -0.0078125 20.7669C-0.0078125 20.7678 -0.0078125 20.7687 -0.0078125 20.7696C-0.0078125 20.7705 -0.0078125 20.7714 -0.0078125 20.7723C-0.0078125 20.7731 -0.0078125 20.774 -0.0078125 20.7749C-0.0078125 20.7758 -0.0078125 20.7767 -0.0078125 20.7776C-0.0078125 20.7785 -0.0078125 20.7793 -0.0078125 20.7802C-0.0078125 20.7811 -0.0078125 20.782 -0.0078125 20.7829C-0.0078125 20.7838 -0.0078125 20.7847 -0.0078125 20.7855C-0.0078125 20.7864 -0.0078125 20.7873 -0.0078125 20.7882C-0.0078125 20.7891 -0.0078125 20.79 -0.0078125 20.7909C-0.0078125 20.7918 -0.0078125 20.7926 -0.0078125 20.7935C-0.0078125 20.7944 -0.0078125 20.7953 -0.0078125 20.7962C-0.0078125 20.7971 -0.0078125 20.798 -0.0078125 20.7988C-0.0078125 20.7997 -0.0078125 20.8006 -0.0078125 20.8015C-0.0078125 20.8024 -0.0078125 20.8033 -0.0078125 20.8042C-0.0078125 20.805 -0.0078125 20.8059 -0.0078125 20.8068C-0.0078125 20.8077 -0.0078125 20.8086 -0.0078125 20.8095C-0.0078125 20.8104 -0.0078125 20.8113 -0.0078125 20.8121C-0.0078125 20.813 -0.0078125 20.8139 -0.0078125 20.8148C-0.0078125 20.8157 -0.0078125 20.8166 -0.0078125 20.8175C-0.0078125 20.8184 -0.0078125 20.8192 -0.0078125 20.8201C-0.0078125 20.821 -0.0078125 20.8219 -0.0078125 20.8228C-0.0078125 20.8237 -0.0078125 20.8246 -0.0078125 20.8255C-0.0078125 20.8263 -0.0078125 20.8272 -0.0078125 20.8281C-0.0078125 20.829 -0.0078125 20.8299 -0.0078125 20.8308C-0.0078125 20.8317 -0.0078125 20.8326 -0.0078125 20.8334C-0.0078125 20.8343 -0.0078125 20.8352 -0.0078125 20.8361C-0.0078125 20.837 -0.0078125 20.8379 -0.0078125 20.8388C-0.0078125 20.8397 -0.0078125 20.8406 -0.0078125 20.8414C-0.0078125 20.8423 -0.0078125 20.8432 -0.0078125 20.8441C-0.0078125 20.845 -0.0078125 20.8459 -0.0078125 20.8468C-0.0078125 20.8477 -0.0078125 20.8485 -0.0078125 20.8494C-0.0078125 20.8503 -0.0078125 20.8512 -0.0078125 20.8521C-0.0078125 20.853 -0.0078125 20.8539 -0.0078125 20.8548C-0.0078125 20.8557 -0.0078125 20.8565 -0.0078125 20.8574C-0.0078125 20.8583 -0.0078125 20.8592 -0.0078125 20.8601C-0.0078125 20.861 -0.0078125 20.8619 -0.0078125 20.8628C-0.0078125 20.8637 -0.0078125 20.8645 -0.0078125 20.8654C-0.0078125 20.8663 -0.0078125 20.8672 -0.0078125 20.8681C-0.0078125 20.869 -0.0078125 20.8699 -0.0078125 20.8708C-0.0078125 20.8717 -0.0078125 20.8726 -0.0078125 20.8734C-0.0078125 20.8743 -0.0078125 20.8752 -0.0078125 20.8761C-0.0078125 20.877 -0.0078125 20.8779 -0.0078125 20.8788C-0.0078125 20.8797 -0.0078125 20.8806 -0.0078125 20.8815C-0.0078125 20.8823 -0.0078125 20.8832 -0.0078125 20.8841C-0.0078125 20.885 -0.0078125 20.8859 -0.0078125 20.8868C-0.0078125 20.8877 -0.0078125 20.8886 -0.0078125 20.8895C-0.0078125 20.8904 -0.0078125 20.8912 -0.0078125 20.8921C-0.0078125 20.893 -0.0078125 20.8939 -0.0078125 20.8948C-0.0078125 20.8957 -0.0078125 20.8966 -0.0078125 20.8975C-0.0078125 20.8984 -0.0078125 20.8993 -0.0078125 20.9001C-0.0078125 20.901 -0.0078125 20.9019 -0.0078125 20.9028C-0.0078125 20.9037 -0.0078125 20.9046 -0.0078125 20.9055C-0.0078125 20.9064 -0.0078125 20.9073 -0.0078125 20.9082C-0.0078125 20.9091 -0.0078125 20.9099 -0.0078125 20.9108C-0.0078125 20.9117 -0.0078125 20.9126 -0.0078125 20.9135C-0.0078125 20.9144 -0.0078125 20.9153 -0.0078125 20.9162C-0.0078125 20.9171 -0.0078125 20.918 -0.0078125 20.9189C-0.0078125 20.9197 -0.0078125 20.9206 -0.0078125 20.9215C-0.0078125 20.9224 -0.0078125 20.9233 -0.0078125 20.9242C-0.0078125 20.9251 -0.0078125 20.926 -0.0078125 20.9269C-0.0078125 20.9278 -0.0078125 20.9287 -0.0078125 20.9296C-0.0078125 20.9304 -0.0078125 20.9313 -0.0078125 20.9322C-0.0078125 20.9331 -0.0078125 20.934 -0.0078125 20.9349C-0.0078125 20.9358 -0.0078125 20.9367 -0.0078125 20.9376C-0.0078125 20.9385 -0.0078125 20.9394 -0.0078125 20.9403C-0.0078125 20.9412 -0.0078125 20.942 -0.0078125 20.9429C-0.0078125 20.9438 -0.0078125 20.9447 -0.0078125 20.9456C-0.0078125 20.9465 -0.0078125 20.9474 -0.0078125 20.9483C-0.0078125 20.9492 -0.0078125 20.9501 -0.0078125 20.951C-0.0078125 20.9519 -0.0078125 20.9528 -0.0078125 20.9536C-0.0078125 20.9545 -0.0078125 20.9554 -0.0078125 20.9563C-0.0078125 20.9572 -0.0078125 20.9581 -0.0078125 20.959C-0.0078125 20.9599 -0.0078125 20.9608 -0.0078125 20.9617C-0.0078125 20.9626 -0.0078125 20.9635 -0.0078125 20.9644C-0.0078125 20.9653 -0.0078125 20.9661 -0.0078125 20.967C-0.0078125 20.9679 -0.0078125 20.9688 -0.0078125 20.9697C-0.0078125 20.9706 -0.0078125 20.9715 -0.0078125 20.9724C-0.0078125 20.9733 -0.0078125 20.9742 -0.0078125 20.9751C-0.0078125 20.976 -0.0078125 20.9769 -0.0078125 20.9778C-0.0078125 20.9787 -0.0078125 20.9795 -0.0078125 20.9804C-0.0078125 20.9813 -0.0078125 20.9822 -0.0078125 20.9831C-0.0078125 20.984 -0.0078125 20.9849 -0.0078125 20.9858C-0.0078125 20.9867 -0.0078125 20.9876 -0.0078125 20.9885C-0.0078125 20.9894 -0.0078125 20.9903 -0.0078125 20.9912C-0.0078125 20.9921 -0.0078125 20.993 -0.0078125 20.9939C-0.0078125 20.9948 -0.0078125 20.9956 -0.0078125 20.9965C-0.0078125 20.9974 -0.0078125 20.9983 -0.0078125 20.9992C-0.0078125 21.0001 -0.0078125 21.001 -0.0078125 21.0019C-0.0078125 21.0028 -0.0078125 21.0037 -0.0078125 21.0046C-0.0078125 21.0055 -0.0078125 21.0064 -0.0078125 21.0073C-0.0078125 21.0082 -0.0078125 21.0091 -0.0078125 21.01C-0.0078125 21.0109 -0.0078125 21.0117 -0.0078125 21.0126C-0.0078125 21.0135 -0.0078125 21.0144 -0.0078125 21.0153C-0.0078125 21.0162 -0.0078125 21.0171 -0.0078125 21.018C-0.0078125 21.0189 -0.0078125 21.0198 -0.0078125 21.0207C-0.0078125 21.0216 -0.0078125 21.0225 -0.0078125 21.0234C-0.0078125 21.0243 -0.0078125 21.0252 -0.0078125 21.0261C-0.0078125 21.027 -0.0078125 21.0279 -0.0078125 21.0288C-0.0078125 21.0297 -0.0078125 21.0306 -0.0078125 21.0314C-0.0078125 21.0323 -0.0078125 21.0332 -0.0078125 21.0341C-0.0078125 21.035 -0.0078125 21.0359 -0.0078125 21.0368C-0.0078125 21.0377 -0.0078125 21.0386 -0.0078125 21.0395C-0.0078125 21.0404 -0.0078125 21.0413 -0.0078125 21.0422C-0.0078125 21.0431 -0.0078125 21.044 -0.0078125 21.0449C-0.0078125 21.0458 -0.0078125 21.0467 -0.0078125 21.0476C-0.0078125 21.0485 -0.0078125 21.0494 -0.0078125 21.0503C-0.0078125 21.0512 -0.0078125 21.0521 -0.0078125 21.053C-0.0078125 21.0539 -0.0078125 21.0548 -0.0078125 21.0556C-0.0078125 21.0565 -0.0078125 21.0574 -0.0078125 21.0583C-0.0078125 21.0592 -0.0078125 21.0601 -0.0078125 21.061C-0.0078125 21.0619 -0.0078125 21.0628 -0.0078125 21.0637C-0.0078125 21.0646 -0.0078125 21.0655 -0.0078125 21.0664C-0.0078125 21.0673 -0.0078125 21.0682 -0.0078125 21.0691C-0.0078125 21.07 -0.0078125 21.0709 -0.0078125 21.0718C-0.0078125 21.0727 -0.0078125 21.0736 -0.0078125 21.0745C-0.0078125 21.0754 -0.0078125 21.0763 -0.0078125 21.0772C-0.0078125 21.0781 -0.0078125 21.079 -0.0078125 21.0799C-0.0078125 21.0808 -0.0078125 21.0817 -0.0078125 21.0826C-0.0078125 21.0835 -0.0078125 21.0844 -0.0078125 21.0853C-0.0078125 21.0862 -0.0078125 21.0871 -0.0078125 21.088C-0.0078125 21.0889 -0.0078125 21.0897 -0.0078125 21.0906C-0.0078125 21.0915 -0.0078125 21.0924 -0.0078125 21.0933C-0.0078125 21.0942 -0.0078125 21.0951 -0.0078125 21.096C-0.0078125 21.0969 -0.0078125 21.0978 -0.0078125 21.0987C-0.0078125 21.0996 -0.0078125 21.1005 -0.0078125 21.1014C-0.0078125 21.1023 -0.0078125 21.1032 -0.0078125 21.1041C-0.0078125 21.105 -0.0078125 21.1059 -0.0078125 21.1068C-0.0078125 21.1077 -0.0078125 21.1086 -0.0078125 21.1095C-0.0078125 21.1104 -0.0078125 21.1113 -0.0078125 21.1122C-0.0078125 21.1131 -0.0078125 21.114 -0.0078125 21.1149C-0.0078125 21.1158 -0.0078125 21.1167 -0.0078125 21.1176C-0.0078125 21.1185 -0.0078125 21.1194 -0.0078125 21.1203C-0.0078125 21.1212 -0.0078125 21.1221 -0.0078125 21.123C-0.0078125 21.1239 -0.0078125 21.1248 -0.0078125 21.1257C-0.0078125 21.1266 -0.0078125 21.1275 -0.0078125 21.1284C-0.0078125 21.1293 -0.0078125 21.1302 -0.0078125 21.1311C-0.0078125 21.132 -0.0078125 21.1329 -0.0078125 21.1338C-0.0078125 21.1347 -0.0078125 21.1356 -0.0078125 21.1365C-0.0078125 21.1374 -0.0078125 21.1383 -0.0078125 21.1392C-0.0078125 21.1401 -0.0078125 21.141 -0.0078125 21.1419C-0.0078125 21.1428 -0.0078125 21.1437 -0.0078125 21.1446C-0.0078125 21.1455 -0.0078125 21.1464 -0.0078125 21.1473C-0.0078125 21.1482 -0.0078125 21.1491 -0.0078125 21.15C-0.0078125 21.1509 -0.0078125 21.1518 -0.0078125 21.1527C-0.0078125 21.1536 -0.0078125 21.1545 -0.0078125 21.1554C-0.0078125 21.1563 -0.0078125 21.1572 -0.0078125 21.1581C-0.0078125 21.159 -0.0078125 21.1599 -0.0078125 21.1608C-0.0078125 21.1617 -0.0078125 21.1626 -0.0078125 21.1635C-0.0078125 21.1644 -0.0078125 21.1653 -0.0078125 21.1662C-0.0078125 21.1671 -0.0078125 21.168 -0.0078125 21.1689C-0.0078125 21.1698 -0.0078125 21.1707 -0.0078125 21.1716C-0.0078125 21.1725 -0.0078125 21.1734 -0.0078125 21.1743C-0.0078125 21.1752 -0.0078125 21.1761 -0.0078125 21.177C-0.0078125 21.1779 -0.0078125 21.1788 -0.0078125 21.1797C-0.0078125 21.1806 -0.0078125 21.1815 -0.0078125 21.1824C-0.0078125 21.1833 -0.0078125 21.1842 -0.0078125 21.1851C-0.0078125 21.186 -0.0078125 21.1869 -0.0078125 21.1879C-0.0078125 21.1888 -0.0078125 21.1897 -0.0078125 21.1906C-0.0078125 21.1915 -0.0078125 21.1924 -0.0078125 21.1933C-0.0078125 21.1942 -0.0078125 21.1951 -0.0078125 21.196C-0.0078125 21.1969 -0.0078125 21.1978 -0.0078125 21.1987C-0.0078125 21.1996 -0.0078125 21.2005 -0.0078125 21.2014C-0.0078125 21.2023 -0.0078125 21.2032 -0.0078125 21.2041C-0.0078125 21.205 -0.0078125 21.2059 -0.0078125 21.2068C-0.0078125 21.2077 -0.0078125 21.2086 -0.0078125 21.2095C-0.0078125 21.2104 -0.0078125 21.2113 -0.0078125 21.2122C-0.0078125 21.2131 -0.0078125 21.214 -0.0078125 21.2149C-0.0078125 21.2158 -0.0078125 21.2167 -0.0078125 21.2176C-0.0078125 21.2185 -0.0078125 21.2194 -0.0078125 21.2203C-0.0078125 21.2212 -0.0078125 21.2221 -0.0078125 21.2231C-0.0078125 21.224 -0.0078125 21.2249 -0.0078125 21.2258C-0.0078125 21.2267 -0.0078125 21.2276 -0.0078125 21.2285C-0.0078125 21.2294 -0.0078125 21.2303 -0.0078125 21.2312C-0.0078125 21.2321 -0.0078125 21.233 -0.0078125 21.2339C-0.0078125 21.2348 -0.0078125 21.2357 -0.0078125 21.2366C-0.0078125 21.2375 -0.0078125 21.2384 -0.0078125 21.2393C-0.0078125 21.2402 -0.0078125 21.2411 -0.0078125 21.242C-0.0078125 21.2429 -0.0078125 21.2438 -0.0078125 21.2447C-0.0078125 21.2456 -0.0078125 21.2465 -0.0078125 21.2475C-0.0078125 21.2484 -0.0078125 21.2493 -0.0078125 21.2502C-0.0078125 21.2511 -0.0078125 21.252 -0.0078125 21.2529C-0.0078125 21.2538 -0.0078125 21.2547 -0.0078125 21.2556C-0.0078125 21.2565 -0.0078125 21.2574 -0.0078125 21.2583C-0.0078125 21.2592 -0.0078125 21.2601 -0.0078125 21.261C-0.0078125 21.2619 -0.0078125 21.2628 -0.0078125 21.2637C-0.0078125 21.2646 -0.0078125 21.2655 -0.0078125 21.2664C-0.0078125 21.2674 -0.0078125 21.2683 -0.0078125 21.2692C-0.0078125 21.2701 -0.0078125 21.271 -0.0078125 21.2719C-0.0078125 21.2728 -0.0078125 21.2737 -0.0078125 21.2746C-0.0078125 21.2755 -0.0078125 21.2764 -0.0078125 21.2773C-0.0078125 21.2782 -0.0078125 21.2791 -0.0078125 21.28C-0.0078125 21.2809 -0.0078125 21.2818 -0.0078125 21.2827C-0.0078125 21.2837 -0.0078125 21.2846 -0.0078125 21.2855C-0.0078125 21.2864 -0.0078125 21.2873 -0.0078125 21.2882C-0.0078125 21.2891 -0.0078125 21.29 -0.0078125 21.2909C-0.0078125 21.2918 -0.0078125 21.2927 -0.0078125 21.2936C-0.0078125 21.2945 -0.0078125 21.2954 -0.0078125 21.2963C-0.0078125 21.2972 -0.0078125 21.2981 -0.0078125 21.2991C-0.0078125 21.3 -0.0078125 21.3009 -0.0078125 21.3018C-0.0078125 21.3027 -0.0078125 21.3036 -0.0078125 21.3045C-0.0078125 21.3054 -0.0078125 21.3063 -0.0078125 21.3072C-0.0078125 21.3081 -0.0078125 21.309 -0.0078125 21.3099C-0.0078125 21.3108 -0.0078125 21.3117 -0.0078125 21.3126C-0.0078125 21.3136 -0.0078125 21.3145 -0.0078125 21.3154C-0.0078125 21.3163 -0.0078125 21.3172 -0.0078125 21.3181C-0.0078125 21.319 -0.0078125 21.3199 -0.0078125 21.3208C-0.0078125 21.3217 -0.0078125 21.3226 -0.0078125 21.3235C-0.0078125 21.3244 -0.0078125 21.3253 -0.0078125 21.3263C-0.0078125 21.3272 -0.0078125 21.3281 -0.0078125 21.329C-0.0078125 21.3299 -0.0078125 21.3308 -0.0078125 21.3317C-0.0078125 21.3326 -0.0078125 21.3335 -0.0078125 21.3344C-0.0078125 21.3353 -0.0078125 21.3362 -0.0078125 21.3371C-0.0078125 21.3381 -0.0078125 21.339 -0.0078125 21.3399C-0.0078125 21.3408 -0.0078125 21.3417 -0.0078125 21.3426C-0.0078125 21.3435 -0.0078125 21.3444 -0.0078125 21.3453C-0.0078125 21.3462 -0.0078125 21.3471 -0.0078125 21.348C-0.0078125 21.3489 -0.0078125 21.3499 -0.0078125 21.3508C-0.0078125 21.3517 -0.0078125 21.3526 -0.0078125 21.3535C-0.0078125 21.3544 -0.0078125 21.3553 -0.0078125 21.3562C-0.0078125 21.3571 -0.0078125 21.358 -0.0078125 21.3589C-0.0078125 21.3599 -0.0078125 21.3608 -0.0078125 21.3617C-0.0078125 21.3626 -0.0078125 21.3635 -0.0078125 21.3644C-0.0078125 21.3653 -0.0078125 21.3662 -0.0078125 21.3671C-0.0078125 21.368 -0.0078125 21.3689 -0.0078125 21.3698C-0.0078125 21.3708 -0.0078125 21.3717 -0.0078125 21.3726C-0.0078125 21.3735 -0.0078125 21.3744 -0.0078125 21.3753C-0.0078125 21.3762 -0.0078125 21.3771 -0.0078125 21.378C-0.0078125 21.3789 -0.0078125 21.3798 -0.0078125 21.3808C-0.0078125 21.3817 -0.0078125 21.3826 -0.0078125 21.3835C-0.0078125 21.3844 -0.0078125 21.3853 -0.0078125 21.3862C-0.0078125 21.3871 -0.0078125 21.388 -0.0078125 21.3889C-0.0078125 21.3899 -0.0078125 21.3908 -0.0078125 21.3917C-0.0078125 21.3926 -0.0078125 21.3935 -0.0078125 21.3944C-0.0078125 21.3953 -0.0078125 21.3962 -0.0078125 21.3971C-0.0078125 21.398 -0.0078125 21.399 -0.0078125 21.3999C-0.0078125 21.4008 -0.0078125 21.4017 -0.0078125 21.4026C-0.0078125 21.4035 -0.0078125 21.4044 -0.0078125 21.4053C-0.0078125 21.4062 -0.0078125 21.4071 -0.0078125 21.4081C-0.0078125 21.409 -0.0078125 21.4099 -0.0078125 21.4108C-0.0078125 21.4117 -0.0078125 21.4126 -0.0078125 21.4135C-0.0078125 21.4144 -0.0078125 21.4153 -0.0078125 21.4163C-0.0078125 21.4172 -0.0078125 21.4181 -0.0078125 21.419C-0.0078125 21.4199 -0.0078125 21.4208 -0.0078125 21.4217C-0.0078125 21.4226 -0.0078125 21.4235 -0.0078125 21.4244C-0.0078125 21.4254 -0.0078125 21.4263 -0.0078125 21.4272C-0.0078125 21.4281 -0.0078125 21.429 -0.0078125 21.4299C-0.0078125 21.4308 -0.0078125 21.4317 -0.0078125 21.4327C-0.0078125 21.4336 -0.0078125 21.4345 -0.0078125 21.4354C-0.0078125 21.4363 -0.0078125 21.4372 -0.0078125 21.4381C-0.0078125 21.439 -0.0078125 21.4399 -0.0078125 21.4409C-0.0078125 21.4418 -0.0078125 21.4427 -0.0078125 21.4436C-0.0078125 21.4445 -0.0078125 21.4454 -0.0078125 21.4463C-0.0078125 21.4472 -0.0078125 21.4482 -0.0078125 21.4491C-0.0078125 21.45 -0.0078125 21.4509 -0.0078125 21.4518C-0.0078125 21.4527 -0.0078125 21.4536 -0.0078125 21.4545C-0.0078125 21.4554 -0.0078125 21.4564 -0.0078125 21.4573C-0.0078125 21.4582 -0.0078125 21.4591 -0.0078125 21.46C-0.0078125 21.4609 -0.0078125 21.4618 -0.0078125 21.4627C-0.0078125 21.4637 -0.0078125 21.4646 -0.0078125 21.4655C-0.0078125 21.4664 -0.0078125 21.4673 -0.0078125 21.4682C-0.0078125 21.4691 -0.0078125 21.4701 -0.0078125 21.471C-0.0078125 21.4719 -0.0078125 21.4728 -0.0078125 21.4737C-0.0078125 21.4746 -0.0078125 21.4755 -0.0078125 21.4764C-0.0078125 21.4774 -0.0078125 21.4783 -0.0078125 21.4792C-0.0078125 21.4801 -0.0078125 21.481 -0.0078125 21.4819C-0.0078125 21.4828 -0.0078125 21.4837 -0.0078125 21.4847C-0.0078125 21.4856 -0.0078125 21.4865 -0.0078125 21.4874C-0.0078125 21.4883 -0.0078125 21.4892 -0.0078125 21.4901C-0.0078125 21.4911 -0.0078125 21.492 -0.0078125 21.4929C-0.0078125 21.4938 -0.0078125 21.4947 -0.0078125 21.4956C-0.0078125 21.4965 -0.0078125 21.4975 -0.0078125 21.4984C-0.0078125 21.4993 -0.0078125 21.5002 -0.0078125 21.5011C-0.0078125 21.502 -0.0078125 21.5029 -0.0078125 21.5038C-0.0078125 21.5048 -0.0078125 21.5057 -0.0078125 21.5066C-0.0078125 21.5075 -0.0078125 21.5084 -0.0078125 21.5093C-0.0078125 21.5103 -0.0078125 21.5112 -0.0078125 21.5121C-0.0078125 21.513 -0.0078125 21.5139 -0.0078125 21.5148C-0.0078125 21.5157 -0.0078125 21.5167 -0.0078125 21.5176C-0.0078125 21.5185 -0.0078125 21.5194 -0.0078125 21.5203C-0.0078125 21.5212 -0.0078125 21.5221 -0.0078125 21.5231C-0.0078125 21.524 -0.0078125 21.5249 -0.0078125 21.5258C-0.0078125 21.5267 -0.0078125 21.5276 -0.0078125 21.5285C-0.0078125 21.5295 -0.0078125 21.5304 -0.0078125 21.5313C-0.0078125 21.5322 -0.0078125 21.5331 -0.0078125 21.534C-0.0078125 21.535 -0.0078125 21.5359 -0.0078125 21.5368C-0.0078125 21.5377 -0.0078125 21.5386 -0.0078125 21.5395C-0.0078125 21.5404 -0.0078125 21.5414 -0.0078125 21.5423C-0.0078125 21.5432 -0.0078125 21.5441 -0.0078125 21.545C-0.0078125 21.5459 -0.0078125 21.5469 -0.0078125 21.5478C-0.0078125 21.5487 -0.0078125 21.5496 -0.0078125 21.5505C-0.0078125 21.5514 -0.0078125 21.5523 -0.0078125 21.5533C-0.0078125 21.5542 -0.0078125 21.5551 -0.0078125 21.556C-0.0078125 21.5569 -0.0078125 21.5578 -0.0078125 21.5588C-0.0078125 21.5597 -0.0078125 21.5606 -0.0078125 21.5615C-0.0078125 21.5624 -0.0078125 21.5633 -0.0078125 21.5643C-0.0078125 21.5652 -0.0078125 21.5661 -0.0078125 21.567C-0.0078125 21.5679 -0.0078125 21.5688 -0.0078125 21.5698C-0.0078125 21.5707 -0.0078125 21.5716 -0.0078125 21.5725C-0.0078125 21.5734 -0.0078125 21.5743 -0.0078125 21.5753C-0.0078125 21.5762 -0.0078125 21.5771 -0.0078125 21.578C-0.0078125 21.5789 -0.0078125 21.5798 -0.0078125 21.5808C-0.0078125 21.5817 -0.0078125 21.5826 -0.0078125 21.5835C-0.0078125 21.5844 -0.0078125 21.5854 -0.0078125 21.5863C-0.0078125 21.5872 -0.0078125 21.5881 -0.0078125 21.589C-0.0078125 21.5899 -0.0078125 21.5909 -0.0078125 21.5918C-0.0078125 21.5927 -0.0078125 21.5936 -0.0078125 21.5945C-0.0078125 21.5954 -0.0078125 21.5964 -0.0078125 21.5973C-0.0078125 21.5982 -0.0078125 21.5991 -0.0078125 21.6C-0.0078125 21.6009 -0.0078125 21.6019 -0.0078125 21.6028C-0.0078125 21.6037 -0.0078125 21.6046 -0.0078125 21.6055C-0.0078125 21.6065 -0.0078125 21.6074 -0.0078125 21.6083C-0.0078125 21.6092 -0.0078125 21.6101 -0.0078125 21.611C-0.0078125 21.612 -0.0078125 21.6129 -0.0078125 21.6138C-0.0078125 21.6147 -0.0078125 21.6156 -0.0078125 21.6166C-0.0078125 21.6175 -0.0078125 21.6184 -0.0078125 21.6193C-0.0078125 21.6202 -0.0078125 21.6212 -0.0078125 21.6221H1.99219ZM1.99219 20.2524C1.99219 13.6874 3.52751 9.08739 6.38924 6.22566L4.97502 4.81145C1.5835 8.20298 -0.0078125 13.4255 -0.0078125 20.2524H1.99219ZM6.38924 6.22566C9.2571 3.3578 13.7394 1.82861 20.0425 1.82861V-0.171387C13.4517 -0.171387 8.36041 1.42606 4.97502 4.81145L6.38924 6.22566ZM20.0425 1.82861C26.1037 1.82861 30.4684 3.40246 33.3292 6.37768C36.197 9.36021 37.7192 13.9224 37.7192 20.2524H39.7192C39.7192 13.6333 38.1287 8.48354 34.7709 4.99146C31.4061 1.49207 26.4324 -0.171387 20.0425 -0.171387V1.82861ZM37.7192 20.2524C37.7192 23.7689 37.2446 26.6029 36.3419 28.795L38.1913 29.5565C39.2255 27.0449 39.7192 23.93 39.7192 20.2524H37.7192ZM36.3435 28.7912C35.4958 30.8256 33.9298 32.2743 31.5341 33.1317L32.2081 35.0148C35.0696 33.9906 37.1005 32.1744 38.1897 29.5604L36.3435 28.7912ZM31.4384 34.9748C33.3881 35.9106 34.7631 37.0732 35.6368 38.4324L37.3192 37.3508C36.2008 35.611 34.5045 34.2281 32.3038 33.1717L31.4384 34.9748ZM35.6368 38.4324C36.5356 39.8305 37.1475 41.6048 37.4374 43.792L39.42 43.5293C39.1012 41.1234 38.4126 39.0517 37.3192 37.3508L35.6368 38.4324ZM37.4374 43.792C37.7342 46.0314 37.8853 48.7656 37.8853 52.0029H39.8853C39.8853 48.7103 39.732 45.883 39.42 43.5293L37.4374 43.792ZM37.8853 52.0029C37.8853 59.1838 36.3736 64.5649 33.4884 68.2818L35.0683 69.5082C38.3257 65.3117 39.8853 59.4315 39.8853 52.0029H37.8853ZM33.4857 68.2853C30.7017 71.9045 25.998 73.8301 19.0879 73.8301V75.8301C26.3445 75.8301 31.7677 73.799 35.0709 69.5047L33.4857 68.2853Z" fill="#6E81A0" mask="url(#path-1-outside-1_1_32)"/>
</svg>
