<svg width="40" height="76" viewBox="0 0 40 76" fill="none" xmlns="http://www.w3.org/2000/svg">
<mask id="path-1-outside-1_1_84" maskUnits="userSpaceOnUse" x="-1" y="-1" width="42" height="78" fill="black">
<rect fill="white" x="-1" y="-1" width="42" height="78"/>
<path d="M20.001 75.0376C14.3841 75.0376 9.79102 73.6541 6.22168 70.8872C2.68001 68.0926 0.90918 63.8177 0.90918 58.0625V47.1885H16.0996V53.4556C16.0996 54.756 16.1688 56.015 16.3071 57.2324C16.4731 58.4499 16.8328 59.446 17.3862 60.2207C17.9396 60.9954 18.8112 61.3828 20.001 61.3828C21.5781 61.3828 22.6157 60.8571 23.1138 59.8057C23.6118 58.7266 23.8608 57.3569 23.8608 55.6968V41.3364C23.8608 40.1466 23.7778 38.9707 23.6118 37.8086C23.4735 36.6465 23.1414 35.6781 22.6157 34.9033C22.09 34.1286 21.2461 33.7412 20.084 33.7412C17.3171 33.7412 15.9336 35.7472 15.9336 39.7593H2.52783V0.911621H37.3496V14.6079H16.3901V24.9009C17.1095 24.0155 18.078 23.2407 19.2954 22.5767C20.5405 21.8849 21.9932 21.5391 23.6533 21.5391C26.9736 21.5391 29.6714 22.1755 31.7466 23.4482C33.8494 24.721 35.4543 26.4919 36.561 28.7607C37.6955 31.0296 38.4702 33.6582 38.8853 36.6465C39.328 39.6348 39.5493 42.8444 39.5493 46.2754C39.5493 50.6748 39.3141 54.6453 38.8438 58.187C38.401 61.701 37.5018 64.717 36.146 67.2349C34.8179 69.7528 32.8534 71.6896 30.2524 73.0454C27.6792 74.3735 24.262 75.0376 20.001 75.0376Z"/>
</mask>
<path d="M6.22168 70.8872L5.60221 71.6723L5.60901 71.6776L6.22168 70.8872ZM0.90918 47.1885V46.1885H-0.0908203V47.1885H0.90918ZM16.0996 47.1885H17.0996V46.1885H16.0996V47.1885ZM16.3071 57.2324L15.3135 57.3453L15.3148 57.3564L15.3163 57.3675L16.3071 57.2324ZM23.1138 59.8057L24.0176 60.2338L24.0217 60.2247L23.1138 59.8057ZM23.6118 37.8086L22.6188 37.9268L22.6202 37.9384L22.6219 37.95L23.6118 37.8086ZM15.9336 39.7593V40.7593H16.9336V39.7593H15.9336ZM2.52783 39.7593H1.52783V40.7593H2.52783V39.7593ZM2.52783 0.911621V-0.0883789H1.52783V0.911621H2.52783ZM37.3496 0.911621H38.3496V-0.0883789H37.3496V0.911621ZM37.3496 14.6079V15.6079H38.3496V14.6079H37.3496ZM16.3901 14.6079V13.6079H15.3901V14.6079H16.3901ZM16.3901 24.9009H15.3901V27.7175L17.1663 25.5315L16.3901 24.9009ZM19.2954 22.5767L19.7743 23.4546L19.7811 23.4508L19.2954 22.5767ZM31.7466 23.4482L31.2237 24.3007L31.2288 24.3037L31.7466 23.4482ZM36.561 28.7607L35.6622 29.1992L35.6666 29.208L36.561 28.7607ZM38.8853 36.6465L37.8947 36.7841L37.896 36.793L38.8853 36.6465ZM38.8438 58.187L37.8524 58.0554L37.8516 58.062L38.8438 58.187ZM36.146 67.2349L35.2655 66.7607L35.2615 66.7683L36.146 67.2349ZM30.2524 73.0454L30.7111 73.934L30.7147 73.9322L30.2524 73.0454ZM20.001 74.0376C14.5507 74.0376 10.1892 72.6976 6.83435 70.0969L5.60901 71.6776C9.39279 74.6107 14.2175 76.0376 20.001 76.0376V74.0376ZM6.84113 70.1022C3.60385 67.5478 1.90918 63.6037 1.90918 58.0625H-0.0908203C-0.0908203 64.0317 1.75617 68.6375 5.60223 71.6722L6.84113 70.1022ZM1.90918 58.0625V47.1885H-0.0908203V58.0625H1.90918ZM0.90918 48.1885H16.0996V46.1885H0.90918V48.1885ZM15.0996 47.1885V53.4556H17.0996V47.1885H15.0996ZM15.0996 53.4556C15.0996 54.7915 15.1707 56.0882 15.3135 57.3453L17.3007 57.1195C17.1669 55.9418 17.0996 54.7206 17.0996 53.4556H15.0996ZM15.3163 57.3675C15.4981 58.7005 15.9013 59.8623 16.5725 60.8019L18.2 59.6395C17.7644 59.0297 17.4482 58.1992 17.298 57.0973L15.3163 57.3675ZM16.5725 60.8019C17.3605 61.9052 18.5785 62.3828 20.001 62.3828V60.3828C19.0439 60.3828 18.5187 60.0857 18.2 59.6395L16.5725 60.8019ZM20.001 62.3828C21.8032 62.3828 23.2946 61.7598 24.0175 60.2337L22.21 59.3776C21.9368 59.9544 21.353 60.3828 20.001 60.3828V62.3828ZM24.0217 60.2247C24.5995 58.9729 24.8608 57.4479 24.8608 55.6968H22.8608C22.8608 57.266 22.6241 58.4802 22.2058 59.3866L24.0217 60.2247ZM24.8608 55.6968V41.3364H22.8608V55.6968H24.8608ZM24.8608 41.3364C24.8608 40.1 24.7746 38.8768 24.6018 37.6672L22.6219 37.95C22.7811 39.0647 22.8608 40.1933 22.8608 41.3364H24.8608ZM24.6048 37.6904C24.4522 36.4083 24.0784 35.278 23.4432 34.3418L21.7882 35.4648C22.2044 36.0782 22.4948 36.8847 22.6188 37.9268L24.6048 37.6904ZM23.4432 34.3418C22.6857 33.2255 21.487 32.7412 20.084 32.7412V34.7412C21.0052 34.7412 21.4943 35.0316 21.7882 35.4648L23.4432 34.3418ZM20.084 32.7412C18.4235 32.7412 17.0539 33.3644 16.148 34.678C15.2883 35.9245 14.9336 37.6693 14.9336 39.7593H16.9336C16.9336 37.8372 17.2706 36.573 17.7944 35.8135C18.2719 35.1211 18.9776 34.7412 20.084 34.7412V32.7412ZM15.9336 38.7593H2.52783V40.7593H15.9336V38.7593ZM3.52783 39.7593V0.911621H1.52783V39.7593H3.52783ZM2.52783 1.91162H37.3496V-0.0883789H2.52783V1.91162ZM36.3496 0.911621V14.6079H38.3496V0.911621H36.3496ZM37.3496 13.6079H16.3901V15.6079H37.3496V13.6079ZM15.3901 14.6079V24.9009H17.3901V14.6079H15.3901ZM17.1663 25.5315C17.788 24.7663 18.6471 24.0694 19.7743 23.4546L18.8166 21.6988C17.5089 22.4121 16.4311 23.2646 15.614 24.2703L17.1663 25.5315ZM19.7811 23.4508C20.8547 22.8544 22.1348 22.5391 23.6533 22.5391V20.5391C21.8515 20.5391 20.2264 20.9155 18.8098 21.7025L19.7811 23.4508ZM23.6533 22.5391C26.8538 22.5391 29.3532 23.1534 31.2238 24.3007L32.2694 22.5958C29.9896 21.1975 27.0934 20.5391 23.6533 20.5391V22.5391ZM31.2288 24.3037C33.1626 25.4742 34.6374 27.0981 35.6623 29.1992L37.4598 28.3223C36.2712 25.8856 34.5363 23.9679 32.2644 22.5927L31.2288 24.3037ZM35.6666 29.208C36.7442 31.3631 37.4919 33.8837 37.8948 36.7841L39.8757 36.5089C39.4485 33.4327 38.6468 30.6961 37.4555 28.3135L35.6666 29.208ZM37.896 36.793C38.3307 39.7268 38.5493 42.887 38.5493 46.2754H40.5493C40.5493 42.8018 40.3252 39.5427 39.8745 36.4999L37.896 36.793ZM38.5493 46.2754C38.5493 50.6404 38.3159 54.5659 37.8525 58.0554L39.835 58.3187C40.3124 54.7247 40.5493 50.7092 40.5493 46.2754H38.5493ZM37.8516 58.062C37.4207 61.4819 36.5508 64.3738 35.2655 66.7608L37.0265 67.709C38.4528 65.0601 39.3813 61.9201 39.8359 58.312L37.8516 58.062ZM35.2615 66.7683C34.0312 69.1008 32.2168 70.8938 29.7902 72.1587L30.7147 73.9322C33.49 72.4855 35.6046 70.4047 37.0305 67.7014L35.2615 66.7683ZM29.7938 72.1568C27.4134 73.3854 24.172 74.0376 20.001 74.0376V76.0376C24.3521 76.0376 27.945 75.3617 30.7111 73.934L29.7938 72.1568Z" fill="#6E81A0" mask="url(#path-1-outside-1_1_84)"/>
</svg>
