<svg width="454" height="374" viewBox="0 0 454 374" fill="none" xmlns="http://www.w3.org/2000/svg">
<path d="M59.1048 337.547L276.363 350.476C289.296 341.831 368.012 366.053 384.884 298.868C401.19 251.263 362.73 234.309 341.814 210.675C320.898 187.041 364.192 177.273 358.401 126.468C355.421 100.308 320.448 76.4492 284.631 88.968C248.815 101.543 243.642 86.554 227.055 56.071C207.769 20.704 125.34 1.44867 77.6035 65.1654C29.8668 128.826 75.9167 177.105 70.5189 199.897C65.1211 222.689 26.6056 234.422 23.9067 278.266C22.2761 303.584 31.666 326.32 59.1048 337.547Z" fill="url(#paint0_linear_1_1223)"/>
<path d="M384.045 259.617L385.31 260.16C385.491 259.798 401.044 223.992 439.743 193.068L438.839 191.983C399.958 223.178 384.225 259.255 384.045 259.617Z" fill="#07A899"/>
<path d="M429.798 200.664C429.798 200.664 444.446 201.297 448.243 190.989C450.775 184.298 437.935 184.388 429.798 200.664Z" fill="#07A899"/>
<path d="M423.104 206.179C423.104 206.179 431.423 218.205 442.002 215.04C448.784 213.051 441.007 202.833 423.104 206.179Z" fill="#07A899"/>
<path d="M424.192 206.36C424.192 206.36 411.443 199.126 413.613 188.366C415.059 181.314 425.91 188.186 424.192 206.36Z" fill="#07A899"/>
<path d="M411.894 218.386C411.894 218.386 420.032 230.593 430.702 227.518C437.483 225.619 429.888 215.312 411.894 218.386Z" fill="#07A899"/>
<path d="M411.803 218.928C411.803 218.928 398.963 211.785 401.133 201.025C402.49 194.062 413.34 200.753 411.803 218.928Z" fill="#07A899"/>
<path d="M400.048 233.577C400.048 233.577 408.818 245.331 419.307 241.714C425.998 239.454 417.86 229.598 400.048 233.577Z" fill="#07A899"/>
<path d="M400.049 234.57C400.049 234.57 386.757 228.422 388.114 217.391C388.927 210.428 400.32 216.306 400.049 234.57Z" fill="#07A899"/>
<path d="M388.746 251.299C388.746 251.299 403.032 254.644 408.729 245.24C412.346 239.092 399.777 236.741 388.746 251.299Z" fill="#07A899"/>
<path d="M390.012 249.761C390.012 249.761 378.347 240.9 382.055 230.502C384.406 223.811 394.171 232.039 390.012 249.761Z" fill="#07A899"/>
<path d="M374.096 183.574C309.627 216.578 328.705 327.614 330.514 337.47L348.96 331.231C352.396 305.37 363.517 273.452 380.787 247.14C405.02 209.796 405.563 170.735 374.096 183.574Z" fill="#29CABB"/>
<path d="M385.583 197.138C385.131 196.776 384.408 196.866 384.046 197.319C347.697 242.619 338.293 286.202 336.937 314.865C336.575 322.279 336.666 329.061 337.118 335.209L339.197 334.486C338.836 328.609 338.745 322.008 339.107 314.865C340.554 286.563 349.777 243.433 385.764 198.675C386.126 198.223 386.035 197.59 385.583 197.138Z" fill="white"/>
<path d="M370.301 191.893L373.014 215.131C373.014 215.131 395.981 205.999 395.8 206.27C395.529 206.541 369.397 220.285 369.397 220.285L370.301 191.893Z" fill="white"/>
<path d="M347.967 212.238L356.557 242.167L387.48 231.678L354.748 246.598L347.967 212.238Z" fill="white"/>
<path d="M337.026 244.518L347.063 267.575L365.78 259.257L346.068 271.102L337.026 244.518Z" fill="white"/>
<path d="M438.746 235.656C372.739 230.683 331.779 333.129 327.981 349.133L348.959 338.645C363.969 320.108 387.84 300.578 413.79 288.19C450.32 270.829 469.308 240.629 438.746 235.656Z" fill="white"/>
<path d="M441.187 251.751C441.006 251.208 440.464 250.937 439.921 251.118C390.009 269.021 361.979 298.588 347.241 320.289C343.443 325.895 336.933 338.735 334.311 343.708L339.645 336.655C342.177 331.863 345.161 326.709 348.868 321.284C363.426 299.945 391.185 270.739 440.554 252.926C441.097 252.836 441.368 252.203 441.187 251.751Z" fill="#B4E9EF"/>
<path d="M432.598 238.911L422.652 258.804L443.9 263.325L419.216 260.884L432.598 238.911Z" fill="#B4E9EF"/>
<path d="M405.924 245.693L403.121 269.474L428.529 276.074L400.047 271.644L405.924 245.693Z" fill="#B4E9EF"/>
<path d="M382.956 261.697L382.595 284.212L395.254 286.111L379.973 286.382L382.956 261.697Z" fill="#B4E9EF"/>
<path d="M367.405 279.329L367.857 297.051L381.511 300.035L365.687 299.583L367.405 279.329Z" fill="#B4E9EF"/>
<path d="M430.519 285.026C380.426 271.101 336.572 339.007 332.774 345.155L345.524 350.761C359.9 338.735 381.33 327.342 403.212 321.736C434.135 313.96 453.395 293.525 430.519 285.026Z" fill="#07A899"/>
<path d="M429.976 297.775C429.886 297.322 429.524 297.051 429.072 297.142C387.841 303.381 361.709 321.917 347.061 336.384C343.263 340.091 340.008 343.798 337.296 347.234L338.742 347.867C341.365 344.612 344.529 341.086 348.236 337.469C362.704 323.183 388.564 304.918 429.343 298.769C429.705 298.588 430.067 298.227 429.976 297.775Z" fill="#B4E9EF"/>
<path d="M424.731 286.743L414.966 300.668L428.529 308.082L411.892 301.482L424.731 286.743Z" fill="#B4E9EF"/>
<path d="M406.377 286.563L396.793 306.636L415.962 314.774L393.267 307.179L406.377 286.563Z" fill="#B4E9EF"/>
<path d="M384.224 296.328L377.714 314.684L394.442 321.646L375.996 316.04L384.224 296.328Z" fill="#B4E9EF"/>
<path d="M366.773 308.354L362.343 324.539L382.958 327.161L360.534 325.895L366.773 308.354Z" fill="#B4E9EF"/>
<path d="M336.845 345.426L337.749 345.969C337.93 345.698 352.306 320.832 383.23 301.663L382.688 300.759C351.583 320.109 337.025 345.155 336.845 345.426Z" fill="#29CABB"/>
<path d="M375.273 306.185C375.273 306.185 385.943 307.903 389.56 300.669C392.001 296.057 382.597 294.972 375.273 306.185Z" fill="#29CABB"/>
<path d="M371.746 308.444C371.746 308.444 376.629 318.029 384.586 316.763C389.83 315.949 385.128 307.812 371.746 308.444Z" fill="#29CABB"/>
<path d="M372.198 308.897C372.198 308.897 363.698 302.206 366.592 294.61C368.4 289.728 375.453 295.876 372.198 308.897Z" fill="#29CABB"/>
<path d="M360.534 317.848C360.534 317.848 366.321 326.89 374.187 324.901C379.251 323.545 373.826 315.859 360.534 317.848Z" fill="#29CABB"/>
<path d="M361.075 317.938C361.075 317.938 352.847 310.976 356.011 303.471C358.001 298.679 364.873 305.099 361.075 317.938Z" fill="#29CABB"/>
<path d="M351.674 326.799C351.674 326.799 357.189 336.022 365.146 334.214C370.119 333.129 364.965 325.262 351.674 326.799Z" fill="#29CABB"/>
<path d="M350.77 328.427C350.77 328.427 342.089 322.007 344.621 314.322C346.249 309.439 353.573 315.407 350.77 328.427Z" fill="#29CABB"/>
<path d="M344.71 335.299C344.71 335.299 351.13 343.98 358.816 341.267C363.789 339.549 357.821 332.316 344.71 335.299Z" fill="#29CABB"/>
<path d="M342.087 338.645C342.087 338.645 334.311 331.14 337.928 323.907C340.188 319.205 346.608 326.077 342.087 338.645Z" fill="#29CABB"/>
<path d="M183.115 145.48C175.249 145.48 168.891 139.122 168.891 131.255V121.188C168.891 113.322 175.249 106.964 183.115 106.964C190.981 106.964 197.339 113.322 197.339 121.188V131.255C197.339 139.122 190.981 145.48 183.115 145.48Z" fill="#F1A87A"/>
<path d="M218.697 96.9783C222.773 93.1063 221.061 95.1442 222.039 92.5357C222.121 92.3319 224.403 83.08 224.607 83.08C226.645 72.8091 228.846 57.8103 227.216 45.6239C224.648 26.1826 198.808 23.5333 184.054 24.2262C179.57 24.43 142.399 19.8244 138.772 52.5119C136.571 72.4015 144.763 86.2183 144.763 86.2183C154.504 103.377 197.096 100.606 214.54 97.2228C218.494 97.3858 217.801 97.7934 218.697 96.9783Z" fill="black"/>
<path d="M131.884 93.1468C131.721 98.8936 136.245 103.662 142.033 103.866C147.82 104.029 152.63 99.5458 152.834 93.799C152.997 88.0522 148.472 83.2835 142.685 83.0797C136.897 82.9167 132.088 87.4 131.884 93.1468Z" fill="#F1A87A"/>
<path d="M147.576 93.4728C147.658 90.2122 145.09 87.5222 141.829 87.3999" stroke="black" stroke-miterlimit="10" stroke-linecap="round"/>
<path d="M216.414 95.5109C216.251 111.162 203.29 123.878 187.639 123.715L178.387 123.634C162.736 123.471 150.02 110.51 150.183 94.8588L150.509 64.1277C150.672 48.4768 163.633 35.7605 179.284 35.9235L188.536 36.0051C204.187 36.1681 216.903 49.129 216.74 64.7798L216.414 95.5109Z" fill="#F1A87A"/>
<path d="M201.823 120.046C197.625 122.41 192.775 123.714 187.639 123.674L178.387 123.592C172.926 123.551 167.831 121.921 163.511 119.19" stroke="black" stroke-miterlimit="10" stroke-linecap="round"/>
<path d="M235.326 93.1468C235.489 98.8936 230.965 103.662 225.177 103.866C219.39 104.029 214.58 99.5458 214.377 93.799C214.213 88.0522 218.738 83.2835 224.525 83.0797C230.313 82.9167 235.163 87.4 235.326 93.1468Z" fill="#F1A87A"/>
<path d="M219.634 93.473C219.553 90.2124 222.12 87.5224 225.381 87.4001" stroke="black" stroke-miterlimit="10" stroke-linecap="round"/>
<path d="M168.117 94.6543C167.71 99.2599 163.675 102.643 159.069 102.235C154.464 101.828 151.081 97.7926 151.488 93.187C151.896 88.5814 155.931 85.1986 160.537 85.6062C165.142 86.0545 168.525 90.0895 168.117 94.6543Z" fill="#EC955A"/>
<path d="M213.807 94.6538C213.399 99.2594 209.364 102.642 204.759 102.235C200.153 101.827 196.77 97.7921 197.178 93.1865C197.585 88.581 201.62 85.1981 206.185 85.6057C210.791 86.054 214.174 90.089 213.807 94.6538Z" fill="#EC955A"/>
<path d="M177.982 99.464C178.348 102.725 181.079 105.252 184.421 105.292C187.763 105.333 190.535 102.847 190.983 99.5863L177.982 99.464Z" fill="white"/>
<path d="M165.835 78.9626C165.753 81.082 163.96 82.7123 161.84 82.6308C159.721 82.5493 158.091 80.7559 158.172 78.6366C158.254 76.5172 160.047 74.8869 162.166 74.9684C164.286 75.0499 165.916 76.8432 165.835 78.9626Z" fill="black"/>
<path d="M206.427 78.9626C206.346 81.082 204.552 82.7123 202.433 82.6308C200.314 82.5493 198.683 80.7559 198.765 78.6366C198.846 76.5172 200.64 74.8869 202.759 74.9684C204.879 75.0499 206.509 76.8432 206.427 78.9626Z" fill="black"/>
<path d="M183.606 72.7676C183.036 76.4358 182.221 80.0632 181.242 83.6499C180.998 84.5465 180.713 85.4024 180.468 86.2991C180.305 86.7474 179.938 87.5218 180.509 87.8479C180.794 88.0109 181.242 88.0109 181.528 88.0517C181.976 88.0924 182.465 88.1739 182.914 88.2147C183.892 88.2962 184.87 88.3777 185.807 88.4185C186.215 88.4185 186.215 87.8071 185.807 87.8071C184.951 87.7664 184.055 87.7256 183.199 87.6441C182.791 87.6033 182.384 87.5626 182.017 87.5218C181.732 87.4811 180.916 87.5218 180.794 87.2773C180.753 87.1958 180.916 86.9105 180.957 86.7882C180.998 86.5844 181.079 86.4214 181.12 86.2176C181.242 85.81 181.365 85.4024 181.487 84.9949C181.732 84.2205 181.935 83.4053 182.139 82.6309C182.995 79.4518 183.647 76.232 184.177 73.0122C184.259 72.5231 183.688 72.36 183.606 72.7676Z" fill="black"/>
<path d="M157.764 70.8519C160.251 70.159 162.859 70.0775 165.386 70.6481C166.16 70.8111 166.486 69.6292 165.712 69.4661C162.981 68.8548 160.128 68.9363 157.438 69.6699C156.664 69.8737 156.99 71.0557 157.764 70.8519Z" fill="black"/>
<path d="M198.278 70.0366C198.523 69.9143 198.889 69.9143 199.175 69.9143C199.542 69.8736 199.868 69.8328 200.234 69.792C200.887 69.7105 201.539 69.6698 202.191 69.6698C203.536 69.629 204.881 69.792 206.144 70.2404C206.878 70.5257 207.204 69.3437 206.47 69.0584C205.044 68.5286 203.536 68.4063 202.069 68.447C201.294 68.4878 200.561 68.5286 199.786 68.6101C199.093 68.6916 198.319 68.6916 197.667 68.9769C197.381 69.0992 197.3 69.5475 197.463 69.8328C197.585 70.1589 197.952 70.1996 198.278 70.0366Z" fill="black"/>
<path d="M222.895 40.611C220.613 37.4319 212.502 32.0927 206.144 29.3212C207.448 -0.105706 128.664 -16.8163 145.252 25.653C145.252 25.653 119.249 14.567 114.888 27.6094C104.291 59.3187 180.018 69.2635 201.457 41.1408C205.94 42.8119 211.483 46.0725 212.584 52.0231C214.499 62.3755 217.148 85.1997 217.148 85.1997C217.148 85.1997 218.412 79.6974 220.572 75.051C222.691 70.4454 226.197 45.2573 222.895 40.611Z" fill="black"/>
<path d="M203.535 151.837H167.587C161.595 151.837 156.745 146.987 156.745 140.996C156.745 135.004 161.595 130.154 167.587 130.154H203.535C209.526 130.154 214.376 135.004 214.376 140.996C214.376 146.987 209.526 151.837 203.535 151.837Z" fill="#0695C5"/>
<mask id="mask0_1_1223" style="mask-type:alpha" maskUnits="userSpaceOnUse" x="27" y="29" width="366" height="342">
<path d="M62.3763 343.182L97.1065 354.9C110.062 359.271 123.32 362.689 136.775 365.127L150.451 367.604C172.486 371.596 195.036 371.836 217.151 368.315V368.315C245.49 363.802 274.7 359.51 303.307 357.25C336.483 354.628 377.758 345.904 388.155 304.503C404.461 256.898 366.002 239.944 345.086 216.31C324.169 192.676 367.464 182.908 361.672 132.103C358.692 105.943 323.719 82.0839 287.903 94.6027C252.086 107.178 246.913 92.1888 230.326 61.7058C211.04 26.3388 128.612 7.08344 80.875 70.8002C33.1382 134.461 79.1881 182.74 73.7904 205.532C68.3926 228.324 29.8771 240.057 27.1782 283.9C25.5476 309.219 34.9375 331.955 62.3763 343.182Z" fill="url(#paint1_linear_1_1223)"/>
</mask>
<g mask="url(#mask0_1_1223)">
<path d="M294.795 308.481L309.182 367.386L260.51 366.599L252.901 313.204L294.795 308.481Z" fill="#F1A87A"/>
<path d="M195.703 135.267C195.703 135.267 245.818 149.435 271.137 207.815C296.457 266.195 302.361 283.38 302.361 283.38C303.673 286.617 319.197 295.756 309.839 314.604C304.329 325.711 275.248 328.51 275.248 328.51C259.024 329.866 214.245 329.866 214.245 329.866L195.703 135.267Z" fill="#0695C5"/>
<path d="M298.513 285.479C298.513 285.479 276.822 293.22 253.82 292.52" stroke="#233237" stroke-miterlimit="10" stroke-linecap="round"/>
<path d="M252.901 301.966C252.901 301.966 283.512 305.814 300.96 298.73" stroke="#233237" stroke-miterlimit="10" stroke-linecap="round"/>
<path d="M311.413 296.981C313.162 301.485 313.424 307.257 309.795 314.604C304.285 325.711 275.204 328.51 275.204 328.51C258.981 329.866 214.201 329.866 214.201 329.866L195.703 135.267" stroke="#233237" stroke-miterlimit="10" stroke-linecap="round"/>
<path d="M251.502 241.706L287.448 235.846L300.96 274.941L255.831 289.066L251.502 241.706Z" fill="#51485E"/>
<path d="M253.819 282.68L299.036 269.299" stroke="#233237" stroke-miterlimit="10"/>
<path d="M292.783 265.8L277.433 269.78C274.503 270.567 271.486 268.774 270.699 265.844L267.681 254.299C266.894 251.369 268.687 248.352 271.617 247.565L286.966 243.585C289.896 242.798 292.914 244.591 293.701 247.521L296.718 259.066C297.462 262.04 295.712 265.057 292.783 265.8Z" fill="#51485E" stroke="#233237" stroke-miterlimit="10"/>
<path d="M69.891 308.482L55.5038 367.386L104.175 366.599L111.784 313.204L69.891 308.482Z" fill="#F1A87A"/>
<path d="M168.545 138.765C168.545 138.765 116.55 148.473 93.548 207.814C69.6714 269.386 46.3632 367.386 46.3632 367.386C62.5871 368.741 142.176 367.429 142.176 367.429L168.545 138.765Z" fill="#0695C5"/>
<path d="M270.831 341.76C270.831 341.76 263.048 228.718 237.553 175.936C218.924 137.278 195.485 134.086 184.246 135.179C173.007 134.13 149.612 137.322 130.939 175.936C105.444 228.761 97.7477 341.76 97.7477 341.76L95.9111 367.342H186.214L272.406 366.468L270.831 341.76Z" fill="#0695C5"/>
<path d="M115.238 223.164L112.57 234.928C101.638 285.917 95.953 367.386 95.953 367.386H186.256L272.448 366.511C272.448 366.511 266.807 285.042 255.655 233.703L252.288 219.316" stroke="#233237" stroke-miterlimit="10" stroke-linecap="round"/>
<g opacity="0.7">
<path d="M199.249 251.064C205.678 253.032 210.882 257.667 217.354 259.548C224.569 261.647 232.266 259.854 239 257.055C245.603 254.3 251.813 250.496 258.635 248.178C258.46 247.216 258.285 246.254 258.066 245.336C257.235 245.642 256.405 245.948 255.574 246.254C251.944 247.697 248.446 249.446 244.991 251.152C238.169 254.519 230.866 257.886 223.082 257.58C215.823 257.318 210.226 252.726 203.885 249.796C198.156 247.172 192.296 246.779 186.218 248.397C180.445 249.927 175.067 252.726 169.6 255.044C164.44 257.23 158.799 259.242 153.158 258.542C146.861 257.755 142.007 253.382 136.978 249.927C134.441 248.178 131.686 246.604 128.713 245.729C125.345 244.723 121.76 244.767 118.349 245.554C115.244 246.254 112.401 247.522 109.778 249.14C109.515 250.408 109.296 251.72 109.078 252.988C110.958 251.676 112.926 250.496 115.069 249.621C118.349 248.265 122.022 247.522 125.564 247.959C128.669 248.353 131.511 249.752 134.135 251.414C139.339 254.694 143.974 259.154 150.053 260.816C155.519 262.303 161.248 261.253 166.495 259.373C176.685 255.7 187.792 247.61 199.249 251.064Z" fill="white"/>
<path d="M262.788 293.789C260.296 295.625 257.716 297.506 254.829 298.686C251.375 300.086 247.789 300.042 244.247 299.036C240.311 297.899 236.725 295.888 233.095 294.051C229.291 292.127 225.399 290.421 221.201 289.547C212.805 287.798 204.321 288.847 196.45 292.171C189.19 295.188 182.587 299.561 175.459 302.972C171.917 304.677 168.2 306.12 164.308 306.951C160.022 307.87 155.606 307.913 151.233 307.432C142.443 306.427 134.528 302.841 126.744 298.861C119.66 295.232 112.182 291.864 104.004 292.914C103.611 292.958 103.217 293.045 102.78 293.089C102.649 294.095 102.517 295.057 102.386 296.063C105.578 295.407 108.902 295.407 112.138 296.063C116.161 296.937 119.966 298.643 123.595 300.479C127.443 302.403 131.204 304.459 135.184 306.077C139.207 307.739 143.361 309.007 147.647 309.75C155.956 311.237 164.264 310.581 172.136 307.476C179.395 304.59 185.998 300.304 192.951 296.85C200.429 293.133 208.3 290.859 216.697 291.733C220.982 292.171 225.137 293.439 229.072 295.275C232.702 296.981 236.244 299.036 239.961 300.567C243.503 302.054 247.351 303.016 251.243 302.535C254.479 302.141 257.453 300.785 260.208 299.036C262.176 297.812 264.056 296.325 265.937 294.838C265.806 293.789 265.674 292.739 265.543 291.69C264.625 292.389 263.707 293.133 262.788 293.789Z" fill="white"/>
<path d="M159.933 241.705C159.933 243.717 158.272 245.378 156.26 245.378C154.248 245.378 152.587 243.717 152.587 241.705C152.587 239.693 154.248 238.032 156.26 238.032C158.315 238.032 159.933 239.693 159.933 241.705Z" fill="white"/>
<path d="M232.962 241.705C232.962 243.717 231.301 245.378 229.289 245.378C227.278 245.378 225.616 243.717 225.616 241.705C225.616 239.693 227.278 238.032 229.289 238.032C231.344 238.032 232.962 239.693 232.962 241.705Z" fill="white"/>
<path d="M111.786 318.408C113.815 318.408 115.459 316.763 115.459 314.734C115.459 312.706 113.815 311.061 111.786 311.061C109.757 311.061 108.113 312.706 108.113 314.734C108.113 316.763 109.757 318.408 111.786 318.408Z" fill="white"/>
<path d="M219.45 322.082C221.479 322.082 223.124 320.437 223.124 318.408C223.124 316.38 221.479 314.735 219.45 314.735C217.421 314.735 215.777 316.38 215.777 318.408C215.777 320.437 217.421 322.082 219.45 322.082Z" fill="white"/>
<path d="M194.568 185.12C197.629 187 200.646 188.837 204.232 189.405C207.687 189.974 211.273 189.711 214.552 188.53C217.876 187.35 220.587 185.338 222.905 182.671C225.048 180.222 226.841 177.467 229.246 175.28C235.805 169.245 244.114 173.793 251.242 176.111C251.679 176.242 252.073 176.373 252.51 176.505C251.373 175.062 250.236 173.706 249.099 172.35C243.414 170.295 237.554 167.934 231.695 170.382C225.704 172.875 223.167 179.216 218.401 183.195C213.197 187.568 205.413 187.962 199.553 184.813C196.492 183.152 193.737 181.009 190.413 179.916C187.09 178.866 183.723 179.303 180.574 180.659C177.294 182.058 174.496 184.289 171.478 186.169C168.198 188.224 164.569 189.842 160.677 190.236C157.178 190.586 153.593 190.017 150.575 188.224C147.602 186.431 146.158 183.633 144.497 180.703C142.879 177.86 140.78 175.368 137.5 174.406C134.176 173.444 130.591 174.187 127.354 175.149C124.25 176.067 121.276 177.423 118.04 177.773C115.766 178.035 113.055 177.992 111.087 176.636C110.518 177.379 109.95 178.123 109.381 178.866C109.556 178.997 109.688 179.085 109.862 179.216C112.399 180.79 115.635 180.921 118.521 180.528C121.932 180.091 125.037 178.779 128.273 177.817C131.64 176.811 135.707 175.936 138.812 178.123C141.523 180.003 142.529 183.502 144.322 186.125C146.377 189.143 149.351 191.198 152.805 192.291C160.502 194.74 168.242 191.723 174.627 187.437C177.644 185.426 180.749 183.064 184.379 182.277C188.139 181.534 191.463 183.239 194.568 185.12Z" fill="white"/>
</g>
</g>
<path d="M209.324 150.167C209.65 149.963 209.935 149.759 210.221 149.555V132.519C209.935 132.315 209.65 132.07 209.324 131.907V150.167Z" fill="#233237"/>
<path d="M203.17 130.195H202.273V151.878H203.17V130.195Z" fill="#233237"/>
<path d="M196.118 130.195H195.222V151.878H196.118V130.195Z" fill="#233237"/>
<path d="M189.066 130.195H188.17V151.878H189.066V130.195Z" fill="#233237"/>
<path d="M181.974 130.195H181.078V151.878H181.974V130.195Z" fill="#233237"/>
<path d="M174.924 130.195H174.027V151.878H174.924V130.195Z" fill="#233237"/>
<path d="M166.976 151.838C167.18 151.838 167.384 151.878 167.588 151.878H167.873V130.195H167.588C167.384 130.195 167.18 130.195 166.976 130.236V151.838Z" fill="#233237"/>
<path d="M159.926 148.658C160.211 148.944 160.496 149.188 160.822 149.433V132.559C160.496 132.804 160.211 133.048 159.926 133.334V148.658Z" fill="#233237"/>
<path d="M292.505 138.51C292.505 138.51 286.146 129.503 284.516 125.712C282.886 121.922 281.582 115.278 279.747 115.319C277.913 115.36 279.177 120.169 279.177 120.169C279.177 120.169 276.12 113.567 274.531 113.322C272.941 113.078 272.411 114.219 273.634 116.99C273.634 116.99 272.085 113.73 270.414 114.423C268.743 115.075 270.985 118.172 271.514 119.313C271.514 119.313 269.558 115.319 267.846 116.053C266.175 116.786 269.517 121.677 269.517 121.677C269.517 121.677 267.398 117.357 265.89 118.131C264.382 118.865 266.664 124.286 269.843 129.136C273.022 133.986 282.274 146.173 282.274 146.173L292.505 138.51Z" fill="#ECA187"/>
<path d="M268.131 118.499L271.351 124.612" stroke="#233237" stroke-miterlimit="10" stroke-linecap="round"/>
<path d="M270.333 116.991L273.96 123.553" stroke="#233237" stroke-miterlimit="10" stroke-linecap="round"/>
<path d="M272.94 115.483C272.899 115.646 276.119 121.922 276.119 121.922" stroke="#233237" stroke-miterlimit="10" stroke-linecap="round"/>
<path d="M279.218 120.211C279.218 120.211 279.544 121.148 279.422 122.574C279.3 124.001 278.322 127.669 280.482 128.729" stroke="#233237" stroke-miterlimit="10" stroke-linecap="round"/>
<path d="M332.732 164.718L323.317 139.734L312.313 151.879L292.953 133.376L276.324 144.991C294.665 194.838 320.913 178.739 320.913 178.739L327.923 167.897L332.732 164.718Z" fill="white"/>
<path d="M299.802 178.291C311.377 184.526 320.914 178.698 320.914 178.698L327.924 167.857L332.774 164.718L323.359 139.734L312.355 151.88L292.995 133.376L276.366 144.992" stroke="#233237" stroke-miterlimit="10" stroke-linecap="round"/>
<path d="M328.13 127.016C328.13 127.016 319.286 133.904 314.069 150.737C308.892 167.57 303.594 253.813 303.594 253.813L331.635 257.522L328.13 127.016Z" fill="white"/>
<path d="M303.594 253.772L306.203 217.212C308.24 191.535 311.175 160.152 314.11 150.696L317.655 141.607" stroke="#233237" stroke-miterlimit="10" stroke-linecap="round"/>
<path d="M367.378 305.29L378.383 316.743L367.745 326.932L353.195 314.297L367.378 305.29Z" fill="#ECA187"/>
<path d="M363.628 325.179L378.056 311.281L389.59 323.263L361.101 350.326L365.462 330.966L363.628 325.179Z" fill="#233237"/>
<path d="M354.744 319.881L371.373 305.249C371.373 305.249 350.424 268.16 344.555 252.101L329.882 295.019L354.744 319.881Z" fill="#233237"/>
<path d="M340.967 323.223V339.118H326.254L324.501 319.88L340.967 323.223Z" fill="#ECA187"/>
<path d="M324.502 334.96H344.555V351.589L305.306 351.386L321.812 340.463L324.502 334.96Z" fill="#233237"/>
<path d="M315.085 200.502C315.085 200.502 311.987 250.838 313.332 266.407C314.677 281.976 322.177 328.032 322.177 328.032L344.919 326.484L348.384 198.953L315.085 200.502Z" fill="#233237"/>
<path d="M322.177 328.032L344.919 326.484L348.384 198.953" stroke="#233237" stroke-miterlimit="10" stroke-linecap="round"/>
<path d="M328.13 127.016C328.13 127.016 320.59 137.124 316.392 154.161C312.194 171.197 311.582 202.255 311.582 202.255L346.022 205.597L343.699 135.249L336.322 127.016H328.13Z" fill="#29CABB"/>
<path d="M325.481 95.4291L331.187 95.5106C334.978 95.5922 338.035 99.1788 337.994 103.499L337.831 112.384C337.831 112.629 337.79 112.873 337.79 113.118C337.831 113.362 337.872 113.648 337.872 113.933L337.79 119.313V119.598L337.709 124.978C337.668 126.935 336.037 128.524 334.081 128.483L331.799 128.443C329.842 128.402 328.253 126.772 328.294 124.815L328.375 120.047L325.074 120.006C321.283 119.924 318.226 116.338 318.267 112.017L318.43 103.132C318.512 98.8528 321.691 95.3476 325.481 95.4291Z" fill="#ECA187"/>
<path d="M340.97 112.548C340.97 112.548 346.227 109.084 347.042 103.133C347.042 103.133 347.409 94.0444 339.828 90.58C332.247 87.1156 324.748 88.3384 321.732 89.3981C316.067 91.4359 313.621 94.7373 315.7 99.3836C317.249 102.848 325.4 101.177 328.212 99.0576C328.212 99.0576 328.661 102.685 335.59 103.826L337.831 113.445L337.913 116.583L340.97 112.548Z" fill="black"/>
<path d="M329.841 106.272C329.841 106.965 329.23 107.535 328.537 107.535C327.844 107.535 327.273 106.924 327.273 106.231C327.273 105.538 327.885 104.968 328.578 104.968C329.271 104.968 329.841 105.579 329.841 106.272Z" fill="#010101"/>
<path d="M321.404 105.946C321.404 106.557 320.874 107.046 320.304 107.046C319.692 107.046 319.203 106.516 319.203 105.946C319.203 105.334 319.733 104.845 320.304 104.845C320.915 104.845 321.404 105.334 321.404 105.946Z" fill="#010101"/>
<path d="M322.546 111.245C322.546 111.245 323.158 113.16 324.543 113.282C325.929 113.445 327.03 111.937 327.111 110.755L322.546 111.245Z" fill="white"/>
<path d="M334.039 110.918C333.998 112.589 332.612 113.894 330.982 113.853C329.311 113.812 328.006 112.426 328.047 110.796C328.088 109.125 329.474 107.821 331.104 107.862C332.775 107.862 334.079 109.247 334.039 110.918Z" fill="#E8845E"/>
<path d="M318.919 108.472C318.756 108.472 318.552 108.472 318.389 108.513L318.307 111.61C318.307 112.059 318.307 112.507 318.389 112.955C318.511 112.996 318.674 112.996 318.796 112.996C320.06 113.037 321.12 112.018 321.12 110.755C321.16 109.573 320.182 108.513 318.919 108.472Z" fill="#E8845E"/>
<path d="M333.796 105.864C333.755 108.473 331.961 110.551 329.761 110.551C327.56 110.51 325.848 108.35 325.889 105.742C325.929 103.133 327.723 101.055 329.924 101.055C332.125 101.095 333.836 103.256 333.796 105.864Z" stroke="#716FA3" stroke-width="0.75" stroke-miterlimit="10"/>
<path d="M323.485 105.253C323.444 107.698 321.814 109.655 319.898 109.614C317.942 109.573 316.393 107.576 316.434 105.131C316.474 102.685 318.105 100.729 320.02 100.77C321.977 100.77 323.525 102.808 323.485 105.253Z" stroke="#716FA3" stroke-width="0.75" stroke-miterlimit="10"/>
<path d="M333.796 105.865L338.932 107.128" stroke="#716FA3" stroke-width="0.75" stroke-miterlimit="10"/>
<path d="M324.503 104.152C324.137 105.538 323.525 106.842 322.629 107.943C322.547 108.024 322.547 108.147 322.669 108.187C323.281 108.595 323.933 108.962 324.544 109.369C324.748 109.492 324.911 109.206 324.707 109.084C324.096 108.677 323.444 108.31 322.832 107.902C322.832 107.984 322.873 108.065 322.873 108.147C323.81 107.005 324.463 105.66 324.829 104.234C324.87 104.03 324.544 103.949 324.503 104.152Z" fill="black"/>
<path d="M325.727 106.476C324.341 105.702 323.118 106.394 323.077 106.394L323.118 105.905C323.159 105.865 324.259 104.927 326.012 105.946L325.727 106.476Z" fill="#716FA3"/>
<path d="M319.49 103.867C320.142 103.663 320.754 103.5 321.365 103.296C321.487 103.255 321.569 103.133 321.528 102.97C321.487 102.848 321.365 102.766 321.202 102.807C320.591 103.011 319.938 103.215 319.327 103.378C319.205 103.418 319.123 103.541 319.164 103.704C319.205 103.826 319.327 103.907 319.49 103.867Z" fill="black"/>
<path d="M328.372 103.133C329.432 103.581 330.492 103.948 331.592 104.274C331.918 104.356 332.04 103.867 331.714 103.785C330.614 103.459 329.554 103.092 328.494 102.644C328.372 102.603 328.209 102.685 328.168 102.807C328.128 102.97 328.25 103.092 328.372 103.133Z" fill="black"/>
<path d="M345.084 109.777C345.044 112.263 342.965 114.26 340.438 114.219C337.911 114.179 335.914 112.141 335.955 109.614C335.995 107.128 338.074 105.131 340.601 105.171C343.128 105.212 345.125 107.291 345.084 109.777Z" fill="#ECA187"/>
<path d="M338.237 110.265C338.237 109.939 338.278 109.654 338.359 109.328C338.522 108.717 338.889 108.187 339.5 107.901C339.99 107.698 340.519 107.698 341.049 107.738C341.253 107.779 341.253 107.412 341.049 107.412C340.153 107.29 339.174 107.453 338.563 108.187C338.155 108.676 337.992 109.246 337.911 109.858C337.911 109.98 337.87 110.102 337.911 110.265C337.911 110.469 338.237 110.469 338.237 110.265Z" fill="black"/>
<path d="M326.622 130.44L339.297 130.318C340.276 130.318 341.091 129.503 341.091 128.484V124.041C341.091 123.022 340.276 122.207 339.297 122.248L326.622 122.37C325.644 122.37 324.828 123.185 324.828 124.204V128.647C324.828 129.625 325.644 130.44 326.622 130.44Z" fill="#29CABB"/>
<path d="M338.767 122.249L338.726 130.359" stroke="#E1F3F9" stroke-miterlimit="10"/>
<path d="M335.915 122.249L335.833 130.319" stroke="#E1F3F9" stroke-miterlimit="10"/>
<path d="M333.061 122.289L332.98 130.4" stroke="#E1F3F9" stroke-miterlimit="10"/>
<path d="M330.208 122.33L330.126 130.4" stroke="#E1F3F9" stroke-miterlimit="10"/>
<path d="M327.436 122.371L327.355 130.441" stroke="#E1F3F9" stroke-miterlimit="10"/>
<path d="M364.078 189.458C364.078 189.458 365.342 261.761 364.078 262.128C362.815 262.495 320.305 258.256 319.693 257.319C319.082 256.341 328.619 154.243 328.619 154.243C328.619 154.243 329.597 146.458 331.798 140.019C333.184 136.065 335.629 133.09 336.811 131.419C339.868 126.976 344.229 129.3 347.327 132.112C350.384 134.883 364.649 170.057 364.649 170.057L364.078 189.458Z" fill="white"/>
<path d="M334.039 198.954L351.361 205.598" stroke="#233237" stroke-miterlimit="10" stroke-linecap="round"/>
<path d="M364.647 170.057L364.076 189.457C364.076 189.457 364.239 198.057 364.362 209.347L364.076 262.128" stroke="#233237" stroke-miterlimit="10" stroke-linecap="round"/>
<path d="M329.312 165.411L338.808 143.972L334.039 141.73L338.808 135.25" stroke="#233237" stroke-miterlimit="10" stroke-linecap="round"/>
<path d="M302.987 173.723C302.987 173.723 300.337 171.155 300.419 168.71C300.5 166.265 301.071 157.176 301.071 157.176L301.805 155.871C301.805 155.871 303.272 152.529 306.614 153.181C309.997 153.793 313.461 156.972 313.991 161.048C314.48 165.083 313.502 173.479 312.116 174.335C310.73 175.19 306.288 176.128 302.987 173.723Z" fill="#51485E"/>
<path d="M307.143 170.096C304.29 177.31 302.822 185.217 304.086 192.838C305.145 199.197 309.873 205.106 311.015 211.465C312.767 221.45 310.444 232.903 303.597 240.362C296.749 247.82 283.748 251.122 273.681 250.225" stroke="#51485E" stroke-width="2" stroke-miterlimit="10" stroke-linecap="round"/>
<path d="M317.005 174.661C317.005 174.661 301.069 171.034 299.968 168.14C298.868 165.246 298.949 159.54 299.479 158.48C299.968 157.38 301.802 155.913 301.802 155.913C301.802 155.913 301.232 158.195 302.373 158.562C303.514 158.888 308.446 158.562 308.446 158.562C308.446 158.562 304.248 153.182 305.715 151.837C307.142 150.492 319.41 161.7 319.41 161.7L317.005 174.661Z" fill="#ECA187"/>
<path d="M299.683 166.021C300.458 166.55 301.313 166.999 302.21 167.243C302.455 167.325 302.577 166.917 302.332 166.836C301.476 166.55 300.621 166.143 299.887 165.654C299.683 165.532 299.479 165.858 299.683 166.021Z" fill="#233237"/>
<path d="M299.316 163.046C300.335 163.657 301.436 164.105 302.618 164.391C302.862 164.431 302.984 164.065 302.74 163.983C301.599 163.739 300.539 163.29 299.561 162.679C299.316 162.557 299.072 162.923 299.316 163.046Z" fill="#233237"/>
<path d="M299.356 159.745C300.66 160.641 302.046 161.334 303.554 161.823C303.798 161.905 303.921 161.497 303.676 161.416C302.209 160.927 300.864 160.234 299.6 159.378C299.356 159.256 299.152 159.623 299.356 159.745Z" fill="#233237"/>
<path d="M345.087 130.195L341.052 139.284L347.288 153.183L351.363 160.6L319.695 155.873L316.394 178.615C316.394 178.615 368.115 200.38 376.918 182.161C385.722 163.983 345.087 130.195 345.087 130.195Z" fill="white"/>
<path d="M345.085 130.195C345.085 130.195 385.679 164.024 376.916 182.202C368.154 200.42 316.392 178.656 316.392 178.656L319.693 155.913L357.434 161.538" stroke="#233237" stroke-miterlimit="10" stroke-linecap="round"/>
<path d="M347.287 153.182L351.363 160.6" stroke="#233237" stroke-miterlimit="10" stroke-linecap="round"/>
<path d="M89.8194 341.4L89.045 322.611H104.125L106 343.153L89.8194 341.4Z" fill="#AA5A2E"/>
<path d="M87.5377 336.224L107.305 335.939L108.487 341.971L122.467 351.834L85.7851 351.712L87.5377 336.224Z" fill="#233237"/>
<path d="M81.3048 325.953L106.86 326.564C106.86 326.564 104.088 242.522 104.333 225.934C104.577 209.346 104.333 205.026 104.333 205.026L94.9585 200.583L64.5127 210.283L81.3048 325.953Z" fill="#233237"/>
<path d="M64.4717 210.242L81.3045 325.953L106.859 326.564" stroke="#233237" stroke-miterlimit="10" stroke-linecap="round"/>
<path d="M39.4048 308.101L27.4629 324.119L39.6901 332.515L54.4851 315.397L39.4048 308.101Z" fill="#AA5A2E"/>
<path d="M28.8884 318.413L44.3762 331.007L42.2976 335.775L48.1666 351.834L18.0469 330.925L28.8884 318.413Z" fill="#233237"/>
<path d="M93.6141 237.876C93.6141 237.876 99.5239 255.32 86.5631 278.593C73.643 301.824 51.96 321.184 51.96 321.184L31.459 305.941C31.459 305.941 53.7941 271.745 58.0736 246.313C62.3531 220.88 66.5919 211.913 66.5919 211.913L93.1658 220.88L93.6141 237.876Z" fill="#233237"/>
<path d="M93.6141 237.877C93.6141 237.877 99.5239 255.321 86.5631 278.593C73.643 301.825 51.96 321.185 51.96 321.185L31.459 305.942" stroke="#233237" stroke-miterlimit="10" stroke-linecap="round"/>
<path d="M177.817 173.724C177.328 179.471 172.314 183.791 166.527 183.302C160.78 182.813 156.46 177.8 156.949 172.012C157.438 166.265 162.451 161.945 168.239 162.434C174.026 162.923 178.306 167.977 177.817 173.724Z" fill="#50485D"/>
<path d="M145.292 169.73C145.292 169.73 158.742 162.516 160.902 162.638C163.063 162.761 168.809 163.005 170.969 164.432C173.13 165.818 175.249 174.091 172.641 173.317C165.345 171.116 164.041 168.793 164.041 168.793C164.041 168.793 161.188 171.809 163.633 173.888C166.079 175.966 171.377 175.885 170.725 177.556C170.114 179.227 164.856 181.142 157.479 178.778C152.384 177.148 146.27 180.531 145.129 180.776C143.988 180.979 145.292 169.73 145.292 169.73Z" fill="#AA5A2E"/>
<path d="M172.274 173.032C172.029 175.926 169.502 178.086 166.609 177.842C163.715 177.597 161.555 175.07 161.799 172.176C162.044 169.283 164.571 167.122 167.464 167.367C170.358 167.612 172.478 170.139 172.274 173.032Z" fill="#51485E" stroke="#233237" stroke-miterlimit="10"/>
<path d="M107.795 131.622C107.836 132.478 116.68 157.544 122.753 161.538C128.5 165.328 149.041 164.839 149.041 164.839L152.832 183.914C152.832 183.914 131.108 197.771 114.887 194.714C108.529 193.492 107.795 131.622 107.795 131.622Z" fill="white"/>
<path d="M149.041 164.839L152.832 183.914C152.832 183.914 131.108 197.771 114.886 194.714C108.488 193.492 107.754 131.622 107.754 131.622" stroke="#233237" stroke-miterlimit="10" stroke-linecap="round"/>
<path d="M93.6108 128.933L98.8277 158.646L108.976 134.436C108.976 134.436 108.773 131.216 106.938 131.542C105.145 131.827 93.6108 128.933 93.6108 128.933Z" fill="#29CABB"/>
<path d="M114.928 144.258C110.485 126.284 100.744 127.221 100.744 127.221L100.5 131.338C103.475 131.501 107.755 131.868 107.795 132.601C107.836 133.417 101.926 147.559 99.1139 154.244L94.9567 222.309L101.722 260.172L115.254 260.743C115.213 260.743 119.37 162.191 114.928 144.258Z" fill="white"/>
<path d="M115.212 260.743C115.212 260.743 119.37 162.192 114.886 144.218" stroke="#233237" stroke-miterlimit="10" stroke-linecap="round"/>
<path d="M51.673 186.197C43.8883 204.945 40.7092 255.566 40.7092 255.566L97.1583 260.742L100.582 163.536C100.582 163.536 98.7478 147.07 97.2398 141.608C95.7318 136.106 93.5716 127.221 93.5716 127.221L98.2995 125.305C98.2995 125.305 87.4988 125.183 86.5614 125.835C85.6239 126.406 54.1184 166.878 54.1184 166.878L51.673 186.197Z" fill="white"/>
<path d="M100.582 163.536L97.1583 260.743L40.7092 255.607C40.7092 255.607 43.8883 204.946 51.673 186.238" stroke="#233237" stroke-miterlimit="10" stroke-linecap="round"/>
<path d="M82.6484 133.334C82.0778 134.394 82.9337 151.145 82.9337 151.145L87.6208 151.838L83.8711 158.889L93.6529 183.914" stroke="#233237" stroke-miterlimit="10" stroke-linecap="round"/>
<path d="M73.8852 227.972L53.8732 209.509C51.9169 207.716 51.7946 204.659 53.5879 202.702L80.121 173.928C81.9144 171.971 84.9712 171.849 86.9275 173.642L106.939 192.106C108.896 193.899 109.018 196.956 107.225 198.912L80.6917 227.687C78.8576 229.684 75.8415 229.806 73.8852 227.972Z" fill="#233237"/>
<path d="M99.0733 190.19L89.5361 181.386C88.4764 180.408 88.3949 178.737 89.373 177.677C90.3512 176.618 92.0223 176.536 93.082 177.514L102.619 186.318C103.679 187.296 103.76 188.967 102.782 190.027C101.804 191.086 100.133 191.168 99.0733 190.19Z" fill="#BFBCC0"/>
<path d="M100.378 179.185C98.7476 177.677 96.1799 177.758 94.6718 179.429C93.1638 181.06 93.2453 183.628 94.9164 185.136C96.5467 186.644 99.1144 186.562 100.622 184.891C102.13 183.261 102.049 180.693 100.378 179.185ZM96.1391 183.791C95.2425 182.975 95.2017 181.549 96.0168 180.652C96.832 179.756 98.2585 179.715 99.1552 180.53C100.052 181.345 100.093 182.772 99.2774 183.668C98.4623 184.565 97.0358 184.606 96.1391 183.791Z" fill="#BFBCC0"/>
<path d="M71.8867 184.932C71.8867 184.932 79.5084 193.328 82.9728 195.774C86.3964 198.219 92.7953 201.031 92.3877 202.865C91.9394 204.699 87.3746 202.336 87.3746 202.336C87.3746 202.336 93.3252 206.86 93.2436 208.531C93.1214 210.202 91.8987 210.446 89.3717 208.612C89.3717 208.612 92.3062 210.895 91.2465 212.403C90.2276 213.911 87.6191 211.017 86.6002 210.202C86.6002 210.202 90.1868 213.055 89.0864 214.604C87.9859 216.112 83.7879 211.669 83.7879 211.669C83.7879 211.669 87.7414 214.563 86.6817 215.908C85.622 217.253 80.8534 213.177 76.6554 208.898C72.4573 204.618 62.0234 193.45 62.0234 193.45L71.8867 184.932Z" fill="#AA5A2E"/>
<path d="M86.5587 213.788L81.1787 209.264" stroke="#233237" stroke-miterlimit="10" stroke-linecap="round"/>
<path d="M88.5575 211.955L82.8107 206.819" stroke="#233237" stroke-miterlimit="10" stroke-linecap="round"/>
<path d="M90.6771 209.631C90.5141 209.631 84.8895 204.985 84.8895 204.985" stroke="#233237" stroke-miterlimit="10" stroke-linecap="round"/>
<path d="M81.3417 132.559L91.4903 125.263C84.48 125.141 85.0914 125.752 85.0914 125.752C85.0914 125.752 47.0647 134.678 38.0981 160.6C29.1314 186.521 62.5118 205.881 62.5118 205.881L82.6867 188.233L68.4624 169.281L78.7332 159.214L81.3417 132.559Z" fill="white"/>
<path d="M85.0914 125.793C85.0914 125.793 47.0647 134.719 38.0981 160.6C29.1314 186.521 62.5118 205.881 62.5118 205.881L82.6867 188.233L66.7913 167.08" stroke="#233237" stroke-miterlimit="10" stroke-linecap="round"/>
<path d="M68.7472 169.036L78.7328 159.214" stroke="#233237" stroke-miterlimit="10" stroke-linecap="round"/>
<path d="M108.796 132.368C109.431 130.091 106.272 127.221 101.741 125.957C97.2094 124.693 93.0212 125.514 92.3861 127.79C91.751 130.067 94.9096 132.937 99.441 134.201C103.972 135.465 108.161 134.644 108.796 132.368Z" fill="#07A899"/>
<path d="M99.4024 116.093C99.4432 115.849 99.4839 115.604 99.5247 115.319L101.603 106.352C102.622 101.991 106.616 99.1381 110.448 100.035L116.235 101.38C120.066 102.276 122.39 106.597 121.371 110.958L119.292 119.924C118.273 124.285 114.279 127.138 110.448 126.242L107.513 125.549L106.535 129.054C106.127 130.562 104.538 131.459 103.03 131.01L98.3835 129.706C96.8754 129.299 95.9788 127.709 96.4271 126.201C96.4679 126.283 99.2801 116.338 99.4024 116.093Z" fill="#AA5A2E"/>
<path d="M101.278 110.999C101.278 110.999 104.335 103.744 104.457 104.926C104.58 106.638 102.46 115.441 104.009 116.623C106.047 118.172 107.759 114.504 112.364 115.4C116.97 116.297 119.619 118.946 119.538 120.903C119.497 122.085 119.334 125.386 115.054 126.772C111.386 127.954 106.862 126.283 106.862 126.283C106.862 126.283 102.583 124.734 101.319 121.636C99.9742 118.376 101.278 110.999 101.278 110.999Z" fill="black"/>
<path d="M109.144 111.203C108.981 111.937 109.429 112.63 110.163 112.793C110.896 112.956 111.589 112.508 111.752 111.774C111.915 111.04 111.467 110.347 110.733 110.184C110.04 110.021 109.307 110.47 109.144 111.203Z" fill="#020202"/>
<path d="M117.744 112.997C117.581 113.608 117.988 114.219 118.6 114.383C119.211 114.546 119.822 114.138 119.985 113.527C120.148 112.915 119.741 112.304 119.13 112.141C118.477 112.019 117.866 112.385 117.744 112.997Z" fill="#020202"/>
<path d="M115.214 118.05C115.214 118.05 114.114 119.802 112.687 119.599C111.261 119.395 110.527 117.602 110.731 116.42L115.214 118.05Z" fill="white"/>
<path d="M115.461 111.488C115.584 112.67 115.869 113.852 116.276 114.993C116.317 114.912 116.358 114.871 116.439 114.789C115.95 114.708 115.502 114.667 115.013 114.585C114.809 114.545 114.728 114.871 114.931 114.871C115.421 114.952 115.95 114.993 116.439 115.075C116.521 115.075 116.603 114.952 116.603 114.871C116.195 113.77 115.95 112.588 115.828 111.447C115.747 111.325 115.421 111.325 115.461 111.488Z" fill="black"/>
<path d="M109.185 109.613C109.633 109.491 110.122 109.45 110.571 109.45C110.774 109.45 110.774 109.124 110.571 109.124C110.082 109.124 109.592 109.206 109.103 109.328C108.9 109.369 108.981 109.654 109.185 109.613Z" fill="black"/>
<path d="M118.64 111.203C119.089 111.325 119.496 111.488 119.904 111.651C119.985 111.692 120.067 111.692 120.108 111.61C120.148 111.529 120.148 111.447 120.067 111.407C119.618 111.203 119.17 111.04 118.722 110.918C118.518 110.877 118.436 111.162 118.64 111.203Z" fill="black"/>
<path d="M101.725 112.792L104.415 106.026C104.415 106.026 123.775 115.523 127.851 104.641C130.459 97.7119 122.43 92.1689 114.849 94.166C114.849 94.166 102.296 89.968 96.1822 96.7337C90.0278 103.459 92.1065 110.428 98.1793 120.292L99.6874 114.993L101.725 112.792Z" fill="black"/>
<path d="M93.004 111.365C92.5149 113.688 94.0229 116.011 96.3869 116.501C98.7508 116.99 101.074 115.482 101.563 113.158C102.052 110.835 100.544 108.512 98.1802 108.023C95.7755 107.534 93.4931 109.042 93.004 111.365Z" fill="#AA5A2E"/>
<path d="M99.5674 113.362C99.8527 112.384 99.6082 111.162 98.7522 110.55C98.3039 110.224 97.7333 110.102 97.2035 110.02C96.9997 109.98 96.9997 110.306 97.2035 110.346C97.9779 110.428 98.793 110.754 99.1598 111.488C99.4044 111.936 99.4044 112.466 99.3636 112.996C99.3636 113.036 99.3229 113.159 99.3229 113.199C99.3229 113.24 99.3229 113.281 99.2821 113.281C99.2006 113.444 99.5266 113.526 99.5674 113.362Z" fill="black"/>
<path d="M96.9958 115.645C97.9638 115.645 98.7484 114.86 98.7484 113.892C98.7484 112.924 97.9638 112.14 96.9958 112.14C96.0279 112.14 95.2433 112.924 95.2433 113.892C95.2433 114.86 96.0279 115.645 96.9958 115.645Z" fill="#51485E"/>
<path d="M157.602 163.698C158.05 163.494 158.499 163.331 158.906 163.168C154.586 158.44 151.162 152.815 145.742 149.229C142.807 147.313 139.424 146.131 135.919 146.335C132.006 146.579 128.338 148.21 124.915 150.003C122.877 151.063 120.839 152.245 118.72 153.264C116.396 153.427 114.318 151.348 113.503 149.31C112.484 146.783 112.035 144.012 111.954 141.281C111.832 136.39 112.932 131.662 114.236 126.975C113.747 127.057 113.299 127.138 112.81 127.179C111.383 132.437 110.242 137.817 110.731 143.237C110.976 145.927 111.465 149.106 113.054 151.348C113.91 152.53 115.133 153.671 116.519 154.242C115.622 154.609 114.685 154.935 113.747 155.179C109.468 156.361 105.392 155.709 101.561 153.467C95.6508 150.044 91.3305 143.971 89.9855 137.287C88.3552 129.298 91.1675 120.739 96.9958 115.074C97.6072 114.463 96.6698 113.525 96.0584 114.136C90.9637 119.068 88.0292 126.16 88.1922 133.252C88.3552 140.099 91.4936 146.742 96.5067 151.389C99.156 153.834 102.417 155.872 105.962 156.728C109.875 157.665 113.829 156.81 117.456 155.261C124.915 152.122 132.496 145.438 141.136 148.414C148.513 150.94 152.63 158.032 157.602 163.698Z" fill="#51485E"/>
<path d="M1.33691 351.591H393.75" stroke="#233237" stroke-miterlimit="10" stroke-linecap="round"/>
<defs>
<linearGradient id="paint0_linear_1_1223" x1="206.268" y1="23.3652" x2="206.268" y2="350.476" gradientUnits="userSpaceOnUse">
<stop stop-color="#354449"/>
<stop offset="1" stop-color="#000A0F"/>
</linearGradient>
<linearGradient id="paint1_linear_1_1223" x1="209.54" y1="29" x2="209.54" y2="373.635" gradientUnits="userSpaceOnUse">
<stop stop-color="#354449"/>
<stop offset="1" stop-color="#000A0F"/>
</linearGradient>
</defs>
</svg>
