<svg width="743" height="360" viewBox="0 0 743 360" fill="none" xmlns="http://www.w3.org/2000/svg">
<path d="M612.509 141.018C621.074 141.018 628.018 134.074 628.018 125.509C628.018 116.944 621.074 110 612.509 110C603.943 110 597 116.944 597 125.509C597 134.074 603.943 141.018 612.509 141.018Z" stroke="#E0E0E0" stroke-miterlimit="10"/>
<path d="M623.619 114.699L598.83 132.849C599.659 134.388 600.743 135.781 602.018 136.947L626.315 118.46C625.604 117.067 624.694 115.801 623.619 114.699Z" stroke="#E0E0E0" stroke-miterlimit="10"/>
<path d="M312.964 161.291C314.403 155.228 310.654 149.146 304.591 147.707C298.528 146.268 292.446 150.017 291.007 156.08C289.568 162.143 293.317 168.225 299.38 169.664C305.443 171.103 311.525 167.354 312.964 161.291Z" stroke="#EAEAEA" stroke-miterlimit="10"/>
<path d="M310.089 150.84L292.058 164.036C292.659 165.156 293.451 166.167 294.38 167.023L312.047 153.581C311.528 152.571 310.863 151.651 310.08 150.84H310.089Z" stroke="#EAEAEA" stroke-miterlimit="10"/>
<path d="M261.787 64.9543C261.787 72.0393 256.041 77.7948 248.947 77.7948C241.852 77.7948 236.106 72.0484 236.106 64.9543C236.106 57.8601 241.852 52.1138 248.947 52.1138C256.041 52.1138 261.787 57.8601 261.787 64.9543Z" fill="white" stroke="#F5F5F5" stroke-miterlimit="10"/>
<path d="M258.154 56.0024L237.645 71.0195C238.328 72.2944 239.23 73.4419 240.286 74.4163L260.394 59.1261C259.802 57.9786 259.055 56.9313 258.163 56.0116L258.154 56.0024Z" stroke="#F5F5F5" stroke-miterlimit="10"/>
<path d="M144.128 227.446C136.178 230.633 127.144 226.763 123.956 218.813C120.769 210.863 124.639 201.829 132.59 198.641C140.54 195.454 149.574 199.324 152.761 207.275C155.948 215.225 152.078 224.259 144.128 227.446Z" stroke="#E0E0E0" stroke-miterlimit="10"/>
<path d="M152.533 219.35L126.47 203.077C125.35 204.415 124.466 205.936 123.847 207.566L150.038 223.257C151.067 222.082 151.905 220.762 152.533 219.35Z" stroke="#E0E0E0" stroke-miterlimit="10"/>
<path d="M482.58 166.758H476.087V160.265C476.087 159.263 475.277 158.444 474.266 158.444C473.255 158.444 472.444 159.254 472.444 160.265V166.758H465.951C464.949 166.758 464.13 167.569 464.13 168.58C464.13 169.581 464.94 170.401 465.951 170.401H472.444V176.894C472.444 177.896 473.255 178.715 474.266 178.715C475.277 178.715 476.087 177.905 476.087 176.894V170.401H482.58C483.582 170.401 484.402 169.591 484.402 168.58C484.402 167.578 483.591 166.758 482.58 166.758Z" fill="#EAEAEA"/>
<path d="M610.466 197.376H604.501V191.411C604.501 190.491 603.755 189.744 602.835 189.744C601.915 189.744 601.168 190.491 601.168 191.411V197.376H595.203C594.284 197.376 593.537 198.122 593.537 199.042C593.537 199.962 594.284 200.709 595.203 200.709H601.168V206.674C601.168 207.593 601.915 208.34 602.835 208.34C603.755 208.34 604.501 207.593 604.501 206.674V200.709H610.466C611.386 200.709 612.133 199.962 612.133 199.042C612.133 198.122 611.386 197.376 610.466 197.376Z" fill="#E0E0E0"/>
<path d="M91.9645 133.537H85.4714V127.044C85.4714 126.042 84.6609 125.223 83.65 125.223C82.6392 125.223 81.8287 126.033 81.8287 127.044V133.537H75.3356C74.3338 133.537 73.5142 134.348 73.5142 135.358C73.5142 136.36 74.3247 137.18 75.3356 137.18H81.8287V143.673C81.8287 144.675 82.6392 145.494 83.65 145.494C84.6609 145.494 85.4714 144.684 85.4714 143.673V137.18H91.9645C92.9662 137.18 93.7858 136.369 93.7858 135.358C93.7858 134.357 92.9753 133.537 91.9645 133.537Z" fill="#E6E6E6"/>
<path d="M653.45 66.5845H646.957V60.0914C646.957 59.0896 646.147 58.27 645.136 58.27C644.125 58.27 643.314 59.0805 643.314 60.0914V66.5845H636.821C635.82 66.5845 635 67.395 635 68.4058C635 69.4076 635.811 70.2272 636.821 70.2272H643.314V76.7203C643.314 77.722 644.125 78.5416 645.136 78.5416C646.147 78.5416 646.957 77.7311 646.957 76.7203V70.2272H653.45C654.452 70.2272 655.272 69.4167 655.272 68.4058C655.272 67.4041 654.461 66.5845 653.45 66.5845Z" fill="#E6E6E6"/>
<path d="M368.254 6.87559H362.881V1.50261C362.881 0.673899 362.207 0 361.378 0C360.549 0 359.876 0.673899 359.876 1.50261V6.87559H354.503C353.674 6.87559 353 7.54949 353 8.37821C353 9.20692 353.674 9.88082 354.503 9.88082H359.876V15.2538C359.876 16.0825 360.549 16.7564 361.378 16.7564C362.207 16.7564 362.881 16.0825 362.881 15.2538V9.88082H368.254C369.083 9.88082 369.756 9.20692 369.756 8.37821C369.756 7.54949 369.083 6.87559 368.254 6.87559Z" fill="#EAEAEA"/>
<path d="M217.984 37.7705H106.982V181.621H217.984V37.7705Z" fill="white" stroke="#E0E0E0" stroke-miterlimit="10"/>
<path d="M210.935 45.1377H114.021V174.244H210.935V45.1377Z" stroke="#E0E0E0" stroke-miterlimit="10"/>
<path d="M106.982 37.7705L114.021 45.1379" stroke="#E0E0E0" stroke-miterlimit="10"/>
<path d="M106.982 181.611L114.021 174.244" stroke="#E0E0E0" stroke-miterlimit="10"/>
<path d="M210.944 174.244L217.984 181.611" stroke="#E0E0E0" stroke-miterlimit="10"/>
<path d="M217.984 37.7705L210.944 45.1379" stroke="#E0E0E0" stroke-miterlimit="10"/>
<path d="M203.44 72.1484H146.678V167.523H203.44V72.1484Z" stroke="#E0E0E0" stroke-miterlimit="10"/>
<path d="M141.523 83.1406C141.523 83.1406 139.811 71.0651 141.523 67.7776C143.245 64.49 148.718 59.199 148.718 59.199L151.823 52.3325L155.976 54.336C155.976 54.336 153.053 60.7745 154.218 65.6375C154.218 65.6375 153.39 59.9184 156.968 56.7675L161.403 58.9167C161.403 58.9167 159.2 61.6305 160.229 66.7849C160.229 66.7849 160.684 62.0676 163.116 59.7727L166.713 61.7762C166.713 61.7762 161.258 66.4935 163.398 69.7901C165.547 73.0777 169.408 75.4363 165.756 78.9424C162.014 82.5396 159.227 77.7221 155.967 79.0153C152.707 80.3084 155.102 88.3861 155.102 88.3861L146.086 97.757C146.086 97.757 140.503 86.929 141.505 83.1497L141.523 83.1406Z" fill="#F0F0F0"/>
<path d="M139.092 101.673C139.092 101.673 132.799 90.089 133.655 78.7875C134.511 67.486 143.964 49.7461 143.964 49.7461L149.346 52.3233L146.814 58.188L151.249 57.1863V63.3334C151.249 63.3334 141.296 65.1911 142.416 77.4943C143.527 89.7976 150.202 98.5218 150.202 98.5218L139.092 101.673Z" fill="#EAEAEA"/>
<path d="M124.931 110.543C124.931 110.543 120.642 105.106 123.21 93.9503C125.787 82.7945 136.633 80.445 140.494 86.1003C144.356 91.7556 143.955 92.2382 148.244 95.6715C152.533 99.1047 126.097 112.719 124.931 110.552V110.543Z" fill="#E0E0E0"/>
<path d="M170.847 90.3716C170.847 90.3716 175 90.6539 178.287 91.8013L177.859 96.6643L174.572 96.3092L175 98.2853L179.216 99.533L178.497 103.249L174.563 102.675V104.25L177.996 105.179L177.277 109.04C177.277 109.04 174.49 107.966 174.49 108.184C174.49 108.403 174.718 111.9 171.603 115.333C168.479 118.766 153.462 110.397 154.246 101.245C155.029 92.0928 167.906 89.6613 170.838 90.3716H170.847Z" fill="#E0E0E0"/>
<path d="M122.454 121.99C122.454 121.99 121.689 110.351 127.982 103.585C134.274 96.8096 139.137 95.8625 142.288 94.715C145.439 93.5676 147.151 93.1851 150.202 90.0433C153.253 86.8923 154.683 81.3645 174.044 87.9487V92.238C174.044 92.238 162.314 90.7081 161.74 99.1956C161.167 107.683 168.516 108.157 172.514 113.502C176.521 118.839 178.797 129.239 171.603 143.063C164.409 156.887 156.777 160.038 154.2 160.32C151.623 160.602 141.997 158.317 133.027 146.687C124.066 135.049 122.636 128.947 122.445 121.99H122.454Z" fill="#F5F5F5"/>
<path d="M143.609 115.898C142.006 114.031 140.039 112.237 138.372 110.698C137.107 109.532 136.005 108.53 135.304 107.729C132.644 104.705 134.484 97.8025 134.502 97.7388L133.783 98.2852C133.719 98.5493 132.162 104.824 134.976 108.02C135.513 108.63 136.26 109.35 137.143 110.16C137.261 110.57 137.981 113.384 137.125 116.298C136.205 119.431 131.998 122.637 131.961 122.673L132.225 123.019C132.389 122.901 135.768 120.314 137.161 117.409C139.01 120.706 137.589 123.374 137.571 123.402L137.954 123.611C138.026 123.484 139.611 120.551 137.38 116.899C137.444 116.735 137.507 116.572 137.553 116.408C138.254 114.04 137.954 111.79 137.726 110.679C137.844 110.789 137.963 110.898 138.081 111.007C141.596 114.231 146.414 118.648 146.268 122.154C146.186 124.33 145.603 126.862 144.884 129.166C142.981 128.638 141.778 129.412 139.875 130.814C138.026 132.171 135.65 131.78 135.631 131.78L135.559 132.208C135.559 132.208 135.95 132.272 136.487 132.272C137.416 132.272 138.873 132.099 140.139 131.161C141.979 129.813 143.053 129.112 144.756 129.576C143.9 132.18 142.88 134.43 142.216 135.386L142.571 135.641C143.919 133.71 146.514 127.135 146.714 122.172C146.787 120.333 145.621 118.302 143.991 116.326C145.785 116.362 152.506 116.936 155.593 123.356L155.985 123.165C152.506 115.943 144.602 115.861 143.618 115.889L143.609 115.898Z" fill="#E0E0E0"/>
<path d="M169.873 125.642C170.046 125.305 170.219 124.95 170.401 124.585C174.718 115.67 166.303 107.565 166.212 107.483L164.208 106.445C164.29 106.518 174.162 115.779 170 124.394C167.496 129.576 165.319 131.916 163.407 133.984C162.032 135.459 160.857 136.734 159.773 138.765C159.427 139.42 159.136 140.03 158.89 140.622C158.426 140.759 156.213 141.406 153.581 141.652C150.484 141.943 148.891 145.349 148.827 145.495L149.228 145.677C149.228 145.677 150.785 142.353 153.626 142.089C155.876 141.87 157.834 141.378 158.681 141.142C157.916 143.081 157.597 144.693 157.315 146.168C157.078 147.389 156.85 148.545 156.404 149.738L156.814 149.893C157.278 148.664 157.506 147.498 157.743 146.25C158.134 144.247 158.571 141.979 160.165 138.974C161.212 136.998 162.378 135.741 163.726 134.284C165.301 132.59 167.041 130.714 168.998 127.263C168.935 128.574 169.463 129.886 170.364 131.534C171.585 133.774 170.793 137.617 170.638 138.082L171.057 138.218C171.23 137.699 172.067 133.729 170.756 131.324C169.49 129.002 169.008 127.491 169.873 125.642Z" fill="#E0E0E0"/>
<path d="M426.113 42.6257V143.328H537.288V42.6257H426.113Z" fill="white" stroke="#E0E0E0" stroke-miterlimit="10"/>
<path d="M431.814 49.0094V136.935H531.597V49.0094H431.814Z" stroke="#E0E0E0" stroke-miterlimit="10"/>
<path d="M426.113 143.328L431.814 136.944" stroke="#E0E0E0" stroke-miterlimit="10"/>
<path d="M537.288 143.328L531.597 136.944" stroke="#E0E0E0" stroke-miterlimit="10"/>
<path d="M531.597 49.0184L537.288 42.6255" stroke="#E0E0E0" stroke-miterlimit="10"/>
<path d="M426.113 42.6255L431.814 49.0184" stroke="#E0E0E0" stroke-miterlimit="10"/>
<path d="M475.108 87.9689C475.108 87.9689 474.789 82.6778 473.204 77.6327C471.62 72.5876 470.245 68.9813 464.853 69.2272C459.462 69.4822 454.071 70.9939 448.261 81.6579C442.451 92.3219 439.063 106.364 438.854 112.156C438.644 117.948 437.797 127.11 447.414 125.853C457.031 124.596 455.555 120.225 466.647 120.307C477.748 120.389 480.49 113.923 479.224 109.47C477.958 105.017 474.042 93.5877 475.098 87.9598L475.108 87.9689Z" fill="#E0E0E0"/>
<path d="M486.527 99.06C486.527 99.06 487.374 89.8986 487.693 85.5364C488.012 81.1652 489.697 78.5607 490.334 75.1183C490.971 71.676 494.031 68.9622 499.423 69.2263C504.814 69.4904 513.483 75.8742 517.39 86.4653C521.297 97.0565 524.366 106.382 524.575 112.256C524.785 118.139 525.213 123.011 517.809 125.196C510.414 127.382 508.192 120.069 502.382 120.488C496.572 120.907 485.79 121.408 483.249 115.279C480.708 109.141 486.099 103.777 486.527 99.06Z" fill="#E0E0E0"/>
<path d="M514.212 111.691C515.305 112.975 517.873 112.893 520.341 112.73C520.341 112.73 516.398 112.684 514.95 111.773C513.502 110.863 514.285 109.815 512.063 109.615C510.314 109.46 508.147 108.868 507.154 108.103C506.854 106.737 506.854 105.198 507.081 104.142C507.127 103.951 507.154 103.778 507.172 103.623C507.446 103.605 507.828 103.541 508.329 103.568C509.595 103.65 511.143 103.286 511.89 105.025C512.554 106.592 513.802 106.355 515.642 105.599C514.858 105.881 513.511 106.191 512.846 105.335C511.862 104.078 512.108 103.067 510.168 102.812C508.602 102.612 507.564 102.466 507.072 102.138C506.908 101.647 506.635 101.155 506.398 100.19C505.925 98.2589 503.493 97.667 502.965 95.8639C502.783 95.2537 502.601 94.762 502.346 94.3795C503.193 93.6874 504.777 92.3214 505.451 91.2012C507.455 89.5074 509.24 89.3526 511.152 90.7914C513.228 92.3578 515.696 91.3834 515.696 91.3834C512.208 91.8023 511.607 89.5074 509.003 88.9154C507.609 88.6058 506.59 89.1704 505.943 89.7715C506.08 88.5876 505.652 87.3855 505.096 86.3929C504.322 85.0177 504.923 84.9085 506.362 83.3694C507.81 81.8304 507.027 80.2913 507.027 80.2913C506.917 82.6136 505.16 83.4878 504.103 84.6899C503.047 85.892 504.632 86.402 504.914 88.278C505.196 90.1539 504.495 91.0464 502.765 92.1119C501.872 92.6583 501.417 93.141 501.18 93.4779C500.734 93.3049 500.169 93.1956 499.413 93.1319C497.956 93.0044 496.955 91.7749 496.235 90.6639C496.654 89.899 497.465 88.278 497.547 87.258C497.583 86.8391 497.547 86.3564 497.474 85.8556C497.72 85.3547 498.075 84.6717 498.357 84.1981C498.849 83.3876 499.905 83.8339 501.144 82.8777C502.373 81.9214 502.063 80.9197 502.063 80.9197C501.362 82.823 500.233 83.078 498.503 83.3876C497.565 83.5516 497.173 83.9067 497 84.189C496.782 83.6882 496.508 83.2601 496.171 82.996C495.224 82.2402 494.305 82.3221 494.723 81.3477C495.142 80.3733 494.933 79.1348 495.006 77.4227C495.079 75.7106 496.599 74.6816 496.599 74.6816C493.968 75.8837 494.405 77.5138 494.332 79.3351C494.259 81.1565 493.667 81.1565 493.84 82.0216C494.013 82.8868 494.933 82.0763 496.199 84.3985C497.155 86.147 496.153 88.5512 495.598 89.6258C495.397 89.2979 495.224 89.0338 495.069 88.9154C494.386 88.369 492.483 88.2051 488.995 87.3582C485.507 86.5204 484.56 83.2419 484.296 80.173C484.032 77.104 484.141 63.1616 484.087 61.3129C484.032 59.4642 479.542 59.8467 478.677 60.4751C477.812 61.1034 478.486 67.1594 478.65 72.8693C478.805 78.5793 478.277 82.2402 478.277 82.2402C477.676 84.6079 476.246 86.657 472.585 87.4675C472.202 87.003 471.738 86.5659 471.192 86.1652C471.401 85.5095 471.538 84.3894 470.663 83.1691C469.288 81.2384 468.378 81.712 468.441 79.8633C468.514 78.0147 468.441 76.3663 466.256 74.7362C466.238 74.7271 468.032 76.7124 467.913 78.7432C467.777 81.1474 467.804 81.2384 468.897 82.2129C469.871 83.0871 470.509 84.4349 470.208 85.5277C468.833 84.7354 467.066 84.1162 464.881 83.7246C460.792 82.996 459.662 78.9618 460.09 80.7558C460.1 80.8013 460.118 80.856 460.127 80.9015C460.582 82.6136 461.912 83.8248 465.199 84.3438C467.749 84.7445 470.144 86.7753 471.164 87.7498C467.686 88.4783 465.873 89.5893 462.895 90.4818C462.54 90.5911 462.24 90.7095 461.966 90.837C461.602 90.4818 460.947 89.8898 460.054 89.1977C459.863 89.052 459.662 88.9063 459.462 88.7788C459.58 88.4419 459.735 87.9137 459.845 87.1851C460.054 85.81 458.679 84.8629 457.322 83.5425C455.965 82.222 456.284 80.3187 456.284 80.3187C455.646 81.3295 455.473 83.0052 457.695 85.0815C459.307 86.5841 458.761 87.7042 458.342 88.2051C457.158 87.7407 455.683 87.5676 453.606 87.9046C450.401 88.4328 449.663 90.0082 449.663 90.0082C452.45 88.2962 451.357 88.8881 455.264 88.5238C458.424 88.2324 460.273 90.6639 460.865 91.6019C460.236 92.2303 459.954 92.9953 459.499 93.824C458.816 93.4324 457.195 92.6401 455.164 92.6401C452.45 92.6401 451.885 92.9224 450.956 93.6783C450.018 94.4341 448.507 93.9332 447.414 94.0152C446.321 94.0972 444.846 94.6345 444.281 95.5269C444.281 95.5269 446.995 94.0152 448.507 94.4888C450.018 94.9623 451.075 94.853 451.958 94.1518C452.814 93.4779 456.266 93.141 458.342 95.4268C458.315 95.4632 458.278 95.4905 458.251 95.5269C457.923 95.8548 457.659 96.1826 457.44 96.5105C456.675 96.7837 455.492 97.2663 454.472 98.0222C453.097 99.033 452.714 99.8708 451.375 100.153C450.037 100.435 448.807 100.681 447.432 101.774C446.057 102.867 444.054 104.014 444.054 104.014C444.054 104.014 445.256 103.787 447.578 102.33C449.9 100.873 451.84 100.873 451.84 100.873C451.312 102.585 450 104.916 447.469 105.745C444.937 106.573 443.871 108.768 443.871 108.768C443.871 108.768 445.565 107.001 448.488 105.745C451.412 104.488 452.541 102.275 453.561 100.281C454.198 99.0421 455.792 98.095 456.903 97.5577C456.357 99.0239 456.502 100.627 456.357 102.785C456.193 105.217 456.156 106.409 455.701 107.411C454.781 108.24 453.661 109.296 451.721 109.242C449.782 109.187 449.117 109.916 447.742 111.2C446.367 112.484 442.842 112.347 442.842 112.347C445.838 112.629 447.878 112.119 449.181 110.863C450.483 109.606 451.293 109.688 453.024 109.825C453.579 109.87 454.053 109.743 454.435 109.542C454.126 110.289 454.007 111.027 453.452 112.192C452.605 113.959 451.23 114.542 448.907 115.389C446.585 116.227 446.795 117.283 446.795 117.283C447.323 115.817 448.798 115.981 450.437 115.225C451.858 114.569 453.388 113.886 454.016 112.839C454.235 113.176 454.572 113.841 454.153 114.305C453.57 114.933 452.869 115.197 453.005 116.263C453.142 117.328 453.251 119.368 451.822 120.334C450.392 121.299 449.709 121.845 449.709 121.845C449.709 121.845 451.931 121.253 452.823 119.86C453.725 118.458 453.543 117.438 453.67 116.272C453.798 115.106 453.898 115.38 454.672 114.624C455.446 113.868 454.69 112.065 454.362 111.937C454.827 110.744 455.856 109.597 456.712 107.63C456.876 107.256 456.985 106.983 457.067 106.756C457.641 107.329 458.879 108.723 458.825 110.034C458.752 111.746 456.257 113.704 461.957 116.418C461.957 116.418 459.143 114.596 459.107 113.285C459.071 111.965 460.054 110.398 459.599 108.55C459.244 107.111 457.878 105.963 457.295 105.526C457.331 104.87 457.368 103.787 457.714 101.246C458.287 97.0478 459.016 96.3739 460.546 94.8439C460.628 95.8183 460.892 97.412 461.748 98.2225C463.223 99.625 464.598 100.854 464.352 101.893C464.107 102.931 461.256 104.16 461.32 106.063C461.393 107.967 462.267 108.358 463.433 109.597C464.598 110.835 464.944 111.263 464.944 112.447C464.944 112.447 465.154 110.635 463.433 108.786C461.702 106.938 461.529 106.409 462.904 104.952C464.28 103.495 465.755 103.359 465.3 101.027C465.3 101.027 468.05 101.893 468.15 106.938C468.259 111.983 469.88 111.555 469.88 111.555C469.88 111.555 468.578 111.719 468.678 108.923C468.787 106.118 469.452 104.078 466.921 101.392C464.38 98.7052 462.768 98.0859 462.231 95.6817C462.012 94.6618 461.921 93.9241 461.903 93.4051C461.966 93.3322 462.03 93.2593 462.094 93.1865C463.697 91.3014 465.454 90.7459 467.23 90.5C467.649 90.8552 468.141 91.4653 468.177 92.4033C468.232 94.0243 468.915 94.1973 468.815 95.2082C468.715 96.1826 466.593 97.3574 467.221 98.9146C467.139 98.6323 467.112 98.004 468.132 97.3483C469.507 96.4649 470.281 95.6089 469.889 94.8439C469.889 94.8439 470.928 95.0443 470.873 96.219C470.818 97.3938 470.554 97.5213 471.72 98.1952C472.885 98.8691 473.368 98.9511 473.332 99.88C473.332 99.88 474.033 99.1514 472.549 98.1315C471.356 97.3119 471.301 97.9766 471.51 96.7017C471.72 95.4268 471.929 95.0807 470.399 94.1791C468.869 93.2867 468.878 92.3851 468.97 91.3469C469.006 90.9098 468.933 90.582 468.824 90.3361C469.443 90.2814 470.053 90.2268 470.654 90.1266C473.505 89.6622 476.41 89.7897 477.84 88.4055C479.269 87.0212 482.174 86.9393 483.868 87.6951C485.562 88.451 487.301 89.4163 489.624 89.5529C491.946 89.6895 493.485 89.8352 494.059 91.5564C494.259 92.1392 494.851 92.7038 495.589 93.2138C494.587 93.059 493.439 93.0772 493.121 93.8695C492.52 95.3539 491.5 94.6254 491.181 95.5542C490.862 96.474 491.782 96.2828 490.789 97.6033C489.806 98.9237 488.959 99.0057 489.87 100.262C489.87 100.262 489.341 99.4519 490.288 98.86C491.236 98.2681 491.982 97.9038 491.909 96.7017C491.837 95.4996 492.401 95.4723 493.53 94.9714C494.66 94.4705 494.268 93.6874 495.079 93.824C495.552 93.9059 497.055 94.3613 498.202 94.7346C498.812 95.0443 499.304 95.2993 499.532 95.4814C500.069 95.9094 500.679 96.7017 501.736 97.5942C501.608 98.0495 501.262 98.7325 500.288 99.4246C499.095 100.272 497.92 101.046 497.747 101.956C496.909 101.856 494.496 101.72 494.232 103.422C493.913 105.499 494.687 105.972 493.175 106.701C493.175 106.701 494.587 106.592 494.796 104.989C495.006 103.386 494.906 102.831 496.062 102.694C496.681 102.621 497.355 102.676 497.856 102.749C497.911 102.867 497.975 102.985 498.066 103.113C499.158 104.597 500.606 106 499.759 107.985C498.913 109.97 496.936 111.846 499.969 113.64C499.969 113.64 498.421 112.074 499.158 110.726C499.896 109.378 501.025 108.741 500.952 106.892C500.88 105.043 500.251 103.331 499.404 102.384C499.168 102.12 499.177 101.883 499.35 101.674C500.424 100.973 501.271 101.938 501.308 103.031C501.344 104.124 502.965 104.014 502.965 104.014C501.417 103.814 501.872 103.177 501.663 101.902C501.526 101.1 500.761 101.009 500.215 101.046C500.816 100.709 501.572 100.354 502.118 99.8708C502.619 99.4337 502.901 98.9693 503.056 98.5777C503.229 98.6961 503.411 98.8054 503.603 98.9237C505.406 99.9983 505.843 102.475 505.897 104.834C505.005 105.326 502.501 106.828 502.264 108.367C501.982 110.243 502.719 110.972 502.965 112.875C503.211 114.779 502.792 114.25 502.965 115.644C503.138 117.046 504.094 116.928 505.36 117.629C506.626 118.33 507.4 119.733 507.4 119.733C507.4 119.733 507.081 117.911 505.214 116.964C503.348 116.008 503.666 116.4 503.839 115.116C504.012 113.831 503.493 111.946 503.247 110.799C503.001 109.651 502.646 109.151 503.812 108.112C504.577 107.429 505.406 106.919 505.879 106.646C505.879 106.701 505.879 106.765 505.879 106.819C505.77 109.588 506.617 111.145 508.894 111.946C511.17 112.748 512.008 113.877 512.855 116.737C513.702 119.596 517.609 119.086 517.609 119.086C513.857 119.341 513.647 117.529 513.483 115.771C513.329 114.005 510.26 111.91 508.62 110.854C508.092 110.517 507.701 109.906 507.418 109.169C508.074 109.642 509.103 110.161 510.469 110.125C512.973 110.07 513.074 110.435 514.166 111.719L514.212 111.691Z" fill="#F0F0F0"/>
<path d="M515.642 105.599C516.015 105.462 516.261 105.334 516.261 105.334C516.051 105.426 515.842 105.517 515.642 105.599Z" fill="#F0F0F0"/>
<path d="M467.23 98.9053C467.258 99.0057 467.294 99.0605 467.294 99.0605C467.267 99.0057 467.248 98.9509 467.23 98.9053Z" fill="#F0F0F0"/>
<path d="M360.777 169.928C360.777 169.928 295.919 178.552 259.028 206.902L293.142 253.701L358.765 211.819L360.777 169.937V169.928Z" fill="#0695C5"/>
<path d="M293.142 253.692L358.774 211.81" stroke="#233237" stroke-width="0.95" stroke-miterlimit="10"/>
<path d="M386.795 169.928C386.795 169.928 451.654 178.552 488.545 206.902L454.431 253.701L388.808 211.819L386.795 169.937V169.928Z" fill="#0695C5"/>
<path d="M454.422 253.692L388.799 211.81" stroke="#233237" stroke-width="0.95" stroke-miterlimit="10"/>
<path d="M367.671 357.655L370.922 332.156L377.297 331.582L379.984 357.655H426.756L423.887 295.401L322.329 295.956V357.655H367.671Z" fill="#233237"/>
<path d="M434.351 347.819L434.888 333.549V320.153H434.761C434.843 317.139 434.888 314.106 434.888 311.046C434.888 231.608 410.327 167.205 373.245 167.205C336.162 167.205 311.601 231.608 311.601 311.046C311.601 314.106 311.647 317.139 311.728 320.153V347.3L434.287 347.837H434.342" fill="#13A2D2"/>
<path d="M419.926 212.52C429.488 237.117 434.897 269.82 434.897 305.7C434.897 308.651 434.852 311.565 434.77 314.47H434.897V331.582L434.378 347.901" stroke="#233237" stroke-miterlimit="10"/>
<path d="M325.671 215.152C316.692 240.769 311.61 274.164 311.61 310.691C311.61 313.796 311.656 316.883 311.738 319.943V347.518H434.469" stroke="#233237" stroke-miterlimit="10"/>
<path d="M420.39 234.485V254.211C420.39 259.902 415.782 264.51 410.09 264.51H402.614C396.922 264.51 392.314 259.902 392.314 254.211V234.485H420.39Z" fill="#0695C5" stroke="#233237" stroke-miterlimit="10"/>
<path d="M420.39 234.485H392.314V241.807H420.39V234.485Z" fill="#0695C5"/>
<path opacity="0.2" d="M420.39 234.485H392.314V241.807H420.39V234.485Z" fill="black"/>
<path d="M420.39 234.485H392.314V241.807H420.39V234.485Z" stroke="#233237" stroke-miterlimit="10"/>
<path d="M341.963 204.889C342.974 196.019 345.624 187.194 350.405 179.608C354.221 173.553 359.675 168.061 366.606 165.794C372.962 163.708 379.71 164.774 385.347 168.271C391.649 172.177 396.194 178.479 399.308 185.109C403.725 194.48 405.437 205.007 405.173 215.316C405.136 216.782 407.413 216.782 407.449 215.316C407.695 205.49 406.175 195.527 402.368 186.429C399.299 179.099 394.727 172.177 388.225 167.469C382.451 163.289 375.239 161.441 368.218 162.998C360.823 164.628 354.749 169.728 350.332 175.693C344.085 184.135 340.87 194.562 339.686 204.898C339.522 206.355 341.799 206.337 341.963 204.898V204.889Z" fill="#233237"/>
<path d="M411.803 221.436C411.803 225.243 408.715 228.33 404.909 228.33C401.102 228.33 398.015 225.243 398.015 221.436C398.015 217.63 401.102 214.542 404.909 214.542C408.715 214.542 411.803 217.63 411.803 221.436Z" fill="#E0E0E0" stroke="#4D5A64" stroke-miterlimit="10"/>
<path d="M408.624 221.436C408.624 223.485 406.958 225.152 404.909 225.152C402.86 225.152 401.193 223.485 401.193 221.436C401.193 219.387 402.86 217.721 404.909 217.721C406.958 217.721 408.624 219.387 408.624 221.436Z" fill="#FAFAFA"/>
<path d="M330.334 247.818C330.334 247.818 335.543 253.91 343.666 248.838C351.789 243.756 353.984 233.985 354.603 228.33" stroke="#E0E0E0" stroke-miterlimit="10"/>
<path d="M329.723 248.565C330.649 248.565 331.399 247.814 331.399 246.889C331.399 245.964 330.649 245.213 329.723 245.213C328.798 245.213 328.048 245.964 328.048 246.889C328.048 247.814 328.798 248.565 329.723 248.565Z" fill="#E0E0E0"/>
<path d="M356.497 247.727C356.497 247.727 351.37 253.892 343.174 248.92C334.978 243.948 332.665 234.203 331.973 228.557" stroke="#E0E0E0" stroke-miterlimit="10"/>
<path d="M355.414 246.816C355.423 247.745 356.188 248.483 357.116 248.474C358.045 248.465 358.783 247.7 358.774 246.771C358.765 245.842 358 245.104 357.071 245.113C356.142 245.122 355.404 245.887 355.414 246.816Z" fill="#E0E0E0"/>
<path d="M333.175 229.195C332.282 224.805 332.282 220.179 333.421 215.835C334.24 212.684 335.725 209.315 338.393 207.284C344.267 202.812 349.767 209.679 351.68 214.797C353.465 219.578 353.902 224.905 353.073 229.932C352.836 231.362 355.031 231.981 355.268 230.533C356.106 225.433 355.832 220.088 354.211 215.161C352.973 211.391 350.906 207.63 347.591 205.298C344.868 203.386 341.426 203.022 338.448 204.561C335.087 206.291 333.011 209.879 331.8 213.331C329.96 218.576 329.878 224.395 330.971 229.805C331.262 231.244 333.457 230.633 333.166 229.204L333.175 229.195Z" fill="#4D5A64"/>
<path d="M343.557 188.515C341.599 193.788 340.378 199.343 339.741 204.88C339.586 206.264 341.753 206.255 341.917 204.88C342.527 199.534 343.739 194.207 345.642 189.152C344.777 188.305 344.076 188.278 343.566 188.515H343.557Z" fill="#4D5A64"/>
<path d="M291.111 284.682C279.655 280.875 256.924 264.082 275.475 240.815C278.207 237.39 281.968 234.066 286.302 230.897L269.974 204.196C248.4 218.375 234.449 236.452 236.27 259.137C239.202 295.582 282.605 313.987 297.914 317.211C313.222 320.435 319.205 330.971 323.094 327.766C325.361 325.899 316.719 316.519 312.867 313.723C316.828 316.118 323.658 325.535 327.146 322.32C329.723 319.943 319.105 311.765 316.109 308.596C319.369 311.337 328.039 320.198 330.47 317.466C333.503 314.06 318.34 301.538 318.34 301.538C322.037 303.97 326.536 308.578 329.769 310.854C332.346 312.667 335.852 313.614 334.923 309.58C334.432 307.449 331.071 305.008 328.795 302.959C319.87 294.927 300.227 287.714 291.102 284.682H291.111Z" fill="white" stroke="#233237" stroke-miterlimit="10"/>
<path d="M271.841 198.386C267.324 201 263.007 203.832 259.028 206.892L293.142 253.691L303.405 247.144L271.841 198.395V198.386Z" fill="#0695C5"/>
<path d="M259.028 206.892L293.142 253.691L303.405 247.144L271.841 198.386" stroke="#233237" stroke-width="0.95" stroke-miterlimit="10"/>
<path d="M327.155 322.311C329.733 319.934 319.114 311.756 316.118 308.587C319.378 311.328 328.048 320.189 330.479 317.457C333.512 314.051 318.349 301.529 318.349 301.529C321.646 303.697 325.598 307.968 329.095 310.454C332.647 312.986 335.698 313.678 334.614 309.607C331.964 299.717 302.576 288.479 291.12 284.673C289.053 283.99 286.621 282.879 284.126 281.376C277.779 289.791 274.209 300.564 272.506 307.03C282.514 312.649 292.195 315.982 297.923 317.193C313.231 320.417 319.214 330.953 323.103 327.748C325.37 325.881 316.728 316.501 312.876 313.705C316.837 316.1 323.668 325.516 327.155 322.302V322.311Z" fill="#0695C5"/>
<path d="M327.155 322.311C329.733 319.934 319.114 311.756 316.118 308.587C319.378 311.328 328.048 320.189 330.479 317.457C333.512 314.051 318.349 301.529 318.349 301.529C323.604 307.694 338.056 317.639 334.332 309.079C330.197 299.571 302.576 288.479 291.12 284.673C289.053 283.99 286.621 282.879 284.126 281.376C277.779 289.791 274.209 300.564 272.506 307.03C282.514 312.649 292.195 315.982 297.923 317.193C313.231 320.417 319.214 330.953 323.103 327.748C325.37 325.881 316.728 316.501 312.876 313.705C316.837 316.1 323.668 325.516 327.155 322.302V322.311Z" fill="#ECA187"/>
<path d="M327.155 322.311C329.733 319.934 319.114 311.756 316.118 308.587C319.378 311.328 328.048 320.189 330.479 317.457C333.512 314.051 318.349 301.529 318.349 301.529C321.709 303.742 325.971 307.977 329.095 310.454C332.146 312.867 336.28 313.395 334.65 309.115C334.013 307.431 331.527 305.591 329.869 303.879C321.673 295.401 300.646 287.851 291.111 284.682C289.044 283.999 286.612 282.888 284.117 281.385C277.769 289.8 274.2 300.573 272.497 307.039C282.505 312.658 292.185 315.991 297.914 317.202C313.222 320.426 319.205 330.962 323.094 327.757C325.361 325.89 316.719 316.51 312.867 313.714C316.828 316.109 323.658 325.526 327.146 322.311H327.155Z" stroke="#233237" stroke-miterlimit="10"/>
<path d="M274.883 308.451C274.883 308.451 278.835 292.978 285.947 282.351" stroke="#233237" stroke-miterlimit="10"/>
<path d="M455.651 284.682C467.108 280.875 489.838 264.082 471.288 240.815C468.556 237.39 464.795 234.066 460.46 230.897L476.788 204.196C498.362 218.375 512.314 236.452 510.492 259.137C507.56 295.582 464.157 313.987 448.849 317.211C433.54 320.435 427.557 330.971 423.669 327.766C421.401 325.899 430.043 316.519 433.895 313.723C429.934 316.118 423.104 325.535 419.616 322.32C417.039 319.943 427.657 311.765 430.653 308.596C427.393 311.337 418.724 320.198 416.292 317.466C413.26 314.06 428.422 301.538 428.422 301.538C421.774 305.91 411.602 318.204 413.706 309.106C416.119 298.642 444.204 288.488 455.661 284.682H455.651Z" fill="white" stroke="#233237" stroke-miterlimit="10"/>
<path d="M474.921 198.386C479.438 201 483.755 203.832 487.735 206.892L453.621 253.691L443.357 247.144L474.921 198.395V198.386Z" fill="#0695C5"/>
<path d="M487.735 206.892L453.621 253.691L443.357 247.144L474.921 198.386" stroke="#233237" stroke-width="0.95" stroke-miterlimit="10"/>
<path d="M419.616 322.311C417.039 319.934 427.657 311.756 430.653 308.587C427.393 311.328 418.724 320.189 416.292 317.457C413.26 314.051 428.422 301.529 428.422 301.529C423.741 304.617 417.303 311.629 414.644 312.321C413.533 312.603 412.112 312.048 412.731 309.37C413.15 307.54 415.336 305.445 417.112 303.669C425.453 295.282 446.208 287.824 455.661 284.682C457.728 283.999 460.159 282.888 462.655 281.385C469.002 289.8 472.572 300.573 474.275 307.039C464.266 312.658 454.586 315.991 448.858 317.202C433.549 320.426 427.566 330.962 423.678 327.757C421.41 325.89 430.052 316.51 433.905 313.714C429.943 316.109 423.113 325.526 419.625 322.311H419.616Z" fill="#0695C5"/>
<path d="M419.616 322.311C417.039 319.934 427.657 311.756 430.654 308.587C427.393 311.328 418.724 320.189 416.292 317.457C413.26 314.051 428.422 301.529 428.422 301.529C424.279 304.252 418.378 310.226 415.008 312.129C413.861 312.776 412.012 313.077 412.804 309.643C415.218 299.18 444.204 288.479 455.661 284.673C457.728 283.99 460.159 282.879 462.655 281.376C469.002 289.791 472.572 300.564 474.275 307.03C464.267 312.649 454.586 315.982 448.858 317.193C433.549 320.417 427.566 330.953 423.678 327.748C421.41 325.881 430.052 316.501 433.905 313.705C429.943 316.1 423.113 325.516 419.625 322.302L419.616 322.311Z" fill="#ECA187"/>
<path d="M419.616 322.311C417.039 319.934 427.657 311.756 430.653 308.587C427.393 311.328 418.724 320.189 416.292 317.457C413.26 314.051 428.422 301.529 428.422 301.529C424.461 304.143 419.243 309.562 416.119 311.592C414.371 312.731 412.722 313.004 412.485 310.9C412.24 308.733 415.063 305.873 416.511 304.289C424.415 295.646 445.971 287.897 455.651 284.682C457.719 283.999 460.15 282.888 462.645 281.385C468.993 289.8 472.563 300.573 474.266 307.039C464.257 312.658 454.577 315.991 448.849 317.202C433.54 320.426 427.557 330.962 423.669 327.757C421.401 325.89 430.043 316.51 433.895 313.714C429.934 316.109 423.104 325.526 419.616 322.311Z" stroke="#233237" stroke-miterlimit="10"/>
<path d="M471.88 308.451C471.88 308.451 467.927 292.978 460.815 282.351" stroke="#233237" stroke-miterlimit="10"/>
<path d="M373.081 194.27L356.379 171.849C359.166 170.265 362.016 169.054 364.93 168.261L364.821 156.122C364.784 151.924 368.19 148.454 372.389 148.418L375.64 148.39C379.838 148.354 383.308 151.76 383.344 155.958L383.462 168.799C386.914 169.946 390.283 171.676 393.553 173.926L373.09 194.27H373.081Z" fill="#ECA187" stroke="#233237" stroke-miterlimit="10"/>
<path d="M394.09 174.29L372.243 198.76L353.355 173.734C355.905 172.004 358.51 170.584 361.169 169.518L372.316 186.894L386.959 170.156C389.382 171.248 391.759 172.633 394.09 174.29Z" fill="#0695C5"/>
<path opacity="0.2" d="M394.09 174.29L372.243 198.76L353.355 173.734C355.905 172.004 358.51 170.584 361.169 169.518L372.316 186.894L386.959 170.156C389.382 171.248 391.759 172.633 394.09 174.29Z" fill="black"/>
<path d="M394.09 174.29L372.243 198.76L353.355 173.734C355.905 172.004 358.51 170.584 361.169 169.518L372.316 186.894L386.959 170.156C389.382 171.248 391.759 172.633 394.09 174.29Z" stroke="#233237" stroke-miterlimit="10"/>
<path d="M347.891 131.661C347.891 131.661 342.309 122.245 343.812 108.73C346.279 86.5009 371.551 89.6336 374.601 89.497C384.637 89.0326 402.222 90.8266 403.962 104.041C405.701 117.254 400.856 135.368 400.419 137.48C399.982 139.593 356.215 146.341 347.891 131.661Z" fill="#233237"/>
<path d="M339.149 135.35C339.031 139.247 342.127 142.517 346.061 142.635C349.995 142.753 353.283 139.684 353.401 135.787C353.519 131.88 350.423 128.62 346.489 128.501C342.555 128.383 339.267 131.452 339.149 135.35Z" fill="#ECA187" stroke="#233237" stroke-miterlimit="10"/>
<path d="M349.549 136.616C349.567 136.47 349.558 136.315 349.558 136.161C349.558 135.997 349.54 135.833 349.521 135.669C349.521 135.605 349.531 135.487 349.521 135.669C349.521 135.623 349.503 135.569 349.503 135.523C349.485 135.414 349.467 135.305 349.44 135.204C349.385 134.986 349.321 134.767 349.239 134.558C349.185 134.412 349.285 134.649 349.221 134.512C349.194 134.467 349.175 134.412 349.148 134.367C349.084 134.248 349.021 134.13 348.948 134.02C348.92 133.975 348.884 133.929 348.848 133.875C348.757 133.747 348.902 133.938 348.802 133.82C348.711 133.711 348.611 133.602 348.502 133.51C348.456 133.465 348.41 133.429 348.365 133.392C348.274 133.31 348.438 133.447 348.365 133.392C348.338 133.374 348.31 133.356 348.283 133.337C348.155 133.246 348.028 133.174 347.891 133.101C347.864 133.082 347.828 133.073 347.8 133.055C347.773 133.046 347.746 133.028 347.727 133.019C347.791 133.046 347.8 133.046 347.737 133.019C347.655 132.991 347.573 132.955 347.491 132.928C347.309 132.873 347.126 132.827 346.935 132.791C346.926 132.791 346.753 132.764 346.881 132.782C346.826 132.782 346.771 132.773 346.726 132.764C346.616 132.755 346.507 132.746 346.398 132.746C346.134 132.736 345.879 132.746 345.615 132.764C345.314 132.782 345.068 132.5 345.068 132.217C345.068 131.899 345.323 131.689 345.615 131.671C347.172 131.553 348.757 131.944 349.731 133.237C350.332 134.03 350.596 135.031 350.651 136.015C350.66 136.215 350.669 136.425 350.651 136.625C350.623 136.916 350.414 137.171 350.104 137.171C349.831 137.171 349.521 136.916 349.558 136.625L349.549 136.616Z" fill="#233237"/>
<path d="M409.052 136.352C408.934 140.259 405.646 143.318 401.712 143.2C397.778 143.082 394.682 139.821 394.8 135.915C394.919 132.008 398.206 128.948 402.14 129.066C406.074 129.185 409.171 132.445 409.052 136.352Z" fill="#ECA187" stroke="#233237" stroke-miterlimit="10"/>
<path d="M397.496 136.953C397.432 135.141 398.37 133.228 400.1 132.527C401.002 132.163 401.985 132.172 402.933 132.299C403.224 132.336 403.388 132.718 403.315 132.973C403.224 133.292 402.933 133.401 402.641 133.356C401.922 133.256 401.248 133.283 400.583 133.51C400.547 133.52 400.346 133.602 400.465 133.556C400.401 133.583 400.337 133.62 400.273 133.647C400.137 133.72 400.018 133.793 399.891 133.884C399.763 133.975 399.936 133.838 399.818 133.939C399.773 133.984 399.718 134.02 399.672 134.066C399.581 134.157 399.49 134.257 399.408 134.348C399.39 134.376 399.372 134.394 399.354 134.421C399.436 134.321 399.39 134.376 399.372 134.394C399.335 134.439 399.299 134.494 399.272 134.54C399.199 134.649 399.135 134.758 399.071 134.877C399.044 134.931 399.017 134.977 398.998 135.031C398.98 135.068 398.907 135.25 398.971 135.086C398.926 135.195 398.889 135.295 398.853 135.405C398.789 135.596 398.734 135.796 398.698 136.006C398.68 136.097 398.661 136.179 398.652 136.27C398.589 136.443 398.643 136.334 398.652 136.27C398.643 136.306 398.643 136.352 398.634 136.397C398.616 136.579 398.598 136.771 398.607 136.953C398.634 137.663 397.532 137.663 397.505 136.953H397.496Z" fill="#233237"/>
<path d="M351.811 116.611L351.599 137.519C351.491 148.216 360.075 156.975 370.772 157.084L377.074 157.148C387.771 157.256 396.531 148.672 396.639 137.975L396.851 117.067C396.959 106.369 388.375 97.6097 377.678 97.5014L371.376 97.4376C360.679 97.3294 351.919 105.913 351.811 116.611Z" fill="#ECA187" stroke="#233237" stroke-miterlimit="10"/>
<path d="M374.046 122.682L371.469 132.982L376.869 132.927L374.046 122.682Z" fill="#D7734D"/>
<path d="M370.494 140.65C370.749 142.863 372.598 144.593 374.875 144.611C377.16 144.639 379.036 142.945 379.337 140.741L370.494 140.65Z" fill="white" stroke="#233237" stroke-miterlimit="10"/>
<path d="M362.234 126.716C362.171 128.155 360.96 129.275 359.521 129.212C358.082 129.148 356.962 127.937 357.025 126.498C357.089 125.059 358.3 123.939 359.739 124.003C361.178 124.066 362.298 125.278 362.234 126.716Z" fill="#233237"/>
<path d="M389.846 126.716C389.782 128.155 388.571 129.275 387.132 129.212C385.693 129.148 384.573 127.937 384.637 126.498C384.701 125.059 385.912 123.939 387.351 124.003C388.79 124.066 389.91 125.278 389.846 126.716Z" fill="#233237"/>
<path d="M350.637 122.315C350.637 122.315 372.184 114.944 379.652 98.5282C379.652 98.5282 392.729 119.374 403.193 119.706C409.485 119.903 403.918 90.8336 394.142 86.9231C393.164 84.9678 358.789 80.6725 353.57 90.3448C344.283 105.009 350.637 122.315 350.637 122.315Z" fill="#233237"/>
<path d="M360.058 134.849C365.505 134.849 369.921 129.895 369.921 123.784C369.921 117.673 365.505 112.719 360.058 112.719C354.611 112.719 350.195 117.673 350.195 123.784C350.195 129.895 354.611 134.849 360.058 134.849Z" stroke="#4D5A64" stroke-miterlimit="10"/>
<path d="M388.553 134.849C394 134.849 398.416 129.895 398.416 123.784C398.416 117.673 394 112.719 388.553 112.719C383.106 112.719 378.69 117.673 378.69 123.784C378.69 129.895 383.106 134.849 388.553 134.849Z" stroke="#4D5A64" stroke-miterlimit="10"/>
<path d="M369.374 127.053C370.449 126.497 372.061 125.887 373.946 125.887C376.15 125.887 378.007 126.598 379.164 127.189" stroke="#4D5A64" stroke-miterlimit="10"/>
<path d="M661.458 252.644L662.924 253.272C663.133 252.853 681.14 211.396 725.947 175.593L724.9 174.336C679.883 210.454 661.667 252.225 661.458 252.644Z" fill="#07A899"/>
<path d="M714.431 184.387C714.431 184.387 731.391 185.12 735.788 173.185C738.719 165.438 723.853 165.543 714.431 184.387Z" fill="#07A899"/>
<path d="M706.682 190.773C706.682 190.773 716.313 204.696 728.562 201.032C736.414 198.729 727.41 186.899 706.682 190.773Z" fill="#07A899"/>
<path d="M707.941 190.982C707.941 190.982 693.18 182.607 695.692 170.149C697.367 161.983 709.93 169.94 707.941 190.982Z" fill="#07A899"/>
<path d="M693.703 204.906C693.703 204.906 703.125 219.039 715.478 215.48C723.33 213.281 714.536 201.347 693.703 204.906Z" fill="#07A899"/>
<path d="M693.597 205.534C693.597 205.534 678.731 197.263 681.244 184.805C682.814 176.744 695.377 184.491 693.597 205.534Z" fill="#07A899"/>
<path d="M679.987 222.494C679.987 222.494 690.141 236.104 702.285 231.916C710.032 229.299 700.61 217.888 679.987 222.494Z" fill="#07A899"/>
<path d="M679.988 223.645C679.988 223.645 664.599 216.526 666.169 203.754C667.111 195.693 680.302 202.497 679.988 223.645Z" fill="#07A899"/>
<path d="M666.901 243.013C666.901 243.013 683.442 246.886 690.038 235.998C694.225 228.88 679.673 226.158 666.901 243.013Z" fill="#07A899"/>
<path d="M668.367 241.233C668.367 241.233 654.862 230.973 659.154 218.934C661.876 211.187 673.183 220.714 668.367 241.233Z" fill="#07A899"/>
<path d="M649.94 164.601C575.297 202.812 597.386 331.37 599.48 342.782L620.836 335.558C624.815 305.617 637.691 268.662 657.687 238.197C685.744 194.96 686.372 149.735 649.94 164.601Z" fill="#29CABB"/>
<path d="M663.239 180.305C662.716 179.886 661.878 179.991 661.46 180.514C619.375 232.963 608.487 283.424 606.917 316.61C606.498 325.195 606.603 333.046 607.126 340.165L609.534 339.328C609.115 332.523 609.01 324.88 609.429 316.61C611.104 283.842 621.782 233.906 663.449 182.084C663.867 181.561 663.763 180.828 663.239 180.305Z" fill="white"/>
<path d="M645.546 174.232L648.687 201.138C648.687 201.138 675.278 190.564 675.069 190.878C674.754 191.192 644.499 207.105 644.499 207.105L645.546 174.232Z" fill="white"/>
<path d="M619.687 197.788L629.632 232.44L665.436 220.296L627.539 237.57L619.687 197.788Z" fill="white"/>
<path d="M607.02 235.162L618.64 261.858L640.311 252.226L617.489 265.941L607.02 235.162Z" fill="white"/>
<path d="M724.792 224.901C648.369 219.143 600.945 337.756 596.548 356.286L620.836 344.142C638.214 322.681 665.852 300.068 695.898 285.725C738.192 265.625 760.177 230.659 724.792 224.901Z" fill="white"/>
<path d="M727.618 243.536C727.409 242.908 726.781 242.594 726.153 242.803C668.364 263.531 635.911 297.765 618.846 322.89C614.449 329.381 606.912 344.247 603.876 350.005L610.052 341.839C612.984 336.29 616.438 330.323 620.731 324.042C637.586 299.335 669.725 265.52 726.886 244.897C727.514 244.792 727.828 244.059 727.618 243.536Z" fill="#B4E9EF"/>
<path d="M717.673 228.67L706.158 251.702L730.76 256.936L702.18 254.11L717.673 228.67Z" fill="#B4E9EF"/>
<path d="M686.79 236.522L683.545 264.056L712.962 271.698L679.985 266.568L686.79 236.522Z" fill="#B4E9EF"/>
<path d="M660.198 255.052L659.78 281.119L674.436 283.318L656.744 283.632L660.198 255.052Z" fill="#B4E9EF"/>
<path d="M642.193 275.466L642.716 295.985L658.524 299.44L640.204 298.916L642.193 275.466Z" fill="#B4E9EF"/>
<path d="M715.266 282.062C657.268 265.94 606.494 344.561 602.097 351.68L616.858 358.171C633.504 344.247 658.315 331.056 683.65 324.566C719.454 315.562 741.752 291.902 715.266 282.062Z" fill="#07A899"/>
<path d="M714.638 296.822C714.534 296.299 714.115 295.985 713.591 296.089C665.853 303.313 635.598 324.774 618.638 341.524C614.241 345.817 610.473 350.109 607.332 354.087L609.007 354.82C612.043 351.051 615.707 346.968 619.999 342.781C636.75 326.24 666.691 305.093 713.905 297.974C714.324 297.764 714.743 297.346 714.638 296.822Z" fill="#B4E9EF"/>
<path d="M708.565 284.05L697.259 300.172L712.962 308.757L693.7 301.115L708.565 284.05Z" fill="#B4E9EF"/>
<path d="M687.315 283.841L676.218 307.082L698.412 316.504L672.135 307.71L687.315 283.841Z" fill="#B4E9EF"/>
<path d="M661.666 295.148L654.129 316.4L673.496 324.461L652.14 317.97L661.666 295.148Z" fill="#B4E9EF"/>
<path d="M641.461 309.071L636.331 327.811L660.2 330.847L634.238 329.381L641.461 309.071Z" fill="#B4E9EF"/>
<path d="M606.81 351.994L607.856 352.622C608.066 352.308 624.711 323.518 660.515 301.324L659.887 300.277C623.874 322.681 607.019 351.68 606.81 351.994Z" fill="#29CABB"/>
<path d="M651.303 306.56C651.303 306.56 663.656 308.549 667.844 300.173C670.67 294.834 659.782 293.578 651.303 306.56Z" fill="#29CABB"/>
<path d="M647.219 309.176C647.219 309.176 652.872 320.273 662.085 318.807C668.157 317.865 662.713 308.443 647.219 309.176Z" fill="#29CABB"/>
<path d="M647.742 309.7C647.742 309.7 637.901 301.953 641.251 293.159C643.345 287.506 651.511 294.625 647.742 309.7Z" fill="#29CABB"/>
<path d="M634.237 320.063C634.237 320.063 640.938 330.532 650.045 328.229C655.908 326.659 649.627 317.76 634.237 320.063Z" fill="#29CABB"/>
<path d="M634.864 320.168C634.864 320.168 625.337 312.107 629.001 303.417C631.304 297.869 639.261 305.302 634.864 320.168Z" fill="#29CABB"/>
<path d="M623.979 330.427C623.979 330.427 630.365 341.106 639.577 339.012C645.335 337.756 639.368 328.648 623.979 330.427Z" fill="#29CABB"/>
<path d="M622.932 332.312C622.932 332.312 612.882 324.879 615.813 315.98C617.698 310.327 626.177 317.237 622.932 332.312Z" fill="#29CABB"/>
<path d="M615.916 340.269C615.916 340.269 623.349 350.319 632.248 347.178C638.006 345.189 631.096 336.814 615.916 340.269Z" fill="#29CABB"/>
<path d="M612.88 344.143C612.88 344.143 603.876 335.454 608.064 327.079C610.681 321.635 618.114 329.591 612.88 344.143Z" fill="#29CABB"/>
<path d="M87.4099 239.888L86.216 240.4C86.0455 240.059 71.3774 206.288 34.878 177.122L35.7308 176.099C72.4008 205.435 87.2394 239.547 87.4099 239.888Z" fill="#5EC5DD"/>
<path d="M44.1719 184.286C44.1719 184.286 30.3567 184.883 26.7749 175.161C24.4724 168.85 36.4968 168.936 44.1719 184.286Z" fill="#5EC5DD"/>
<path d="M50.5691 189.488C50.5691 189.488 42.7234 200.83 32.7458 197.846C26.3498 195.884 33.6838 186.333 50.5691 189.488Z" fill="#5EC5DD"/>
<path d="M49.5459 189.573C49.5459 189.573 61.5703 182.751 59.5236 172.603C58.1591 166.036 47.9256 172.518 49.5459 189.573Z" fill="#5EC5DD"/>
<path d="M61.0576 201.001C61.0576 201.001 53.3825 212.514 43.3195 209.614C36.9236 207.823 44.1723 198.101 61.0576 201.001Z" fill="#5EC5DD"/>
<path d="M61.2285 201.513C61.2285 201.513 73.3382 194.775 71.2915 184.627C70.0123 177.975 59.7788 184.371 61.2285 201.513Z" fill="#5EC5DD"/>
<path d="M72.3158 215.328C72.3158 215.328 64.0437 226.414 54.1513 223.003C47.8406 220.871 55.5158 211.49 72.3158 215.328Z" fill="#5EC5DD"/>
<path d="M72.3149 216.266C72.3149 216.266 84.8509 210.467 83.5717 200.063C82.7189 193.411 72.059 199.04 72.3149 216.266Z" fill="#5EC5DD"/>
<path d="M82.9749 232.042C82.9749 232.042 69.5008 235.198 64.1282 226.329C60.717 220.53 72.5709 218.312 82.9749 232.042Z" fill="#5EC5DD"/>
<path d="M81.7817 230.593C81.7817 230.593 92.7827 222.235 89.2862 212.428C87.069 206.118 77.7735 213.878 81.7817 230.593Z" fill="#5EC5DD"/>
<path d="M122.8 272.976C122.8 272.976 143.864 232.554 130.305 202.536C116.746 172.517 101.736 152.647 105.915 140.538C73.6796 173.285 74.6177 217.801 93.038 244.663C111.458 271.526 122.8 272.976 122.8 272.976Z" fill="#4AB9D3"/>
<path d="M122.8 272.977C122.8 272.977 122.203 233.492 110.179 208.591C95.852 179.084 101.31 154.268 102.589 146.934C98.8368 159.3 93.4642 174.65 105.574 203.389C114.443 224.538 120.412 246.284 120.498 273.488C120.583 282.187 122.8 272.977 122.8 272.977Z" fill="#5EC5DD"/>
<path d="M90.3945 166.719C90.3945 166.719 96.7905 182.495 101.907 189.659C105.83 197.078 104.892 196.737 104.892 196.737C104.892 196.737 92.1854 180.619 90.3945 166.719Z" fill="#5EC5DD"/>
<path d="M82.2075 189.573C82.2075 189.573 96.6197 200.915 107.535 205.009C108.985 205.947 109.753 208.335 109.753 208.335C109.753 208.335 90.6501 200.745 82.2075 189.573Z" fill="#5EC5DD"/>
<path d="M87.4951 210.041C87.4951 210.041 101.907 221.383 112.823 225.477C119.901 229.996 115.04 228.802 115.04 228.802C115.04 228.802 96.023 221.213 87.4951 210.041Z" fill="#5EC5DD"/>
<path d="M87.1532 223.856C87.1532 223.856 94.6578 237.501 120.242 248.246C120.753 248.843 120.156 250.634 120.156 250.634C120.156 250.634 95.5959 242.873 87.1532 223.856Z" fill="#5EC5DD"/>
<path d="M94.9135 242.105C94.9135 242.105 103.527 256.603 121.947 262.146C122.459 262.743 121.862 264.534 121.862 264.534C121.862 264.534 101.651 258.479 94.9135 242.105Z" fill="#5EC5DD"/>
<path d="M105.915 200.148C105.915 200.148 112.993 179.595 110.349 168.936C113.078 177.634 111.031 193.07 107.109 203.474C106.512 202.109 105.915 200.148 105.915 200.148Z" fill="#5EC5DD"/>
<path d="M112.823 219.421C112.823 219.421 121.862 198.698 121.18 187.783C122.289 196.822 119.56 213.878 113.761 223.429C113.59 221.98 112.823 219.421 112.823 219.421Z" fill="#5EC5DD"/>
<path d="M118.281 240.144C118.281 240.144 127.32 219.421 126.638 208.505C127.747 217.545 125.018 234.601 119.219 244.152C118.963 242.702 118.281 240.144 118.281 240.144Z" fill="#5EC5DD"/>
<path d="M121.095 257.455C121.095 257.455 131.413 246.028 130.646 235.112C131.755 244.152 127.832 251.912 122.033 261.464C121.777 259.929 121.095 257.455 121.095 257.455Z" fill="#5EC5DD"/>
<path d="M52.1891 223.515C119.815 233.407 136.445 338.3 137.809 347.681H119.474C108.559 325.594 88.8591 300.522 65.4927 282.272C32.5749 256.432 20.2947 221.639 52.1891 223.515Z" fill="#007CB2"/>
<path d="M46.1357 239.205C46.4768 238.694 47.0738 238.608 47.5002 238.864C93.8068 268.2 115.382 304.359 125.36 329.516C127.918 335.997 129.88 342.137 131.415 347.681H129.283C127.833 342.308 125.957 336.424 123.399 330.113C113.506 305.297 92.1865 269.565 46.3915 240.57C45.9651 240.229 45.7946 239.632 46.1357 239.205Z" fill="#4AB9D3"/>
<path d="M58.1598 229.74L62.7648 251.315C62.7648 251.315 39.4836 250.121 39.7395 250.292C40.0806 250.463 67.5405 254.812 67.5405 254.812L58.1598 229.74Z" fill="#4AB9D3"/>
<path d="M84.2557 241.167L85.7055 270.504H54.9197L88.6902 273.915L84.2557 241.167Z" fill="#4AB9D3"/>
<path d="M103.869 266.666L101.907 290.288L82.6344 288.582L103.869 293.187V266.666Z" fill="#4AB9D3"/>
<path d="M10.3169 289.692C67.7098 265.217 135.422 344.185 143.694 357.318L121.777 354.334C102.76 342.309 75.5555 332.161 48.6073 329.006C10.6581 324.656 -15.4374 303.422 10.3169 289.692Z" fill="#4AB9D3"/>
<path d="M13.0458 304.786C13.0458 304.275 13.4722 303.848 13.9838 303.848C63.9574 304.701 97.9838 322.61 117.769 337.448C122.885 341.286 132.607 350.752 136.445 354.419L129.537 349.814C125.87 346.317 121.521 342.65 116.66 338.898C97.0458 324.23 63.4458 306.577 13.9838 305.724C13.4722 305.724 13.0458 305.298 13.0458 304.786Z" fill="#5EC5DD"/>
<path d="M16.8824 290.715L31.8063 305.469L14.1535 315.958L35.388 306.321L16.8824 290.715Z" fill="#5EC5DD"/>
<path d="M42.7234 288.668L52.4452 309.05L31.8077 322.695L55.8564 310.074L42.7234 288.668Z" fill="#5EC5DD"/>
<path d="M68.0504 295.917L75.2139 315.958L64.554 321.501L78.1986 317.152L68.0504 295.917Z" fill="#5EC5DD"/>
<path d="M87.2385 307.004L92.2699 322.951L81.0131 329.773L94.9989 324.486L87.2385 307.004Z" fill="#5EC5DD"/>
<path d="M32.6598 331.307C73.1674 303.677 132.948 351.007 138.235 355.271L103.783 357.573C103.783 357.573 89.2852 355.697 68.0507 357.403C38.1177 359.705 14.8364 345.805 32.6598 331.307Z" fill="#7ADAEA"/>
<path d="M37.0946 342.479C37.0093 342.053 37.2651 341.712 37.6915 341.627C76.4083 334.634 105.318 343.247 122.8 351.69C127.32 353.907 131.328 356.124 134.825 358.341L133.716 359.365C130.305 357.233 126.467 355.015 122.118 352.969C104.806 344.611 76.2377 336.169 37.9474 343.076C37.521 343.162 37.0946 342.906 37.0946 342.479Z" fill="#B4E9EF"/>
<path d="M38.3731 331.052L51.2503 340.518L41.5284 351.178L54.3203 340.262L38.3731 331.052Z" fill="#B4E9EF"/>
<path d="M54.6624 325.338L69.4157 340.262L54.6624 353.395L72.6563 339.751L54.6624 325.338Z" fill="#B4E9EF"/>
<path d="M77.4319 327.299L88.8593 341.712L76.0674 353.054L90.8207 342.308L77.4319 327.299Z" fill="#B4E9EF"/>
<path d="M96.7043 332.757L105.573 345.805L88.0059 354.418L107.535 346.573L96.7043 332.757Z" fill="#B4E9EF"/>
<path d="M117.001 335.231L116.745 336.169C116.489 336.083 90.4793 328.408 56.8793 335.145L56.7087 334.207C90.5646 327.3 116.745 335.145 117.001 335.231Z" fill="#007CB2"/>
<path d="M65.3213 333.184C65.3213 333.184 59.0959 341.285 51.9324 338.642C47.2421 337.021 53.0411 330.199 65.3213 333.184Z" fill="#007CB2"/>
<path d="M69.1588 332.417C69.1588 332.417 72.0583 342.138 65.7477 346.488C61.6543 349.217 59.5223 340.603 69.1588 332.417Z" fill="#007CB2"/>
<path d="M69.1598 332.928C69.1598 332.928 70.6096 322.865 63.7872 319.454C59.3527 317.322 58.4999 326.191 69.1598 332.928Z" fill="#007CB2"/>
<path d="M82.9742 331.648C82.9742 331.648 84.8504 341.626 78.1133 345.293C73.7641 347.596 72.5702 338.812 82.9742 331.648Z" fill="#007CB2"/>
<path d="M82.7192 331.99C82.7192 331.99 83.8279 321.841 76.835 318.771C72.3152 316.81 71.8035 325.679 82.7192 331.99Z" fill="#007CB2"/>
<path d="M94.914 331.99C94.914 331.99 97.1312 341.882 90.4795 345.805C86.2155 348.278 84.6805 339.494 94.914 331.99Z" fill="#007CB2"/>
<path d="M96.5319 332.587C96.5319 332.587 98.408 322.609 91.5857 318.942C87.3218 316.64 86.1278 325.423 96.5319 332.587Z" fill="#007CB2"/>
<path d="M105.061 333.354C105.061 333.354 106.255 343.417 99.2624 346.658C94.8279 348.619 94.231 339.75 105.061 333.354Z" fill="#007CB2"/>
<path d="M109.155 333.951C109.155 333.951 109.667 323.802 102.503 321.074C97.8128 319.368 97.8128 328.237 109.155 333.951Z" fill="#007CB2"/>
<path d="M469.038 332.155C469.038 332.155 454.031 341.153 444.587 330.862C435.152 320.572 431.091 305.072 442.228 268.7C453.366 232.327 481.542 203.632 505.11 190.609C528.679 177.587 536.802 178.907 543.969 179.098C551.145 179.29 506.549 309.298 506.549 309.298L469.029 332.165L469.038 332.155Z" fill="#EAEAEA"/>
<path d="M560.033 180.136C560.033 180.136 567.583 174.845 602.407 200.617C637.231 226.38 651.21 250.55 660.735 292.268C670.261 333.977 642.276 339.832 622.769 336.863C603.254 333.895 603.827 306.101 603.827 306.101L560.042 180.136H560.033Z" fill="#EAEAEA"/>
<path d="M586.151 357.654L585.241 338.73L510.647 336.854L509.381 357.654H586.151Z" fill="#0695C5"/>
<path opacity="0.3" d="M586.151 357.654L585.241 338.73L510.647 336.854L509.381 357.654H586.151Z" fill="black"/>
<path d="M610.233 351.177C612.501 338.118 613.749 324.157 613.749 309.632C613.749 237.115 583.123 178.331 545.348 178.331C507.573 178.331 481.227 237.352 476.947 309.632C476.091 324.13 478.195 338.118 480.462 351.177H610.233Z" fill="#4AB9D3" stroke="#0C0C0C" stroke-width="0.75" stroke-miterlimit="10"/>
<path d="M520.574 357.654L531.201 180.127C531.201 180.127 524.171 182.95 522.404 184.307C498.654 200.845 481.114 243.501 477.936 293.169C477.918 293.324 477.908 293.406 477.908 293.406L477.854 294.389L477.735 296.529L474.411 357.645H520.574V357.654Z" fill="#EAEAEA"/>
<path d="M489.192 237.053C483.263 253.691 479.238 272.825 477.936 293.169C477.918 293.324 477.908 293.406 477.908 293.406L477.854 294.389L477.735 296.529L474.411 357.645" stroke="#233237" stroke-miterlimit="10"/>
<path d="M501.122 357.654C501.886 347.281 501.486 336.854 501.486 336.854H478.928L475.532 337.091L474.411 357.663H501.122V357.654Z" fill="#EAEAEA" stroke="#233237" stroke-miterlimit="10"/>
<path d="M475.258 343.93H501.586" stroke="#233237" stroke-miterlimit="10"/>
<path d="M526.493 181.921C523.907 189.152 514.326 216.927 514.326 216.927L520.273 218.311V218.576L511.093 224.887L520.674 338.73" stroke="#233237" stroke-miterlimit="10"/>
<path d="M619.418 357.654L616.094 296.539L615.976 294.399L615.921 293.415C615.921 293.415 615.912 293.333 615.894 293.178C612.716 243.519 593.337 201.1 569.586 184.553C567.819 183.196 562.629 180.136 562.629 180.136L573.256 357.663H619.418V357.654Z" fill="#EAEAEA"/>
<path d="M609.492 246.479L613.326 270.858C614.537 278.079 615.411 285.538 615.894 293.169C615.912 293.324 615.921 293.406 615.921 293.406L615.976 294.39L616.094 296.53L619.418 357.645" stroke="#233237" stroke-miterlimit="10"/>
<path d="M619.418 357.654L618.298 337.082L614.901 336.845H592.344C592.344 336.845 591.943 347.282 592.708 357.645H619.418V357.654Z" fill="#EAEAEA" stroke="#233237" stroke-miterlimit="10"/>
<path d="M592.244 343.931H618.672" stroke="#233237" stroke-miterlimit="10"/>
<path d="M567.956 181.921C570.542 189.152 579.503 216.928 579.503 216.928L573.557 218.312V218.576L582.736 224.887L573.156 338.73" stroke="#233237" stroke-miterlimit="10"/>
<path d="M562.738 181.921C562.738 187.239 555.68 191.556 546.974 191.556C538.268 191.556 531.21 187.239 531.21 181.921C531.21 176.603 538.268 172.286 546.974 172.286C555.68 172.286 562.738 176.603 562.738 181.921Z" fill="#2493AD"/>
<path d="M534.37 94.706C534.37 94.706 561.581 86.8013 576.953 118.183C588.756 142.271 585.177 159.118 582.873 165.648C582.235 167.46 580.633 168.68 578.802 168.735L515.046 170.538C513.006 170.592 511.185 169.181 510.629 167.105C507.041 153.754 497.26 106.536 534.37 94.706Z" fill="#233237"/>
<path d="M575.196 142.844C574.913 148.336 570.205 152.561 564.659 152.279C559.122 151.997 554.86 147.316 555.134 141.824C555.416 136.333 560.124 132.108 565.67 132.39C571.207 132.672 575.469 137.353 575.196 142.844Z" stroke="#233237" stroke-width="1.88" stroke-miterlimit="10"/>
<path d="M533.068 109.76L545.663 110.397C554.041 110.825 560.498 118.976 560.006 128.511L559.013 148.035C558.986 148.582 558.931 149.128 558.858 149.665C558.968 150.248 559.013 150.849 558.986 151.469L558.385 163.353L558.348 164.018L557.747 175.902C557.529 180.219 553.822 183.57 549.506 183.351L544.506 183.096C540.189 182.878 536.838 179.171 537.066 174.855L537.603 164.336L530.318 163.963C521.94 163.535 515.483 155.385 515.975 145.85L516.967 126.325C517.45 116.79 524.699 109.332 533.077 109.76H533.068Z" fill="#F1A87A" stroke="#233237" stroke-width="0.94" stroke-miterlimit="10"/>
<path d="M541.847 133.984C541.765 135.55 540.435 136.762 538.86 136.68C537.293 136.598 536.082 135.268 536.164 133.693C536.246 132.126 537.576 130.915 539.151 130.997C540.718 131.079 541.929 132.409 541.847 133.984Z" fill="#233237"/>
<path d="M523.278 132.627C523.214 133.966 522.067 134.995 520.728 134.931C519.39 134.867 518.361 133.72 518.424 132.381C518.488 131.042 519.636 130.013 520.974 130.077C522.313 130.141 523.342 131.288 523.278 132.627Z" fill="#233237"/>
<path d="M525.391 144.383C525.391 144.383 526.602 148.618 529.607 149.055C532.613 149.492 535.144 146.268 535.436 143.673L525.382 144.392L525.391 144.383Z" fill="white"/>
<path d="M524.936 144.511C525.355 145.968 526.192 147.489 527.349 148.472C529.471 150.285 532.312 149.602 534.07 147.635C535.062 146.523 535.736 145.148 535.927 143.664C535.955 143.418 535.682 143.172 535.454 143.19C532.522 143.4 529.598 143.609 526.666 143.819L525.4 143.91C524.79 143.955 524.781 144.912 525.4 144.866C528.332 144.657 531.256 144.447 534.188 144.238L535.454 144.147L534.98 143.673C534.707 145.831 532.94 148.236 530.7 148.582C528.66 148.9 527.24 147.252 526.42 145.604C526.201 145.176 526.01 144.72 525.874 144.256C525.701 143.664 524.781 143.919 524.954 144.511H524.936Z" fill="#233237"/>
<path d="M551.181 144.93C550.981 148.828 547.666 151.824 543.768 151.632C539.871 151.432 536.875 148.117 537.066 144.22C537.266 140.322 540.581 137.326 544.479 137.517C548.376 137.717 551.373 141.032 551.181 144.93Z" fill="#D88146"/>
<path d="M517.978 138.464C517.55 138.446 517.131 138.473 516.721 138.555L516.348 145.877C516.293 146.97 516.275 148.036 516.448 149.074C516.74 149.137 517.122 149.201 517.423 149.21C520.391 149.365 522.914 147.079 523.069 144.111C523.224 141.142 520.938 138.619 517.969 138.464H517.978Z" fill="#D88146"/>
<path d="M529.298 130.505L529.389 140.204L524.917 137.153L529.298 130.505Z" fill="#D88146"/>
<path d="M514.645 126.052C514.645 126.052 525.027 122.873 531.137 112.992C531.137 112.992 536.711 127.682 555.052 135.941C579.048 146.751 567.045 117.336 560.397 109.741C553.749 102.146 519.836 92.6844 514.645 126.052Z" fill="#233237"/>
<path d="M575.196 142.844C574.913 148.336 570.205 152.561 564.659 152.279C559.122 151.997 554.86 147.316 555.134 141.824C555.416 136.333 560.124 132.108 565.67 132.39C571.207 132.672 575.469 137.353 575.196 142.844Z" fill="#F1A87A"/>
<path d="M560.261 143.382C560.261 143.172 560.279 142.963 560.297 142.753C560.297 142.708 560.306 142.653 560.315 142.607C560.334 142.48 560.297 142.744 560.315 142.589C560.334 142.462 560.361 142.325 560.388 142.198C560.443 141.924 560.516 141.651 560.598 141.387C560.98 140.194 561.791 139.065 562.965 138.564C564.022 138.118 565.187 138.109 566.317 138.282C566.626 138.327 566.954 138.2 567.045 137.872C567.118 137.59 566.954 137.198 566.635 137.143C564.559 136.825 562.31 137.052 560.816 138.673C559.878 139.684 559.368 141.023 559.177 142.371C559.131 142.708 559.086 143.045 559.095 143.382C559.104 144.137 560.279 144.137 560.27 143.382H560.261Z" fill="#233237"/>
<path d="M448.849 317.202C448.849 317.202 446.326 302.577 451.763 295.391C457.2 288.206 457.272 287.213 466.352 282.396C475.431 277.569 490.139 272.943 490.139 272.943C490.139 272.943 497.961 270.466 501.44 275.001C504.919 279.536 514.691 300.619 514.691 300.619C514.691 300.619 516.384 307.321 511.959 310.436C507.533 313.55 465.551 333.822 465.551 333.822C465.551 333.822 451.945 334.286 448.858 317.202H448.849Z" fill="#EAEAEA"/>
<path d="M448.849 317.202C448.849 317.202 446.208 305.418 451.125 296.338C455.415 288.416 457.272 287.223 466.352 282.396C475.431 277.569 490.139 272.943 490.139 272.943C490.139 272.943 497.961 270.466 501.44 275.001C504.919 279.536 514.691 300.619 514.691 300.619C514.691 300.619 516.384 307.321 511.959 310.436C507.533 313.55 465.551 333.822 465.551 333.822" stroke="#233237" stroke-miterlimit="10"/>
<path d="M490.139 282.351C490.139 282.351 486.505 295.173 499.364 306.347" stroke="#233237" stroke-miterlimit="10"/>
<path d="M501.823 298.123C501.823 298.123 494.883 292.322 496.268 282.76C497.369 275.192 500.293 270.411 509.336 265.885C511.713 264.692 514.517 263.526 517.814 262.324C521.193 261.095 524.599 265.311 527.404 266.732C532.877 269.491 535.955 272.415 536.993 275.684C538.568 280.638 536.793 285.802 533.405 289.982C530.017 294.162 512.55 308.477 501.814 298.114L501.823 298.123Z" fill="#F1A87A" stroke="#233237" stroke-miterlimit="10"/>
<path d="M502.169 251.961C506.139 258.163 510.119 264.365 514.09 270.566L515.783 273.216C516.749 274.719 518.861 275.466 520.455 274.446C521.958 273.48 522.714 271.386 521.685 269.774C517.714 263.572 513.734 257.371 509.764 251.169L508.07 248.519C507.105 247.016 504.992 246.269 503.398 247.289C501.896 248.255 501.14 250.349 502.169 251.961Z" fill="#4D5A64"/>
<path d="M504.427 284.782C504.427 284.782 501.404 277.542 502.078 274.801C502.743 272.06 505.22 270.703 509.891 269.146C514.563 267.588 526.52 263.891 528.66 263.936C530.8 263.982 532.075 265.448 532.276 266.304C532.476 267.16 532.777 268.699 533.432 269.082C534.088 269.464 535.217 270.348 535.363 271.149C535.509 271.95 535.563 272.697 536.656 272.816C537.74 272.934 537.412 275.903 537.385 279.709C537.357 283.516 528.205 294.307 525.792 295.446C523.378 296.593 515.501 298.342 513.07 295.992C510.638 293.643 504.819 285.747 504.436 284.782H504.427Z" fill="#F1A87A"/>
<path d="M506.567 270.931C506.567 270.931 527.003 262.935 529.744 263.946C532.485 264.957 533.979 268.663 530.445 270.749C526.903 272.843 509.454 279.036 509.454 279.036" stroke="#233237" stroke-miterlimit="10"/>
<path d="M514.099 287.796C514.099 287.796 528.697 280.902 532.649 277.351C536.592 273.799 536.456 269.665 532.321 268.699" stroke="#233237" stroke-miterlimit="10"/>
<path d="M519.144 294.563C519.144 294.563 533.623 284.682 536.328 280.921C539.033 277.16 537.284 270.876 535.408 273.117" stroke="#233237" stroke-miterlimit="10"/>
<path d="M585.495 242.308H526.921C521.67 242.308 517.413 246.565 517.413 251.816V335.488C517.413 340.739 521.67 344.996 526.921 344.996H585.495C590.746 344.996 595.003 340.739 595.003 335.488V251.816C595.003 246.565 590.746 242.308 585.495 242.308Z" fill="#233237"/>
<path d="M570.788 239.43H541.619C539.079 239.43 537.02 241.489 537.02 244.029V245.878C537.02 248.418 539.079 250.477 541.619 250.477H570.788C573.328 250.477 575.387 248.418 575.387 245.878V244.029C575.387 241.489 573.328 239.43 570.788 239.43Z" fill="#4D5A64"/>
<path d="M556.208 231.544C551.5 231.544 547.675 235.36 547.675 240.077C547.675 244.794 551.491 248.61 556.208 248.61C560.925 248.61 564.741 244.794 564.741 240.077C564.741 235.36 560.925 231.544 556.208 231.544ZM556.208 244.731C553.64 244.731 551.555 242.645 551.555 240.077C551.555 237.509 553.64 235.423 556.208 235.423C558.776 235.423 560.862 237.509 560.862 240.077C560.862 242.645 558.776 244.731 556.208 244.731Z" fill="#4D5A64"/>
<path d="M625.556 337.209L605.285 332.966C605.285 332.966 600.094 331.436 599.402 323.613C598.837 317.229 604.857 292.75 605.357 290.838C606.25 287.423 608.326 282.459 619.418 285.073C630.237 287.623 646.62 289.608 650.053 303.869C653.487 318.131 649.926 326.145 649.042 327.629C648.159 329.113 632.805 337.337 625.556 337.218V337.209Z" fill="#EAEAEA"/>
<path d="M625.556 337.209L605.285 332.966C605.285 332.966 600.094 331.436 599.402 323.613C598.837 317.229 604.857 292.75 605.357 290.838C606.25 287.423 608.326 282.459 619.418 285.073C630.237 287.623 646.62 289.608 650.053 303.869C650.755 306.793 651.164 309.452 651.365 311.847" stroke="#233237" stroke-miterlimit="10"/>
<path d="M610.439 293.715C606.578 289.116 594.903 286.521 594.903 286.521L595.003 293.233C595.003 293.233 572.974 289.654 569.759 290.227C565.625 290.965 564.259 295.992 571.089 297.959C571.945 298.205 570.342 297.722 570.342 297.722C563.102 296.93 563.33 304.525 568.12 305.745C570.105 306.246 569.723 306.128 569.723 306.128C567.655 305.727 566.544 308.805 569.959 311.319C570.779 311.92 572.309 312.484 574.139 312.994L573.912 313.113C573.912 313.113 571.435 314.26 574.795 316.783C578.156 319.305 589.921 321.4 597.881 320.881C605.84 320.371 609.792 312.311 611.167 308.523C612.552 304.734 614.063 298.032 610.439 293.715Z" fill="#F1A87A"/>
<path d="M590.896 310.062C590.896 310.062 571.699 306.656 568.12 305.745C563.33 304.534 563.102 296.93 570.342 297.722" stroke="#233237" stroke-miterlimit="10"/>
<path d="M588.865 315.635C588.865 315.635 573.365 313.823 569.95 311.309C566.535 308.796 567.646 305.727 569.714 306.118" stroke="#233237" stroke-miterlimit="10"/>
<path d="M573.903 313.113C573.903 313.113 571.426 314.26 574.786 316.783C578.146 319.305 589.912 321.4 597.872 320.881C605.831 320.371 609.783 312.311 611.158 308.523C612.543 304.734 614.054 298.032 610.43 293.715C606.569 289.116 594.894 286.521 594.894 286.521L594.848 293.133C594.848 293.133 572.956 289.654 569.75 290.227C565.616 290.965 564.25 295.983 571.08 297.959C577.91 299.935 594.047 302.421 594.047 302.421" stroke="#233237" stroke-miterlimit="10"/>
<path d="M609.492 320.525C609.492 320.525 619.081 315.48 617.743 296.283" stroke="#233237" stroke-miterlimit="10"/>
<path d="M316.236 357.655C317.338 339.76 316.409 307.686 302.74 267.935C281.412 205.955 247.043 177.578 226.453 172.405C205.863 167.233 188.341 166.823 151.887 198.387C115.442 229.951 93.9498 268.563 86.4822 295.702C79.0147 322.84 90.3617 333.358 90.3617 333.358L198.659 295.392L214.013 357.646H316.236V357.655Z" fill="#29CABB"/>
<path d="M279.208 357.654C279.236 355.614 279.254 353.565 279.254 351.516C279.254 249.84 248.437 167.405 210.416 167.405C172.395 167.405 141.578 249.83 141.578 351.516C141.578 353.574 141.596 355.614 141.624 357.654H279.208Z" fill="#18B9AA"/>
<path d="M154.227 245.113C146.259 275.156 141.578 311.875 141.578 351.517C141.578 353.575 141.596 355.615 141.624 357.654H279.208C279.236 355.615 279.254 353.566 279.254 351.517C279.254 312.612 274.746 276.522 267.042 246.789" stroke="#233237" stroke-miterlimit="10"/>
<path d="M246.479 121.808C246.479 121.808 247.298 110.333 246.142 103.212C244.976 96.0904 237.618 88.122 229.495 85.8271C221.362 83.5322 213.494 85.7087 206.655 88.3588C199.816 91.0179 190.39 87.0292 185.746 97.5384C181.101 108.048 185.354 109.013 180.974 116.371C176.584 123.738 178.397 128.201 179.553 134.721C180.719 141.242 174.736 140.449 176.675 149.547C178.369 157.506 181.484 163.662 196.455 165.602C205.435 166.759 232.336 155.858 234.786 149.456C237.235 143.054 246.488 121.808 246.488 121.808H246.479Z" fill="#29CABB"/>
<path opacity="0.3" d="M246.479 121.808C246.479 121.808 247.298 110.333 246.142 103.212C244.976 96.0904 237.618 88.122 229.495 85.8271C221.362 83.5322 213.494 85.7087 206.655 88.3588C199.816 91.0179 190.39 87.0292 185.746 97.5384C181.101 108.048 185.354 109.013 180.974 116.371C176.584 123.738 178.397 128.201 179.553 134.721C180.719 141.242 174.736 140.449 176.675 149.547C178.369 157.506 181.484 163.662 196.455 165.602C205.435 166.759 232.336 155.858 234.786 149.456C237.235 143.054 246.488 121.808 246.488 121.808H246.479Z" fill="black"/>
<path d="M197.166 144.602C197.166 144.602 196.519 147.498 192.002 151.122" stroke="#233237" stroke-miterlimit="10"/>
<path d="M196 143.4C196 143.4 191.356 145.449 187.485 146.296" stroke="#233237" stroke-miterlimit="10"/>
<path d="M195.353 117.683C195.353 117.683 191.091 118.411 188.769 117.683" stroke="#233237" stroke-miterlimit="10"/>
<path d="M194.579 119.368C194.579 119.368 190.581 121.298 188.769 121.417" stroke="#233237" stroke-miterlimit="10"/>
<path d="M201.81 115.36C201.491 114.823 198.941 113.047 195.827 111.945C194.862 116.389 193.04 126.307 194.889 130.814C197.311 136.716 197.785 144.939 197.785 144.939L201.072 151.241C204.97 153.363 211.245 158.69 211.245 158.69C211.245 158.69 202.448 116.399 201.819 115.351L201.81 115.36Z" fill="#2A2936"/>
<path d="M218.594 91.5918H221.745C235.241 91.5918 246.178 102.456 246.178 115.861V118.074C246.178 104.669 235.241 93.8047 221.745 93.8047C208.249 93.8047 197.311 104.669 197.311 118.074V137.417C197.311 144.921 200.735 151.623 206.118 156.068C198.96 151.833 194.151 144.074 194.151 135.204V115.861C194.151 102.456 205.089 91.5918 218.585 91.5918H218.594Z" fill="#29CABB"/>
<path opacity="0.3" d="M218.594 91.5918H221.745C235.241 91.5918 246.178 102.456 246.178 115.861V118.074C246.178 104.669 235.241 93.8047 221.745 93.8047C208.249 93.8047 197.311 104.669 197.311 118.074V137.417C197.311 144.921 200.735 151.623 206.118 156.068C198.96 151.833 194.151 144.074 194.151 135.204V115.861C194.151 102.456 205.089 91.5918 218.585 91.5918H218.594Z" fill="black"/>
<path d="M206.118 156.068C198.96 151.833 194.151 144.074 194.151 135.204V115.861C194.151 102.456 205.089 91.5918 218.585 91.5918H221.736C235.232 91.5918 246.169 102.456 246.169 115.861V118.074" stroke="#233237" stroke-miterlimit="10"/>
<path d="M184.334 134.885C184.334 140.668 189.061 145.349 194.88 145.349C200.699 145.349 205.425 140.668 205.425 134.885C205.425 129.102 200.699 124.421 194.88 124.421C189.061 124.421 184.334 129.102 184.334 134.885Z" stroke="#233237" stroke-width="2" stroke-miterlimit="10"/>
<path d="M230.296 102.419H217.046C208.239 102.419 201.027 110.625 201.027 120.651V141.187C201.027 141.77 201.054 142.334 201.1 142.899C200.954 143.5 200.872 144.128 200.872 144.784C200.872 144.784 200.717 157.042 200.708 157.543L200.572 171.867C200.572 171.867 200.517 171.886 200.499 171.895L202.311 173.607L220.333 174.144L222.756 171.385C222.701 171.367 222.637 171.348 222.583 171.33C222.61 171.057 222.628 170.775 222.628 170.492V159.428H230.287C239.093 159.428 246.306 151.222 246.306 141.196V120.66C246.306 110.634 239.102 102.429 230.287 102.429L230.296 102.419Z" fill="#AA5A2E" stroke="#233237" stroke-miterlimit="10"/>
<path d="M221.745 93.8047C208.249 93.8047 197.311 104.669 197.311 118.074V130.295C197.311 130.295 197.357 130.341 197.375 130.359C197.375 130.359 201.819 136.069 204.688 126.425C206.473 120.424 205.772 119.304 212.046 119.786C218.33 120.269 222.938 114.003 223.357 110.543C223.703 107.692 233.465 119.996 246.023 115.369C244.666 103.248 234.312 93.8229 221.745 93.8229V93.8047Z" fill="#233237"/>
<path d="M221.408 127.363C221.408 128.793 222.573 129.958 224.003 129.958C225.433 129.958 226.599 128.793 226.599 127.363C226.599 125.933 225.433 124.768 224.003 124.768C222.573 124.768 221.408 125.933 221.408 127.363Z" fill="#233237"/>
<path d="M239.266 127.108C239.266 128.401 240.313 129.448 241.607 129.448C242.9 129.448 243.947 128.401 243.947 127.108C243.947 125.815 242.9 124.768 241.607 124.768C240.313 124.768 239.266 125.815 239.266 127.108Z" fill="#233237"/>
<path d="M234.64 135.978V135.568L234.731 125.651L239.348 134.885L234.64 135.978Z" fill="#F1A87A"/>
<path d="M184.334 134.885C184.334 140.668 189.061 145.349 194.88 145.349C200.699 145.349 205.425 140.668 205.425 134.885C205.425 129.102 200.699 124.421 194.88 124.421C189.061 124.421 184.334 129.102 184.334 134.885Z" fill="#AA5A2E"/>
<path d="M201.218 136.269C201.382 133.765 200.198 130.951 197.84 129.867C196.565 129.284 195.144 129.184 193.76 129.321C193.423 129.357 193.131 129.585 193.131 129.949C193.131 130.259 193.423 130.614 193.76 130.578C194.907 130.459 195.982 130.496 197.056 130.887C197.33 130.987 197.767 131.224 198.085 131.461C197.994 131.397 198.195 131.552 198.222 131.579C198.295 131.643 198.359 131.707 198.422 131.771C198.568 131.907 198.696 132.053 198.823 132.208C198.741 132.098 198.887 132.299 198.914 132.335C198.96 132.408 199.014 132.481 199.06 132.554C199.16 132.709 199.251 132.872 199.333 133.045C199.369 133.127 199.415 133.209 199.451 133.291C199.397 133.155 199.497 133.382 199.451 133.291C199.47 133.328 199.479 133.364 199.497 133.401C199.561 133.574 199.624 133.738 199.67 133.911C199.761 134.202 199.825 134.503 199.879 134.803C199.889 134.867 199.898 134.931 199.907 134.994C199.934 135.176 199.898 134.876 199.907 135.049C199.916 135.176 199.934 135.295 199.943 135.422C199.961 135.696 199.98 135.978 199.961 136.251C199.907 137.052 201.164 137.052 201.218 136.251V136.269Z" fill="#233237"/>
<path d="M243.209 134.448C234.257 129.303 230.332 134.931 220.752 137.8C214.723 139.612 211.718 137.627 210.325 135.905C209.87 135.341 208.968 135.568 208.868 136.288C208.494 138.993 208.003 143.856 208.139 149.83C208.239 154.164 216.089 157.179 222.637 159.71V159.428H230.296C239.102 159.428 246.315 151.223 246.315 141.196V136.343C245.441 135.778 244.43 135.159 243.218 134.457L243.209 134.448Z" fill="#29CABB"/>
<path d="M243.209 134.448C234.257 129.303 230.332 134.931 220.752 137.8C214.723 139.612 211.718 137.627 210.325 135.905C209.87 135.341 208.968 135.568 208.868 136.288C208.494 138.993 208.003 143.856 208.139 149.83C208.239 154.164 216.089 157.179 222.637 159.71V159.428H230.296C239.102 159.428 246.315 151.223 246.315 141.196V136.343C245.441 135.778 244.43 135.159 243.218 134.457L243.209 134.448Z" fill="white"/>
<path d="M243.209 134.448C234.257 129.303 230.332 134.931 220.752 137.8C214.723 139.612 211.718 137.627 210.325 135.905C209.87 135.341 208.968 135.568 208.868 136.288C208.494 138.993 208.003 143.856 208.139 149.83C208.239 154.164 216.089 157.179 222.637 159.71V159.428H230.296C239.102 159.428 246.315 151.223 246.315 141.196V136.343C245.441 135.778 244.43 135.159 243.218 134.457L243.209 134.448Z" stroke="#233237" stroke-miterlimit="10"/>
<path d="M217.601 143.692C217.601 143.692 221.635 144.921 226.599 142.18C231.562 139.439 243.71 135.796 246.178 143.473" stroke="#233237" stroke-width="0.75" stroke-miterlimit="10"/>
<path d="M219.295 149.029C219.295 149.029 226.599 150.249 234.157 150.404C242.372 150.568 245.413 147.189 245.413 147.189" stroke="#233237" stroke-width="0.75" stroke-miterlimit="10"/>
<path d="M223.703 153.728C223.703 153.728 230.706 157.361 241.916 153.782" stroke="#233237" stroke-width="0.75" stroke-miterlimit="10"/>
<path d="M203.322 128.72C204.915 130.76 206.509 132.799 208.103 134.839L208.777 135.705C208.968 135.95 209.387 135.905 209.578 135.705C209.815 135.468 209.769 135.14 209.578 134.903C207.984 132.863 206.391 130.823 204.797 128.783L204.123 127.918C203.932 127.672 203.513 127.718 203.322 127.918C203.085 128.155 203.131 128.483 203.322 128.72Z" fill="#233237"/>
<path d="M201.464 148.026C203.586 145.731 205.699 143.437 207.821 141.142C208.121 140.823 208.412 140.495 208.713 140.176C209.205 139.639 208.403 138.829 207.912 139.375C205.79 141.67 203.677 143.965 201.555 146.26C201.255 146.578 200.963 146.906 200.663 147.225C200.171 147.762 200.972 148.573 201.464 148.026Z" fill="#233237"/>
<path d="M199.124 165.693H224.459C226.371 165.693 227.928 167.25 227.928 169.163V173.406C227.928 175.319 226.371 176.876 224.459 176.876H199.124C197.211 176.876 195.654 175.319 195.654 173.406V169.163C195.654 167.25 197.211 165.693 199.124 165.693Z" fill="#29CABB"/>
<path opacity="0.3" d="M199.124 165.693H224.459C226.371 165.693 227.928 167.25 227.928 169.163V173.406C227.928 175.319 226.371 176.876 224.459 176.876H199.124C197.211 176.876 195.654 175.319 195.654 173.406V169.163C195.654 167.25 197.211 165.693 199.124 165.693Z" fill="black"/>
<path d="M212.684 221.208L155.738 234.922C150.633 236.151 147.491 241.286 148.72 246.391L168.31 327.738C169.54 332.843 174.675 335.985 179.779 334.755L236.726 321.041C241.831 319.812 244.973 314.677 243.743 309.572L224.153 228.225C222.924 223.12 217.789 219.978 212.684 221.208Z" fill="#233237"/>
<path d="M197.718 221.853L169.36 228.682C166.891 229.277 165.371 231.761 165.966 234.23L166.398 236.027C166.993 238.496 169.477 240.016 171.946 239.422L200.304 232.592C202.774 231.998 204.293 229.514 203.699 227.045L203.266 225.247C202.671 222.778 200.187 221.258 197.718 221.853Z" fill="#4D5A64"/>
<path d="M181.702 217.592C177.122 218.694 174.308 223.302 175.41 227.883C176.512 232.464 181.12 235.278 185.7 234.176C190.281 233.074 193.095 228.466 191.993 223.885C190.891 219.305 186.283 216.491 181.702 217.592ZM184.79 230.415C182.285 231.016 179.772 229.477 179.171 226.981C178.57 224.477 180.109 221.964 182.604 221.363C185.108 220.762 187.622 222.301 188.223 224.796C188.824 227.3 187.285 229.814 184.79 230.415Z" fill="#4D5A64"/>
<path d="M184.189 291.594L181.074 287.023L200.59 271.095L218.631 256.57C218.631 256.57 222.537 253.036 225.26 253.738C227.983 254.439 226.69 256.561 226.654 257.107C226.617 257.644 222.155 263.955 222.155 263.955L220.425 266.287L230.415 259.466L231.489 258.646L230.624 254.849C230.624 254.849 234.03 254.093 236.115 254.967C238.201 255.841 239.348 257.59 238.957 259.092C238.565 260.595 237.199 262.662 237.199 262.662C237.199 262.662 238.611 261.396 240.095 262.562C241.58 263.728 239.813 267.789 239.813 267.789L238.301 270.066C238.301 270.066 239.148 268.718 240.314 269.419C241.479 270.112 241.971 272.142 241.361 273.299C240.751 274.455 239.704 275.903 239.704 275.903C239.704 275.903 241.006 275.466 241.315 276.932C241.625 278.399 241.889 278.772 240.387 281.814C238.884 284.855 234.449 288.116 233.065 289.627C231.68 291.139 221.335 297.632 221.335 297.632L202.056 308.843L198.933 310.491C198.933 310.491 185.318 294.39 184.189 291.613V291.594Z" fill="#29CABB"/>
<path d="M184.189 291.594L181.074 287.023L200.59 271.095L218.631 256.57C218.631 256.57 222.537 253.036 225.26 253.738C227.983 254.439 226.69 256.561 226.654 257.107C226.617 257.644 222.155 263.955 222.155 263.955L220.425 266.287L230.415 259.466L231.489 258.646L230.624 254.849C230.624 254.849 234.03 254.093 236.115 254.967C238.201 255.841 239.348 257.59 238.957 259.092C238.565 260.595 237.199 262.662 237.199 262.662C237.199 262.662 238.611 261.396 240.095 262.562C241.58 263.728 239.813 267.789 239.813 267.789L238.301 270.066C238.301 270.066 239.148 268.718 240.314 269.419C241.479 270.112 241.971 272.142 241.361 273.299C240.751 274.455 239.704 275.903 239.704 275.903C239.704 275.903 241.006 275.466 241.315 276.932C241.625 278.399 241.889 278.772 240.387 281.814C238.884 284.855 234.449 288.116 233.065 289.627C231.68 291.139 221.335 297.632 221.335 297.632L202.056 308.843L198.933 310.491C198.933 310.491 185.318 294.39 184.189 291.613V291.594Z" fill="#AA5A2E"/>
<path d="M230.624 255.058C230.624 255.058 235.541 253.455 238.292 256.287C241.042 259.119 236.534 263.855 234.057 265.567C231.58 267.279 223.539 273.289 223.539 273.289" stroke="#233237" stroke-miterlimit="10"/>
<path d="M228.019 277.989C228.019 277.989 236.115 272.844 238.292 270.057C243.437 263.473 239.439 260.331 236.88 263.017" stroke="#233237" stroke-miterlimit="10"/>
<path d="M238.838 269.256C238.838 269.256 241.078 268.782 241.597 271.095C242.117 273.408 240.277 275.967 232.254 283.517" stroke="#233237" stroke-miterlimit="10"/>
<path d="M239.894 275.64C239.894 275.64 244.776 276.113 238.292 284.755C232.545 292.405 201.173 309.462 199.187 310.309C197.202 311.156 181.065 287.023 181.065 287.023C181.065 287.023 210.744 262.735 217.346 257.535C223.949 252.344 226.444 253.037 226.899 255.832C227.282 258.191 219.304 267.152 219.304 267.152L232.891 257.645" stroke="#233237" stroke-miterlimit="10"/>
<path d="M92.6384 335.953C92.6384 335.953 84.8886 327.748 86.118 321.619C87.3474 315.481 86.4003 309.917 95.6527 303.305C104.905 296.703 110.852 295.592 127.217 291.858C143.582 288.124 171.175 281.823 171.175 281.823C171.175 281.823 180.409 277.861 185.454 281.668C190.5 285.474 196.282 295.182 197.639 299.772C198.987 304.371 202.338 308.952 200.854 313.569C199.369 318.186 200.453 317.157 196.683 321.2C192.913 325.253 175.756 335.534 165.092 339.459C154.428 343.384 137.589 347.928 124.066 347.209C110.542 346.49 99.7417 343.594 92.6566 335.953H92.6384Z" fill="#29CABB"/>
<path d="M111.699 295.401L177.677 280.339C177.677 280.339 185.172 276.878 192.23 289.718C199.288 302.559 204.214 310.455 198.641 318.869C193.058 327.284 161.176 345.379 130.304 347.091C99.432 348.803 88.1032 333.895 85.271 323.322" stroke="#233237" stroke-miterlimit="10"/>
<path d="M173.015 290.793C173.015 290.793 183.023 286.449 190.673 287.077" stroke="#233237" stroke-miterlimit="10"/>
<path d="M191.784 288.908C191.784 288.908 186.902 293.935 180.673 296.949" stroke="#233237" stroke-miterlimit="10"/>
<path d="M183.806 308.515C183.806 308.515 192.549 302.049 198.659 301.976" stroke="#233237" stroke-miterlimit="10"/>
<path d="M192.303 312.694C192.303 312.694 197.011 310.527 200.18 305.974" stroke="#233237" stroke-miterlimit="10"/>
<path d="M318.504 86.7741C322.174 81.6561 324.341 75.3907 324.341 68.6152C324.341 51.3853 310.372 37.4155 293.142 37.4155C275.912 37.4155 261.942 51.3853 261.942 68.6152C261.942 85.8452 275.912 99.8149 293.142 99.8149C299.626 99.8149 305.645 97.8388 310.636 94.4511L321.782 99.1046L318.504 86.7832V86.7741Z" fill="white" stroke="#233237" stroke-miterlimit="10"/>
<path d="M306.41 63.8888C305.836 60.6285 302.913 57.7144 299.607 57.8783C297.659 57.9785 295.855 59.0895 294.59 60.583C294.034 61.2387 293.661 61.7122 293.369 62.1949C293.123 61.6849 292.796 61.1749 292.304 60.4737C291.193 58.8709 289.508 57.5869 287.577 57.2955C284.308 56.8128 281.112 59.4265 280.228 62.6138C279.345 65.8012 280.392 69.2708 282.25 72.012C284.108 74.744 287.25 78.2865 292.786 79.8438C296.52 79.1699 301.374 75.5909 303.496 73.0501C305.609 70.5094 306.993 67.149 306.419 63.8979L306.41 63.8888Z" fill="#D57575"/>
<path d="M673.075 357.09H99.9602C92.2195 357.09 84.4605 356.935 76.7289 357.09C76.3919 357.09 76.055 357.09 75.7089 357.09C74.9804 357.09 74.9713 358.228 75.7089 358.228H648.824C656.564 358.228 664.323 358.383 672.055 358.228C672.392 358.228 672.729 358.228 673.075 358.228C673.804 358.228 673.813 357.09 673.075 357.09Z" fill="#233237"/>
</svg>
