<svg width="34" height="34" viewBox="0 0 34 34" fill="none" xmlns="http://www.w3.org/2000/svg">
<path d="M33.1174 16.5525C33.1162 13.3881 32.2083 10.2904 30.5013 7.62597C28.7943 4.96155 26.3595 2.84204 23.4853 1.51836C20.6111 0.194687 17.4178 -0.277723 14.2835 0.157059C11.1492 0.591841 8.20503 1.91561 5.79966 3.97164C3.39428 6.02768 1.62844 8.72988 0.711095 11.7583C-0.206248 14.7868 -0.236663 18.0147 0.623512 21.0599C1.48369 24.1051 3.19843 26.8401 5.56467 28.941C7.93092 31.042 10.8496 32.4209 13.9752 32.9146V21.3451H9.79106V16.5525H14.0033V12.9019C14.0033 8.75521 16.4744 6.46189 20.2561 6.46189C21.5105 6.47801 22.7621 6.58752 24.0003 6.78951V10.8613H21.9129C21.5527 10.8043 21.1842 10.8302 20.8355 10.9371C20.4868 11.044 20.1672 11.2291 19.9009 11.4783C19.6346 11.7274 19.4286 12.0341 19.2988 12.3749C19.1689 12.7157 19.1186 13.0816 19.1515 13.4448V16.5525H23.7475L23.0174 21.3451H19.1515V32.9146C23.0456 32.2953 26.5912 30.3075 29.1511 27.3084C31.711 24.3093 33.1173 20.4955 33.1174 16.5525Z" fill="#233237"/>
<path d="M23.0078 21.345L23.738 16.5524H19.1513V13.4447C19.1201 13.0869 19.1697 12.7267 19.2964 12.3907C19.4232 12.0546 19.6238 11.7514 19.8835 11.5034C20.1432 11.2553 20.4554 11.0688 20.7969 10.9577C21.1384 10.8465 21.5005 10.8136 21.8565 10.8612H23.9439V6.78941C22.7057 6.58742 21.4541 6.47792 20.1997 6.46179C16.4555 6.46179 13.9469 8.75511 13.9469 12.9018V16.5524H9.79083V21.345H14.003V32.9145C15.7154 33.1766 17.4577 33.1766 19.1701 32.9145V21.345H23.0078Z" fill="white"/>
</svg>
