<svg width="34" height="34" viewBox="0 0 34 34" fill="none" xmlns="http://www.w3.org/2000/svg">
<path d="M16.6759 33.1174C25.821 33.1174 33.2346 25.7038 33.2346 16.5587C33.2346 7.41358 25.821 0 16.6759 0C7.53077 0 0.117188 7.41358 0.117188 16.5587C0.117188 25.7038 7.53077 33.1174 16.6759 33.1174Z" fill="#233237"/>
<path d="M21.8147 10.2968C21.5889 10.2968 21.3681 10.3637 21.1803 10.4892C20.9925 10.6147 20.8462 10.793 20.7597 11.0017C20.6733 11.2104 20.6507 11.44 20.6947 11.6615C20.7388 11.883 20.8475 12.0865 21.0072 12.2462C21.1669 12.4059 21.3705 12.5147 21.592 12.5588C21.8135 12.6028 22.0431 12.5802 22.2518 12.4938C22.4605 12.4074 22.6388 12.261 22.7643 12.0732C22.8898 11.8854 22.9567 11.6646 22.9567 11.4387C22.9567 11.1359 22.8364 10.8454 22.6222 10.6312C22.4081 10.4171 22.1176 10.2968 21.8147 10.2968Z" fill="white"/>
<path d="M16.7508 11.7563C15.8048 11.7563 14.88 12.0369 14.0934 12.5625C13.3068 13.088 12.6938 13.8351 12.3317 14.7091C11.9697 15.5831 11.8749 16.5449 12.0595 17.4727C12.2441 18.4006 12.6996 19.2529 13.3686 19.9218C14.0375 20.5907 14.8898 21.0463 15.8177 21.2309C16.7455 21.4154 17.7072 21.3207 18.5813 20.9587C19.4553 20.5966 20.2023 19.9836 20.7279 19.197C21.2535 18.4104 21.534 17.4856 21.534 16.5396C21.534 15.9114 21.4103 15.2894 21.1699 14.7091C20.9295 14.1288 20.5772 13.6015 20.1331 13.1573C19.6889 12.7132 19.1616 12.3608 18.5813 12.1204C18.0009 11.8801 17.379 11.7563 16.7508 11.7563ZM16.7508 19.6004C16.1458 19.5986 15.555 19.4175 15.0529 19.08C14.5507 18.7426 14.1599 18.2639 13.9296 17.7044C13.6994 17.145 13.6401 16.5298 13.7593 15.9367C13.8784 15.3436 14.1707 14.799 14.5991 14.3719C15.0276 13.9448 15.573 13.6542 16.1665 13.5368C16.76 13.4195 17.3749 13.4806 17.9337 13.7126C18.4924 13.9445 18.9699 14.3368 19.3059 14.84C19.6418 15.3432 19.8211 15.9346 19.8211 16.5396C19.8186 17.3522 19.494 18.1307 18.9185 18.7045C18.343 19.2783 17.5635 19.6004 16.7508 19.6004Z" fill="white"/>
<path d="M20.5509 26.2463H12.8005C12.0347 26.2463 11.2763 26.0954 10.5688 25.8024C9.86129 25.5093 9.21845 25.0798 8.67694 24.5383C8.13543 23.9967 7.70585 23.3539 7.41279 22.6463C7.11972 21.9388 6.96887 21.1805 6.96887 20.4147V12.6642C6.96887 11.1176 7.58331 9.63431 8.67694 8.54067C9.77058 7.44704 11.2539 6.83264 12.8005 6.83264H20.5509C22.0976 6.83264 23.5809 7.44704 24.6745 8.54067C25.7681 9.63431 26.3825 11.1176 26.3825 12.6642V20.4147C26.3825 21.1805 26.2317 21.9388 25.9386 22.6463C25.6456 23.3539 25.216 23.9967 24.6745 24.5383C24.133 25.0798 23.4901 25.5093 22.7826 25.8024C22.075 26.0954 21.3168 26.2463 20.5509 26.2463ZM12.8005 8.65794C11.738 8.65794 10.7189 9.08003 9.96761 9.83135C9.21628 10.5827 8.79418 11.6017 8.79418 12.6642V20.4147C8.79171 20.9424 8.89355 21.4654 9.09378 21.9536C9.29401 22.4418 9.58872 22.8857 9.96098 23.2597C10.3332 23.6337 10.7757 23.9305 11.263 24.133C11.7503 24.3355 12.2728 24.4397 12.8005 24.4397H20.5509C21.0771 24.4397 21.598 24.3361 22.0841 24.1347C22.5701 23.9334 23.0118 23.6383 23.3838 23.2663C23.7558 22.8943 24.0509 22.4526 24.2523 21.9666C24.4536 21.4805 24.5572 20.9595 24.5572 20.4334V12.6642C24.5572 11.6017 24.1351 10.5827 23.3838 9.83135C22.6325 9.08003 21.6135 8.65794 20.5509 8.65794H12.8005Z" fill="white"/>
</svg>
