<svg width="364" height="380" viewBox="0 0 364 380" fill="none" xmlns="http://www.w3.org/2000/svg">
<mask id="mask0_1_1076" style="mask-type:luminance" maskUnits="userSpaceOnUse" x="0" y="0" width="364" height="380">
<path d="M210.747 379.972C199.417 380.38 173.081 376.297 162.363 368.948C126.738 344.857 58.4484 367.927 39.6662 339.549C20.7819 311.274 42.2181 287.286 36.6039 258.909C30.9896 230.531 0.978941 225.019 0.366479 190.313C-0.245984 155.504 19.1487 132.435 58.5504 115.899C107.65 95.2789 92.338 70.0659 118.266 38.2178C153.686 -5.36911 231.571 -9.96258 245.454 15.7609C255.968 35.2576 246.781 76.5988 274.035 73.0261C328.136 65.8807 352.328 104.364 328.749 143.766C304.658 184.086 328.238 210.014 342.019 227.265C381.625 276.874 361.005 306.17 321.297 311.172C281.691 316.174 281.589 340.57 267.911 355.371C248.312 376.706 225.549 379.462 210.747 379.972Z" fill="white"/>
</mask>
<g mask="url(#mask0_1_1076)">
<path d="M191.961 128.148C191.961 128.148 193.901 128.964 196.044 130.291C198.188 131.618 182.162 148.359 182.162 148.359L182.877 134.068L191.961 128.148Z" fill="#10AF9C"/>
<path d="M191.044 115.592C191.044 115.592 192.371 125.8 191.861 132.639C191.759 134.273 184.103 136.62 183.49 137.539C179.509 143.868 171.956 140.193 171.956 140.193C171.956 140.193 168.281 170.816 170.22 179.391C172.16 187.965 188.492 182.351 197.373 172.551C206.356 162.854 251.78 141.826 251.78 141.826C251.78 141.826 237.693 129.169 235.754 117.532C233.202 102.016 233.61 89.0524 233.61 89.0524L222.28 87.1129L191.044 115.592Z" fill="#E4AD8F"/>
<path d="M191.146 116C191.146 116.103 191.146 116.103 191.146 116.205C191.146 116.307 191.146 116.307 191.146 116.409C191.146 116.511 191.146 116.613 191.146 116.715C191.146 116.817 191.146 116.817 191.146 116.919C191.146 117.123 191.146 117.225 191.248 117.43V117.532C191.35 118.144 191.35 118.961 191.452 119.777C191.452 119.879 191.452 119.879 191.452 119.981C191.452 120.288 191.452 120.492 191.554 120.798C191.554 120.9 191.554 121.002 191.554 121.104C191.554 121.411 191.554 121.615 191.656 121.921C191.656 122.023 191.656 122.125 191.656 122.227C191.656 122.533 191.656 122.84 191.758 123.146C191.758 123.248 191.758 123.248 191.758 123.35C191.86 124.371 191.86 125.392 191.963 126.412C191.963 126.514 191.963 126.616 191.963 126.719C191.963 127.025 191.963 127.229 191.963 127.535C191.963 127.739 191.963 127.841 191.963 128.046C191.963 128.352 191.963 128.556 191.963 128.862C191.963 128.964 191.963 128.964 191.963 129.066C200.435 135.293 214.624 129.27 220.646 121.206C225.546 115.286 231.671 103.955 233.712 96.1975C233.508 91.7061 233.61 88.8479 233.61 88.8479L222.279 86.9084L191.044 115.49C191.044 115.49 191.044 115.592 191.044 115.694C191.044 115.898 191.044 115.898 191.146 116Z" fill="#E09B77"/>
<path d="M183.798 79.5584C183.798 79.5584 181.144 71.6985 176.652 70.2694C172.161 68.8403 171.242 79.1501 172.263 84.0498C173.284 88.9495 175.325 92.3181 178.388 93.6451C181.348 94.9721 182.573 92.8284 182.573 92.8284L183.798 79.5584Z" fill="#E4AD8F"/>
<path d="M180.022 82.2129C180.022 82.2129 179.308 77.4153 177.47 74.6592C175.633 71.9031 173.898 72.1073 173.285 76.0883C172.673 79.9672 173.285 84.8669 175.531 87.1126C177.777 89.4604 179.614 89.4604 179.614 88.0313C179.716 86.6023 178.083 85.6836 177.777 84.3566C177.368 83.0296 178.695 81.7026 180.022 82.2129Z" fill="#E09B77"/>
<path d="M184.207 44.7505C184.207 44.7505 176.143 48.017 175.428 58.2247C174.816 68.4324 174.918 77.0069 175.122 82.0086C175.735 76.7006 177.47 74.7612 178.185 71.5968C179.001 68.4324 181.043 58.0205 180.328 52.9167C179.716 47.8128 184.207 44.7505 184.207 44.7505Z" fill="black"/>
<path d="M191.964 39.0338C191.964 39.0338 180.327 38.9317 176.653 52.8142C175.938 55.9786 177.469 62.3074 177.163 67.2071C176.857 71.2902 175.019 77.0065 175.019 81.4979C175.019 84.4581 174.509 90.0724 180.021 100.484C184.104 108.14 186.554 115.285 192.168 117.837C193.291 118.348 199.62 121.206 211.869 115.183C224.119 109.161 228.712 100.79 231.774 82.1104C234.837 63.3282 233.203 45.7709 227.385 42.1982C212.788 33.2154 191.964 39.0338 191.964 39.0338Z" fill="#E4AD8F"/>
<path d="M230.958 83.3357C232.795 83.744 231.775 82.2129 231.775 82.1108C232.591 76.9049 233.102 71.801 233.306 67.1055C228.406 83.8461 207.582 88.0313 191.863 82.6212C185.636 83.5399 179.409 88.0313 175.02 81.7025C175.02 84.6627 174.612 90.277 180.022 100.485C184.105 108.14 186.555 115.286 192.169 117.838C193.292 118.348 199.62 121.206 211.87 115.184C221.975 110.182 226.875 103.649 230.039 90.8894C228.61 91.604 229.019 93.6455 228.814 92.0123C228.1 86.5001 229.019 86.9084 230.958 83.3357Z" fill="#E59F80"/>
<path d="M230.345 78.2318C230.345 78.2318 235.653 71.903 240.349 72.2093C245.147 72.5155 242.186 82.417 239.43 86.6021C236.674 90.7873 233.51 93.2371 230.243 93.3392C226.977 93.4413 227.691 89.2561 227.691 89.2561L230.345 78.2318Z" fill="#E4AD8F"/>
<path d="M233 82.1109C233 82.1109 235.45 77.9257 238.104 75.9863C240.86 74.0468 242.391 74.9655 241.575 78.8444C240.758 82.7234 238.41 87.0106 235.552 88.3376C232.592 89.6646 230.959 89.0521 231.367 87.7251C231.775 86.3981 233.613 86.0919 234.327 84.9691C235.042 83.8462 234.327 82.1109 233 82.1109Z" fill="#E09B77"/>
<path d="M216.361 44.9548C216.361 44.9548 214.728 60.9809 221.771 66.9013C228.917 72.8218 225.038 84.7648 225.038 84.7648L228.815 85.1732C228.815 85.1732 232.387 72.1073 240.451 72.2094C244.841 53.9375 247.086 43.0153 241.88 38.3198C232.285 29.9494 224.936 35.972 222.588 40.2592C220.24 44.5465 216.361 44.9548 216.361 44.9548Z" fill="black"/>
<path d="M243.004 60.7769C245.454 49.2422 245.76 41.8927 241.779 38.422C232.184 30.0517 224.834 36.0743 222.486 40.3615C220.138 44.6487 216.362 45.0571 216.362 45.0571C216.362 45.0571 215.341 55.0606 218.403 62.206C226.161 65.1662 235.246 64.3496 243.004 60.7769Z" fill="black"/>
<path d="M218.608 44.7506C218.608 44.7506 206.46 46.9963 196.967 46.9963C187.474 46.9963 186.147 44.036 181.758 46.9963C177.368 49.9565 181.451 36.8906 185.126 31.4805C188.801 25.9684 222.589 31.7868 227.59 35.4615C232.694 39.1363 218.608 44.7506 218.608 44.7506Z" fill="black"/>
<path d="M214.218 20.6602C214.218 20.6602 220.955 18.9248 227.284 24.0287C233.613 29.1326 232.184 33.8281 231.877 34.8489C231.571 35.8696 226.263 35.6655 226.263 35.6655L214.218 20.6602Z" fill="black"/>
<path d="M200.744 19.3332C200.744 19.3332 202.48 14.7397 211.36 17.3937C212.891 17.9041 214.423 18.7207 215.75 19.7415C222.589 24.9475 227.693 35.4614 227.693 35.4614C227.182 36.7884 225.855 37.1967 225.855 37.1967C225.855 37.1967 216.158 36.4822 210.237 30.3575C204.317 24.2329 200.744 19.3332 200.744 19.3332Z" fill="black"/>
<path d="M184.615 23.1104C184.615 23.1104 185.534 15.6587 194.619 16.1691C203.704 16.7816 207.072 25.1519 215.136 31.5828C223.201 38.0136 225.752 37.197 225.752 37.197C223.813 43.1175 217.79 45.5673 213.911 45.5673C210.033 45.5673 201.152 43.6279 196.15 37.9115C191.25 32.1952 184.615 23.1104 184.615 23.1104Z" fill="black"/>
<path d="M213.912 45.567C213.912 45.567 206.971 45.1587 201.153 37.1967C195.334 29.2347 190.843 22.7017 184.718 22.3955C178.491 22.0893 174.715 34.951 175.633 38.3195C182.575 33.0115 186.045 38.5237 189.618 43.1172C193.191 47.6086 200.132 44.8525 204.317 46.6899C208.502 48.4252 213.912 45.567 213.912 45.567Z" fill="black"/>
<path d="M204.317 46.6903C204.317 46.6903 193.088 44.2405 188.188 33.4203C183.289 22.6001 166.242 38.1159 176.756 59.3479C176.45 49.0381 181.553 46.5883 186.964 48.1194C192.374 49.5485 194.823 52.2025 204.317 46.6903Z" fill="black"/>
<path d="M200.744 48.5274C200.744 48.5274 190.128 50.671 183.391 42.5048C176.756 34.3387 168.998 40.6674 172.775 52.7125C172.162 46.2817 172.673 42.0965 178.287 44.1381C183.901 46.1796 191.148 54.7541 200.744 48.5274Z" fill="black"/>
<path d="M213.504 45.7712C213.504 45.7712 205.031 46.4857 197.478 37.1967C189.924 27.9077 186.045 24.4371 181.145 26.8869C184.514 26.5807 187.985 27.3973 190.639 31.6846C193.293 35.8697 201.663 48.9356 213.504 45.7712Z" fill="black"/>
<path d="M225.344 38.3197C225.344 38.3197 221.975 42.607 213.503 36.8907C205.03 31.0723 203.397 25.9684 197.273 23.5186C200.743 26.1726 207.072 32.3993 209.42 35.6657C211.768 38.9322 218.198 41.9945 219.015 41.9945C212.482 41.6883 205.133 34.8491 200.335 29.2349C202.989 34.3387 210.951 41.3821 214.626 42.4028C210.849 42.7091 204.01 37.6052 202.683 35.5637C206.868 40.9737 212.074 44.9548 216.973 44.8527C221.771 44.7506 224.629 40.0551 225.344 38.3197Z" fill="black"/>
<path d="M227.59 35.2572C227.59 35.2572 226.977 34.8489 221.567 27.9076C216.055 21.0685 211.359 19.2311 211.359 19.2311C217.28 23.3142 220.342 27.4993 221.567 29.3367C222.792 31.1741 224.629 33.726 225.344 34.1343C221.261 32.6032 213.401 24.437 211.87 22.2934C214.115 27.2952 220.75 33.1136 223.404 34.4406C225.854 35.7676 227.59 35.2572 227.59 35.2572Z" fill="black"/>
<path d="M198.191 66.5952C198.191 66.5952 205.133 64.4515 209.011 64.2474C213.605 63.9411 217.79 67.6159 217.79 67.6159C215.034 66.9014 207.787 67.1055 204.52 67.9222C201.254 68.7388 200.539 69.7595 199.11 69.3512C197.681 68.9429 198.191 66.5952 198.191 66.5952Z" fill="black"/>
<path d="M187.064 66.5947C187.064 66.5947 181.041 64.2469 179.306 64.4511C176.244 64.8594 176.958 68.33 176.958 68.33C178.489 67.1051 179.408 67.003 181.96 67.8196C184.512 68.6362 185.124 69.657 186.247 69.2487C187.37 68.9424 187.064 66.5947 187.064 66.5947Z" fill="black"/>
<path d="M187.066 89.1536C187.066 89.1536 189.516 90.0723 193.191 89.664C196.865 89.2557 197.886 87.8266 199.213 88.2349C200.642 88.6433 200.03 90.0723 196.457 90.8889C192.884 91.7056 189.21 91.2973 187.781 90.4806C186.454 89.7661 186.658 88.9495 187.066 89.1536Z" fill="#E09B77"/>
<path d="M187.677 69.7594C187.677 69.7594 189.718 73.128 189.922 74.9653C190.127 76.8027 187.983 84.8668 187.37 86.5C186.758 88.1333 189.004 88.6437 189.616 87.2146C190.331 85.7855 191.352 76.2923 191.045 74.9653C190.739 73.6383 187.677 69.7594 187.677 69.7594Z" fill="#F4BEA4"/>
<path d="M201.253 73.9445C201.253 73.9445 202.478 74.2507 204.928 75.8839C207.378 77.5171 209.011 77.7213 211.359 77.1088C213.707 76.4964 216.259 73.9445 216.259 73.9445L213.298 73.0258L201.151 73.9445" fill="#E09B77"/>
<path d="M201.253 73.9446C201.253 73.9446 202.172 73.9446 205.438 72.7197C208.807 71.4947 210.542 72.1072 215.238 73.7404C211.665 75.3737 209.623 75.8841 206.663 75.2716C203.805 74.7612 201.253 73.9446 201.253 73.9446Z" fill="white"/>
<mask id="mask1_1_1076" style="mask-type:luminance" maskUnits="userSpaceOnUse" x="201" y="72" width="15" height="4">
<path d="M201.254 73.9451C201.254 73.9451 202.173 73.9451 205.439 72.7202C208.808 71.4952 210.543 72.1077 215.239 73.7409C211.666 75.3742 209.726 75.8845 206.766 75.2721C203.806 74.7617 201.254 73.9451 201.254 73.9451Z" fill="white"/>
</mask>
<g mask="url(#mask1_1_1076)">
<path d="M209.648 75.6829C211.001 75.673 212.089 74.5681 212.08 73.2151C212.07 71.8621 210.965 70.7733 209.612 70.7832C208.259 70.7931 207.17 71.898 207.18 73.251C207.19 74.604 208.295 75.6928 209.648 75.6829Z" fill="black"/>
<path d="M209.665 74.5545C210.397 74.5261 210.968 73.9094 210.939 73.1771C210.911 72.4448 210.294 71.8742 209.562 71.9026C208.83 71.931 208.259 72.5476 208.288 73.2799C208.316 74.0122 208.933 74.5829 209.665 74.5545Z" fill="#33130B"/>
<path d="M211.256 73.333C211.256 73.5372 211.052 73.6392 210.95 73.6392C210.746 73.6392 210.644 73.4351 210.644 73.333C210.644 73.1289 210.848 73.0268 210.95 73.0268C211.052 72.9247 211.256 73.1289 211.256 73.333Z" fill="white"/>
</g>
<path d="M201.457 73.7402C201.457 73.7402 202.784 73.3319 204.315 71.8007C206.255 70.0654 209.113 68.9425 212.379 70.7799C215.646 72.6173 215.544 73.6381 216.462 73.8422C214.727 73.7402 214.421 73.536 211.767 72.3111C209.113 71.0862 207.071 72.0049 205.03 72.8215C203.09 73.6381 201.457 73.7402 201.457 73.7402Z" fill="#F4BEA4"/>
<path d="M200.538 73.9443C200.538 73.9443 201.559 74.4547 205.336 73.0256C207.684 72.209 209.725 72.209 211.971 73.0256C214.114 73.8422 215.441 73.9443 216.462 73.9443C215.135 73.7402 214.012 72.7194 211.869 71.8007C209.623 70.882 206.765 71.6986 204.723 72.6173C202.682 73.4339 200.538 73.9443 200.538 73.9443Z" fill="black"/>
<path d="M185.942 73.0259L178.388 73.6383C178.388 73.6383 178.286 74.6591 180.021 75.9861C180.94 76.7007 182.879 77.4152 184.819 76.8027C186.758 76.1903 188.391 73.9446 188.391 73.9446L185.942 73.0259Z" fill="#E09B77"/>
<path d="M178.388 73.6384C178.388 73.6384 178.388 73.4342 179.715 72.8218C182.369 71.4948 183.798 72.3114 187.575 74.0467C184.716 75.6799 183.185 76.0883 180.838 75.4758C178.796 74.7613 178.388 73.6384 178.388 73.6384Z" fill="white"/>
<mask id="mask2_1_1076" style="mask-type:luminance" maskUnits="userSpaceOnUse" x="176" y="72" width="12" height="4">
<path d="M176.347 73.945C176.347 73.945 177.061 73.945 179.715 72.72C182.369 71.4951 183.798 72.2097 187.575 73.945C184.717 75.5782 183.186 75.9865 180.838 75.3741C178.388 74.7616 176.347 73.945 176.347 73.945Z" fill="white"/>
</mask>
<g mask="url(#mask2_1_1076)">
<path d="M185.534 73.2304C185.534 74.5574 184.513 75.6802 183.289 75.6802C182.064 75.6802 181.043 74.5574 181.043 73.2304C181.043 71.9034 182.064 70.7805 183.289 70.7805C184.513 70.7805 185.534 71.9034 185.534 73.2304Z" fill="black"/>
<path d="M184.514 73.2304C184.514 73.945 184.004 74.5574 183.289 74.5574C182.677 74.5574 182.064 73.945 182.064 73.2304C182.064 72.5159 182.575 71.9034 183.289 71.9034C184.004 71.9034 184.514 72.5159 184.514 73.2304Z" fill="#33130B"/>
<path d="M184.82 73.3324C184.82 73.5366 184.717 73.6386 184.513 73.6386C184.309 73.6386 184.207 73.4345 184.207 73.3324C184.207 73.1282 184.309 73.0262 184.513 73.0262C184.615 72.9241 184.82 73.1282 184.82 73.3324Z" fill="white"/>
</g>
<path d="M178.388 73.6387C178.388 73.6387 178.183 73.2303 179.408 71.5971C180.225 70.5763 182.777 69.1473 185.329 70.9847C187.983 72.822 188.289 73.7407 189.004 73.9449C187.779 74.2511 186.758 73.6387 184.614 72.4137C182.471 71.1888 180.837 72.1075 179.306 72.9241C177.775 73.6387 178.388 73.6387 178.388 73.6387Z" fill="#F4BEA4"/>
<path d="M178.388 73.6386C178.388 73.6386 178.49 73.6386 179.613 73.0261C181.552 72.2095 183.185 72.0054 184.921 72.822C186.656 73.6386 187.064 73.8427 188.187 73.8427C186.86 73.3324 186.452 73.0261 184.716 72.1074C182.981 71.1887 181.45 71.597 180.123 72.3116C178.592 73.2303 178.388 73.6386 178.388 73.6386Z" fill="black"/>
<path d="M186.554 99.3615C186.554 99.3615 187.881 102.016 189.514 102.73C191.045 103.547 194.414 103.751 198.293 103.547C202.172 103.343 205.642 100.178 205.948 99.7699C200.64 99.4636 196.966 98.5449 194.924 98.5449C192.883 98.5449 191.76 97.9325 190.331 98.0345C188.799 98.3408 186.554 99.3615 186.554 99.3615Z" fill="#D38462"/>
<path d="M186.044 99.1575C186.044 99.1575 189.719 96.2993 191.658 96.2993C193.292 97.4222 193.904 97.7284 193.904 97.7284L195.843 96.2993C195.843 96.2993 198.6 96.2993 203.295 98.9533C204.316 99.3616 206.766 99.6679 206.766 99.6679C206.766 99.6679 204.316 100.791 197.885 99.6679C194.516 99.1575 193.496 100.178 193.496 100.178C193.496 100.178 190.944 98.7492 189.208 99.3616C187.473 99.872 186.044 99.1575 186.044 99.1575Z" fill="#D38462"/>
<path d="M175.02 85.4794C175.02 85.4794 180.226 88.3376 184.207 84.8669C188.188 81.4984 193.802 80.2735 200.539 84.2545C208.705 88.95 225.752 80.3755 225.752 80.8859C223.404 92.6248 222.588 97.7286 226.773 96.912C228.712 103.037 221.771 112.428 209.726 117.43C197.681 122.431 190.331 118.859 186.044 113.959C181.655 109.161 175.326 92.8289 175.02 85.4794Z" fill="#29CABB"/>
<path d="M187.065 89.1538C187.065 89.1538 204.317 94.5639 215.851 89.7663C220.036 88.031 220.853 87.1123 220.853 87.1123C220.853 87.1123 211.258 97.2179 187.372 90.2767C187.065 89.1539 187.065 89.1538 187.065 89.1538Z" fill="#1BBFAB"/>
<path d="M187.065 98.0347C187.065 98.0347 210.441 100.587 219.321 92.2163C216.055 96.2994 205.133 101.097 187.065 99.5659C186.453 98.6472 187.065 98.0347 187.065 98.0347Z" fill="#1BBFAB"/>
<path d="M220.546 97.6261C220.546 97.6261 210.134 109.365 187.984 108.038C187.575 107.221 187.575 106.507 187.575 106.507C187.575 106.507 205.847 109.263 220.546 97.6261Z" fill="#1BBFAB"/>
<path d="M222.997 101.914C222.997 101.914 212.993 118.96 191.148 116.409C190.536 114.877 190.536 114.877 190.536 114.877C190.536 114.877 208.808 119.165 222.997 101.914Z" fill="#1BBFAB"/>
<path d="M226.773 96.9117C222.588 97.8304 223.405 92.6245 225.753 80.8856C225.753 80.6815 223.711 81.6002 220.751 82.723C217.586 90.4809 219.628 100.178 225.548 104.465C226.977 101.709 227.488 99.0554 226.773 96.9117Z" fill="#39D8C5"/>
<path d="M189.821 82.1106C187.677 82.5189 185.84 83.5397 184.207 84.9688C180.226 88.3373 175.02 85.5812 175.02 85.5812C175.326 92.9308 181.757 109.161 186.044 114.061C187.983 116.306 190.637 118.246 194.006 119.165C187.167 108.446 186.044 94.2578 189.821 82.1106Z" fill="#1BBFAB"/>
<path d="M225.752 80.8857C225.752 80.8857 233.408 75.1694 235.654 73.8424C233.408 76.2923 232.081 78.64 232.081 78.64L224.527 84.8667C224.527 84.8667 224.834 81.6003 225.752 80.8857Z" fill="#39D8C5"/>
<path d="M226.773 96.9118L228.304 92.4204C228.304 92.4204 228.712 92.8287 229.223 93.1349C229.631 93.3391 230.345 93.3391 230.345 93.3391C229.018 96.7077 226.569 102.22 226.569 102.22C226.569 102.22 225.854 99.3617 226.773 96.9118Z" fill="#39D8C5"/>
<path d="M101.116 204.807C101.116 204.807 96.1143 209.707 102.851 215.934C109.589 222.16 116.428 207.563 116.428 207.563C116.428 207.563 106.526 201.439 101.116 204.807Z" fill="#10AF9C"/>
<path d="M107.137 201.847C107.137 201.847 90.7023 218.69 89.7837 226.141C88.7629 233.593 87.538 235.328 88.2525 242.78C88.967 250.231 109.485 250.231 115.303 248.802C121.019 247.373 125.409 247.271 128.777 244.005C132.146 240.738 137.556 220.425 137.556 220.425L107.137 201.847Z" fill="#E09B77"/>
<path d="M161.035 141.928C161.035 141.928 147.56 150.605 137.761 163.16C127.962 175.716 107.444 196.233 101.115 204.807C115.1 203.991 138.884 222.875 143.886 235.737C155.114 214.403 161.035 141.928 161.035 141.928Z" fill="#1BBFAB"/>
<path d="M109.18 195.314C105.811 199.091 102.953 202.358 101.218 204.807C115.202 203.991 138.986 222.875 143.988 235.737C145.519 232.777 147.05 228.693 148.377 223.998C142.151 212.055 122.45 196.539 109.18 195.314Z" fill="#39D8C5"/>
<path d="M143.681 225.631C143.681 225.631 141.027 210.626 137.556 204.195C134.085 197.764 124.899 189.7 121.836 189.496C118.876 189.394 119.693 193.579 121.53 195.825C123.265 198.07 132.248 209.707 133.371 214.096C132.146 210.422 131.534 209.809 128.165 205.522C124.796 201.235 118.468 189.496 113.466 189.598C110.812 189.496 110.302 192.864 112.445 196.233C114.589 199.499 124.082 212.361 124.796 217.771C123.776 211.953 116.426 202.766 113.772 200.52C111.118 198.274 109.179 196.845 107.545 198.377C105.912 200.01 109.485 204.807 111.22 207.257C112.956 209.707 115.61 215.934 115.814 216.648C113.976 213.178 111.935 208.278 109.587 207.563C107.239 206.747 105.81 209.809 107.443 213.178C109.077 216.546 110.914 220.119 112.037 224.202C113.16 228.285 109.689 234.206 117.243 236.451C124.796 238.697 144.293 232.164 143.681 225.631Z" fill="#FFEAE1"/>
<path d="M191.964 128.148C191.964 128.148 170.528 133.762 161.035 141.928C151.542 150.094 136.434 192.456 141.946 213.892C149.398 242.78 130.718 337.712 117.346 367.314C179 415.495 214.829 400.387 240.043 393.038C265.256 385.79 275.872 370.07 275.872 370.07C275.872 370.07 260.764 309.539 264.643 276.568C268.522 243.597 276.994 190.313 275.872 169.081C274.749 147.849 263.01 138.253 263.01 138.253C263.01 138.253 244.126 124.983 237.389 120.9C218.913 130.189 210.542 135.089 204.111 144.786C197.681 154.484 184.921 162.139 184.921 162.139C183.594 146.317 185.227 132.537 191.964 128.148Z" fill="#29CABB"/>
<path d="M243.207 288.919C247.596 278.507 243.207 265.441 232.795 257.581C246.678 220.834 262.806 183.371 267.705 143.663C265.154 139.989 263.01 138.253 263.01 138.253C263.01 138.253 244.126 124.983 237.389 120.9C218.913 130.189 210.542 135.089 204.111 144.786C197.681 154.484 184.921 162.139 184.921 162.139C183.594 146.317 185.227 132.537 191.964 128.148C191.964 128.148 170.528 133.762 161.035 141.928C151.542 150.094 136.434 192.456 141.946 213.892C149.398 242.78 130.718 337.712 117.346 367.314C179 415.495 214.829 400.387 240.043 393.038C243.717 392.017 247.086 390.69 250.148 389.363C247.8 364.048 245.146 338.835 236.368 314.949C232.795 306.272 239.736 297.596 243.207 288.919Z" fill="#29CABB"/>
<path d="M232.794 143.663C232.794 143.663 214.931 165.099 210.848 172.244C206.765 179.39 195.026 211.646 192.576 236.961C193.188 240.126 189.718 236.961 189.718 236.961C189.718 236.961 195.74 192.354 211.256 167.447C217.381 159.893 232.794 143.663 232.794 143.663Z" fill="#1BBFAB"/>
<path d="M191.964 128.147C191.964 128.147 184.411 130.597 184.921 162.139C191.556 156.219 199.314 151.625 203.397 144.582C207.582 137.641 223.2 126.31 230.754 123.146C235.551 120.594 235.755 116.715 235.755 116.715C235.755 116.715 242.288 122.942 243.105 124.677C240.247 132.231 230.652 133.251 220.138 143.663C209.624 154.075 200.131 164.385 195.537 167.549C190.944 170.714 182.573 180.819 182.573 180.819C182.573 180.819 178.898 166.528 178.592 152.238C178.286 137.845 182.777 131.006 182.777 131.006C182.777 131.006 187.983 127.025 191.964 128.147Z" fill="#39D8C5"/>
<path d="M190.637 126.82C186.248 129.168 180.021 134.578 175.122 144.684C170.426 154.381 168.793 164.078 168.793 164.487L170.835 164.793C170.835 164.691 172.468 154.993 177.061 145.5C181.859 135.497 187.983 130.291 192.067 128.351V126.82H190.637Z" fill="#1BBFAB"/>
<path d="M181.859 184.596C181.144 171.734 173.591 164.793 168.487 164.793C166.037 164.793 163.281 166.12 161.137 168.366C158.381 171.224 155.319 176.838 155.829 187.352C156.544 201.847 161.443 212.871 166.037 216.036C160.525 217.669 156.544 215.831 156.34 215.729L155.421 217.567C155.625 217.669 157.871 218.69 161.443 218.69C163.587 218.69 166.037 218.281 168.793 217.056C172.978 218.077 178.797 218.179 179.103 218.179V216.138C179.001 216.138 175.122 216.138 171.447 215.525C178.797 210.421 182.573 195.926 181.859 184.596ZM168.895 215.015C168.793 215.015 168.691 215.117 168.589 215.117C168.385 215.015 168.181 215.015 168.078 214.913C165.016 213.79 158.789 204.297 157.871 187.352C157.36 177.552 160.219 172.449 162.668 169.897C164.812 167.651 167.058 166.936 168.487 166.936C171.957 166.936 179.103 172.347 179.817 184.8C180.634 197.764 175.632 211.646 168.895 215.015Z" fill="#1BBFAB"/>
<path d="M191.045 238.084C191.045 238.084 168.486 222.466 160.422 197.866C152.358 173.163 147.356 189.189 153.277 200.316C159.299 211.442 177.98 230.837 191.045 238.084Z" fill="#1BBFAB"/>
<path d="M197.17 254.111C178.898 256.152 160.524 256.56 142.661 253.396C140.619 275.138 136.128 300.964 130.922 323.217C136.536 316.48 142.457 310.968 151.133 308.109C168.588 301.168 186.86 309.028 204.213 303.72C212.073 301.066 217.279 295.86 224.22 291.573C229.222 288.715 262.499 285.448 232.897 257.581C234.53 253.294 236.164 249.007 237.797 244.719C223.404 247.373 210.644 252.375 197.17 254.111Z" fill="#1BBFAB"/>
<path d="M264.643 276.568C268.522 243.495 276.994 190.313 275.871 169.081C275.259 156.933 271.176 148.665 267.705 143.765C262.908 183.473 246.677 220.936 232.795 257.683C243.207 265.543 247.596 278.609 243.207 289.021C239.736 297.698 232.795 306.476 236.266 315.153C245.146 339.039 247.698 364.252 250.046 389.567C268.012 381.707 275.769 370.275 275.769 370.275C275.769 370.275 260.662 309.641 264.643 276.568Z" fill="#39D8C5"/>
<path d="M238.918 257.173C238.918 257.173 241.572 259.418 245.655 264.828C249.738 270.238 243.307 271.565 240.041 269.932C236.774 268.299 231.568 263.808 231.568 263.808L238.918 257.173Z" fill="#FFEAE1"/>
<path d="M231.466 262.379C231.466 262.379 242.899 268.503 245.655 271.974C248.411 275.547 246.471 279.528 241.776 279.119C237.08 278.711 225.035 269.83 225.035 269.83L231.466 262.379Z" fill="#FFEAE1"/>
<path d="M226.567 267.38C226.567 267.38 233.61 273.301 235.55 277.282C237.387 281.263 230.038 282.692 225.138 279.221C220.238 275.853 216.972 270.749 216.972 270.749L226.567 267.38Z" fill="#FFEAE1"/>
<path d="M209.521 237.676C209.521 237.676 190.739 228.693 176.244 225.631C161.647 222.569 142.661 225.835 130.718 221.344C118.775 216.852 110.404 211.442 99.8903 215.015C89.4784 218.588 89.2743 229.204 87.2327 234.41C85.1912 239.616 83.9663 248.088 88.2535 250.232C92.6428 252.477 105.096 259.521 111.629 261.052C122.96 263.502 141.64 262.379 156.441 256.969C171.14 251.559 194.72 242.576 202.784 243.29C210.644 244.107 209.521 237.676 209.521 237.676Z" fill="#E59F80"/>
<path d="M196.251 237.574C197.578 236.961 198.293 234.409 197.272 232.47C190.943 229.918 183.084 227.162 176.142 225.733C161.545 222.67 142.559 225.937 130.616 221.446C118.673 216.954 110.303 211.544 99.7886 215.117C89.3768 218.689 89.1726 229.305 87.1311 234.511C85.0895 239.717 88.7643 244.311 93.1536 246.556C97.5429 248.802 105.505 251.456 112.038 252.885C123.368 255.335 138.374 255.743 153.175 250.333C156.85 249.006 161.239 247.883 165.935 246.863C176.142 243.8 188.698 245.944 196.251 237.574Z" fill="#E4AD8F"/>
<path d="M180.531 227.06C175.529 226.141 170.629 230.428 169.609 236.553C168.996 240.024 169.711 243.29 171.446 245.74C176.448 244.923 181.756 244.719 186.451 243.392C186.962 242.269 187.37 241.044 187.676 239.82C188.697 233.593 185.533 227.877 180.531 227.06Z" fill="#E59F80"/>
<path d="M211.665 220.425C211.154 220.833 204.621 239.309 202.682 243.392C187.779 243.188 181.042 246.046 169.813 250.334C158.585 254.621 142.354 261.562 130.615 262.073C144.804 277.792 163.28 286.877 181.042 287.592C198.803 288.306 208.092 287.081 211.665 289.123C215.237 291.165 222.893 286.163 227.691 278.711C232.59 271.259 250.862 249.415 254.435 234.103C257.906 218.69 211.665 220.425 211.665 220.425Z" fill="#E09B77"/>
<path d="M214.216 221.956C214.216 221.956 206.152 226.958 205.132 230.429C204.111 233.899 205.336 239.718 215.543 243.188C225.751 246.659 236.265 251.457 239.225 256.05C242.186 260.541 253.822 262.277 257.803 253.192C261.784 244.107 256.885 235.022 248.923 229.816C240.859 224.61 214.216 221.956 214.216 221.956Z" fill="#10AF9C"/>
<path d="M211.665 220.425C211.155 220.833 204.622 239.309 202.682 243.392C187.779 243.188 180.94 252.171 169.711 256.458C164.608 258.398 158.381 259.623 152.052 260.439C143.682 261.562 141.13 272.484 148.377 276.976C158.789 283.407 170.018 287.081 181.042 287.592C198.803 288.306 208.092 287.081 211.665 289.123C215.238 291.165 222.894 286.163 227.691 278.711C232.591 271.259 250.863 249.415 254.435 234.103C257.906 218.69 211.665 220.425 211.665 220.425Z" fill="#E4AD8F"/>
<path d="M211.665 220.425C211.359 220.629 208.807 227.571 206.459 233.797C216.565 229.51 228.916 233.899 233.714 242.78C237.286 249.415 238.205 256.969 237.695 264.727C244.432 255.234 252.19 243.393 254.333 234.001C257.906 218.69 211.665 220.425 211.665 220.425Z" fill="#E59F80"/>
<path d="M216.156 249.722C216.156 249.722 210.542 244.414 201.865 243.393C203.601 241.045 212.788 242.372 216.156 249.722Z" fill="#E59F80"/>
<path d="M205.132 230.429C205.132 230.429 219.014 175.409 227.18 158.362C235.346 141.315 249.535 137.13 258.314 138.457C266.99 139.886 274.034 148.257 277.913 162.854C281.792 177.451 266.072 239.207 257.906 253.192C256.374 239.003 241.471 229.51 228.916 227.264C216.156 225.019 205.132 230.429 205.132 230.429Z" fill="#29CABB"/>
<path d="M232.08 214.811C219.525 212.565 208.398 217.975 208.398 217.975C208.398 217.975 208.806 216.444 209.521 213.688C206.867 223.487 205.132 230.429 205.132 230.429C205.132 230.429 216.258 225.019 228.814 227.264C241.369 229.51 256.272 239.003 257.803 253.192C259.539 250.232 261.58 245.026 263.826 238.595C260.662 225.835 244.023 216.852 232.08 214.811Z" fill="#39D8C5"/>
<path d="M258.213 138.56C258.213 138.56 236.776 139.989 226.058 160.813C215.34 181.636 214.217 196.642 214.217 196.642C214.217 196.642 211.053 139.887 258.213 138.56Z" fill="#1BBFAB"/>
<path d="M205.133 230.429C205.133 230.429 221.057 184.698 242.697 177.043C236.879 176.43 207.276 182.555 205.133 230.429Z" fill="#1BBFAB"/>
<path d="M185.861 238.258C186.933 232.15 183.75 226.488 178.753 225.611C173.756 224.734 168.836 228.975 167.765 235.083C166.693 241.19 169.875 246.852 174.872 247.729C179.87 248.606 184.789 244.365 185.861 238.258Z" fill="#E2E2E2"/>
<path d="M185.191 238.191C186.263 232.084 183.08 226.422 178.083 225.545C173.086 224.668 168.166 228.909 167.095 235.016C166.023 241.124 169.205 246.786 174.203 247.663C179.2 248.539 184.119 244.299 185.191 238.191Z" fill="#EFEFEF"/>
<path d="M242.391 118.654C240.451 115.388 237.083 113.959 235.245 113.346L235.552 115.592C237.185 116.205 239.328 117.43 240.553 119.675C242.084 122.329 242.187 125.698 240.655 129.883C238.41 136.314 230.856 144.276 222.077 153.565C212.278 163.875 200.131 176.838 191.454 191.844C175.224 220.119 175.224 232.47 175.326 232.981H177.368C177.368 232.879 177.368 220.527 193.292 192.967C201.866 178.165 213.401 165.916 223.609 155.096C232.489 145.705 240.247 137.539 242.595 130.7C244.33 125.8 244.228 121.717 242.391 118.654Z" fill="#282828"/>
<path d="M177.675 230.327H177.573H177.471C177.369 230.327 177.267 230.327 177.267 230.327L172.776 229.715L170.632 241.249L175.532 241.862C177.777 242.27 180.125 240.025 180.636 236.86C181.044 233.696 179.717 230.94 177.675 230.327Z" fill="#E2E2E2"/>
<path d="M175.531 236.145C175.021 239.31 172.673 241.556 170.427 241.147C168.181 240.739 166.752 237.881 167.365 234.614C167.875 231.45 170.223 229.204 172.469 229.613C174.714 230.021 176.143 232.879 175.531 236.145Z" fill="white"/>
<path d="M171.55 143.255C166.854 152.953 165.221 162.65 165.221 163.058L167.262 163.365C167.262 163.262 168.896 153.565 173.489 144.072C179.716 131.21 188.801 128.76 192.067 128.352V126.311C188.494 126.821 178.287 129.271 171.55 143.255Z" fill="#282828"/>
<path d="M159.197 216.24C155.625 216.24 153.379 215.118 153.175 215.118L154.093 213.28C154.298 213.382 158.381 215.22 163.791 213.586C159.197 210.422 154.298 199.398 153.583 184.903C153.073 174.389 156.135 168.775 158.891 165.916C161.035 163.671 163.791 162.242 166.241 162.344C171.344 162.344 178.898 169.285 179.613 182.147C180.225 193.477 176.448 207.87 169.303 213.28C172.876 213.791 176.857 213.893 176.959 213.893V215.934C176.652 215.934 170.834 215.934 166.649 214.811C163.791 215.832 161.341 216.24 159.197 216.24ZM166.241 164.283C164.812 164.283 162.464 165.1 160.422 167.243C157.972 169.795 155.114 174.899 155.625 184.699C156.543 201.746 162.77 211.239 165.832 212.259C166.036 212.362 166.241 212.362 166.343 212.464C166.445 212.464 166.547 212.362 166.649 212.362C173.284 208.993 178.286 195.111 177.571 182.147C176.857 169.693 169.711 164.283 166.241 164.283Z" fill="#EFEFEF"/>
<path d="M160.423 167.243C162.566 164.998 164.812 164.283 166.241 164.283C169.712 164.283 176.653 169.591 177.572 181.534H179.613C178.695 168.979 171.345 162.242 166.241 162.242C163.791 162.242 161.035 163.569 158.892 165.814C156.442 168.366 153.686 173.062 153.482 181.534H155.523C155.727 173.776 158.177 169.489 160.423 167.243Z" fill="#282828"/>
<path d="M155.114 216.649L152.358 215.628C151.643 215.322 151.235 214.505 151.541 213.791L151.745 213.178C152.052 212.463 152.868 212.055 153.583 212.361L156.339 213.382C157.053 213.688 157.462 214.505 157.156 215.22L156.951 215.832C156.645 216.547 155.829 216.853 155.114 216.649Z" fill="white"/>
<path d="M178.49 216.547H175.631C174.815 216.547 174.202 215.934 174.202 215.118V214.505C174.202 213.689 174.815 213.076 175.631 213.076H178.49C179.306 213.076 179.919 213.689 179.919 214.505V215.118C179.919 215.934 179.306 216.547 178.49 216.547Z" fill="white"/>
</g>
</svg>
