<svg width="34" height="34" viewBox="0 0 34 34" fill="none" xmlns="http://www.w3.org/2000/svg">
<path d="M16.7931 33.1174C25.9382 33.1174 33.3518 25.7038 33.3518 16.5587C33.3518 7.41357 25.9382 0 16.7931 0C7.64795 0 0.234375 7.41357 0.234375 16.5587C0.234375 25.7038 7.64795 33.1174 16.7931 33.1174Z" fill="#233237"/>
<path d="M25.9379 10.8767C25.3401 11.1343 24.7104 11.3106 24.0658 11.4009C24.3653 11.4009 24.7959 10.8206 25.0018 10.6053C25.2725 10.2788 25.479 9.90401 25.6103 9.50074C25.6103 9.50074 25.6103 9.42586 25.6103 9.40714C25.5946 9.3981 25.5768 9.39335 25.5588 9.39335C25.5407 9.39335 25.5229 9.3981 25.5073 9.40714C24.823 9.76921 24.0968 10.0459 23.345 10.2309C23.3226 10.245 23.2967 10.2525 23.2702 10.2525C23.2437 10.2525 23.2177 10.245 23.1953 10.2309C23.1377 10.1609 23.0751 10.0952 23.008 10.0343C22.6969 9.76466 22.3425 9.54946 21.9597 9.39777C21.4507 9.18621 20.8995 9.09646 20.3497 9.13568C19.8163 9.17454 19.2964 9.32156 18.8217 9.56778C18.347 9.81399 17.9274 10.1542 17.5884 10.5678C17.2381 11.0004 16.9886 11.5057 16.8582 12.0468C16.7553 12.5596 16.7553 13.0878 16.8582 13.6006C16.8582 13.6849 16.8582 13.6942 16.7833 13.6849C13.9247 13.4015 11.273 12.0673 9.34177 9.94068C9.25753 9.83772 9.2107 9.83772 9.14518 9.94068C8.75164 10.653 8.60087 11.4741 8.71572 12.2797C8.83057 13.0854 9.20478 13.8317 9.78169 14.4056L10.2403 14.8081C9.74205 14.7643 9.25637 14.6278 8.80822 14.4056C8.71461 14.3495 8.67715 14.4056 8.66779 14.4805C8.65402 14.6206 8.65402 14.7617 8.66779 14.9017C8.75637 15.5723 9.02142 16.2072 9.43587 16.7417C9.85031 17.2763 10.3993 17.6911 11.0266 17.9439C11.179 18.0134 11.3393 18.0637 11.504 18.0937C11.0358 18.1673 10.5589 18.1673 10.0906 18.0937C9.98763 18.0937 9.9502 18.0937 9.98765 18.2247C10.2281 18.8562 10.6261 19.4157 11.1438 19.8499C11.6616 20.2841 12.2818 20.5785 12.9455 20.7052C13.0809 20.7142 13.2154 20.733 13.348 20.7614C12.7736 21.2821 12.0789 21.652 11.3262 21.8379C10.3428 22.1874 9.29568 22.3215 8.25592 22.231C8.08743 22.231 8.05934 22.231 8.01254 22.231C7.96574 22.231 8.01259 22.2965 8.05939 22.3433C8.26532 22.4744 8.4806 22.5961 8.69589 22.7177C9.34738 23.0657 10.0347 23.3419 10.7458 23.5415C12.5708 24.0862 14.5062 24.1457 16.3612 23.714C18.2161 23.2823 19.9264 22.3743 21.3232 21.0797C22.3278 19.9886 23.1045 18.7079 23.6076 17.3127C24.1108 15.9175 24.3302 14.4359 24.253 12.9548C24.253 12.8424 24.3934 12.7769 24.4776 12.7114C25.0272 12.2836 25.5126 11.7792 25.9191 11.2137C25.9819 11.1301 26.0148 11.028 26.0128 10.9235C26.0128 10.9235 26.0128 10.8486 25.9379 10.8767Z" fill="white"/>
</svg>
