<svg width="42" height="75" viewBox="0 0 42 75" fill="none" xmlns="http://www.w3.org/2000/svg">
<mask id="path-1-outside-1_1_79" maskUnits="userSpaceOnUse" x="-1" y="-1" width="44" height="77" fill="black">
<rect fill="white" x="-1" y="-1" width="44" height="77"/>
<path d="M22.4121 74.0415V62.4619H0.74707V51.0483L14.5679 0.911621H37.312V50.2598H41.2134V62.4619H37.312V74.0415H22.4121ZM13.7793 50.2598H22.4121V13.4458L13.7793 50.2598Z"/>
</mask>
<path d="M22.4121 74.0415H21.4121V75.0415H22.4121V74.0415ZM22.4121 62.4619H23.4121V61.4619H22.4121V62.4619ZM0.74707 62.4619H-0.25293V63.4619H0.74707V62.4619ZM0.74707 51.0483L-0.216972 50.7826L-0.25293 50.913V51.0483H0.74707ZM14.5679 0.911621V-0.0883789H13.8062L13.6038 0.64587L14.5679 0.911621ZM37.312 0.911621H38.312V-0.0883789H37.312V0.911621ZM37.312 50.2598H36.312V51.2598H37.312V50.2598ZM41.2134 50.2598H42.2134V49.2598H41.2134V50.2598ZM41.2134 62.4619V63.4619H42.2134V62.4619H41.2134ZM37.312 62.4619V61.4619H36.312V62.4619H37.312ZM37.312 74.0415V75.0415H38.312V74.0415H37.312ZM13.7793 50.2598L12.8057 50.0315L12.5177 51.2598H13.7793V50.2598ZM22.4121 50.2598V51.2598H23.4121V50.2598H22.4121ZM22.4121 13.4458H23.4121L21.4385 13.2175L22.4121 13.4458ZM23.4121 74.0415V62.4619H21.4121V74.0415H23.4121ZM22.4121 61.4619H0.74707V63.4619H22.4121V61.4619ZM1.74707 62.4619V51.0483H-0.25293V62.4619H1.74707ZM1.71111 51.3141L15.5319 1.17737L13.6038 0.64587L-0.216972 50.7826L1.71111 51.3141ZM14.5679 1.91162H37.312V-0.0883789H14.5679V1.91162ZM36.312 0.911621V50.2598H38.312V0.911621H36.312ZM37.312 51.2598H41.2134V49.2598H37.312V51.2598ZM40.2134 50.2598V62.4619H42.2134V50.2598H40.2134ZM41.2134 61.4619H37.312V63.4619H41.2134V61.4619ZM36.312 62.4619V74.0415H38.312V62.4619H36.312ZM37.312 73.0415H22.4121V75.0415H37.312V73.0415ZM13.7793 51.2598H22.4121V49.2598H13.7793V51.2598ZM23.4121 50.2598V13.4458H21.4121V50.2598H23.4121ZM21.4385 13.2175L12.8057 50.0315L14.7529 50.4881L23.3857 13.6741L21.4385 13.2175Z" fill="#6E81A0" mask="url(#path-1-outside-1_1_79)"/>
</svg>
