<svg width="494" height="359" viewBox="0 0 494 359" fill="none" xmlns="http://www.w3.org/2000/svg">
<path d="M135.487 155.26C164.445 79.6062 347.316 45.6314 401.607 105.187C446.58 154.516 424.376 223.293 406.21 248.253C365.371 304.35 285.651 386.468 213.402 347.545C136.507 306.128 112.842 214.43 135.487 155.26Z" fill="url(#paint0_linear_1_7450)"/>
<path d="M95.173 223.766L93.8733 224.323C93.6877 223.952 77.7206 187.19 37.9886 155.442L38.9169 154.328C78.8346 186.262 94.9873 223.395 95.173 223.766Z" fill="#5EC5DD"/>
<path d="M48.1056 163.24C48.1056 163.24 33.0669 163.89 29.168 153.307C26.6615 146.438 39.7508 146.531 48.1056 163.24Z" fill="#5EC5DD"/>
<path d="M55.0694 168.903C55.0694 168.903 46.5289 181.25 35.6676 178.001C28.7052 175.865 36.6887 165.468 55.0694 168.903Z" fill="#5EC5DD"/>
<path d="M53.9556 168.996C53.9556 168.996 67.0449 161.569 64.8169 150.522C63.3316 143.374 52.1918 150.429 53.9556 168.996Z" fill="#5EC5DD"/>
<path d="M66.4868 181.435C66.4868 181.435 58.1319 193.968 47.1778 190.811C40.2154 188.862 48.1061 178.279 66.4868 181.435Z" fill="#5EC5DD"/>
<path d="M66.6729 181.993C66.6729 181.993 79.855 174.659 77.627 163.612C76.2345 156.371 65.0947 163.333 66.6729 181.993Z" fill="#5EC5DD"/>
<path d="M78.7421 197.031C78.7421 197.031 69.7374 209.099 58.9689 205.386C52.0993 203.065 60.4542 192.854 78.7421 197.031Z" fill="#5EC5DD"/>
<path d="M78.7411 198.053C78.7411 198.053 92.3873 191.74 90.9949 180.415C90.0665 173.174 78.4626 179.301 78.7411 198.053Z" fill="#5EC5DD"/>
<path d="M90.3452 215.226C90.3452 215.226 75.6778 218.661 69.8294 209.006C66.1161 202.694 79.0197 200.28 90.3452 215.226Z" fill="#5EC5DD"/>
<path d="M89.0462 213.648C89.0462 213.648 101.022 204.55 97.2154 193.875C94.8018 187.005 84.6832 195.453 89.0462 213.648Z" fill="#5EC5DD"/>
<path d="M133.698 272.802C133.698 272.802 156.627 228.8 141.867 196.123C127.107 163.446 110.768 141.816 115.317 128.634C80.2267 164.282 81.2479 212.74 101.3 241.982C121.351 271.224 133.698 272.802 133.698 272.802Z" fill="#4AB9D3"/>
<path d="M133.698 272.803C133.698 272.803 133.048 229.822 119.959 202.715C104.363 170.595 110.304 143.581 111.696 135.598C107.612 149.058 101.763 165.768 114.946 197.052C124.6 220.075 131.098 243.747 131.191 273.36C131.284 282.829 133.698 272.803 133.698 272.803Z" fill="#5EC5DD"/>
<path d="M98.4219 157.135C98.4219 157.135 105.384 174.308 110.954 182.106C115.224 190.183 114.203 189.811 114.203 189.811C114.203 189.811 100.371 172.266 98.4219 157.135Z" fill="#5EC5DD"/>
<path d="M89.5098 182.013C89.5098 182.013 105.198 194.36 117.081 198.816C118.659 199.837 119.494 202.436 119.494 202.436C119.494 202.436 98.7001 194.174 89.5098 182.013Z" fill="#5EC5DD"/>
<path d="M95.2657 204.294C95.2657 204.294 110.954 216.64 122.837 221.096C130.542 226.016 125.25 224.717 125.25 224.717C125.25 224.717 104.549 216.455 95.2657 204.294Z" fill="#5EC5DD"/>
<path d="M94.8936 219.332C94.8936 219.332 103.063 234.185 130.912 245.882C131.469 246.532 130.819 248.481 130.819 248.481C130.819 248.481 104.084 240.033 94.8936 219.332Z" fill="#5EC5DD"/>
<path d="M103.341 239.198C103.341 239.198 112.717 254.979 132.769 261.013C133.326 261.663 132.676 263.613 132.676 263.613C132.676 263.613 110.675 257.022 103.341 239.198Z" fill="#5EC5DD"/>
<path d="M115.317 193.524C115.317 193.524 123.022 171.152 120.144 159.548C123.114 169.017 120.886 185.819 116.616 197.145C115.966 195.659 115.317 193.524 115.317 193.524Z" fill="#5EC5DD"/>
<path d="M122.836 214.505C122.836 214.505 132.676 191.946 131.934 180.064C133.141 189.904 130.17 208.471 123.857 218.868C123.672 217.29 122.836 214.505 122.836 214.505Z" fill="#5EC5DD"/>
<path d="M128.778 237.062C128.778 237.062 138.618 214.504 137.875 202.622C139.082 212.462 136.111 231.028 129.799 241.425C129.52 239.847 128.778 237.062 128.778 237.062Z" fill="#5EC5DD"/>
<path d="M131.841 255.907C131.841 255.907 143.074 243.468 142.238 231.585C143.445 241.425 139.175 249.873 132.862 260.27C132.584 258.599 131.841 255.907 131.841 255.907Z" fill="#5EC5DD"/>
<path d="M56.8329 205.943C130.449 216.712 148.551 330.895 150.036 341.106H130.077C118.195 317.063 96.7506 289.77 71.3147 269.904C35.4816 241.776 22.1138 203.901 56.8329 205.943Z" fill="#007CB2"/>
<g opacity="0.2">
<path d="M50.2434 223.024C50.6147 222.467 51.2646 222.374 51.7287 222.652C102.136 254.586 125.623 293.947 136.484 321.332C139.269 328.388 141.404 335.072 143.075 341.106H140.754C139.176 335.257 137.134 328.852 134.349 321.982C123.581 294.968 100.373 256.072 50.5219 224.509C50.0578 224.138 49.8721 223.488 50.2434 223.024Z" fill="white"/>
<path d="M63.3324 212.719L68.3453 236.206C68.3453 236.206 43.0022 234.906 43.2807 235.092C43.652 235.277 73.5439 240.012 73.5439 240.012L63.3324 212.719Z" fill="white"/>
<path d="M91.7395 225.159L93.3176 257.093H59.8053L96.5667 260.806L91.7395 225.159Z" fill="white"/>
<path d="M113.09 252.916L110.955 278.63L89.9746 276.773L113.09 281.786V252.916Z" fill="white"/>
</g>
<path d="M11.2524 277.981C73.7282 251.338 147.437 337.301 156.441 351.597L132.584 348.348C111.882 335.258 82.2687 324.211 52.9339 320.777C11.6238 316.042 -16.7828 292.927 11.2524 277.981Z" fill="#4AB9D3"/>
<path d="M14.2229 294.412C14.2229 293.855 14.6871 293.391 15.2441 293.391C69.6435 294.319 106.683 313.814 128.22 329.967C133.79 334.144 144.373 344.448 148.55 348.44L141.031 343.427C137.039 339.621 132.305 335.629 127.014 331.545C105.662 315.578 69.0865 296.361 15.2441 295.433C14.6871 295.433 14.2229 294.969 14.2229 294.412Z" fill="#5EC5DD"/>
<path d="M18.3994 279.095L34.6449 295.155L15.4288 306.573L38.5439 296.083L18.3994 279.095Z" fill="#5EC5DD"/>
<path d="M46.5289 276.867L57.1117 299.054L34.6464 313.907L60.825 300.168L46.5289 276.867Z" fill="#5EC5DD"/>
<path d="M74.099 284.757L81.8968 306.573L70.2928 312.607L85.1459 307.872L74.099 284.757Z" fill="#5EC5DD"/>
<path d="M94.9864 296.826L100.463 314.186L88.2097 321.612L103.434 315.857L94.9864 296.826Z" fill="#5EC5DD"/>
<path d="M35.574 323.282C79.6691 293.205 144.744 344.726 150.5 349.368L112.996 351.874C112.996 351.874 97.2143 349.832 74.0992 351.689C41.5153 354.195 16.1722 339.064 35.574 323.282Z" fill="#7ADAEA"/>
<path d="M40.4016 335.444C40.3088 334.98 40.5873 334.608 41.0514 334.515C83.1971 326.903 114.667 336.279 133.698 345.47C138.618 347.883 142.981 350.297 146.787 352.71L145.58 353.824C141.867 351.504 137.689 349.09 132.955 346.862C114.11 337.765 83.0114 328.574 41.3299 336.094C40.8658 336.186 40.4016 335.908 40.4016 335.444Z" fill="#B4E9EF"/>
<path d="M41.7934 323.004L55.8109 333.308L45.2281 344.912L59.1529 333.03L41.7934 323.004Z" fill="#B4E9EF"/>
<path d="M59.5253 316.785L75.5852 333.03L59.5253 347.326L79.1128 332.473L59.5253 316.785Z" fill="#B4E9EF"/>
<path d="M84.3113 318.92L96.7507 334.608L82.826 346.955L98.8859 335.258L84.3113 318.92Z" fill="#B4E9EF"/>
<path d="M105.291 324.861L114.945 339.064L95.8217 348.44L117.08 339.9L105.291 324.861Z" fill="#B4E9EF"/>
<path d="M127.385 327.553L127.106 328.574C126.828 328.482 98.5142 320.127 61.9385 327.46L61.7528 326.439C98.607 318.92 127.106 327.46 127.385 327.553Z" fill="#007CB2"/>
<path d="M71.1281 325.325C71.1281 325.325 64.3514 334.144 56.5535 331.266C51.4478 329.502 57.7603 322.076 71.1281 325.325Z" fill="#007CB2"/>
<path d="M75.3055 324.49C75.3055 324.49 78.4618 335.073 71.5922 339.807C67.1363 342.778 64.8155 333.402 75.3055 324.49Z" fill="#007CB2"/>
<path d="M75.3066 325.047C75.3066 325.047 76.8848 314.092 69.4582 310.379C64.631 308.058 63.7026 317.713 75.3066 325.047Z" fill="#007CB2"/>
<path d="M90.3444 323.654C90.3444 323.654 92.3867 334.516 85.053 338.507C80.3186 341.014 79.019 331.452 90.3444 323.654Z" fill="#007CB2"/>
<path d="M90.0669 324.025C90.0669 324.025 91.2737 312.978 83.6615 309.636C78.7414 307.501 78.1844 317.156 90.0669 324.025Z" fill="#007CB2"/>
<path d="M103.342 324.026C103.342 324.026 105.755 334.794 98.5144 339.064C93.8728 341.757 92.2018 332.195 103.342 324.026Z" fill="#007CB2"/>
<path d="M105.103 324.675C105.103 324.675 107.145 313.814 99.7186 309.822C95.077 307.316 93.7774 316.877 105.103 324.675Z" fill="#007CB2"/>
<path d="M114.388 325.511C114.388 325.511 115.687 336.465 108.075 339.992C103.248 342.127 102.598 332.473 114.388 325.511Z" fill="#007CB2"/>
<path d="M118.844 326.16C118.844 326.16 119.401 315.113 111.603 312.142C106.497 310.286 106.497 319.94 118.844 326.16Z" fill="#007CB2"/>
<path d="M352.424 7.49456C310.028 28.6926 327.808 102.886 372.423 102.886C417.038 102.886 457.05 56.727 437.037 27.4935C417.025 -1.73996 380.114 -6.35723 352.411 7.49456H352.424Z" fill="#07A899"/>
<path d="M340.541 106.889C316.6 99.9701 297.029 134.979 314.271 150.884C331.514 166.789 363.435 163.206 366.122 144.778C368.81 126.351 356.185 111.41 340.541 106.889Z" fill="#007CB2"/>
<path d="M384.737 130.06C374.331 163.401 422.819 191.876 445.616 168.183C468.412 144.491 464.346 99.655 438.6 95.341C412.854 91.0269 391.532 108.269 384.737 130.06Z" fill="#4AB9D3"/>
<path d="M390.934 54.6045L379.246 42.5721L382.471 39.3469C384.924 36.8935 384.924 32.9103 382.471 30.4569L376.475 24.4614C374.022 22.008 370.039 22.008 367.585 24.4614L365.821 26.2256C360.432 31.6147 360.432 40.3668 365.821 45.7559L387.75 68.029C393.139 73.4181 401.891 73.4181 407.28 68.029L409.044 66.2648C411.498 63.8115 411.498 59.8282 409.044 57.3749L403.049 51.3793C400.595 48.926 396.612 48.926 394.159 51.3793L390.934 54.6045Z" fill="white"/>
<path d="M336.806 135.751L335.8 138.48C335.359 139.651 334.16 140.217 332.975 139.776C331.886 139.376 331.238 138.135 331.679 136.964L333.292 132.595C333.292 132.595 333.347 132.567 333.36 132.526C333.36 132.526 333.36 132.494 333.36 132.429C333.76 131.34 335.083 130.734 336.172 131.134C338.818 132.112 341.74 130.803 342.691 128.198C343.67 125.552 342.292 122.699 339.645 121.72C337.923 121.086 336.076 121.444 334.766 122.533C333.802 123.319 332.423 123.195 331.638 122.23C330.893 121.279 331.004 119.942 331.968 119.156C334.449 117.116 337.95 116.4 341.189 117.599C346.054 119.404 348.591 124.821 346.785 129.7C345.241 133.863 341.065 136.275 336.82 135.751H336.806ZM333.402 144.944L333.126 145.702C332.685 146.874 331.486 147.439 330.301 146.998C329.212 146.598 328.564 145.358 329.005 144.186L329.281 143.428C329.694 142.298 331.004 141.733 332.092 142.132C333.264 142.573 333.815 143.814 333.388 144.958L333.402 144.944Z" fill="white"/>
<path d="M448.51 142.409L443.879 117.6L433.942 132.431L448.51 142.409Z" fill="white"/>
<path d="M430.096 138.192C429.021 139.791 427.395 140.879 425.493 141.238C425.038 141.32 424.583 141.362 424.128 141.362C422.695 141.362 421.303 140.934 420.09 140.108L416.809 137.861L405.631 152.292L447.821 144.408C447.959 144.38 448.083 144.325 448.193 144.256L433.004 133.85L430.096 138.205V138.192Z" fill="white"/>
<path d="M399.415 125.898L404.184 151.41L415.431 136.897L399.415 125.898Z" fill="white"/>
<path d="M428.938 137.172L442.129 117.462L400.987 125.153L420.765 138.743C423.453 140.59 427.119 139.887 428.925 137.172H428.938Z" fill="white"/>
<path d="M461.863 97.0257C458.679 97.0257 455.964 94.6274 455.123 91.0439C454.254 87.3639 455.702 83.8768 458.706 82.3745C462.51 80.4724 467.955 80.8721 471.001 85.3378C472.2 87.102 472.241 89.3486 471.097 91.5263C469.388 94.7653 465.584 97.0394 461.863 97.0394V97.0257ZM463.282 84.7175C462.207 84.7175 461.16 84.9794 460.236 85.4343C458.307 86.3991 458.059 88.6457 458.444 90.2721C458.844 91.9398 460.043 93.6213 461.863 93.6213C464.633 93.6213 467.141 91.7193 468.079 89.9275C468.465 89.197 468.795 88.1495 468.189 87.2674C466.962 85.4756 465.102 84.7175 463.282 84.7175Z" fill="#007CB2"/>
<path d="M311.618 59.8275C310.75 59.8275 309.84 59.7034 308.889 59.4553C305.32 58.4905 301.447 55.5548 301.405 51.351C301.378 48.9666 302.26 46.7613 303.886 45.1487C305.568 43.481 307.828 42.6402 310.488 42.6954C313.038 42.7505 315.45 44.3906 316.939 47.0921C318.73 50.3311 318.827 54.2178 317.173 57.002C316.084 58.8489 314.058 59.8413 311.605 59.8413L311.618 59.8275ZM310.254 46.2513C308.683 46.2513 307.346 46.7475 306.395 47.6848C305.457 48.6082 304.961 49.89 304.975 51.3097C305.003 53.5149 307.483 55.3756 309.813 56.0096C311.329 56.4231 313.355 56.4369 314.113 55.1689C315.119 53.4736 314.995 50.9237 313.824 48.815C312.955 47.2437 311.673 46.2927 310.405 46.2651C310.35 46.2651 310.295 46.2651 310.24 46.2651L310.254 46.2513Z" fill="#4AB9D3"/>
<path d="M178.38 145.917C177.125 145.917 175.871 145.614 174.713 144.911C172.673 143.656 171.281 141.741 170.771 139.522C170.248 137.206 170.744 134.822 172.191 132.616C173.583 130.494 176.243 129.308 179.331 129.474C183.024 129.667 186.374 131.652 187.862 134.532C189.199 137.11 188.303 140.307 185.547 142.871C183.714 144.58 181.026 145.917 178.366 145.917H178.38ZM178.779 133.03C177.153 133.03 175.83 133.595 175.182 134.574C174.272 135.952 173.955 137.399 174.259 138.736C174.548 140.018 175.361 141.134 176.574 141.865C178.462 143.022 181.357 141.892 183.121 140.252C184.265 139.191 185.368 137.468 184.692 136.159C183.796 134.408 181.563 133.154 179.151 133.03C179.027 133.03 178.903 133.03 178.779 133.03Z" fill="white"/>
<path d="M161.05 105.855C149.982 105.855 147.432 98.6192 147.322 98.3022C146.839 96.855 147.625 95.2975 149.059 94.8151C150.492 94.3465 152.022 95.0908 152.532 96.5104C152.642 96.7723 154.337 100.7 162.111 100.328C163.613 100.273 164.923 101.417 165.005 102.947C165.088 104.463 163.916 105.759 162.387 105.841C161.932 105.869 161.477 105.869 161.05 105.869V105.855Z" fill="#007CB2"/>
<path d="M377.857 199.96C377.691 199.96 377.512 199.946 377.347 199.918C373.763 199.243 366.872 195.273 366.376 185.033C366.307 183.517 367.478 182.221 368.994 182.152C370.497 182.056 371.806 183.255 371.875 184.771C372.261 192.972 377.76 194.378 378.381 194.502C379.855 194.819 380.82 196.266 380.531 197.741C380.269 199.05 379.139 199.96 377.843 199.96H377.857Z" fill="white"/>
<path d="M156.184 183.008C156.157 182.842 156.157 182.677 156.171 182.498C156.364 178.859 159.382 171.499 169.457 169.638C170.96 169.363 172.393 170.355 172.669 171.857C172.972 173.332 171.952 174.793 170.45 175.069C162.373 176.557 161.711 182.181 161.67 182.815C161.56 184.317 160.25 185.475 158.748 185.378C157.411 185.296 156.364 184.29 156.184 183.021V183.008Z" fill="#29CABB"/>
<path d="M197.372 350.122H261.986C264.536 350.122 266.604 348.055 266.604 345.505C266.604 342.955 264.536 340.888 261.986 340.888H197.372C194.822 340.888 192.755 342.955 192.755 345.505C192.755 348.055 194.822 350.122 197.372 350.122Z" fill="#CDB9FF"/>
<path d="M425.66 265.692L426.896 266.222C427.073 265.869 442.261 230.9 480.056 200.7L479.173 199.641C441.202 230.106 425.837 265.339 425.66 265.692Z" fill="#07A899"/>
<path d="M470.343 208.118C470.343 208.118 484.648 208.736 488.357 198.67C490.829 192.135 478.29 192.223 470.343 208.118Z" fill="#07A899"/>
<path d="M463.806 213.505C463.806 213.505 471.93 225.249 482.261 222.158C488.884 220.216 481.29 210.237 463.806 213.505Z" fill="#07A899"/>
<path d="M464.868 213.682C464.868 213.682 452.417 206.617 454.536 196.109C455.949 189.221 466.546 195.933 464.868 213.682Z" fill="#07A899"/>
<path d="M452.858 225.426C452.858 225.426 460.806 237.347 471.226 234.345C477.848 232.49 470.431 222.424 452.858 225.426Z" fill="#07A899"/>
<path d="M452.769 225.955C452.769 225.955 440.23 218.979 442.349 208.471C443.674 201.672 454.27 208.206 452.769 225.955Z" fill="#07A899"/>
<path d="M441.289 240.261C441.289 240.261 449.854 251.741 460.098 248.209C466.632 246.001 458.685 236.376 441.289 240.261Z" fill="#07A899"/>
<path d="M441.29 241.232C441.29 241.232 428.309 235.227 429.634 224.454C430.429 217.655 441.555 223.394 441.29 241.232Z" fill="#07A899"/>
<path d="M430.251 257.569C430.251 257.569 444.203 260.836 449.767 251.652C453.299 245.648 441.025 243.352 430.251 257.569Z" fill="#07A899"/>
<path d="M431.488 256.067C431.488 256.067 420.096 247.413 423.717 237.258C426.013 230.724 435.55 238.76 431.488 256.067Z" fill="#07A899"/>
<path d="M415.945 191.429C352.984 223.66 371.616 332.098 373.382 341.723L391.396 335.63C394.752 310.375 405.613 279.203 422.479 253.507C446.145 217.037 446.675 178.89 415.945 191.429Z" fill="#29CABB"/>
<path d="M427.163 204.675C426.721 204.322 426.015 204.41 425.661 204.851C390.163 249.092 380.979 291.655 379.655 319.647C379.302 326.888 379.39 333.511 379.831 339.516L381.862 338.809C381.509 333.069 381.421 326.623 381.774 319.647C383.187 292.008 392.194 249.887 427.339 206.176C427.692 205.735 427.604 205.116 427.163 204.675Z" fill="white"/>
<path d="M412.239 199.553L414.888 222.248C414.888 222.248 437.317 213.329 437.14 213.594C436.875 213.859 411.355 227.281 411.355 227.281L412.239 199.553Z" fill="white"/>
<path d="M390.426 219.422L398.815 248.651L429.015 238.407L397.049 252.978L390.426 219.422Z" fill="white"/>
<path d="M379.742 250.947L389.544 273.465L407.823 265.341L388.572 276.908L379.742 250.947Z" fill="white"/>
<path d="M479.082 242.292C414.619 237.435 374.618 337.484 370.909 353.114L391.395 342.871C406.054 324.768 429.366 305.694 454.71 293.597C490.385 276.642 508.928 247.149 479.082 242.292Z" fill="white"/>
<path d="M481.466 258.01C481.289 257.48 480.759 257.215 480.229 257.392C431.485 274.876 404.111 303.752 389.717 324.945C386.009 330.42 379.651 342.959 377.09 347.816L382.3 340.928C384.772 336.248 387.686 331.215 391.307 325.916C405.524 305.076 432.633 276.554 480.848 259.158C481.377 259.07 481.642 258.452 481.466 258.01Z" fill="#B4E9EF"/>
<path d="M473.077 245.471L463.364 264.898L484.115 269.313L460.008 266.929L473.077 245.471Z" fill="#B4E9EF"/>
<path d="M447.028 252.094L444.29 275.318L469.104 281.765L441.288 277.438L447.028 252.094Z" fill="#B4E9EF"/>
<path d="M424.597 267.724L424.244 289.711L436.607 291.566L421.683 291.831L424.597 267.724Z" fill="#B4E9EF"/>
<path d="M409.41 284.943L409.852 302.251L423.186 305.165L407.732 304.723L409.41 284.943Z" fill="#B4E9EF"/>
<path d="M471.047 290.506C422.126 276.908 379.298 343.224 375.59 349.229L388.041 354.704C402.081 342.959 423.009 331.833 444.379 326.358C474.579 318.764 493.388 298.807 471.047 290.506Z" fill="#07A899"/>
<path d="M470.517 302.957C470.429 302.515 470.076 302.25 469.634 302.338C429.367 308.431 403.847 326.534 389.542 340.663C385.833 344.283 382.654 347.904 380.005 351.259L381.418 351.877C383.979 348.698 387.069 345.254 390.69 341.722C404.819 327.77 430.074 309.933 469.899 303.928C470.252 303.751 470.605 303.398 470.517 302.957Z" fill="#B4E9EF"/>
<path d="M465.395 292.183L455.858 305.782L469.103 313.023L452.855 306.577L465.395 292.183Z" fill="#B4E9EF"/>
<path d="M447.47 292.008L438.11 311.611L456.831 319.559L434.666 312.141L447.47 292.008Z" fill="#B4E9EF"/>
<path d="M425.836 301.544L419.478 319.47L435.814 326.27L417.8 320.795L425.836 301.544Z" fill="#B4E9EF"/>
<path d="M408.793 313.288L404.466 329.095L424.599 331.655L402.7 330.419L408.793 313.288Z" fill="#B4E9EF"/>
<path d="M379.565 349.494L380.448 350.024C380.624 349.759 394.665 325.475 424.865 306.755L424.335 305.871C393.958 324.769 379.741 349.229 379.565 349.494Z" fill="#29CABB"/>
<path d="M417.094 311.17C417.094 311.17 427.514 312.848 431.046 305.783C433.43 301.28 424.247 300.22 417.094 311.17Z" fill="#29CABB"/>
<path d="M413.649 313.377C413.649 313.377 418.418 322.737 426.188 321.501C431.31 320.706 426.718 312.759 413.649 313.377Z" fill="#29CABB"/>
<path d="M414.09 313.819C414.09 313.819 405.79 307.285 408.616 299.867C410.382 295.099 417.269 301.103 414.09 313.819Z" fill="#29CABB"/>
<path d="M402.7 322.561C402.7 322.561 408.351 331.391 416.034 329.448C420.979 328.124 415.68 320.618 402.7 322.561Z" fill="#29CABB"/>
<path d="M403.228 322.649C403.228 322.649 395.192 315.85 398.283 308.52C400.226 303.84 406.937 310.11 403.228 322.649Z" fill="#29CABB"/>
<path d="M394.047 331.302C394.047 331.302 399.433 340.31 407.204 338.543C412.061 337.484 407.027 329.801 394.047 331.302Z" fill="#29CABB"/>
<path d="M393.164 332.892C393.164 332.892 384.687 326.623 387.159 319.117C388.749 314.348 395.901 320.177 393.164 332.892Z" fill="#29CABB"/>
<path d="M387.246 339.603C387.246 339.603 393.516 348.081 401.021 345.431C405.878 343.754 400.05 336.689 387.246 339.603Z" fill="#29CABB"/>
<path d="M384.685 342.871C384.685 342.871 377.09 335.542 380.623 328.477C382.83 323.886 389.1 330.597 384.685 342.871Z" fill="#29CABB"/>
<path d="M74.6632 350.123H199.205C201.852 350.123 203.85 347.724 203.381 345.133L188.772 264.751C188.399 262.739 186.649 261.278 184.595 261.278H60.0533C57.407 261.278 55.4085 263.676 55.8771 266.267L70.487 346.649C70.8591 348.662 72.6095 350.123 74.6632 350.123Z" fill="#CDB9FF"/>
<path d="M386.611 357.179H181.219C181.219 357.179 160.834 192.556 193.141 180.248C225.448 167.94 315.436 170.683 340.838 186.409C373.145 206.408 386.611 357.193 386.611 357.193V357.179Z" fill="#0695C5"/>
<path d="M156.341 244.352L132.744 326.402L173.266 325.382L190.191 251.009L156.341 244.352Z" fill="#F1A87A"/>
<path d="M193.141 180.234C193.141 180.234 175.829 189.469 160.958 224.849C149.587 251.919 149.67 247.412 149.67 247.412L196.338 256.137C196.338 256.137 203.257 181.254 193.127 180.234" fill="#0695C5"/>
<path d="M315.064 249.866C315.064 249.866 327.758 305.259 323.141 305.259C318.524 305.259 256.211 317.953 256.211 317.953L260.828 332.949C260.828 332.949 376.219 344.485 384.296 327.174C392.372 309.863 365.826 234.856 365.826 234.856L315.05 249.852L315.064 249.866Z" fill="#F1A87A"/>
<path d="M256.211 317.939C256.211 317.939 240.83 319.097 234.669 322.942C228.508 326.788 225.048 331.019 227.364 331.791C229.679 332.563 234.669 334.864 237.742 332.563C240.816 330.261 255.439 335.25 260.815 332.949C266.19 330.647 256.197 317.953 256.197 317.953" fill="#F1A87A"/>
<path d="M227.75 332.177C227.75 332.177 229.914 327.725 234.09 325.644C238.266 323.563 239.093 323.535 239.093 323.535" stroke="black" stroke-linecap="round" stroke-linejoin="round"/>
<path d="M231.223 333.128C231.223 333.128 233.414 328.497 237.949 327.353C241.022 326.581 241.987 326.388 241.987 326.388" stroke="black" stroke-linecap="round" stroke-linejoin="round"/>
<path d="M227.116 174.087L238.39 198.703L251.608 189.855L271.221 198.193L289.676 174.087" stroke="#026485" stroke-miterlimit="10"/>
<path d="M252.242 204.809C253.916 204.809 255.274 203.452 255.274 201.777C255.274 200.102 253.916 198.745 252.242 198.745C250.567 198.745 249.209 200.102 249.209 201.777C249.209 203.452 250.567 204.809 252.242 204.809Z" fill="#026485"/>
<path d="M252.242 216.098C253.916 216.098 255.274 214.74 255.274 213.065C255.274 211.391 253.916 210.033 252.242 210.033C250.567 210.033 249.209 211.391 249.209 213.065C249.209 214.74 250.567 216.098 252.242 216.098Z" fill="#026485"/>
<path d="M246.605 193.576V223.32H258.913" stroke="#026485" stroke-miterlimit="10"/>
<path d="M301.998 246.916H271.221V252.553H301.998V246.916Z" stroke="#026485" stroke-miterlimit="10"/>
<path d="M315.064 249.866L308.118 221.101" stroke="#026485" stroke-miterlimit="10"/>
<path d="M189.874 253.904L195.346 219.736" stroke="#026485" stroke-miterlimit="10"/>
<path d="M207.268 122.898C207.268 149.251 215.455 169.911 235.44 169.911C255.426 169.911 279.67 149.251 279.67 122.898C279.67 96.5448 255.426 74.4647 235.44 74.4647C215.455 74.4647 207.268 96.5448 207.268 122.898Z" fill="#F1A87A"/>
<path d="M270.642 146.398L272.241 175.108L251.608 189.855L241.215 174.859L237.756 158.706L270.642 146.398Z" fill="#F1A87A"/>
<path d="M267.761 112.547C267.761 112.547 252.766 106.772 250.45 90.6183C250.45 90.6183 214.683 112.547 200.832 109.087C186.98 105.628 176.601 73.3207 198.53 65.244C220.458 57.1672 229.941 66.4017 250.712 66.4017C271.483 66.4017 277.382 69.4753 281.999 72.0389C287.14 74.892 293.728 90.632 283.929 110.245C274.115 129.858 267.775 112.547 267.775 112.547H267.761Z" fill="black"/>
<path d="M243.379 126.385C244.734 126.385 245.833 124.842 245.833 122.939C245.833 121.036 244.734 119.493 243.379 119.493C242.024 119.493 240.926 121.036 240.926 122.939C240.926 124.842 242.024 126.385 243.379 126.385Z" fill="black"/>
<path d="M218.377 126.385C219.732 126.385 220.831 124.842 220.831 122.939C220.831 121.036 219.732 119.493 218.377 119.493C217.022 119.493 215.924 121.036 215.924 122.939C215.924 124.842 217.022 126.385 218.377 126.385Z" fill="black"/>
<path d="M228.135 124.345C228.135 124.345 219.549 136.653 221.341 138.196C223.132 139.74 230.065 140.76 230.065 140.76L228.135 124.345Z" fill="#E0894E"/>
<path d="M251.47 144.082C255.786 144.082 259.285 140.583 259.285 136.267C259.285 131.951 255.786 128.452 251.47 128.452C247.154 128.452 243.655 131.951 243.655 136.267C243.655 140.583 247.154 144.082 251.47 144.082Z" fill="#E0894E"/>
<path d="M212.878 142.29C214.438 142.29 215.703 139.532 215.703 136.129C215.703 132.727 214.438 129.968 212.878 129.968C211.317 129.968 210.052 132.727 210.052 136.129C210.052 139.532 211.317 142.29 212.878 142.29Z" fill="#E0894E"/>
<path d="M229.293 150.243C229.293 150.243 241.477 146.907 246.095 147.417C250.712 147.927 245.447 157.934 237.756 158.705C230.065 159.477 229.293 150.243 229.293 150.243Z" fill="white"/>
<path d="M278.402 136.653C278.402 136.653 273.784 154.088 258.913 156.142" stroke="black" stroke-miterlimit="10"/>
<path d="M257.121 160.911C259.526 160.911 261.476 158.961 261.476 156.555C261.476 154.15 259.526 152.2 257.121 152.2C254.715 152.2 252.765 154.15 252.765 156.555C252.765 158.961 254.715 160.911 257.121 160.911Z" fill="black"/>
<path d="M246.343 66.1259C246.343 66.1259 264.04 65.3541 268.133 85.353C272.227 105.352 270.187 113.043 270.187 113.043L283.846 111.609C283.846 111.609 283.529 92.0101 280.442 82.2657C275.935 67.9866 264.55 66.6221 264.55 66.6221L246.343 66.1121V66.1259Z" fill="#026485"/>
<path d="M237.37 110.493C237.37 110.493 241.987 106.909 249.678 110.493" stroke="black" stroke-width="2" stroke-linecap="round" stroke-linejoin="round"/>
<path d="M212.244 110.493C212.244 110.493 216.861 106.909 224.552 110.493" stroke="black" stroke-width="2" stroke-linecap="round" stroke-linejoin="round"/>
<path d="M263.585 125.103C263.585 133.461 270.361 140.236 278.719 140.236C287.077 140.236 293.852 133.461 293.852 125.103V119.603C293.852 111.245 287.077 104.47 278.719 104.47C270.361 104.47 263.585 111.245 263.585 119.603V125.103Z" fill="#007CB2"/>
<path d="M281.02 132.821H281.034C286.043 132.821 290.103 128.761 290.103 123.752V120.444C290.103 115.436 286.043 111.375 281.034 111.375H281.02C276.012 111.375 271.951 115.436 271.951 120.444V123.752C271.951 128.761 276.012 132.821 281.02 132.821Z" stroke="#026485" stroke-miterlimit="10"/>
<path d="M67.7442 350.123H192.286C194.933 350.123 196.931 347.724 196.462 345.133L181.853 264.751C181.48 262.739 179.73 261.278 177.676 261.278H53.1343C50.488 261.278 48.4895 263.676 48.9581 266.267L63.5679 346.649C63.9401 348.662 65.6905 350.123 67.7442 350.123Z" fill="black"/>
<path d="M47.3593 358.337L450.081 358.337V350.26L47.3593 350.26V358.337Z" fill="#233237"/>
<path d="M123.98 318.359C128.889 317.742 132.31 312.796 131.62 307.313C130.93 301.83 126.392 297.885 121.482 298.503C116.573 299.121 113.153 304.066 113.842 309.549C114.532 315.032 119.071 318.977 123.98 318.359Z" fill="white"/>
<defs>
<linearGradient id="paint0_linear_1_7450" x1="277.652" y1="74.8011" x2="277.652" y2="357.656" gradientUnits="userSpaceOnUse">
<stop stop-color="#354449"/>
<stop offset="1" stop-color="#000A0F"/>
</linearGradient>
</defs>
</svg>
