<svg width="393" height="380" viewBox="0 0 393 380" fill="none" xmlns="http://www.w3.org/2000/svg">
<path d="M213.747 379.972C202.417 380.38 176.081 376.297 165.363 368.948C129.738 344.857 61.4484 367.927 42.6662 339.549C23.7819 311.274 45.2181 287.286 39.6039 258.909C33.9896 230.531 3.97894 225.019 3.36648 190.313C2.75402 155.504 22.1487 132.435 61.5504 115.898C110.65 95.2789 95.338 70.0658 121.266 38.2178C156.686 -5.36917 208.95 23.5187 222.73 49.2421C233.244 68.7388 249.781 76.7008 277.035 73.0261C331.136 65.8807 355.328 104.364 331.749 143.766C307.658 184.086 331.238 210.014 345.019 227.265C384.625 276.874 364.005 306.17 324.297 311.172C284.691 316.174 284.589 340.57 270.911 355.371C251.312 376.706 228.549 379.462 213.747 379.972Z" fill="url(#paint0_linear_1_872)"/>
<path d="M104.627 216.341L103.198 216.954C102.994 216.546 85.4369 176.123 41.7479 141.213L42.7687 139.988C86.6619 175.102 104.423 215.933 104.627 216.341Z" fill="#5EC5DD"/>
<path d="M52.8725 149.788C52.8725 149.788 36.336 150.502 32.0488 138.865C29.2927 131.312 43.6856 131.414 52.8725 149.788Z" fill="#5EC5DD"/>
<path d="M60.5299 156.014C60.5299 156.014 51.1388 169.59 39.1958 166.018C31.54 163.67 40.3186 152.237 60.5299 156.014Z" fill="#5EC5DD"/>
<path d="M59.3051 156.116C59.3051 156.116 73.698 147.95 71.2481 135.803C69.6149 127.943 57.3656 135.701 59.3051 156.116Z" fill="#5EC5DD"/>
<path d="M73.0843 169.795C73.0843 169.795 63.8974 183.575 51.8523 180.104C44.1965 177.961 52.873 166.324 73.0843 169.795Z" fill="#5EC5DD"/>
<path d="M73.2889 170.408C73.2889 170.408 87.7839 162.343 85.334 150.196C83.8029 142.234 71.5536 149.89 73.2889 170.408Z" fill="#5EC5DD"/>
<path d="M86.5601 186.944C86.5601 186.944 76.6586 200.214 64.8177 196.131C57.264 193.579 66.4509 182.35 86.5601 186.944Z" fill="#5EC5DD"/>
<path d="M86.559 188.067C86.559 188.067 101.564 181.126 100.033 168.672C99.0124 160.71 86.2528 167.447 86.559 188.067Z" fill="#5EC5DD"/>
<path d="M99.3188 206.951C99.3188 206.951 83.1906 210.728 76.7598 200.112C72.6767 193.17 86.8654 190.516 99.3188 206.951Z" fill="#5EC5DD"/>
<path d="M97.8905 205.215C97.8905 205.215 111.058 195.212 106.873 183.473C104.219 175.919 93.0929 185.208 97.8905 205.215Z" fill="#5EC5DD"/>
<path d="M172.202 154.994L170.671 155.096C170.671 154.687 166.486 110.692 135.863 63.9409L137.19 63.1243C168.017 110.182 172.1 154.585 172.202 154.994Z" fill="white"/>
<path d="M143.825 75.5776C143.825 75.5776 127.901 71.0862 127.391 58.6328C127.186 50.6708 140.865 55.2643 143.825 75.5776Z" fill="white"/>
<path d="M148.215 82.0082C148.215 82.0082 136.067 93.2367 125.145 87.1121C118.204 83.1311 129.33 73.8421 148.215 82.0082Z" fill="white"/>
<path d="M147.092 82.6207C147.092 82.6207 163.526 80.2729 165.568 68.0236C166.997 60.1637 152.706 62.8177 147.092 82.6207Z" fill="white"/>
<path d="M156.381 100.893C156.381 100.893 143.009 110.692 132.903 103.445C126.473 98.6471 138.518 90.6851 156.381 100.893Z" fill="white"/>
<path d="M156.278 101.505C156.278 101.505 172.202 97.1158 172.713 84.6624C173.121 76.5983 159.341 81.0897 156.278 101.505Z" fill="white"/>
<path d="M162.708 117.838C162.708 117.838 149.438 127.637 139.23 120.389C132.799 115.796 144.743 107.732 162.708 117.838Z" fill="white"/>
<path d="M162.71 117.633C162.71 117.633 179.246 117.123 182.717 105.078C184.861 97.4221 170.468 98.545 162.71 117.633Z" fill="white"/>
<path d="M168.934 138.355C168.934 138.355 155.46 148.052 145.456 140.6C139.026 135.905 151.173 127.943 168.934 138.355Z" fill="white"/>
<path d="M169.242 142.234C169.242 142.234 184.86 136.824 184.656 124.37C184.452 116.408 170.978 121.716 169.242 142.234Z" fill="white"/>
<path d="M146.989 255.947C146.989 255.947 172.202 207.563 155.972 171.631C139.742 135.7 121.776 111.916 126.778 97.4214C88.1926 136.619 89.3155 189.903 111.364 222.058C133.413 254.212 146.989 255.947 146.989 255.947Z" fill="#4AB9D3"/>
<path d="M146.989 255.948C146.989 255.948 146.274 208.686 131.881 178.879C114.733 143.561 121.265 113.856 122.797 105.078C118.305 119.879 111.874 138.253 126.369 172.653C136.985 197.968 144.131 223.997 144.233 256.56C144.335 266.972 146.989 255.948 146.989 255.948Z" fill="#5EC5DD"/>
<path d="M108.2 128.759C108.2 128.759 115.856 147.644 121.98 156.218C126.676 165.099 125.553 164.69 125.553 164.69C125.553 164.69 110.344 145.398 108.2 128.759Z" fill="#5EC5DD"/>
<path d="M98.4003 156.116C98.4003 156.116 115.651 169.692 128.717 174.592C130.452 175.715 131.371 178.573 131.371 178.573C131.371 178.573 108.506 169.488 98.4003 156.116Z" fill="#5EC5DD"/>
<path d="M104.729 180.615C104.729 180.615 121.98 194.191 135.046 199.091C143.519 204.501 137.7 203.072 137.7 203.072C137.7 203.072 114.937 193.987 104.729 180.615Z" fill="#5EC5DD"/>
<path d="M104.32 197.151C104.32 197.151 113.303 213.483 143.926 226.345C144.539 227.06 143.824 229.203 143.824 229.203C143.824 229.203 114.426 219.914 104.32 197.151Z" fill="#5EC5DD"/>
<path d="M113.609 218.996C113.609 218.996 123.919 236.349 145.968 242.984C146.58 243.698 145.865 245.842 145.865 245.842C145.865 245.842 121.673 238.594 113.609 218.996Z" fill="#5EC5DD"/>
<path d="M126.777 168.773C126.777 168.773 135.25 144.173 132.085 131.413C135.352 141.825 132.902 160.301 128.206 172.754C127.492 171.121 126.777 168.773 126.777 168.773Z" fill="#5EC5DD"/>
<path d="M135.046 191.843C135.046 191.843 145.866 167.038 145.049 153.973C146.376 164.793 143.11 185.208 136.169 196.641C135.964 194.905 135.046 191.843 135.046 191.843Z" fill="#5EC5DD"/>
<path d="M141.579 216.648C141.579 216.648 152.399 191.843 151.583 178.777C152.91 189.598 149.643 210.013 142.702 221.446C142.396 219.71 141.579 216.648 141.579 216.648Z" fill="#5EC5DD"/>
<path d="M144.947 237.37C144.947 237.37 157.299 223.691 156.38 210.625C157.707 221.446 153.011 230.735 146.07 242.167C145.764 240.33 144.947 237.37 144.947 237.37Z" fill="#5EC5DD"/>
<path d="M62.469 196.743C143.416 208.584 163.321 334.139 164.954 345.367H143.008C129.942 318.929 106.362 288.918 78.393 267.074C38.9912 236.145 24.2921 194.497 62.469 196.743Z" fill="#007CB2"/>
<path d="M55.2231 215.524C55.6314 214.912 56.346 214.81 56.8564 215.116C112.284 250.231 138.11 293.511 150.053 323.624C153.115 331.382 155.463 338.731 157.3 345.366H154.748C153.013 338.936 150.767 331.892 147.705 324.339C135.864 294.634 110.345 251.864 55.5294 217.158C55.019 216.749 54.8148 216.035 55.2231 215.524Z" fill="#4AB9D3"/>
<path d="M69.6157 204.194L75.1278 230.02C75.1278 230.02 47.2608 228.591 47.567 228.795C47.9753 228.999 80.8442 234.205 80.8442 234.205L69.6157 204.194Z" fill="#4AB9D3"/>
<path d="M100.852 217.872L102.587 252.987H65.7374L106.16 257.07L100.852 217.872Z" fill="#4AB9D3"/>
<path d="M124.328 248.393L121.981 276.669L98.9112 274.627L124.328 280.139V248.393Z" fill="#4AB9D3"/>
<path d="M12.349 275.955C81.0469 246.659 162.096 341.183 171.998 356.902L145.764 353.33C123.001 338.937 90.438 326.79 58.1816 323.013C12.7573 317.807 -18.4783 292.39 12.349 275.955Z" fill="#4AB9D3"/>
<path d="M15.6154 294.022C15.6154 293.41 16.1257 292.9 16.7382 292.9C76.5554 293.92 117.284 315.357 140.966 333.118C147.091 337.711 158.727 349.042 163.321 353.431L155.053 347.919C150.663 343.734 145.457 339.345 139.639 334.853C116.161 317.296 75.9429 296.166 16.7382 295.145C16.1257 295.145 15.6154 294.635 15.6154 294.022Z" fill="#5EC5DD"/>
<path d="M20.2078 277.18L38.0712 294.839L16.9413 307.395L42.3585 295.86L20.2078 277.18Z" fill="#5EC5DD"/>
<path d="M51.1387 274.73L62.7755 299.126L38.0729 315.459L66.8586 300.351L51.1387 274.73Z" fill="#5EC5DD"/>
<path d="M81.4546 283.406L90.029 307.395L77.2694 314.03L93.6017 308.824L81.4546 283.406Z" fill="#5EC5DD"/>
<path d="M104.422 296.677L110.445 315.765L96.9706 323.931L113.711 317.603L104.422 296.677Z" fill="#5EC5DD"/>
<path d="M39.0929 325.768C87.5795 292.695 159.136 349.348 165.464 354.452L124.225 357.208C124.225 357.208 106.872 354.962 81.4549 357.004C45.6258 359.76 17.7587 343.121 39.0929 325.768Z" fill="#7ADAEA"/>
<path d="M44.4012 339.141C44.2991 338.63 44.6054 338.222 45.1158 338.12C91.4588 329.75 126.063 340.059 146.989 350.165C152.399 352.819 157.196 355.473 161.382 358.127L160.055 359.352C155.972 356.8 151.378 354.146 146.172 351.696C125.45 341.693 91.2546 331.587 45.422 339.855C44.9116 339.957 44.4012 339.651 44.4012 339.141Z" fill="#B4E9EF"/>
<path d="M45.9316 325.462L61.3452 336.793L49.7084 349.552L65.02 336.486L45.9316 325.462Z" fill="#B4E9EF"/>
<path d="M65.4295 318.623L83.0889 336.487L65.4295 352.207L86.9678 335.874L65.4295 318.623Z" fill="#B4E9EF"/>
<path d="M92.684 320.971L106.362 338.222L91.0507 351.798L108.71 338.936L92.684 320.971Z" fill="#B4E9EF"/>
<path d="M115.753 327.504L126.369 343.121L105.341 353.431L128.716 344.04L115.753 327.504Z" fill="#B4E9EF"/>
<path d="M140.047 330.464L139.741 331.587C139.435 331.485 108.301 322.298 68.083 330.362L67.8788 329.239C108.403 320.971 139.741 330.362 140.047 330.464Z" fill="#007CB2"/>
<path d="M78.1879 328.015C78.1879 328.015 70.7362 337.712 62.1618 334.548C56.5475 332.608 63.4888 324.442 78.1879 328.015Z" fill="#007CB2"/>
<path d="M82.7813 327.096C82.7813 327.096 86.252 338.732 78.6982 343.938C73.7985 347.205 71.2466 336.895 82.7813 327.096Z" fill="#007CB2"/>
<path d="M82.7825 327.708C82.7825 327.708 84.5178 315.663 76.3517 311.58C71.0437 309.028 70.0229 319.644 82.7825 327.708Z" fill="#007CB2"/>
<path d="M99.318 326.177C99.318 326.177 101.564 338.12 93.4996 342.509C88.2937 345.265 86.8646 334.751 99.318 326.177Z" fill="#007CB2"/>
<path d="M99.0128 326.585C99.0128 326.585 100.34 314.438 91.9695 310.763C86.5594 308.415 85.9469 319.031 99.0128 326.585Z" fill="#007CB2"/>
<path d="M113.61 326.585C113.61 326.585 116.264 338.426 108.302 343.122C103.198 346.082 101.36 335.568 113.61 326.585Z" fill="#007CB2"/>
<path d="M115.546 327.3C115.546 327.3 117.792 315.357 109.626 310.968C104.522 308.212 103.093 318.725 115.546 327.3Z" fill="#007CB2"/>
<path d="M125.756 328.218C125.756 328.218 127.185 340.263 118.815 344.142C113.507 346.49 112.792 335.874 125.756 328.218Z" fill="#007CB2"/>
<path d="M130.656 328.932C130.656 328.932 131.268 316.785 122.694 313.519C117.079 311.477 117.079 322.093 130.656 328.932Z" fill="#007CB2"/>
<path d="M313.987 251.15L315.416 251.762C315.62 251.354 333.178 210.931 376.867 176.021L375.846 174.796C331.953 210.013 314.191 250.741 313.987 251.15Z" fill="#5EC5DD"/>
<path d="M365.637 184.596C365.637 184.596 382.174 185.31 386.461 173.673C389.319 166.12 374.824 166.222 365.637 184.596Z" fill="#5EC5DD"/>
<path d="M358.084 190.822C358.084 190.822 367.475 204.398 379.418 200.826C387.074 198.58 378.295 187.045 358.084 190.822Z" fill="#5EC5DD"/>
<path d="M359.308 191.026C359.308 191.026 344.915 182.86 347.365 170.713C348.998 162.751 361.248 170.509 359.308 191.026Z" fill="#5EC5DD"/>
<path d="M345.426 204.602C345.426 204.602 354.613 218.383 366.659 214.912C374.314 212.768 365.74 201.132 345.426 204.602Z" fill="#5EC5DD"/>
<path d="M345.323 205.215C345.323 205.215 330.828 197.151 333.278 185.004C334.809 177.144 347.058 184.697 345.323 205.215Z" fill="#5EC5DD"/>
<path d="M332.054 221.752C332.054 221.752 341.956 235.022 353.797 230.939C361.35 228.387 352.163 217.26 332.054 221.752Z" fill="#5EC5DD"/>
<path d="M332.054 222.874C332.054 222.874 317.049 215.933 318.58 203.48C319.499 195.62 332.361 202.255 332.054 222.874Z" fill="#5EC5DD"/>
<path d="M319.295 241.759C319.295 241.759 335.423 245.536 341.854 234.92C345.937 227.978 331.748 225.324 319.295 241.759Z" fill="#5EC5DD"/>
<path d="M320.723 240.024C320.723 240.024 307.555 230.02 311.74 218.281C314.394 210.727 325.419 220.017 320.723 240.024Z" fill="#5EC5DD"/>
<path d="M278.259 190.823L279.79 190.925C279.79 190.516 283.975 146.521 314.598 99.7699L313.271 98.9532C282.444 146.113 278.259 190.414 278.259 190.823Z" fill="white"/>
<path d="M306.534 111.509C306.534 111.509 322.458 107.017 322.969 94.5641C323.275 86.5 309.495 91.0935 306.534 111.509Z" fill="white"/>
<path d="M302.146 117.94C302.146 117.94 314.293 129.168 325.215 123.044C332.156 119.063 321.132 109.672 302.146 117.94Z" fill="white"/>
<path d="M303.37 118.552C303.37 118.552 286.935 116.204 284.894 103.955C283.464 95.9931 297.653 98.7492 303.37 118.552Z" fill="white"/>
<path d="M294.081 136.722C294.081 136.722 307.453 146.521 317.559 139.274C323.99 134.578 311.945 126.514 294.081 136.722Z" fill="white"/>
<path d="M294.082 137.334C294.082 137.334 278.158 132.945 277.648 120.492C277.239 112.53 291.02 117.021 294.082 137.334Z" fill="white"/>
<path d="M287.753 153.769C287.753 153.769 301.023 163.568 311.231 156.321C317.662 151.625 305.617 143.561 287.753 153.769Z" fill="white"/>
<path d="M287.752 153.463C287.752 153.463 271.215 152.952 267.745 140.907C265.499 133.251 279.994 134.374 287.752 153.463Z" fill="white"/>
<path d="M281.424 174.286C281.424 174.286 294.898 183.984 304.902 176.532C311.333 171.734 299.185 163.874 281.424 174.286Z" fill="white"/>
<path d="M281.118 178.165C281.118 178.165 265.5 172.755 265.704 160.302C265.908 152.237 279.383 157.648 281.118 178.165Z" fill="white"/>
<path d="M302.757 165.304C229.976 202.562 251.514 327.912 253.556 339.039L274.38 331.995C278.259 302.801 290.814 266.768 310.311 237.064C337.668 194.906 338.28 150.809 302.757 165.304Z" fill="#007CB2"/>
<path d="M315.72 180.616C315.21 180.207 314.393 180.309 313.985 180.82C272.95 231.96 262.334 281.162 260.802 313.52C260.394 321.89 260.496 329.546 261.007 336.487L263.354 335.671C262.946 329.036 262.844 321.584 263.252 313.52C264.885 281.57 275.297 232.879 315.924 182.351C316.332 181.841 316.23 181.126 315.72 180.616Z" fill="#4AB9D3"/>
<path d="M298.469 174.695L301.531 200.929C301.531 200.929 327.459 190.619 327.255 190.925C326.948 191.232 297.448 206.747 297.448 206.747L298.469 174.695Z" fill="#4AB9D3"/>
<path d="M273.257 197.662L282.954 231.45L317.864 219.609L280.912 236.452L273.257 197.662Z" fill="#4AB9D3"/>
<path d="M260.904 234.104L272.235 260.134L293.365 250.743L271.112 264.115L260.904 234.104Z" fill="#4AB9D3"/>
<path d="M375.742 224.1C301.226 218.485 254.985 334.139 250.697 352.206L274.379 340.365C291.324 319.44 318.272 297.391 347.569 283.406C388.808 263.808 410.244 229.714 375.742 224.1Z" fill="#4AB9D3"/>
<path d="M378.499 242.269C378.295 241.657 377.682 241.351 377.07 241.555C320.723 261.766 289.079 295.145 272.441 319.644C268.154 325.972 260.804 340.467 257.844 346.082L263.866 338.12C266.724 332.71 270.093 326.891 274.278 320.767C290.713 296.676 322.05 263.705 377.784 243.596C378.397 243.494 378.703 242.78 378.499 242.269Z" fill="#5EC5DD"/>
<path d="M368.801 227.774L357.572 250.231L381.56 255.335L353.693 252.579L368.801 227.774Z" fill="#5EC5DD"/>
<path d="M338.689 235.43L335.525 262.277L364.208 269.728L332.054 264.726L338.689 235.43Z" fill="#5EC5DD"/>
<path d="M312.76 253.498L312.352 278.915L326.643 281.059L309.392 281.365L312.76 253.498Z" fill="#5EC5DD"/>
<path d="M295.204 273.403L295.715 293.41L311.128 296.778L293.265 296.268L295.204 273.403Z" fill="#5EC5DD"/>
<path d="M366.454 279.834C309.903 264.114 260.396 340.774 256.108 347.715L270.501 354.044C286.732 340.468 310.924 327.606 335.627 321.277C370.537 312.499 392.279 289.429 366.454 279.834Z" fill="#7ADAEA"/>
<path d="M365.843 294.226C365.741 293.716 365.333 293.41 364.822 293.512C318.275 300.555 288.775 321.481 272.238 337.813C267.951 341.998 264.276 346.184 261.214 350.063L262.847 350.777C265.807 347.102 269.38 343.121 273.565 339.038C289.898 322.91 319.092 302.291 365.128 295.349C365.537 295.145 365.945 294.737 365.843 294.226Z" fill="#B4E9EF"/>
<path d="M359.921 281.773L348.896 297.493L364.208 305.864L345.426 298.412L359.921 281.773Z" fill="#B4E9EF"/>
<path d="M339.199 281.569L328.379 304.23L350.019 313.417L324.398 304.843L339.199 281.569Z" fill="#B4E9EF"/>
<path d="M314.19 292.593L306.841 313.315L325.725 321.175L304.901 314.846L314.19 292.593Z" fill="#B4E9EF"/>
<path d="M294.491 306.17L289.489 324.441L312.762 327.402L287.447 325.973L294.491 306.17Z" fill="#B4E9EF"/>
<path d="M260.7 348.022L261.721 348.634C261.925 348.328 278.155 320.257 313.065 298.616L312.453 297.595C277.338 319.44 260.904 347.715 260.7 348.022Z" fill="#007CB2"/>
<path d="M304.083 303.72C304.083 303.72 316.128 305.659 320.211 297.493C322.967 292.287 312.351 291.062 304.083 303.72Z" fill="#007CB2"/>
<path d="M300.101 306.272C300.101 306.272 305.613 317.092 314.596 315.663C320.517 314.744 315.209 305.557 300.101 306.272Z" fill="#007CB2"/>
<path d="M300.612 306.782C300.612 306.782 291.017 299.228 294.283 290.654C296.325 285.142 304.287 292.083 300.612 306.782Z" fill="#007CB2"/>
<path d="M287.445 316.888C287.445 316.888 293.978 327.096 302.858 324.85C308.575 323.319 302.45 314.642 287.445 316.888Z" fill="#007CB2"/>
<path d="M288.057 316.99C288.057 316.99 278.768 309.13 282.341 300.657C284.587 295.247 292.345 302.495 288.057 316.99Z" fill="#007CB2"/>
<path d="M277.441 326.993C277.441 326.993 283.668 337.405 292.651 335.364C298.265 334.139 292.446 325.258 277.441 326.993Z" fill="#007CB2"/>
<path d="M276.42 328.831C276.42 328.831 266.621 321.584 269.479 312.907C271.317 307.395 279.585 314.132 276.42 328.831Z" fill="#007CB2"/>
<path d="M269.581 336.589C269.581 336.589 276.828 346.388 285.505 343.326C291.119 341.386 284.382 333.22 269.581 336.589Z" fill="#007CB2"/>
<path d="M266.621 340.366C266.621 340.366 257.842 331.893 261.926 323.727C264.477 318.419 271.725 326.177 266.621 340.366Z" fill="#007CB2"/>
<mask id="mask0_1_872" style="mask-type:luminance" maskUnits="userSpaceOnUse" x="3" y="0" width="364" height="380">
<path d="M213.747 379.972C202.417 380.38 176.081 376.297 165.363 368.948C129.738 344.857 61.4484 367.927 42.6662 339.549C23.7819 311.274 45.2181 287.286 39.6039 258.909C33.9896 230.531 3.97894 225.019 3.36648 190.313C2.75402 155.504 22.1487 132.435 61.5504 115.899C110.65 95.2789 95.338 70.0659 121.266 38.2178C156.686 -5.36911 234.571 -9.96258 248.454 15.7609C258.968 35.2576 249.781 76.5988 277.035 73.0261C331.136 65.8807 355.328 104.364 331.749 143.766C307.658 184.086 331.238 210.014 345.019 227.265C384.625 276.874 364.005 306.17 324.297 311.172C284.691 316.174 284.589 340.57 270.911 355.371C251.312 376.706 228.549 379.462 213.747 379.972Z" fill="white"/>
</mask>
<g mask="url(#mask0_1_872)">
<path d="M194.961 128.148C194.961 128.148 196.901 128.964 199.044 130.291C201.188 131.618 185.162 148.359 185.162 148.359L185.877 134.068L194.961 128.148Z" fill="#10AF9C"/>
<path d="M194.044 115.592C194.044 115.592 195.371 125.8 194.861 132.639C194.759 134.273 187.103 136.62 186.49 137.539C182.509 143.868 174.956 140.193 174.956 140.193C174.956 140.193 171.281 170.816 173.22 179.391C175.16 187.965 191.492 182.351 200.373 172.551C209.356 162.854 254.78 141.826 254.78 141.826C254.78 141.826 240.693 129.169 238.754 117.532C236.202 102.016 236.61 89.0524 236.61 89.0524L225.28 87.1129L194.044 115.592Z" fill="#E4AD8F"/>
<path d="M194.146 116C194.146 116.103 194.146 116.103 194.146 116.205C194.146 116.307 194.146 116.307 194.146 116.409C194.146 116.511 194.146 116.613 194.146 116.715C194.146 116.817 194.146 116.817 194.146 116.919C194.146 117.123 194.146 117.225 194.248 117.43V117.532C194.35 118.144 194.35 118.961 194.452 119.777C194.452 119.879 194.452 119.879 194.452 119.981C194.452 120.288 194.452 120.492 194.554 120.798C194.554 120.9 194.554 121.002 194.554 121.104C194.554 121.411 194.554 121.615 194.656 121.921C194.656 122.023 194.656 122.125 194.656 122.227C194.656 122.533 194.656 122.84 194.758 123.146C194.758 123.248 194.758 123.248 194.758 123.35C194.86 124.371 194.86 125.392 194.963 126.412C194.963 126.514 194.963 126.616 194.963 126.719C194.963 127.025 194.963 127.229 194.963 127.535C194.963 127.739 194.963 127.841 194.963 128.046C194.963 128.352 194.963 128.556 194.963 128.862C194.963 128.964 194.963 128.964 194.963 129.066C203.435 135.293 217.624 129.27 223.646 121.206C228.546 115.286 234.671 103.955 236.712 96.1975C236.508 91.7061 236.61 88.8479 236.61 88.8479L225.279 86.9084L194.044 115.49C194.044 115.49 194.044 115.592 194.044 115.694C194.044 115.898 194.044 115.898 194.146 116Z" fill="#E09B77"/>
<path d="M186.798 79.5584C186.798 79.5584 184.144 71.6985 179.652 70.2694C175.161 68.8403 174.242 79.1501 175.263 84.0498C176.284 88.9495 178.325 92.3181 181.388 93.6451C184.348 94.9721 185.573 92.8284 185.573 92.8284L186.798 79.5584Z" fill="#E4AD8F"/>
<path d="M183.022 82.2129C183.022 82.2129 182.308 77.4153 180.47 74.6592C178.633 71.9031 176.898 72.1073 176.285 76.0883C175.673 79.9672 176.285 84.8669 178.531 87.1126C180.777 89.4604 182.614 89.4604 182.614 88.0313C182.716 86.6023 181.083 85.6836 180.777 84.3566C180.368 83.0296 181.695 81.7026 183.022 82.2129Z" fill="#E09B77"/>
<path d="M187.207 44.7505C187.207 44.7505 179.143 48.017 178.428 58.2247C177.816 68.4324 177.918 77.0069 178.122 82.0086C178.735 76.7006 180.47 74.7612 181.185 71.5968C182.001 68.4324 184.043 58.0205 183.328 52.9167C182.716 47.8128 187.207 44.7505 187.207 44.7505Z" fill="black"/>
<path d="M194.964 39.0338C194.964 39.0338 183.327 38.9317 179.653 52.8142C178.938 55.9786 180.469 62.3074 180.163 67.2071C179.857 71.2902 178.019 77.0065 178.019 81.4979C178.019 84.4581 177.509 90.0724 183.021 100.484C187.104 108.14 189.554 115.285 195.168 117.837C196.291 118.348 202.62 121.206 214.869 115.183C227.119 109.161 231.712 100.79 234.774 82.1104C237.837 63.3282 236.203 45.7709 230.385 42.1982C215.788 33.2154 194.964 39.0338 194.964 39.0338Z" fill="#E4AD8F"/>
<path d="M233.958 83.3357C235.795 83.744 234.775 82.2129 234.775 82.1108C235.591 76.9049 236.102 71.801 236.306 67.1055C231.406 83.8461 210.582 88.0313 194.863 82.6212C188.636 83.5399 182.409 88.0313 178.02 81.7025C178.02 84.6627 177.612 90.277 183.022 100.485C187.105 108.14 189.555 115.286 195.169 117.838C196.292 118.348 202.62 121.206 214.87 115.184C224.975 110.182 229.875 103.649 233.039 90.8894C231.61 91.604 232.019 93.6455 231.814 92.0123C231.1 86.5001 232.019 86.9084 233.958 83.3357Z" fill="#E59F80"/>
<path d="M233.345 78.2318C233.345 78.2318 238.653 71.903 243.349 72.2093C248.147 72.5155 245.186 82.417 242.43 86.6021C239.674 90.7873 236.51 93.2371 233.243 93.3392C229.977 93.4413 230.691 89.2561 230.691 89.2561L233.345 78.2318Z" fill="#E4AD8F"/>
<path d="M236 82.1109C236 82.1109 238.45 77.9257 241.104 75.9863C243.86 74.0468 245.391 74.9655 244.575 78.8444C243.758 82.7234 241.41 87.0106 238.552 88.3376C235.592 89.6646 233.959 89.0521 234.367 87.7251C234.775 86.3981 236.613 86.0919 237.327 84.9691C238.042 83.8462 237.327 82.1109 236 82.1109Z" fill="#E09B77"/>
<path d="M219.361 44.9548C219.361 44.9548 217.728 60.9809 224.771 66.9013C231.917 72.8218 228.038 84.7648 228.038 84.7648L231.815 85.1732C231.815 85.1732 235.387 72.1073 243.451 72.2094C247.841 53.9375 250.086 43.0153 244.88 38.3198C235.285 29.9494 227.936 35.972 225.588 40.2592C223.24 44.5465 219.361 44.9548 219.361 44.9548Z" fill="black"/>
<path d="M246.004 60.7769C248.454 49.2422 248.76 41.8927 244.779 38.422C235.184 30.0517 227.834 36.0743 225.486 40.3615C223.138 44.6487 219.362 45.0571 219.362 45.0571C219.362 45.0571 218.341 55.0606 221.403 62.206C229.161 65.1662 238.246 64.3496 246.004 60.7769Z" fill="black"/>
<path d="M221.608 44.7506C221.608 44.7506 209.46 46.9963 199.967 46.9963C190.474 46.9963 189.147 44.036 184.758 46.9963C180.368 49.9565 184.451 36.8906 188.126 31.4805C191.801 25.9684 225.589 31.7868 230.59 35.4615C235.694 39.1363 221.608 44.7506 221.608 44.7506Z" fill="black"/>
<path d="M217.218 20.6602C217.218 20.6602 223.955 18.9248 230.284 24.0287C236.613 29.1326 235.184 33.8281 234.877 34.8489C234.571 35.8696 229.263 35.6655 229.263 35.6655L217.218 20.6602Z" fill="black"/>
<path d="M203.744 19.3332C203.744 19.3332 205.48 14.7397 214.36 17.3937C215.891 17.9041 217.423 18.7207 218.75 19.7415C225.589 24.9475 230.693 35.4614 230.693 35.4614C230.182 36.7884 228.855 37.1967 228.855 37.1967C228.855 37.1967 219.158 36.4822 213.237 30.3575C207.317 24.2329 203.744 19.3332 203.744 19.3332Z" fill="black"/>
<path d="M187.615 23.1104C187.615 23.1104 188.534 15.6587 197.619 16.1691C206.704 16.7816 210.072 25.1519 218.136 31.5828C226.201 38.0136 228.752 37.197 228.752 37.197C226.813 43.1175 220.79 45.5673 216.911 45.5673C213.033 45.5673 204.152 43.6279 199.15 37.9115C194.25 32.1952 187.615 23.1104 187.615 23.1104Z" fill="black"/>
<path d="M216.912 45.567C216.912 45.567 209.971 45.1587 204.153 37.1967C198.334 29.2347 193.843 22.7017 187.718 22.3955C181.491 22.0893 177.715 34.951 178.633 38.3195C185.575 33.0115 189.045 38.5237 192.618 43.1172C196.191 47.6086 203.132 44.8525 207.317 46.6899C211.502 48.4252 216.912 45.567 216.912 45.567Z" fill="black"/>
<path d="M207.317 46.6903C207.317 46.6903 196.088 44.2405 191.188 33.4203C186.289 22.6001 169.242 38.1159 179.756 59.3479C179.45 49.0381 184.553 46.5883 189.964 48.1194C195.374 49.5485 197.823 52.2025 207.317 46.6903Z" fill="black"/>
<path d="M203.744 48.5274C203.744 48.5274 193.128 50.671 186.391 42.5048C179.756 34.3387 171.998 40.6674 175.775 52.7125C175.162 46.2817 175.673 42.0965 181.287 44.1381C186.901 46.1796 194.148 54.7541 203.744 48.5274Z" fill="black"/>
<path d="M216.504 45.7712C216.504 45.7712 208.031 46.4857 200.478 37.1967C192.924 27.9077 189.045 24.4371 184.145 26.8869C187.514 26.5807 190.985 27.3973 193.639 31.6846C196.293 35.8697 204.663 48.9356 216.504 45.7712Z" fill="black"/>
<path d="M228.344 38.3197C228.344 38.3197 224.975 42.607 216.503 36.8907C208.03 31.0723 206.397 25.9684 200.273 23.5186C203.743 26.1726 210.072 32.3993 212.42 35.6657C214.768 38.9322 221.198 41.9945 222.015 41.9945C215.482 41.6883 208.133 34.8491 203.335 29.2349C205.989 34.3387 213.951 41.3821 217.626 42.4028C213.849 42.7091 207.01 37.6052 205.683 35.5637C209.868 40.9737 215.074 44.9548 219.973 44.8527C224.771 44.7506 227.629 40.0551 228.344 38.3197Z" fill="black"/>
<path d="M230.59 35.2572C230.59 35.2572 229.977 34.8489 224.567 27.9076C219.055 21.0685 214.359 19.2311 214.359 19.2311C220.28 23.3142 223.342 27.4993 224.567 29.3367C225.792 31.1741 227.629 33.726 228.344 34.1343C224.261 32.6032 216.401 24.437 214.87 22.2934C217.115 27.2952 223.75 33.1136 226.404 34.4406C228.854 35.7676 230.59 35.2572 230.59 35.2572Z" fill="black"/>
<path d="M201.191 66.5952C201.191 66.5952 208.133 64.4515 212.011 64.2474C216.605 63.9411 220.79 67.6159 220.79 67.6159C218.034 66.9014 210.787 67.1055 207.52 67.9222C204.254 68.7388 203.539 69.7595 202.11 69.3512C200.681 68.9429 201.191 66.5952 201.191 66.5952Z" fill="black"/>
<path d="M190.064 66.5947C190.064 66.5947 184.041 64.2469 182.306 64.4511C179.244 64.8594 179.958 68.33 179.958 68.33C181.489 67.1051 182.408 67.003 184.96 67.8196C187.512 68.6362 188.124 69.657 189.247 69.2487C190.37 68.9424 190.064 66.5947 190.064 66.5947Z" fill="black"/>
<path d="M190.066 89.1536C190.066 89.1536 192.516 90.0723 196.191 89.664C199.865 89.2557 200.886 87.8266 202.213 88.2349C203.642 88.6433 203.03 90.0723 199.457 90.8889C195.884 91.7056 192.21 91.2973 190.781 90.4806C189.454 89.7661 189.658 88.9495 190.066 89.1536Z" fill="#E09B77"/>
<path d="M190.677 69.7594C190.677 69.7594 192.718 73.128 192.922 74.9653C193.127 76.8027 190.983 84.8668 190.37 86.5C189.758 88.1333 192.004 88.6437 192.616 87.2146C193.331 85.7855 194.352 76.2923 194.045 74.9653C193.739 73.6383 190.677 69.7594 190.677 69.7594Z" fill="#F4BEA4"/>
<path d="M204.253 73.9445C204.253 73.9445 205.478 74.2507 207.928 75.8839C210.378 77.5171 212.011 77.7213 214.359 77.1088C216.707 76.4964 219.259 73.9445 219.259 73.9445L216.298 73.0258L204.151 73.9445" fill="#E09B77"/>
<path d="M204.253 73.9446C204.253 73.9446 205.172 73.9446 208.438 72.7197C211.807 71.4947 213.542 72.1072 218.238 73.7404C214.665 75.3737 212.623 75.8841 209.663 75.2716C206.805 74.7612 204.253 73.9446 204.253 73.9446Z" fill="white"/>
<mask id="mask1_1_872" style="mask-type:luminance" maskUnits="userSpaceOnUse" x="204" y="72" width="15" height="4">
<path d="M204.254 73.9451C204.254 73.9451 205.173 73.9451 208.439 72.7202C211.808 71.4952 213.543 72.1077 218.239 73.7409C214.666 75.3742 212.726 75.8845 209.766 75.2721C206.806 74.7617 204.254 73.9451 204.254 73.9451Z" fill="white"/>
</mask>
<g mask="url(#mask1_1_872)">
<path d="M212.648 75.6829C214.001 75.673 215.089 74.5681 215.08 73.2151C215.07 71.8621 213.965 70.7733 212.612 70.7832C211.259 70.7931 210.17 71.898 210.18 73.251C210.19 74.604 211.295 75.6928 212.648 75.6829Z" fill="black"/>
<path d="M212.665 74.5545C213.397 74.5261 213.968 73.9094 213.939 73.1771C213.911 72.4448 213.294 71.8742 212.562 71.9026C211.83 71.931 211.259 72.5476 211.288 73.2799C211.316 74.0122 211.933 74.5829 212.665 74.5545Z" fill="#33130B"/>
<path d="M214.256 73.333C214.256 73.5372 214.052 73.6392 213.95 73.6392C213.746 73.6392 213.644 73.4351 213.644 73.333C213.644 73.1289 213.848 73.0268 213.95 73.0268C214.052 72.9247 214.256 73.1289 214.256 73.333Z" fill="white"/>
</g>
<path d="M204.457 73.7402C204.457 73.7402 205.784 73.3319 207.315 71.8007C209.255 70.0654 212.113 68.9425 215.379 70.7799C218.646 72.6173 218.544 73.6381 219.462 73.8422C217.727 73.7402 217.421 73.536 214.767 72.3111C212.113 71.0862 210.071 72.0049 208.03 72.8215C206.09 73.6381 204.457 73.7402 204.457 73.7402Z" fill="#F4BEA4"/>
<path d="M203.538 73.9443C203.538 73.9443 204.559 74.4547 208.336 73.0256C210.684 72.209 212.725 72.209 214.971 73.0256C217.114 73.8422 218.441 73.9443 219.462 73.9443C218.135 73.7402 217.012 72.7194 214.869 71.8007C212.623 70.882 209.765 71.6986 207.723 72.6173C205.682 73.4339 203.538 73.9443 203.538 73.9443Z" fill="black"/>
<path d="M188.942 73.0259L181.388 73.6383C181.388 73.6383 181.286 74.6591 183.021 75.9861C183.94 76.7007 185.879 77.4152 187.819 76.8027C189.758 76.1903 191.391 73.9446 191.391 73.9446L188.942 73.0259Z" fill="#E09B77"/>
<path d="M181.388 73.6384C181.388 73.6384 181.388 73.4342 182.715 72.8218C185.369 71.4948 186.798 72.3114 190.575 74.0467C187.716 75.6799 186.185 76.0883 183.838 75.4758C181.796 74.7613 181.388 73.6384 181.388 73.6384Z" fill="white"/>
<mask id="mask2_1_872" style="mask-type:luminance" maskUnits="userSpaceOnUse" x="179" y="72" width="12" height="4">
<path d="M179.347 73.945C179.347 73.945 180.061 73.945 182.715 72.72C185.369 71.4951 186.798 72.2097 190.575 73.945C187.717 75.5782 186.186 75.9865 183.838 75.3741C181.388 74.7616 179.347 73.945 179.347 73.945Z" fill="white"/>
</mask>
<g mask="url(#mask2_1_872)">
<path d="M188.534 73.2304C188.534 74.5574 187.513 75.6802 186.289 75.6802C185.064 75.6802 184.043 74.5574 184.043 73.2304C184.043 71.9034 185.064 70.7805 186.289 70.7805C187.513 70.7805 188.534 71.9034 188.534 73.2304Z" fill="black"/>
<path d="M187.514 73.2304C187.514 73.945 187.004 74.5574 186.289 74.5574C185.677 74.5574 185.064 73.945 185.064 73.2304C185.064 72.5159 185.575 71.9034 186.289 71.9034C187.004 71.9034 187.514 72.5159 187.514 73.2304Z" fill="#33130B"/>
<path d="M187.82 73.3324C187.82 73.5366 187.717 73.6386 187.513 73.6386C187.309 73.6386 187.207 73.4345 187.207 73.3324C187.207 73.1282 187.309 73.0262 187.513 73.0262C187.615 72.9241 187.82 73.1282 187.82 73.3324Z" fill="white"/>
</g>
<path d="M181.388 73.6387C181.388 73.6387 181.183 73.2303 182.408 71.5971C183.225 70.5763 185.777 69.1473 188.329 70.9847C190.983 72.822 191.289 73.7407 192.004 73.9449C190.779 74.2511 189.758 73.6387 187.614 72.4137C185.471 71.1888 183.837 72.1075 182.306 72.9241C180.775 73.6387 181.388 73.6387 181.388 73.6387Z" fill="#F4BEA4"/>
<path d="M181.388 73.6386C181.388 73.6386 181.49 73.6386 182.613 73.0261C184.552 72.2095 186.185 72.0054 187.921 72.822C189.656 73.6386 190.064 73.8427 191.187 73.8427C189.86 73.3324 189.452 73.0261 187.716 72.1074C185.981 71.1887 184.45 71.597 183.123 72.3116C181.592 73.2303 181.388 73.6386 181.388 73.6386Z" fill="black"/>
<path d="M189.554 99.3615C189.554 99.3615 190.881 102.016 192.514 102.73C194.045 103.547 197.414 103.751 201.293 103.547C205.172 103.343 208.642 100.178 208.948 99.7699C203.64 99.4636 199.966 98.5449 197.924 98.5449C195.883 98.5449 194.76 97.9325 193.331 98.0345C191.799 98.3408 189.554 99.3615 189.554 99.3615Z" fill="#D38462"/>
<path d="M189.044 99.1575C189.044 99.1575 192.719 96.2993 194.658 96.2993C196.292 97.4222 196.904 97.7284 196.904 97.7284L198.843 96.2993C198.843 96.2993 201.6 96.2993 206.295 98.9533C207.316 99.3616 209.766 99.6679 209.766 99.6679C209.766 99.6679 207.316 100.791 200.885 99.6679C197.516 99.1575 196.496 100.178 196.496 100.178C196.496 100.178 193.944 98.7492 192.208 99.3616C190.473 99.872 189.044 99.1575 189.044 99.1575Z" fill="#D38462"/>
<path d="M178.02 85.4794C178.02 85.4794 183.226 88.3376 187.207 84.8669C191.188 81.4984 196.802 80.2735 203.539 84.2545C211.705 88.95 228.752 80.3755 228.752 80.8859C226.404 92.6248 225.588 97.7286 229.773 96.912C231.712 103.037 224.771 112.428 212.726 117.43C200.681 122.431 193.331 118.859 189.044 113.959C184.655 109.161 178.326 92.8289 178.02 85.4794Z" fill="#29CABB"/>
<path d="M190.065 89.1538C190.065 89.1538 207.317 94.5639 218.851 89.7663C223.036 88.031 223.853 87.1123 223.853 87.1123C223.853 87.1123 214.258 97.2179 190.372 90.2767C190.065 89.1539 190.065 89.1538 190.065 89.1538Z" fill="#1BBFAB"/>
<path d="M190.065 98.0347C190.065 98.0347 213.441 100.587 222.321 92.2163C219.055 96.2994 208.133 101.097 190.065 99.5659C189.453 98.6472 190.065 98.0347 190.065 98.0347Z" fill="#1BBFAB"/>
<path d="M223.546 97.6261C223.546 97.6261 213.134 109.365 190.984 108.038C190.575 107.221 190.575 106.507 190.575 106.507C190.575 106.507 208.847 109.263 223.546 97.6261Z" fill="#1BBFAB"/>
<path d="M225.997 101.914C225.997 101.914 215.993 118.96 194.148 116.409C193.536 114.877 193.536 114.877 193.536 114.877C193.536 114.877 211.808 119.165 225.997 101.914Z" fill="#1BBFAB"/>
<path d="M229.773 96.9117C225.588 97.8304 226.405 92.6245 228.753 80.8856C228.753 80.6815 226.711 81.6002 223.751 82.723C220.586 90.4809 222.628 100.178 228.548 104.465C229.977 101.709 230.488 99.0554 229.773 96.9117Z" fill="#39D8C5"/>
<path d="M192.821 82.1106C190.677 82.5189 188.84 83.5397 187.207 84.9688C183.226 88.3373 178.02 85.5812 178.02 85.5812C178.326 92.9308 184.757 109.161 189.044 114.061C190.983 116.306 193.637 118.246 197.006 119.165C190.167 108.446 189.044 94.2578 192.821 82.1106Z" fill="#1BBFAB"/>
<path d="M228.752 80.8857C228.752 80.8857 236.408 75.1694 238.654 73.8424C236.408 76.2923 235.081 78.64 235.081 78.64L227.527 84.8667C227.527 84.8667 227.834 81.6003 228.752 80.8857Z" fill="#39D8C5"/>
<path d="M229.773 96.9118L231.304 92.4204C231.304 92.4204 231.712 92.8287 232.223 93.1349C232.631 93.3391 233.345 93.3391 233.345 93.3391C232.018 96.7077 229.569 102.22 229.569 102.22C229.569 102.22 228.854 99.3617 229.773 96.9118Z" fill="#39D8C5"/>
<path d="M104.116 204.807C104.116 204.807 99.1143 209.707 105.851 215.934C112.589 222.16 119.428 207.563 119.428 207.563C119.428 207.563 109.526 201.439 104.116 204.807Z" fill="#10AF9C"/>
<path d="M110.137 201.847C110.137 201.847 93.7023 218.69 92.7837 226.141C91.7629 233.593 90.538 235.328 91.2525 242.78C91.967 250.231 112.485 250.231 118.303 248.802C124.019 247.373 128.409 247.271 131.777 244.005C135.146 240.738 140.556 220.425 140.556 220.425L110.137 201.847Z" fill="#E09B77"/>
<path d="M164.035 141.928C164.035 141.928 150.56 150.605 140.761 163.16C130.962 175.716 110.444 196.233 104.115 204.807C118.1 203.991 141.884 222.875 146.886 235.737C158.114 214.403 164.035 141.928 164.035 141.928Z" fill="#1BBFAB"/>
<path d="M112.18 195.314C108.811 199.091 105.953 202.358 104.218 204.807C118.202 203.991 141.986 222.875 146.988 235.737C148.519 232.777 150.05 228.693 151.377 223.998C145.151 212.055 125.45 196.539 112.18 195.314Z" fill="#39D8C5"/>
<path d="M146.681 225.631C146.681 225.631 144.027 210.626 140.556 204.195C137.085 197.764 127.899 189.7 124.836 189.496C121.876 189.394 122.693 193.579 124.53 195.825C126.265 198.07 135.248 209.707 136.371 214.096C135.146 210.422 134.534 209.809 131.165 205.522C127.796 201.235 121.468 189.496 116.466 189.598C113.812 189.496 113.302 192.864 115.445 196.233C117.589 199.499 127.082 212.361 127.796 217.771C126.776 211.953 119.426 202.766 116.772 200.52C114.118 198.274 112.179 196.845 110.545 198.377C108.912 200.01 112.485 204.807 114.22 207.257C115.956 209.707 118.61 215.934 118.814 216.648C116.976 213.178 114.935 208.278 112.587 207.563C110.239 206.747 108.81 209.809 110.443 213.178C112.077 216.546 113.914 220.119 115.037 224.202C116.16 228.285 112.689 234.206 120.243 236.451C127.796 238.697 147.293 232.164 146.681 225.631Z" fill="#FFEAE1"/>
<path d="M194.964 128.148C194.964 128.148 173.528 133.762 164.035 141.928C154.542 150.094 139.434 192.456 144.946 213.892C152.398 242.78 133.718 337.712 120.346 367.314C182 415.495 217.829 400.387 243.043 393.038C268.256 385.79 278.872 370.07 278.872 370.07C278.872 370.07 263.764 309.539 267.643 276.568C271.522 243.597 279.994 190.313 278.872 169.081C277.749 147.849 266.01 138.253 266.01 138.253C266.01 138.253 247.126 124.983 240.389 120.9C221.913 130.189 213.542 135.089 207.111 144.786C200.681 154.484 187.921 162.139 187.921 162.139C186.594 146.317 188.227 132.537 194.964 128.148Z" fill="#29CABB"/>
<path d="M246.207 288.919C250.596 278.507 246.207 265.441 235.795 257.581C249.678 220.834 265.806 183.371 270.705 143.663C268.154 139.989 266.01 138.253 266.01 138.253C266.01 138.253 247.126 124.983 240.389 120.9C221.913 130.189 213.542 135.089 207.111 144.786C200.681 154.484 187.921 162.139 187.921 162.139C186.594 146.317 188.227 132.537 194.964 128.148C194.964 128.148 173.528 133.762 164.035 141.928C154.542 150.094 139.434 192.456 144.946 213.892C152.398 242.78 133.718 337.712 120.346 367.314C182 415.495 217.829 400.387 243.043 393.038C246.717 392.017 250.086 390.69 253.148 389.363C250.8 364.048 248.146 338.835 239.368 314.949C235.795 306.272 242.736 297.596 246.207 288.919Z" fill="#29CABB"/>
<path d="M235.794 143.663C235.794 143.663 217.931 165.099 213.848 172.244C209.765 179.39 198.026 211.646 195.576 236.961C196.188 240.126 192.718 236.961 192.718 236.961C192.718 236.961 198.74 192.354 214.256 167.447C220.381 159.893 235.794 143.663 235.794 143.663Z" fill="#1BBFAB"/>
<path d="M194.964 128.147C194.964 128.147 187.411 130.597 187.921 162.139C194.556 156.219 202.314 151.625 206.397 144.582C210.582 137.641 226.2 126.31 233.754 123.146C238.551 120.594 238.755 116.715 238.755 116.715C238.755 116.715 245.288 122.942 246.105 124.677C243.247 132.231 233.652 133.251 223.138 143.663C212.624 154.075 203.131 164.385 198.537 167.549C193.944 170.714 185.573 180.819 185.573 180.819C185.573 180.819 181.898 166.528 181.592 152.238C181.286 137.845 185.777 131.006 185.777 131.006C185.777 131.006 190.983 127.025 194.964 128.147Z" fill="#39D8C5"/>
<path d="M193.637 126.82C189.248 129.168 183.021 134.578 178.122 144.684C173.426 154.381 171.793 164.078 171.793 164.487L173.835 164.793C173.835 164.691 175.468 154.993 180.061 145.5C184.859 135.497 190.983 130.291 195.067 128.351V126.82H193.637Z" fill="#1BBFAB"/>
<path d="M184.859 184.596C184.144 171.734 176.591 164.793 171.487 164.793C169.037 164.793 166.281 166.12 164.137 168.366C161.381 171.224 158.319 176.838 158.829 187.352C159.544 201.847 164.443 212.871 169.037 216.036C163.525 217.669 159.544 215.831 159.34 215.729L158.421 217.567C158.625 217.669 160.871 218.69 164.443 218.69C166.587 218.69 169.037 218.281 171.793 217.056C175.978 218.077 181.797 218.179 182.103 218.179V216.138C182.001 216.138 178.122 216.138 174.447 215.525C181.797 210.421 185.573 195.926 184.859 184.596ZM171.895 215.015C171.793 215.015 171.691 215.117 171.589 215.117C171.385 215.015 171.181 215.015 171.078 214.913C168.016 213.79 161.789 204.297 160.871 187.352C160.36 177.552 163.219 172.449 165.668 169.897C167.812 167.651 170.058 166.936 171.487 166.936C174.957 166.936 182.103 172.347 182.817 184.8C183.634 197.764 178.632 211.646 171.895 215.015Z" fill="#1BBFAB"/>
<path d="M194.045 238.084C194.045 238.084 171.486 222.466 163.422 197.866C155.358 173.163 150.356 189.189 156.277 200.316C162.299 211.442 180.98 230.837 194.045 238.084Z" fill="#1BBFAB"/>
<path d="M200.17 254.111C181.898 256.152 163.524 256.56 145.661 253.396C143.619 275.138 139.128 300.964 133.922 323.217C139.536 316.48 145.457 310.968 154.133 308.109C171.588 301.168 189.86 309.028 207.213 303.72C215.073 301.066 220.279 295.86 227.22 291.573C232.222 288.715 265.499 285.448 235.897 257.581C237.53 253.294 239.164 249.007 240.797 244.719C226.404 247.373 213.644 252.375 200.17 254.111Z" fill="#1BBFAB"/>
<path d="M267.643 276.568C271.522 243.495 279.994 190.313 278.871 169.081C278.259 156.933 274.176 148.665 270.705 143.765C265.908 183.473 249.677 220.936 235.795 257.683C246.207 265.543 250.596 278.609 246.207 289.021C242.736 297.698 235.795 306.476 239.266 315.153C248.146 339.039 250.698 364.252 253.046 389.567C271.012 381.707 278.769 370.275 278.769 370.275C278.769 370.275 263.662 309.641 267.643 276.568Z" fill="#39D8C5"/>
<path d="M241.918 257.173C241.918 257.173 244.572 259.418 248.655 264.828C252.738 270.238 246.307 271.565 243.041 269.932C239.774 268.299 234.568 263.808 234.568 263.808L241.918 257.173Z" fill="#FFEAE1"/>
<path d="M234.466 262.379C234.466 262.379 245.899 268.503 248.655 271.974C251.411 275.547 249.471 279.528 244.776 279.119C240.08 278.711 228.035 269.83 228.035 269.83L234.466 262.379Z" fill="#FFEAE1"/>
<path d="M229.567 267.38C229.567 267.38 236.61 273.301 238.55 277.282C240.387 281.263 233.038 282.692 228.138 279.221C223.238 275.853 219.972 270.749 219.972 270.749L229.567 267.38Z" fill="#FFEAE1"/>
<path d="M212.521 237.676C212.521 237.676 193.739 228.693 179.244 225.631C164.647 222.569 145.661 225.835 133.718 221.344C121.775 216.852 113.404 211.442 102.89 215.015C92.4784 218.588 92.2743 229.204 90.2327 234.41C88.1912 239.616 86.9663 248.088 91.2535 250.232C95.6428 252.477 108.096 259.521 114.629 261.052C125.96 263.502 144.64 262.379 159.441 256.969C174.14 251.559 197.72 242.576 205.784 243.29C213.644 244.107 212.521 237.676 212.521 237.676Z" fill="#E59F80"/>
<path d="M199.251 237.574C200.578 236.961 201.293 234.409 200.272 232.47C193.943 229.918 186.084 227.162 179.142 225.733C164.545 222.67 145.559 225.937 133.616 221.446C121.673 216.954 113.303 211.544 102.789 215.117C92.3768 218.689 92.1726 229.305 90.1311 234.511C88.0895 239.717 91.7643 244.311 96.1536 246.556C100.543 248.802 108.505 251.456 115.038 252.885C126.368 255.335 141.374 255.743 156.175 250.333C159.85 249.006 164.239 247.883 168.935 246.863C179.142 243.8 191.698 245.944 199.251 237.574Z" fill="#E4AD8F"/>
<path d="M183.531 227.06C178.529 226.141 173.629 230.428 172.609 236.553C171.996 240.024 172.711 243.29 174.446 245.74C179.448 244.923 184.756 244.719 189.451 243.392C189.962 242.269 190.37 241.044 190.676 239.82C191.697 233.593 188.533 227.877 183.531 227.06Z" fill="#E59F80"/>
<path d="M214.665 220.425C214.154 220.833 207.621 239.309 205.682 243.392C190.779 243.188 184.042 246.046 172.813 250.334C161.585 254.621 145.354 261.562 133.615 262.073C147.804 277.792 166.28 286.877 184.042 287.592C201.803 288.306 211.092 287.081 214.665 289.123C218.237 291.165 225.893 286.163 230.691 278.711C235.59 271.259 253.862 249.415 257.435 234.103C260.906 218.69 214.665 220.425 214.665 220.425Z" fill="#E09B77"/>
<path d="M217.216 221.956C217.216 221.956 209.152 226.958 208.132 230.429C207.111 233.899 208.336 239.718 218.543 243.188C228.751 246.659 239.265 251.457 242.225 256.05C245.186 260.541 256.822 262.277 260.803 253.192C264.784 244.107 259.885 235.022 251.923 229.816C243.859 224.61 217.216 221.956 217.216 221.956Z" fill="#10AF9C"/>
<path d="M214.665 220.425C214.155 220.833 207.622 239.309 205.682 243.392C190.779 243.188 183.94 252.171 172.711 256.458C167.608 258.398 161.381 259.623 155.052 260.439C146.682 261.562 144.13 272.484 151.377 276.976C161.789 283.407 173.018 287.081 184.042 287.592C201.803 288.306 211.092 287.081 214.665 289.123C218.238 291.165 225.894 286.163 230.691 278.711C235.591 271.259 253.863 249.415 257.435 234.103C260.906 218.69 214.665 220.425 214.665 220.425Z" fill="#E4AD8F"/>
<path d="M214.665 220.425C214.359 220.629 211.807 227.571 209.459 233.797C219.565 229.51 231.916 233.899 236.714 242.78C240.286 249.415 241.205 256.969 240.695 264.727C247.432 255.234 255.19 243.393 257.333 234.001C260.906 218.69 214.665 220.425 214.665 220.425Z" fill="#E59F80"/>
<path d="M219.156 249.722C219.156 249.722 213.542 244.414 204.865 243.393C206.601 241.045 215.788 242.372 219.156 249.722Z" fill="#E59F80"/>
<path d="M208.132 230.429C208.132 230.429 222.014 175.409 230.18 158.362C238.346 141.315 252.535 137.13 261.314 138.457C269.99 139.886 277.034 148.257 280.913 162.854C284.792 177.451 269.072 239.207 260.906 253.192C259.374 239.003 244.471 229.51 231.916 227.264C219.156 225.019 208.132 230.429 208.132 230.429Z" fill="#29CABB"/>
<path d="M235.08 214.811C222.525 212.565 211.398 217.975 211.398 217.975C211.398 217.975 211.806 216.444 212.521 213.688C209.867 223.487 208.132 230.429 208.132 230.429C208.132 230.429 219.258 225.019 231.814 227.264C244.369 229.51 259.272 239.003 260.803 253.192C262.539 250.232 264.58 245.026 266.826 238.595C263.662 225.835 247.023 216.852 235.08 214.811Z" fill="#39D8C5"/>
<path d="M261.213 138.56C261.213 138.56 239.776 139.989 229.058 160.813C218.34 181.636 217.217 196.642 217.217 196.642C217.217 196.642 214.053 139.887 261.213 138.56Z" fill="#1BBFAB"/>
<path d="M208.133 230.429C208.133 230.429 224.057 184.698 245.697 177.043C239.879 176.43 210.276 182.555 208.133 230.429Z" fill="#1BBFAB"/>
<path d="M188.861 238.258C189.933 232.15 186.75 226.488 181.753 225.611C176.756 224.734 171.836 228.975 170.765 235.083C169.693 241.19 172.875 246.852 177.872 247.729C182.87 248.606 187.789 244.365 188.861 238.258Z" fill="#E2E2E2"/>
<path d="M188.191 238.191C189.263 232.084 186.08 226.422 181.083 225.545C176.086 224.668 171.166 228.909 170.095 235.016C169.023 241.124 172.205 246.786 177.203 247.663C182.2 248.539 187.119 244.299 188.191 238.191Z" fill="#EFEFEF"/>
<path d="M245.391 118.654C243.451 115.388 240.083 113.959 238.245 113.346L238.552 115.592C240.185 116.205 242.328 117.43 243.553 119.675C245.084 122.329 245.187 125.698 243.655 129.883C241.41 136.314 233.856 144.276 225.077 153.565C215.278 163.875 203.131 176.838 194.454 191.844C178.224 220.119 178.224 232.47 178.326 232.981H180.368C180.368 232.879 180.368 220.527 196.292 192.967C204.866 178.165 216.401 165.916 226.609 155.096C235.489 145.705 243.247 137.539 245.595 130.7C247.33 125.8 247.228 121.717 245.391 118.654Z" fill="#282828"/>
<path d="M180.675 230.327H180.573H180.471C180.369 230.327 180.267 230.327 180.267 230.327L175.776 229.715L173.632 241.249L178.532 241.862C180.777 242.27 183.125 240.025 183.636 236.86C184.044 233.696 182.717 230.94 180.675 230.327Z" fill="#E2E2E2"/>
<path d="M178.531 236.145C178.021 239.31 175.673 241.556 173.427 241.147C171.181 240.739 169.752 237.881 170.365 234.614C170.875 231.45 173.223 229.204 175.469 229.613C177.714 230.021 179.143 232.879 178.531 236.145Z" fill="white"/>
<path d="M174.55 143.255C169.854 152.953 168.221 162.65 168.221 163.058L170.262 163.365C170.262 163.262 171.896 153.565 176.489 144.072C182.716 131.21 191.801 128.76 195.067 128.352V126.311C191.494 126.821 181.287 129.271 174.55 143.255Z" fill="#282828"/>
<path d="M162.197 216.24C158.625 216.24 156.379 215.118 156.175 215.118L157.093 213.28C157.298 213.382 161.381 215.22 166.791 213.586C162.197 210.422 157.298 199.398 156.583 184.903C156.073 174.389 159.135 168.775 161.891 165.916C164.035 163.671 166.791 162.242 169.241 162.344C174.344 162.344 181.898 169.285 182.613 182.147C183.225 193.477 179.448 207.87 172.303 213.28C175.876 213.791 179.857 213.893 179.959 213.893V215.934C179.652 215.934 173.834 215.934 169.649 214.811C166.791 215.832 164.341 216.24 162.197 216.24ZM169.241 164.283C167.812 164.283 165.464 165.1 163.422 167.243C160.972 169.795 158.114 174.899 158.625 184.699C159.543 201.746 165.77 211.239 168.832 212.259C169.036 212.362 169.241 212.362 169.343 212.464C169.445 212.464 169.547 212.362 169.649 212.362C176.284 208.993 181.286 195.111 180.571 182.147C179.857 169.693 172.711 164.283 169.241 164.283Z" fill="#EFEFEF"/>
<path d="M163.423 167.243C165.566 164.998 167.812 164.283 169.241 164.283C172.712 164.283 179.653 169.591 180.572 181.534H182.613C181.695 168.979 174.345 162.242 169.241 162.242C166.791 162.242 164.035 163.569 161.892 165.814C159.442 168.366 156.686 173.062 156.482 181.534H158.523C158.727 173.776 161.177 169.489 163.423 167.243Z" fill="#282828"/>
<path d="M158.114 216.649L155.358 215.628C154.643 215.322 154.235 214.505 154.541 213.791L154.745 213.178C155.052 212.463 155.868 212.055 156.583 212.361L159.339 213.382C160.053 213.688 160.462 214.505 160.156 215.22L159.951 215.832C159.645 216.547 158.829 216.853 158.114 216.649Z" fill="white"/>
<path d="M181.49 216.547H178.631C177.815 216.547 177.202 215.934 177.202 215.118V214.505C177.202 213.689 177.815 213.076 178.631 213.076H181.49C182.306 213.076 182.919 213.689 182.919 214.505V215.118C182.919 215.934 182.306 216.547 181.49 216.547Z" fill="white"/>
</g>
<defs>
<linearGradient id="paint0_linear_1_872" x1="184.845" y1="15.7687" x2="184.845" y2="380" gradientUnits="userSpaceOnUse">
<stop stop-color="#354449"/>
<stop offset="1" stop-color="#000A0F"/>
</linearGradient>
</defs>
</svg>
