<svg width="73" height="62" viewBox="0 0 73 62" fill="none" xmlns="http://www.w3.org/2000/svg">
<path opacity="0.2" d="M54.0121 60.6639L53.6587 60.4014L48.7153 56.7292L48.2607 56.3915L48.6522 55.9822C54.5475 49.8186 57.4907 44.3912 57.6581 39.6872C57.5788 38.4395 57.0804 37.3817 56.1458 36.493C55.1944 35.5884 53.7736 34.8438 51.8416 34.2856C51.8413 34.2855 51.841 34.2854 51.8407 34.2853L54.0121 60.6639ZM54.0121 60.6639L54.3173 60.3466C64.2633 50.0026 70.1687 38.6506 71.9996 26.2937C72.3327 24.3125 72.5 22.4094 72.5 20.5851C72.5 15.7113 71.583 11.6779 69.7114 8.51801C67.8363 5.3523 65.0242 3.0995 61.3048 1.75751C59.2653 0.917518 57.0614 0.5 54.6983 0.5C51.3217 0.5 48.3813 1.29537 45.8989 2.9063C43.419 4.51558 41.4281 6.91796 39.9139 10.0824L54.0121 60.6639ZM16.3796 60.6639L16.0262 60.4014L11.0828 56.7292L10.6282 56.3915L11.0197 55.9822C16.915 49.8186 19.8581 44.3912 20.0256 39.6872C19.9463 38.4395 19.4479 37.3817 18.5132 36.493C17.5618 35.5884 16.1411 34.8438 14.2091 34.2856C14.2088 34.2855 14.2085 34.2854 14.2082 34.2853L16.3796 60.6639ZM16.3796 60.6639L16.6847 60.3466C26.6307 50.0027 32.5362 38.6507 34.367 26.2939C34.7002 24.3126 34.8675 22.4094 34.8675 20.5851C34.8675 15.7113 33.9505 11.6779 32.0788 8.51801C30.2038 5.35231 27.3917 3.09951 23.6723 1.75752C21.6328 0.917522 19.4289 0.5 17.0658 0.5C13.6892 0.5 10.7488 1.29537 8.2664 2.9063C5.78652 4.51558 3.79559 6.91795 2.2814 10.0824L16.3796 60.6639Z" stroke="#233237"/>
</svg>
