<svg width="34" height="34" viewBox="0 0 34 34" fill="none" xmlns="http://www.w3.org/2000/svg">
<path d="M16.9103 33.1174C26.0554 33.1174 33.4689 25.7038 33.4689 16.5587C33.4689 7.41358 26.0554 0 16.9103 0C7.76514 0 0.351562 7.41358 0.351562 16.5587C0.351562 25.7038 7.76514 33.1174 16.9103 33.1174Z" fill="#233237"/>
<path d="M25.7743 14.2275C25.7743 13.1724 25.3552 12.1605 24.6091 11.4144C23.8631 10.6684 22.8512 10.2493 21.7961 10.2493H11.6307C10.5756 10.2493 9.56367 10.6684 8.81761 11.4144C8.07155 12.1605 7.65247 13.1724 7.65247 14.2275V18.9077C7.65247 19.9628 8.07155 20.9747 8.81761 21.7207C9.56367 22.4668 10.5756 22.8859 11.6307 22.8859H21.7961C22.8512 22.8859 23.8631 22.4668 24.6091 21.7207C25.3552 20.9747 25.7743 19.9628 25.7743 18.9077V14.2275ZM19.793 16.942L15.2344 19.1979C15.0566 19.3008 14.4481 19.1979 14.4481 18.9639V14.3304C14.4481 14.1245 15.066 13.9934 15.2438 14.0964L19.6058 16.474C19.793 16.5489 19.9802 16.811 19.793 16.9139V16.942Z" fill="white"/>
</svg>
